<svg width="40" height="40" viewBox="0 0 40 40" fill="none" xmlns="http://www.w3.org/2000/svg">
<rect width="40" height="40" rx="20" fill="#FF3A4A"/>
<path fill-rule="evenodd" clip-rule="evenodd" d="M12.75 12.3279C12.75 11.0422 13.7922 10 15.0779 10H17.9103H22.0898H24.9221C26.2078 10 27.25 11.0422 27.25 12.3279V27.6721C27.25 28.9578 26.2078 30 24.9221 30H15.0779C13.7922 30 12.75 28.9578 12.75 27.6721V12.3279ZM15.0779 11.5H16.4103C16.4103 12.3284 17.0819 13 17.9103 13H22.0898C22.9182 13 23.5898 12.3284 23.5898 11.5H24.9221C25.3793 11.5 25.75 11.8707 25.75 12.3279V27.6721C25.75 28.1293 25.3793 28.5 24.9221 28.5H15.0779C14.6207 28.5 14.25 28.1293 14.25 27.6721V12.3279C14.25 11.8707 14.6207 11.5 15.0779 11.5ZM20 25.5C19.4477 25.5 19 25.9477 19 26.5C19 27.0523 19.4477 27.5 20 27.5C20.5523 27.5 21 27.0523 21 26.5C21 25.9477 20.5523 25.5 20 25.5Z" fill="white"/>
</svg>
