<svg width="120" height="100" viewBox="0 0 120 100" fill="none" xmlns="http://www.w3.org/2000/svg">
<path d="M0 10C0 4.47716 4.47715 0 10 0H110C115.523 0 120 4.47715 120 10V90C120 95.5228 115.523 100 110 100H10C4.47715 100 0 95.5229 0 90V10Z" fill="#595959"/>
<path d="M33.4713 34.712C33.4713 34.3067 33.5939 33.9813 33.8393 33.736C34.0846 33.4907 34.4099 33.368 34.8153 33.368C35.2206 33.368 35.5459 33.4907 35.7913 33.736C36.0473 33.9813 36.1753 34.3067 36.1753 34.712V44.072C36.1753 44.4773 36.0473 44.8027 35.7913 45.048C35.5459 45.2933 35.2206 45.416 34.8153 45.416C34.4099 45.416 34.0846 45.2933 33.8393 45.048C33.5939 44.8027 33.4713 44.4773 33.4713 44.072V34.712ZM47.4494 34.712C47.6094 34.2 47.8494 33.848 48.1694 33.656C48.5 33.464 48.9214 33.368 49.4334 33.368C50.0307 33.368 50.484 33.512 50.7934 33.8C51.1027 34.088 51.2574 34.536 51.2574 35.144V44.136C51.2574 44.5093 51.1507 44.8133 50.9374 45.048C50.724 45.2933 50.4307 45.416 50.0574 45.416C49.684 45.416 49.3907 45.2933 49.1774 45.048C48.964 44.8133 48.8574 44.5093 48.8574 44.136V37.32H48.8254L46.3774 44.472C46.292 44.7493 46.1374 44.9627 45.9134 45.112C45.6894 45.2613 45.4227 45.336 45.1134 45.336C44.804 45.336 44.5374 45.2613 44.3134 45.112C44.0894 44.9627 43.9347 44.7493 43.8494 44.472L41.4014 37.32H41.3694V44.136C41.3694 44.5093 41.2627 44.8133 41.0494 45.048C40.836 45.2933 40.5427 45.416 40.1694 45.416C39.796 45.416 39.5027 45.2933 39.2894 45.048C39.076 44.8133 38.9694 44.5093 38.9694 44.136V35.144C38.9694 34.536 39.124 34.088 39.4334 33.8C39.7427 33.512 40.196 33.368 40.7934 33.368C41.3054 33.368 41.7214 33.464 42.0414 33.656C42.372 33.848 42.6174 34.2 42.7774 34.712L45.0974 42.056H45.1294L47.4494 34.712ZM58.753 33.368C59.1583 33.368 59.4943 33.464 59.761 33.656C60.0277 33.8373 60.2303 34.0933 60.369 34.424L64.209 43.736C64.3583 44.088 64.3583 44.4187 64.209 44.728C64.0597 45.0267 63.7983 45.2347 63.425 45.352C63.0623 45.4693 62.7263 45.4427 62.417 45.272C62.1183 45.1013 61.8943 44.8293 61.745 44.456L61.025 42.568H56.465L55.761 44.456C55.6117 44.8293 55.3823 45.1013 55.073 45.272C54.7743 45.4427 54.4383 45.4693 54.065 45.352C53.6917 45.2347 53.4303 45.0267 53.281 44.728C53.1423 44.4187 53.1477 44.088 53.297 43.736L57.137 34.424C57.2757 34.0933 57.4783 33.8373 57.745 33.656C58.0117 33.464 58.3477 33.368 58.753 33.368ZM57.313 40.328H60.193L58.785 36.6H58.721L57.313 40.328ZM72.8308 40.744C72.4254 40.744 72.0894 40.6693 71.8228 40.52C71.5668 40.36 71.4388 40.0773 71.4388 39.672C71.4388 39.2667 71.5668 38.9893 71.8228 38.84C72.0894 38.68 72.4254 38.6 72.8308 38.6H75.1028C75.6254 38.6 76.0041 38.7227 76.2388 38.968C76.4841 39.2027 76.6068 39.5813 76.6068 40.104V41.72C76.6068 42.1787 76.5428 42.6213 76.4148 43.048C76.2868 43.464 76.0948 43.8 75.8388 44.056C75.2734 44.6213 74.6228 45.0107 73.8868 45.224C73.1614 45.448 72.3294 45.56 71.3908 45.56C70.4948 45.56 69.6841 45.4053 68.9588 45.096C68.2334 44.7973 67.6148 44.376 67.1028 43.832C66.5908 43.2773 66.1961 42.6213 65.9188 41.864C65.6521 41.1067 65.5188 40.28 65.5188 39.384C65.5188 38.488 65.6521 37.6613 65.9188 36.904C66.1961 36.1467 66.5908 35.496 67.1028 34.952C67.6148 34.408 68.2334 33.9867 68.9588 33.688C69.6841 33.3787 70.4948 33.224 71.3908 33.224C71.9668 33.224 72.4841 33.2773 72.9427 33.384C73.4121 33.4907 73.8228 33.6347 74.1748 33.816C74.5374 33.9973 74.8521 34.2107 75.1188 34.456C75.3961 34.7013 75.6361 34.9627 75.8388 35.24C76.0414 35.5173 76.1428 35.8267 76.1428 36.168C76.1428 36.4987 76.0041 36.7707 75.7268 36.984C75.5668 37.1013 75.4014 37.1813 75.2308 37.224C75.0601 37.256 74.8894 37.256 74.7188 37.224C74.5588 37.1813 74.3988 37.112 74.2388 37.016C74.0894 36.92 73.9614 36.7973 73.8548 36.648C73.5774 36.2747 73.2414 35.992 72.8468 35.8C72.4521 35.5973 71.9668 35.496 71.3908 35.496C70.9641 35.496 70.5588 35.5813 70.1748 35.752C69.7908 35.912 69.4494 36.1573 69.1508 36.488C68.8628 36.808 68.6281 37.2133 68.4468 37.704C68.2761 38.184 68.1908 38.744 68.1908 39.384C68.1908 40.024 68.2868 40.5893 68.4788 41.08C68.6708 41.56 68.9214 41.9653 69.2308 42.296C69.5508 42.6267 69.9081 42.8773 70.3028 43.048C70.7081 43.208 71.1241 43.288 71.5508 43.288C72.0094 43.288 72.4628 43.24 72.9108 43.144C73.3588 43.048 73.7481 42.8613 74.0788 42.584C74.1641 42.52 74.2228 42.44 74.2548 42.344C74.2868 42.2373 74.3028 42.1413 74.3028 42.056V40.744H72.8308ZM80.0218 45.32C78.9764 45.32 78.4538 44.792 78.4538 43.736V35.048C78.4538 33.992 78.9764 33.464 80.0218 33.464H85.6218C86.0271 33.464 86.3524 33.544 86.5978 33.704C86.8538 33.8533 86.9818 34.1307 86.9818 34.536C86.9818 34.9413 86.8538 35.224 86.5978 35.384C86.3524 35.5333 86.0271 35.608 85.6218 35.608H81.1578V38.168H85.3338C85.7071 38.168 86.0111 38.2533 86.2458 38.424C86.4911 38.5947 86.6138 38.8667 86.6138 39.24C86.6138 39.6133 86.4911 39.8853 86.2458 40.056C86.0111 40.2267 85.7071 40.312 85.3338 40.312H81.1578V43.176H85.8138C86.2191 43.176 86.5444 43.2507 86.7898 43.4C87.0458 43.5493 87.1738 43.8267 87.1738 44.232C87.1738 44.6373 87.0458 44.92 86.7898 45.08C86.5444 45.24 86.2191 45.32 85.8138 45.32H80.0218ZM42.4718 53.368C42.8771 53.368 43.2131 53.464 43.4798 53.656C43.7464 53.8373 43.9491 54.0933 44.0878 54.424L47.9278 63.736C48.0771 64.088 48.0771 64.4187 47.9278 64.728C47.7784 65.0267 47.5171 65.2347 47.1438 65.352C46.7811 65.4693 46.4451 65.4427 46.1358 65.272C45.8371 65.1013 45.6131 64.8293 45.4638 64.456L44.7438 62.568H40.1838L39.4798 64.456C39.3304 64.8293 39.1011 65.1013 38.7918 65.272C38.4931 65.4427 38.1571 65.4693 37.7838 65.352C37.4104 65.2347 37.1491 65.0267 36.9998 64.728C36.8611 64.4187 36.8664 64.088 37.0158 63.736L40.8558 54.424C40.9944 54.0933 41.1971 53.8373 41.4638 53.656C41.7304 53.464 42.0664 53.368 42.4718 53.368ZM41.0318 60.328H43.9118L42.5038 56.6H42.4398L41.0318 60.328ZM59.6018 57.144C59.6018 57.88 59.4471 58.52 59.1378 59.064C58.8391 59.608 58.4124 60.0347 57.8578 60.344L59.5538 63.688C59.7031 63.976 59.7511 64.28 59.6978 64.6C59.6551 64.92 59.4631 65.1707 59.1218 65.352C58.9511 65.4373 58.7751 65.4853 58.5938 65.496C58.4231 65.5067 58.2578 65.4853 58.0978 65.432C57.9484 65.3893 57.8098 65.3093 57.6818 65.192C57.5538 65.0853 57.4524 64.9573 57.3778 64.808L55.2338 60.872H52.6578V64.072C52.6578 64.4773 52.5298 64.8027 52.2738 65.048C52.0284 65.2933 51.7031 65.416 51.2978 65.416C50.8924 65.416 50.5671 65.2933 50.3218 65.048C50.0764 64.8027 49.9538 64.4773 49.9538 64.072V55.048C49.9538 53.992 50.4764 53.464 51.5218 53.464H55.5538C56.1618 53.464 56.7164 53.5493 57.2178 53.72C57.7191 53.8907 58.1458 54.136 58.4978 54.456C58.8498 54.7653 59.1218 55.1493 59.3138 55.608C59.5058 56.056 59.6018 56.568 59.6018 57.144ZM52.6578 58.744H54.9618C55.5698 58.744 56.0551 58.6213 56.4178 58.376C56.7804 58.1307 56.9618 57.72 56.9618 57.144C56.9618 56.568 56.7804 56.168 56.4178 55.944C56.0658 55.7093 55.5804 55.592 54.9618 55.592H52.6578V58.744ZM63.4593 65.32C62.4139 65.32 61.8913 64.792 61.8913 63.736V55.048C61.8913 53.992 62.4139 53.464 63.4593 53.464H69.0593C69.4646 53.464 69.7899 53.544 70.0353 53.704C70.2913 53.8533 70.4193 54.1307 70.4193 54.536C70.4193 54.9413 70.2913 55.224 70.0353 55.384C69.7899 55.5333 69.4646 55.608 69.0593 55.608H64.5953V58.168H68.7713C69.1446 58.168 69.4486 58.2533 69.6833 58.424C69.9286 58.5947 70.0513 58.8667 70.0513 59.24C70.0513 59.6133 69.9286 59.8853 69.6833 60.056C69.4486 60.2267 69.1446 60.312 68.7713 60.312H64.5953V63.176H69.2513C69.6566 63.176 69.9819 63.2507 70.2273 63.4C70.4833 63.5493 70.6113 63.8267 70.6113 64.232C70.6113 64.6373 70.4833 64.92 70.2273 65.08C69.9819 65.24 69.6566 65.32 69.2513 65.32H63.4593ZM77.5343 53.368C77.9396 53.368 78.2756 53.464 78.5423 53.656C78.8089 53.8373 79.0116 54.0933 79.1503 54.424L82.9903 63.736C83.1396 64.088 83.1396 64.4187 82.9903 64.728C82.8409 65.0267 82.5796 65.2347 82.2063 65.352C81.8436 65.4693 81.5076 65.4427 81.1983 65.272C80.8996 65.1013 80.6756 64.8293 80.5263 64.456L79.8063 62.568H75.2463L74.5423 64.456C74.3929 64.8293 74.1636 65.1013 73.8543 65.272C73.5556 65.4427 73.2196 65.4693 72.8463 65.352C72.4729 65.2347 72.2116 65.0267 72.0623 64.728C71.9236 64.4187 71.9289 64.088 72.0783 63.736L75.9183 54.424C76.0569 54.0933 76.2596 53.8373 76.5263 53.656C76.7929 53.464 77.1289 53.368 77.5343 53.368ZM76.0943 60.328H78.9743L77.5663 56.6H77.5023L76.0943 60.328Z" fill="white"/>
</svg>
