<svg width="335" height="100" viewBox="0 0 335 100" fill="none" xmlns="http://www.w3.org/2000/svg">
<g id="img_rolling_b ">
<path id="&#236;&#130;&#172;&#234;&#176;&#129;&#237;&#152;&#149; 8086" fill-rule="evenodd" clip-rule="evenodd" d="M0 20C0 8.9543 8.95431 0 20 0H315C326.046 0 335 8.95431 335 20V80C335 91.0457 326.046 100 315 100H20C8.95431 100 0 91.0457 0 80V20Z" fill="#888888"/>
<g id="txt">
<g id="Frame 48100194">
<path id="&#237;&#139;&#176;&#235;&#168;&#184;&#235;&#139;&#136;GO &#235;&#167;&#136;&#236;&#157;&#188;&#235;&#166;&#172;&#236;&#167;&#128;&#236;&#153;&#128; &#10;&#237;&#152;&#132;&#234;&#184;&#136; &#236;&#186;&#144;&#236;&#139;&#156;&#235;&#176;&#177; &#235;&#176;&#155;&#236;&#158;&#144;!" d="M35.232 21.64C35.232 21.2667 35.3493 20.9787 35.584 20.776C35.8293 20.5733 36.1387 20.472 36.512 20.472C36.8853 20.472 37.1893 20.5733 37.424 20.776C37.6693 20.9787 37.792 21.2667 37.792 21.64V34.152C37.792 34.5253 37.6693 34.8133 37.424 35.016C37.1893 35.2187 36.8853 35.32 36.512 35.32C36.1387 35.32 35.8293 35.2187 35.584 35.016C35.3493 34.8133 35.232 34.5253 35.232 34.152V21.64ZM26.944 31.832C25.888 31.832 25.36 31.3093 25.36 30.264V22.744C25.36 21.6987 25.888 21.176 26.944 21.176H31.68C31.9893 21.176 32.2453 21.2613 32.448 21.432C32.6507 21.6027 32.752 21.8587 32.752 22.2C32.752 22.5307 32.6507 22.7813 32.448 22.952C32.2453 23.1227 31.9893 23.208 31.68 23.208H28.128C28.0107 23.208 27.936 23.224 27.904 23.256C27.872 23.288 27.856 23.3627 27.856 23.48V25.304H31.584C31.8933 25.304 32.1493 25.3893 32.352 25.56C32.5653 25.72 32.672 25.9653 32.672 26.296C32.672 26.6373 32.5653 26.8933 32.352 27.064C32.1493 27.224 31.8933 27.304 31.584 27.304H27.856V29.512C27.856 29.6293 27.872 29.7093 27.904 29.752C27.936 29.784 28.0107 29.8 28.128 29.8H28.864C29.5467 29.8 30.2133 29.7733 30.864 29.72C31.5147 29.656 32.1227 29.5813 32.688 29.496C32.9973 29.4533 33.264 29.4853 33.488 29.592C33.712 29.6987 33.856 29.9173 33.92 30.248C33.984 30.5893 33.9253 30.8667 33.744 31.08C33.5627 31.2933 33.3173 31.4267 33.008 31.48C32.72 31.5333 32.3893 31.5813 32.016 31.624C31.6427 31.6667 31.2587 31.704 30.864 31.736C30.48 31.768 30.0907 31.7947 29.696 31.816C29.3013 31.8267 28.9333 31.832 28.592 31.832H26.944ZM50.5914 21.64C50.5914 21.2667 50.7087 20.9787 50.9434 20.776C51.1887 20.5733 51.498 20.472 51.8714 20.472C52.2447 20.472 52.5487 20.5733 52.7834 20.776C53.0287 20.9787 53.1514 21.2667 53.1514 21.64V34.152C53.1514 34.5253 53.0287 34.8133 52.7834 35.016C52.5487 35.2187 52.2447 35.32 51.8714 35.32C51.498 35.32 51.1887 35.2187 50.9434 35.016C50.7087 34.8133 50.5914 34.5253 50.5914 34.152V27.192H48.1114V29.864C48.1114 30.9093 47.578 31.432 46.5114 31.432H42.1594C41.0927 31.432 40.5594 30.9093 40.5594 29.864V22.808C40.5594 21.752 41.0927 21.224 42.1594 21.224H46.5114C47.578 21.224 48.1114 21.752 48.1114 22.808V25.064H50.5914V21.64ZM43.0554 29.048C43.0554 29.1653 43.0714 29.24 43.1034 29.272C43.1354 29.304 43.21 29.32 43.3274 29.32H45.3914C45.5087 29.32 45.5834 29.304 45.6154 29.272C45.6474 29.24 45.6634 29.1653 45.6634 29.048V23.608C45.6634 23.4907 45.6474 23.416 45.6154 23.384C45.5834 23.352 45.5087 23.336 45.3914 23.336H43.3274C43.21 23.336 43.1354 23.352 43.1034 23.384C43.0714 23.416 43.0554 23.4907 43.0554 23.608V29.048ZM65.9508 21.64C65.9508 21.2667 66.0681 20.9787 66.3028 20.776C66.5481 20.5733 66.8574 20.472 67.2308 20.472C67.6041 20.472 67.9081 20.5733 68.1428 20.776C68.3881 20.9787 68.5108 21.2667 68.5108 21.64V34.152C68.5108 34.5253 68.3881 34.8133 68.1428 35.016C67.9081 35.2187 67.6041 35.32 67.2308 35.32C66.8574 35.32 66.5481 35.2187 66.3028 35.016C66.0681 34.8133 65.9508 34.5253 65.9508 34.152V21.64ZM63.6788 30.824C62.9534 30.9413 62.2334 31.032 61.5188 31.096C60.8041 31.16 60.0308 31.192 59.1988 31.192H57.8548C56.7774 31.192 56.2388 30.6587 56.2388 29.592V22.408C56.2388 22.056 56.3508 21.7627 56.5748 21.528C56.7988 21.2933 57.1134 21.176 57.5188 21.176C57.9241 21.176 58.2388 21.2933 58.4628 21.528C58.6868 21.7627 58.7988 22.056 58.7988 22.408V28.712C58.7988 28.8293 58.8148 28.904 58.8468 28.936C58.8788 28.968 58.9534 28.984 59.0708 28.984H59.4227C60.1161 28.984 60.7988 28.9627 61.4708 28.92C62.1534 28.8667 62.7828 28.792 63.3588 28.696C63.6681 28.6427 63.9401 28.68 64.1748 28.808C64.4094 28.936 64.5534 29.1707 64.6068 29.512C64.6708 29.864 64.6068 30.1573 64.4148 30.392C64.2334 30.6267 63.9881 30.7707 63.6788 30.824ZM78.1901 28.744C77.7848 28.744 77.4488 28.6693 77.1821 28.52C76.9261 28.36 76.7981 28.0773 76.7981 27.672C76.7981 27.2667 76.9261 26.9893 77.1821 26.84C77.4488 26.68 77.7848 26.6 78.1901 26.6H80.4621C80.9848 26.6 81.3635 26.7227 81.5981 26.968C81.8435 27.2027 81.9661 27.5813 81.9661 28.104V29.72C81.9661 30.1787 81.9021 30.6213 81.7741 31.048C81.6461 31.464 81.4541 31.8 81.1981 32.056C80.6328 32.6213 79.9821 33.0107 79.2461 33.224C78.5208 33.448 77.6888 33.56 76.7501 33.56C75.8541 33.56 75.0435 33.4053 74.3181 33.096C73.5928 32.7973 72.9741 32.376 72.4621 31.832C71.9501 31.2773 71.5555 30.6213 71.2781 29.864C71.0115 29.1067 70.8781 28.28 70.8781 27.384C70.8781 26.488 71.0115 25.6613 71.2781 24.904C71.5555 24.1467 71.9501 23.496 72.4621 22.952C72.9741 22.408 73.5928 21.9867 74.3181 21.688C75.0435 21.3787 75.8541 21.224 76.7501 21.224C77.3261 21.224 77.8435 21.2773 78.3021 21.384C78.7715 21.4907 79.1821 21.6347 79.5341 21.816C79.8968 21.9973 80.2115 22.2107 80.4781 22.456C80.7555 22.7013 80.9955 22.9627 81.1981 23.24C81.4008 23.5173 81.5021 23.8267 81.5021 24.168C81.5021 24.4987 81.3635 24.7707 81.0861 24.984C80.9261 25.1013 80.7608 25.1813 80.5901 25.224C80.4195 25.256 80.2488 25.256 80.0781 25.224C79.9181 25.1813 79.7581 25.112 79.5981 25.016C79.4488 24.92 79.3208 24.7973 79.2141 24.648C78.9368 24.2747 78.6008 23.992 78.2061 23.8C77.8115 23.5973 77.3261 23.496 76.7501 23.496C76.3235 23.496 75.9181 23.5813 75.5341 23.752C75.1501 23.912 74.8088 24.1573 74.5101 24.488C74.2221 24.808 73.9875 25.2133 73.8061 25.704C73.6355 26.184 73.5501 26.744 73.5501 27.384C73.5501 28.024 73.6461 28.5893 73.8381 29.08C74.0301 29.56 74.2808 29.9653 74.5901 30.296C74.9101 30.6267 75.2675 30.8773 75.6621 31.048C76.0675 31.208 76.4835 31.288 76.9101 31.288C77.3688 31.288 77.8221 31.24 78.2701 31.144C78.7181 31.048 79.1075 30.8613 79.4381 30.584C79.5235 30.52 79.5821 30.44 79.6141 30.344C79.6461 30.2373 79.6621 30.1413 79.6621 30.056V28.744H78.1901ZM86.5498 27.4C86.5498 27.9547 86.6244 28.472 86.7738 28.952C86.9231 29.4213 87.1364 29.832 87.4138 30.184C87.7018 30.5253 88.0484 30.7973 88.4538 31C88.8698 31.192 89.3444 31.288 89.8778 31.288C90.4111 31.288 90.8804 31.192 91.2858 31C91.7018 30.7973 92.0484 30.5253 92.3258 30.184C92.6138 29.832 92.8324 29.4213 92.9818 28.952C93.1311 28.472 93.2058 27.9547 93.2058 27.4C93.2058 26.8453 93.1311 26.3333 92.9818 25.864C92.8324 25.384 92.6138 24.968 92.3258 24.616C92.0484 24.264 91.7018 23.992 91.2858 23.8C90.8804 23.5973 90.4111 23.496 89.8778 23.496C89.3444 23.496 88.8698 23.5973 88.4538 23.8C88.0484 23.992 87.7018 24.264 87.4138 24.616C87.1364 24.968 86.9231 25.384 86.7738 25.864C86.6244 26.3333 86.5498 26.8453 86.5498 27.4ZM83.8938 27.4C83.8938 26.5147 84.0271 25.6933 84.2938 24.936C84.5604 24.1787 84.9498 23.528 85.4618 22.984C85.9738 22.4293 86.5978 21.9973 87.3338 21.688C88.0804 21.3787 88.9284 21.224 89.8778 21.224C90.8271 21.224 91.6698 21.3787 92.4058 21.688C93.1524 21.9973 93.7818 22.4293 94.2938 22.984C94.8058 23.528 95.1951 24.1787 95.4618 24.936C95.7284 25.6933 95.8618 26.5147 95.8618 27.4C95.8618 28.2853 95.7284 29.1067 95.4618 29.864C95.1951 30.6107 94.8058 31.2613 94.2938 31.816C93.7818 32.36 93.1524 32.7867 92.4058 33.096C91.6698 33.4053 90.8271 33.56 89.8778 33.56C88.9284 33.56 88.0804 33.4053 87.3338 33.096C86.5978 32.7867 85.9738 32.36 85.4618 31.816C84.9498 31.2613 84.5604 30.6107 84.2938 29.864C84.0271 29.1067 83.8938 28.2853 83.8938 27.4ZM111.753 33.768C111.753 34.1307 111.651 34.4027 111.449 34.584C111.257 34.7653 110.979 34.856 110.617 34.856C110.254 34.856 109.971 34.7653 109.769 34.584C109.577 34.4027 109.481 34.1307 109.481 33.768V21.72C109.481 21.3573 109.577 21.0853 109.769 20.904C109.971 20.7227 110.254 20.632 110.617 20.632C110.979 20.632 111.257 20.7227 111.449 20.904C111.651 21.0853 111.753 21.3573 111.753 21.72V25.096H112.841V21.576C112.841 21.2133 112.942 20.9413 113.145 20.76C113.347 20.568 113.63 20.472 113.993 20.472C114.355 20.472 114.638 20.568 114.841 20.76C115.043 20.9413 115.145 21.2133 115.145 21.576V34.216C115.145 34.5787 115.043 34.8507 114.841 35.032C114.638 35.224 114.355 35.32 113.993 35.32C113.63 35.32 113.347 35.224 113.145 35.032C112.942 34.8507 112.841 34.5787 112.841 34.216V27.272H111.753V33.768ZM101.913 22.216C101.913 21.448 102.286 21.064 103.033 21.064C103.779 21.064 104.153 21.448 104.153 22.216V24.616H106.105V22.216C106.105 21.448 106.478 21.064 107.225 21.064C107.971 21.064 108.345 21.448 108.345 22.216V30.008C108.345 30.5307 108.233 30.8987 108.009 31.112C107.795 31.3253 107.427 31.432 106.905 31.432H103.369C102.846 31.432 102.473 31.3253 102.249 31.112C102.025 30.8987 101.913 30.5307 101.913 30.008V22.216ZM104.153 29.24C104.153 29.3573 104.206 29.416 104.313 29.416H105.945C106.051 29.416 106.105 29.3573 106.105 29.24V26.632H104.153V29.24ZM127.716 21.64C127.716 21.2667 127.834 20.9787 128.068 20.776C128.314 20.5733 128.623 20.472 128.996 20.472C129.37 20.472 129.674 20.5733 129.908 20.776C130.154 20.9787 130.276 21.2667 130.276 21.64V34.152C130.276 34.5253 130.154 34.8133 129.908 35.016C129.674 35.2187 129.37 35.32 128.996 35.32C128.623 35.32 128.314 35.2187 128.068 35.016C127.834 34.8133 127.716 34.5253 127.716 34.152V26.424H124.628C124.287 26.424 124.01 26.3387 123.796 26.168C123.594 25.9973 123.492 25.7253 123.492 25.352C123.492 24.9787 123.594 24.712 123.796 24.552C124.01 24.3813 124.287 24.296 124.628 24.296H127.716V21.64ZM125.444 30.824C124.719 30.9413 123.999 31.032 123.284 31.096C122.57 31.16 121.796 31.192 120.964 31.192H119.62C118.543 31.192 118.004 30.6587 118.004 29.592V22.408C118.004 22.056 118.116 21.7627 118.34 21.528C118.564 21.2933 118.879 21.176 119.284 21.176C119.69 21.176 120.004 21.2933 120.228 21.528C120.452 21.7627 120.564 22.056 120.564 22.408V28.712C120.564 28.8293 120.58 28.904 120.612 28.936C120.644 28.968 120.719 28.984 120.836 28.984H121.188C121.882 28.984 122.564 28.9627 123.236 28.92C123.919 28.8667 124.548 28.792 125.124 28.696C125.434 28.6427 125.706 28.68 125.94 28.808C126.175 28.936 126.319 29.1707 126.372 29.512C126.436 29.864 126.372 30.1573 126.18 30.392C125.999 30.6267 125.754 30.7707 125.444 30.824Z" fill="white"/>
</g>
</g>
</g>
</svg>
