<svg width="16" height="16" viewBox="0 0 16 16" fill="none" xmlns="http://www.w3.org/2000/svg">
<path d="M13.6064 2.29289C13.9969 2.68342 13.9969 3.31658 13.6064 3.70711L3.70686 13.6066C3.31634 13.9971 2.68317 13.9971 2.29265 13.6066C1.90212 13.2161 1.90212 12.5829 2.29265 12.1924L12.1921 2.29289C12.5827 1.90237 13.2158 1.90237 13.6064 2.29289Z" fill="#121619"/>
<path d="M2.29288 2.29304C2.68341 1.90252 3.31657 1.90252 3.7071 2.29304L13.6066 12.1925C13.9971 12.5831 13.9971 13.2162 13.6066 13.6068C13.2161 13.9973 12.5829 13.9973 12.1924 13.6068L2.29288 3.70726C1.90236 3.31673 1.90236 2.68357 2.29288 2.29304Z" fill="#121619"/>
</svg>
