<svg width="40" height="40" viewBox="0 0 40 40" fill="none" xmlns="http://www.w3.org/2000/svg">
<circle cx="20" cy="20" r="20" fill="#38D430"/>
<path d="M19.8823 10.4473C14.6726 10.4473 10.4492 14.6707 10.4492 19.8804C10.4492 25.0901 14.6726 29.3135 19.8823 29.3135C25.092 29.3135 29.3154 25.0901 29.3154 19.8804V10.4473L19.8823 10.4473ZM19.8823 27.3482C15.6919 27.3482 12.3074 23.8965 12.417 19.6813C12.5226 15.6224 15.9011 12.4125 19.9616 12.4125L27.3501 12.4125V15.1638L19.8842 15.1638C17.2413 15.1638 15.1062 17.3373 15.1689 19.9945C15.2285 22.5125 17.2943 24.5592 19.8129 24.5963C21.7465 24.6248 23.417 23.4893 24.1717 21.8457L27.0871 21.8457C26.2241 25.0162 23.3261 27.3482 19.882 27.3482H19.8823ZM27.3524 19.8804L24.5989 19.8804V17.1269H27.3524V19.8804Z" fill="white"/>
</svg>
