<svg width="24" height="24" viewBox="0 0 24 24" fill="none" xmlns="http://www.w3.org/2000/svg">
<g id="ic_level_2_24">
<g id="path">
<g id="&#234;&#183;&#184;&#235;&#163;&#185; 12620">
<path id="&#237;&#140;&#168;&#236;&#138;&#164; 23353" fill-rule="evenodd" clip-rule="evenodd" d="M1.50098 7.70564V16.2936C1.50098 17.3623 2.07123 18.3512 2.99657 18.885L10.4334 23.1789C11.3599 23.7139 12.5004 23.7139 13.4269 23.1789L20.8637 18.885C21.7891 18.3512 22.3593 17.3623 22.3593 16.2936V7.70564C22.3593 6.63686 21.7891 5.6492 20.8637 5.11422L13.4269 0.820272C12.5004 0.286472 11.3599 0.286472 10.4334 0.820272L2.99657 5.11422C2.07123 5.6492 1.50098 6.63686 1.50098 7.70564Z" fill="#FD9E00"/>
<g id="&#234;&#183;&#184;&#235;&#163;&#185; 12619">
<mask id="mask0_1_46313" style="mask-type:luminance" maskUnits="userSpaceOnUse" x="1" y="0" width="22" height="24">
<path id="&#237;&#140;&#168;&#236;&#138;&#164; 23354" fill-rule="evenodd" clip-rule="evenodd" d="M1.50098 7.70564V16.2936C1.50098 17.3623 2.07123 18.3512 2.99657 18.885L10.4334 23.1789C11.3599 23.7139 12.5004 23.7139 13.4269 23.1789L20.8637 18.885C21.7891 18.3512 22.3593 17.3623 22.3593 16.2936V7.70564C22.3593 6.63686 21.7891 5.6492 20.8637 5.11422L13.4269 0.820272C12.5004 0.286472 11.3599 0.286472 10.4334 0.820272L2.99657 5.11422C2.07123 5.6492 1.50098 6.63686 1.50098 7.70564Z" fill="white"/>
</mask>
<g mask="url(#mask0_1_46313)">
<path id="&#236;&#130;&#172;&#234;&#176;&#129;&#237;&#152;&#149; 7966" opacity="0.15" fill-rule="evenodd" clip-rule="evenodd" d="M-2.97778 14.6328L21.664 0.40586L26.8375 9.36652L2.19565 23.5935L-2.97778 14.6328Z" fill="white"/>
<path id="&#236;&#130;&#172;&#234;&#176;&#129;&#237;&#152;&#149; 7967" opacity="0.15" fill-rule="evenodd" clip-rule="evenodd" d="M21.6641 23.5938L-2.97774 9.3668L2.1957 0.406142L26.8375 14.6331L21.6641 23.5938Z" fill="white"/>
</g>
</g>
</g>
<path id="T" fill-rule="evenodd" clip-rule="evenodd" d="M10.7361 10.2833C10.7361 9.67764 10.2628 9.37906 9.8149 9.37906H7.94823C7.29177 9.37906 6.75708 8.84013 6.75708 8.18262C6.75708 7.52404 7.29177 6.98829 7.94823 6.98829H9.87207C11.9981 6.98829 13.1215 8.10956 13.1215 10.2293V16.6837C13.1215 17.3412 12.5868 17.8812 11.9283 17.8812C11.2697 17.8812 10.7361 17.3412 10.7361 16.6837V10.2833M15.9062 6.98829H13.9897C13.347 6.98829 12.7954 7.09205 12.3412 7.2911C12.9839 7.79403 13.3799 8.54789 13.5027 9.53999C13.6615 9.43305 13.8531 9.37905 14.0416 9.37905H15.9062C16.57 9.37905 17.1047 8.84012 17.1047 8.18261C17.1047 7.52403 16.57 6.98828 15.9062 6.98828" fill="white"/>
</g>
</g>
</svg>
