<svg width="23" height="22" viewBox="0 0 23 22" fill="none" xmlns="http://www.w3.org/2000/svg">
<path fill-rule="evenodd" clip-rule="evenodd" d="M14.1105 18.2219C14.2291 18.1274 14.3669 18.06 14.5138 18.0224C18.7825 16.9296 21.8857 13.618 21.8857 9.70239C21.8857 4.89619 17.2103 1 11.4429 1C5.67543 1 1 4.89619 1 9.70239C1 13.4471 3.83822 16.6393 7.81979 17.8668C8.10699 17.9553 8.36694 18.1564 8.39113 18.456C8.40917 18.6795 8.38403 18.9502 8.28514 19.2745C8.11682 19.8267 7.72263 20.341 7.43314 20.6652C7.31387 20.7987 7.401 21.0098 7.57937 20.9943C8.13232 20.9465 9.14611 20.7941 10.5726 20.3188C11.8846 19.8816 13.2652 18.8951 14.1105 18.2219Z" fill="white"/>
<path d="M8.28514 19.2745L7.3286 18.9829L8.28514 19.2745ZM7.43314 20.6652L8.17895 21.3313L8.17895 21.3313L7.43314 20.6652ZM7.57937 20.9943L7.49323 19.998H7.49322L7.57937 20.9943ZM10.5726 20.3188L10.8888 21.2675L10.5726 20.3188ZM7.81979 17.8668L8.11439 16.9111L7.81979 17.8668ZM8.39113 18.456L7.39437 18.5364L8.39113 18.456ZM14.5138 18.0224L14.2657 17.0537L14.5138 18.0224ZM14.1105 18.2219L13.4875 17.4396L14.1105 18.2219ZM20.8857 9.70239C20.8857 13.0438 18.217 16.0421 14.2657 17.0537L14.7618 18.9912C19.3481 17.817 22.8857 14.1921 22.8857 9.70239H20.8857ZM11.4429 2C16.8365 2 20.8857 5.61145 20.8857 9.70239H22.8857C22.8857 4.18094 17.5841 0 11.4429 0V2ZM2 9.70239C2 5.61145 6.04926 2 11.4429 2V0C5.30161 0 0 4.18094 0 9.70239H2ZM8.11439 16.9111C4.43809 15.7778 2 12.8995 2 9.70239H0C0 13.9946 3.23835 17.5008 7.52519 18.8224L8.11439 16.9111ZM9.24168 19.5661C9.37231 19.1376 9.41734 18.7404 9.38789 18.3755L7.39437 18.5364C7.40101 18.6186 7.39575 18.7627 7.3286 18.9829L9.24168 19.5661ZM8.17895 21.3313C8.49504 20.9774 9.00855 20.3309 9.24168 19.5661L7.3286 18.9829C7.2251 19.3225 6.95023 19.7047 6.68733 19.999L8.17895 21.3313ZM7.49322 19.998C7.86878 19.9656 8.18581 20.1954 8.31266 20.4891C8.43159 20.7644 8.38925 21.0959 8.17895 21.3313L6.68733 19.999C6.35776 20.368 6.29935 20.8717 6.47662 21.2821C6.6618 21.7109 7.11158 22.0385 7.66551 21.9906L7.49322 19.998ZM10.2565 19.3701C8.90475 19.8205 7.96816 19.957 7.49323 19.998L7.6655 21.9906C8.29648 21.9361 9.38748 21.7677 10.8888 21.2675L10.2565 19.3701ZM13.4875 17.4396C12.6555 18.1022 11.3908 18.9921 10.2565 19.3701L10.8888 21.2675C12.3783 20.7711 13.8748 19.688 14.7335 19.0041L13.4875 17.4396ZM7.52519 18.8224C7.55551 18.8317 7.54641 18.8368 7.51507 18.807C7.49694 18.7897 7.46906 18.7582 7.44384 18.7094C7.41762 18.6587 7.39943 18.5991 7.39437 18.5364L9.38789 18.3755C9.31512 17.4741 8.56575 17.0503 8.11439 16.9111L7.52519 18.8224ZM14.2657 17.0537C13.9867 17.1251 13.7202 17.2544 13.4875 17.4396L14.7335 19.0041C14.738 19.0005 14.7471 18.9949 14.7618 18.9912L14.2657 17.0537Z" fill="black"/>
<circle cx="6.39282" cy="9.25" r="1.25" fill="#111111"/>
<circle cx="11.3928" cy="9.25" r="1.25" fill="#111111"/>
<circle cx="16.3928" cy="9.25" r="1.25" fill="#111111"/>
</svg>
