<svg width="40" height="40" viewBox="0 0 40 40" fill="none" xmlns="http://www.w3.org/2000/svg">
<path fill-rule="evenodd" clip-rule="evenodd" d="M0 20C0 8.95431 8.95431 0 20 0C31.0457 0 40 8.95431 40 20C40 31.0457 31.0457 40 20 40C8.95431 40 0 31.0457 0 20Z" fill="#00C2AB"/>
<path fill-rule="evenodd" clip-rule="evenodd" d="M12.109 26.735C11.8819 26.4091 11.9537 25.9312 12.0596 25.3403C12.0724 25.2687 12.0919 25.1977 12.1072 25.1256L15.294 10.4823H15.2813L15.2821 10.4785H12.3362L10.887 17.132L9.21262 24.8199C8.81811 26.6712 8.97985 27.6956 9.63758 28.4721C10.1856 29.1188 11.1713 29.5333 12.8072 29.5333H30.4737L31 27.1123H13.0205C12.5533 27.1123 12.2913 26.9967 12.109 26.735Z" fill="white"/>
<path fill-rule="evenodd" clip-rule="evenodd" d="M15.1146 18.5782C15.1848 18.7067 18.6226 24.0904 18.7692 24.3195L18.7852 24.3446H22.0993C22.0993 24.3446 19.2542 19.8771 18.0357 17.8845C17.5055 17.0093 17.5223 16.7365 18.3325 16.0646C19.5634 15.0434 25.0703 10.6038 25.1258 10.559L25.2397 10.4668L21.3117 10.4731L21.297 10.4846C21.2467 10.5251 16.2886 14.5054 15.82 14.8795C15.0419 15.5006 14.7255 16.082 14.6462 16.7579C14.5551 17.5338 14.8411 18.0794 15.1146 18.5782Z" fill="white"/>
</svg>
