<svg width="50" height="66" viewBox="0 0 50 66" fill="none" xmlns="http://www.w3.org/2000/svg">
<g filter="url(#filter0_d_10_3241)">
<path fill-rule="evenodd" clip-rule="evenodd" d="M25.0002 55.8408C21.7592 52.1515 18.7522 48.2582 16.0028 44.1909C11.8887 38.0967 7.00196 29.3869 7.00196 22.413C6.99529 12.4723 15.0496 4.41142 24.9903 4.40473C29.7699 4.40138 34.3556 6.30122 37.7339 9.68281C41.1188 13.0543 43.0153 17.6367 42.9986 22.413C42.9986 29.3869 38.1152 38.0967 34.0011 44.1876C31.2484 48.2548 28.2414 52.1482 25.0002 55.8408Z" fill="#3B54AE"/>
<path d="M7.75196 22.413L7.75196 22.4125C7.74557 12.8863 15.4641 5.16114 24.9908 5.15473C29.5711 5.15152 33.9658 6.97215 37.2033 10.2129L37.2046 10.2142C40.4478 13.4445 42.2646 17.8347 42.2486 22.4104V22.413C42.2486 25.7432 41.0773 29.5494 39.36 33.3206C37.6484 37.0797 35.4235 40.7418 33.38 43.7672C30.805 47.5718 28.0061 51.2233 25 54.6994C21.9943 51.2264 19.196 47.5754 16.6244 43.7713C14.5807 40.744 12.3547 37.0807 10.6421 33.321C8.92403 29.5492 7.75196 25.7431 7.75196 22.413Z" stroke="white" stroke-width="1.5" stroke-linejoin="round"/>
</g>
<path fill-rule="evenodd" clip-rule="evenodd" d="M21.1606 31.5441V30.5783H19.5313L18.75 29.7964L18.7587 19.4445C18.7587 17.9592 19.9498 16.7501 21.4134 16.7501H29.845C31.3086 16.7501 32.5 17.9592 32.5 19.445L32.491 29.797L31.7097 30.5783H30.0731V31.5365C30.0731 32.1693 29.5584 32.6837 28.9259 32.6837C28.2936 32.6837 27.7792 32.1693 27.7792 31.5365V30.5783H23.4547V31.5441C23.4547 32.1764 22.9401 32.6908 22.3075 32.6908C21.675 32.6908 21.1606 32.1764 21.1606 31.5441L21.1606 31.5441ZM20.3128 29.0151H30.9283L30.9314 25.5499H20.3159L20.3128 29.0151ZM20.3168 24.2997H30.9328L30.9367 20.0694H20.3204L20.3168 24.2997ZM24.1666 19.5624H27.0918V18.3124H24.1666V19.5624ZM28.23 28.0568V26.6649H29.6219V28.0568H28.23ZM21.6191 28.0568V26.6649H23.0107V28.0568H21.6191Z" fill="white"/>
<defs>
<filter id="filter0_d_10_3241" x="3.00195" y="2.40472" width="43.9971" height="59.4361" filterUnits="userSpaceOnUse" color-interpolation-filters="sRGB">
<feFlood flood-opacity="0" result="BackgroundImageFix"/>
<feColorMatrix in="SourceAlpha" type="matrix" values="0 0 0 0 0 0 0 0 0 0 0 0 0 0 0 0 0 0 127 0" result="hardAlpha"/>
<feOffset dy="2"/>
<feGaussianBlur stdDeviation="2"/>
<feColorMatrix type="matrix" values="0 0 0 0 0 0 0 0 0 0 0 0 0 0 0 0 0 0 0.2 0"/>
<feBlend mode="normal" in2="BackgroundImageFix" result="effect1_dropShadow_10_3241"/>
<feBlend mode="normal" in="SourceGraphic" in2="effect1_dropShadow_10_3241" result="shape"/>
</filter>
</defs>
</svg>
