<svg width="50" height="66" viewBox="0 0 50 66" fill="none" xmlns="http://www.w3.org/2000/svg">
<g filter="url(#filter0_d_10_3240)">
<path fill-rule="evenodd" clip-rule="evenodd" d="M25.0002 55.841C21.7592 52.1517 18.7522 48.2584 16.0028 44.1911C11.8887 38.0969 7.00196 29.3871 7.00196 22.4132C6.99529 12.4725 15.0496 4.4116 24.9903 4.40491C29.7699 4.40156 34.3556 6.3014 37.7339 9.68299C41.1188 13.0545 43.0153 17.6369 42.9986 22.4132C42.9986 29.3871 38.1152 38.0969 34.0011 44.1877C31.2484 48.255 28.2414 52.1483 25.0002 55.841Z" fill="#F08300"/>
<path d="M7.75196 22.4132L7.75196 22.4127C7.74557 12.8864 15.4641 5.16132 24.9908 5.15491C29.5711 5.1517 33.9658 6.97234 37.2033 10.2131L37.2046 10.2144C40.4478 13.4447 42.2646 17.8349 42.2486 22.4106V22.4132C42.2486 25.7434 41.0773 29.5495 39.36 33.3208C37.6484 37.0799 35.4235 40.742 33.38 43.7674C30.805 47.572 28.0061 51.2234 25 54.6995C21.9943 51.2266 19.196 47.5756 16.6244 43.7715C14.5807 40.7441 12.3547 37.0809 10.6421 33.3211C8.92403 29.5494 7.75196 25.7433 7.75196 22.4132Z" stroke="white" stroke-width="1.5" stroke-linejoin="round"/>
</g>
<path fill-rule="evenodd" clip-rule="evenodd" d="M33.697 20.9665L29.5761 24.5475L30.8643 29.8367C31.0494 30.5971 30.2362 31.2037 29.5806 30.794L25 27.9341L20.4188 30.794C19.7631 31.2037 18.9501 30.5969 19.1352 29.8364L20.4238 24.5475L16.3031 20.9665C15.7161 20.456 16.0347 19.4775 16.8046 19.4258L22.1722 19.0661L24.2029 13.9473C24.4927 13.2171 25.5073 13.2171 25.7972 13.9473L27.8278 19.0661L33.1954 19.4261C33.9655 19.4775 34.284 20.456 33.697 20.9665L33.697 20.9665Z" fill="white"/>
<defs>
<filter id="filter0_d_10_3240" x="3.00195" y="2.40491" width="43.9971" height="59.4361" filterUnits="userSpaceOnUse" color-interpolation-filters="sRGB">
<feFlood flood-opacity="0" result="BackgroundImageFix"/>
<feColorMatrix in="SourceAlpha" type="matrix" values="0 0 0 0 0 0 0 0 0 0 0 0 0 0 0 0 0 0 127 0" result="hardAlpha"/>
<feOffset dy="2"/>
<feGaussianBlur stdDeviation="2"/>
<feColorMatrix type="matrix" values="0 0 0 0 0 0 0 0 0 0 0 0 0 0 0 0 0 0 0.2 0"/>
<feBlend mode="normal" in2="BackgroundImageFix" result="effect1_dropShadow_10_3240"/>
<feBlend mode="normal" in="SourceGraphic" in2="effect1_dropShadow_10_3240" result="shape"/>
</filter>
</defs>
</svg>
