<svg width="22" height="22" viewBox="0 0 22 22" fill="none" xmlns="http://www.w3.org/2000/svg">
<path fill-rule="evenodd" clip-rule="evenodd" d="M0 5C0 2.23858 2.23858 0 5 0H17C19.7614 0 22 2.23858 22 5V17C22 19.7614 19.7614 22 17 22H5C2.23858 22 0 19.7614 0 17V5Z" fill="#FFEBFD"/>
<path fill-rule="evenodd" clip-rule="evenodd" d="M5.97944 17.2316L7.78443 14.9955H6.91807C6.13619 14.9955 5.5 14.3439 5.5 13.5431V10.3921L5.50483 10.387L5.5 10.3822V6.01014C5.5 5.17739 6.17716 4.5 7.00968 4.5H14.9871C15.8194 4.5 16.497 5.17739 16.497 6.01014V10.3822L16.492 10.3873L16.4966 10.3921V13.5431C16.4966 14.3439 15.8606 14.9955 15.0785 14.9955H14.3781L16.0316 17.2504L15.2067 17.8551L14.509 16.9036H7.55862L6.77558 17.8737L5.97944 17.2316ZM8.17802 16.1364H13.9465L13.1096 14.9955H9.09916L8.17802 16.1364ZM6.52287 13.5431C6.52287 13.78 6.7001 13.9724 6.91807 13.9724H15.0785C15.2965 13.9724 15.4737 13.78 15.4737 13.5431V10.9035H6.52286L6.52287 13.5431ZM6.52287 6.01013V9.87053H15.4739V6.01013C15.4739 5.74152 15.2555 5.52286 14.9871 5.52286H7.00967C6.74129 5.52286 6.52286 5.74152 6.52286 6.01013H6.52287ZM12.7402 13.0179V11.858H13.8998V13.0179H12.7402ZM8.09677 13.0179V11.858H9.25659V13.0179H8.09677ZM9.7938 7.41822V6.41822H12.203V7.41822H9.7938Z" fill="#8E0D80"/>
</svg>
