<svg width="22" height="22" viewBox="0 0 22 22" fill="none" xmlns="http://www.w3.org/2000/svg">
<path fill-rule="evenodd" clip-rule="evenodd" d="M0 5C0 2.23858 2.23858 0 5 0H17C19.7614 0 22 2.23858 22 5V17C22 19.7614 19.7614 22 17 22H5C2.23858 22 0 19.7614 0 17V5Z" fill="#FDECD9"/>
<path fill-rule="evenodd" clip-rule="evenodd" d="M7.42848 16.5352V15.7626H6.12505L5.5 15.1371L5.50698 6.85551C5.50698 5.66729 6.45986 4.70001 7.63075 4.70001H14.376C15.5469 4.70001 16.5 5.66729 16.5 6.85596L16.4928 15.1375L15.8678 15.7626H14.5585V16.5292C14.5585 17.0354 14.1468 17.4469 13.6407 17.4469C13.1349 17.4469 12.7234 17.0354 12.7234 16.5292V15.7626H9.2638V16.5352C9.2638 17.041 8.85205 17.4526 8.34602 17.4526C7.84 17.4526 7.42847 17.041 7.42847 16.5352L7.42848 16.5352ZM6.75033 14.5125H15.2427L15.2452 11.7403H6.7528L6.75033 14.5125ZM6.75348 10.7401H15.2463L15.2495 7.35591H6.7564L6.75348 10.7401ZM9.83328 6.95011H12.1735V5.95011H9.83328V6.95011ZM13.0841 13.7457V12.6322H14.1976V13.7457H13.0841ZM7.79523 13.7457V12.6322H8.90853V13.7457H7.79523Z" fill="#F08300"/>
</svg>
