<svg width="40" height="40" viewBox="0 0 40 40" fill="none" xmlns="http://www.w3.org/2000/svg">
<g clip-path="url(#clip0_833_96241)">
<rect width="40" height="40" rx="20" fill="#008CFF"/>
<g clip-path="url(#clip1_833_96241)">
<path d="M13.4671 13C11.8497 13 10.5391 14.3107 10.5391 15.9281C10.5391 17.5455 11.8497 18.8561 13.4671 18.8561C15.0845 18.8561 16.3952 17.5455 16.3952 15.9281C16.3952 14.3107 15.0845 13 13.4671 13ZM13.4671 17.618C12.5329 17.618 11.7772 16.8595 11.7772 15.9281C11.7772 14.9967 12.5357 14.2381 13.4671 14.2381C14.3985 14.2381 15.157 14.9967 15.157 15.9281C15.157 16.8622 14.4013 17.618 13.4671 17.618Z" fill="white"/>
<path d="M6.4222 14.6341C6.4222 13.9565 8.20134 13.9481 8.58338 14.8182L9.58171 14.2409C9.30842 13.5856 8.31009 13 7.32292 13C6.15449 13 5.16174 13.6107 5.16174 14.676C5.16174 15.8918 6.56442 16.2069 7.14724 16.3491C7.73006 16.4914 8.50809 16.6141 8.50809 17.0965C8.50809 17.5427 8.00335 17.71 7.44562 17.71C6.7401 17.71 6.19353 17.4729 5.95371 16.9264L5 17.4785C5.29559 18.3291 6.26325 18.8561 7.41774 18.8561C8.92359 18.8561 9.76018 18.1617 9.76018 17.0463C9.76018 16.1623 8.99052 15.599 8.05354 15.3731C7.21974 15.1695 6.4222 15.0524 6.4222 14.6369V14.6341Z" fill="white"/>
<path d="M21.7196 16.5669C21.4742 17.1972 20.9249 17.6238 20.2054 17.6238C19.2712 17.6238 18.5434 16.8653 18.5434 15.9311C18.5434 14.9969 19.2712 14.2384 20.2054 14.2384C20.8886 14.2384 21.4519 14.6205 21.7196 15.2033L22.8211 14.5675C22.3526 13.6305 21.332 13.0059 20.2054 13.0059C18.588 13.0059 17.2773 14.3165 17.2773 15.9339C17.2773 17.5513 18.588 18.862 20.2054 18.862C21.3655 18.862 22.3526 18.1871 22.8239 17.2111L21.7196 16.5753V16.5669Z" fill="white"/>
<path d="M26.8986 13.1484H25.5099L23.2539 18.7034H24.6817L26.2071 14.7268L27.7771 18.7034H29.2048L26.8986 13.1484Z" fill="white"/>
<path d="M33.8288 16.6724L33.9348 16.6083C34.4814 16.282 34.7937 15.7243 34.7937 15.0773C34.7937 13.9424 33.9571 13.1504 32.7608 13.1504H30.0781V18.7053H31.3414V16.9262H32.5628L33.589 18.7053H35L33.8288 16.6752V16.6724ZM32.6883 15.8358H31.3442V14.316H32.6883C33.1874 14.316 33.5221 14.62 33.5221 15.0745C33.5221 15.5291 33.1874 15.8358 32.6883 15.8358Z" fill="white"/>
<path d="M8.77113 27.6064C8.23014 27.6064 7.7003 27.4503 7.24855 27.1547C6.794 26.8619 6.43706 26.4408 6.21397 25.9472C5.99367 25.4536 5.91837 24.907 6.00203 24.3716C6.08569 23.8362 6.31993 23.3398 6.67967 22.9355C7.0394 22.5311 7.50789 22.2411 8.02936 22.0989C8.55083 21.9567 9.10298 21.9678 9.61887 22.1324C10.1348 22.2969 10.5921 22.6064 10.9351 23.0247C11.2781 23.443 11.4928 23.9506 11.5542 24.4888C11.5598 24.5362 11.5542 24.5864 11.5402 24.631C11.5263 24.6784 11.5012 24.7202 11.4677 24.7565C11.4343 24.7927 11.3952 24.8206 11.3534 24.8401C11.3088 24.8596 11.2614 24.8708 11.214 24.8708H9.29539C9.20616 24.868 9.1225 24.829 9.06115 24.7648C8.9998 24.7007 8.96355 24.6142 8.96355 24.525C8.96355 24.4358 8.99701 24.3493 9.06115 24.2852C9.1225 24.221 9.20616 24.1848 9.29539 24.1792H10.7929C10.6479 23.7079 10.3411 23.3008 9.92841 23.0331C9.5157 22.7626 9.02211 22.6455 8.53131 22.7012C8.04051 22.757 7.58597 22.9829 7.24576 23.3398C6.90555 23.6968 6.69919 24.1597 6.66294 24.6533C6.62668 25.1441 6.76611 25.6349 7.05334 26.0364C7.34057 26.438 7.75886 26.7252 8.23572 26.8507C8.71257 26.9762 9.2201 26.9316 9.66628 26.7224C10.1125 26.5133 10.475 26.1564 10.6841 25.7102C10.7036 25.6683 10.7315 25.6321 10.765 25.6014C10.7985 25.5707 10.8375 25.5484 10.8793 25.5317C10.9212 25.5178 10.9658 25.5094 11.0132 25.5122C11.0578 25.5122 11.1024 25.5261 11.1443 25.5456C11.1861 25.5652 11.2223 25.5931 11.253 25.6265C11.2837 25.66 11.306 25.699 11.3227 25.7408C11.3367 25.7827 11.345 25.8273 11.3422 25.8747C11.3422 25.9193 11.3283 25.9639 11.3088 26.0058C11.0801 26.4826 10.7204 26.887 10.2742 27.1714C9.82523 27.4559 9.30655 27.6064 8.77671 27.6064" fill="white"/>
<path d="M16.9547 27.6064C16.4137 27.6064 15.8839 27.4503 15.4321 27.1547C14.9776 26.8619 14.6207 26.4408 14.3976 25.9472C14.1773 25.4536 14.102 24.907 14.1856 24.3716C14.2693 23.8362 14.5035 23.3398 14.8633 22.9355C15.223 22.5311 15.6915 22.2411 16.213 22.0989C16.7344 21.9567 17.2866 21.9678 17.8025 22.1324C18.3184 22.2969 18.7757 22.6064 19.1187 23.0247C19.4617 23.443 19.6764 23.9506 19.7378 24.4888C19.7434 24.5362 19.7378 24.5864 19.7238 24.631C19.7099 24.6784 19.6848 24.7202 19.6541 24.7565C19.6207 24.7927 19.5816 24.8206 19.537 24.8401C19.4924 24.8596 19.445 24.8708 19.3976 24.8708H17.3925C17.3033 24.868 17.2196 24.829 17.1583 24.7648C17.0969 24.7007 17.0607 24.6142 17.0607 24.525C17.0607 24.4358 17.0942 24.3493 17.1583 24.2852C17.2196 24.221 17.3033 24.1848 17.3925 24.1792H18.9765C18.8315 23.7079 18.5275 23.3008 18.1148 23.0303C17.7021 22.7598 17.2085 22.6427 16.7177 22.6985C16.2269 22.7542 15.7724 22.9801 15.4294 23.3343C15.0864 23.6912 14.88 24.1541 14.8437 24.6477C14.8075 25.1413 14.9441 25.6293 15.2314 26.0309C15.5186 26.4324 15.9369 26.7224 16.4137 26.8479C16.8906 26.9734 17.3981 26.9288 17.8443 26.7224C18.2933 26.5133 18.653 26.1564 18.8649 25.7102C18.904 25.6265 18.9737 25.5652 19.0601 25.5345C19.1466 25.5038 19.2414 25.5094 19.3223 25.5484C19.4059 25.5875 19.4673 25.6572 19.498 25.7436C19.5286 25.8301 19.523 25.9249 19.484 26.0058C19.2553 26.4826 18.8956 26.887 18.4494 27.1714C18.0005 27.4559 17.4818 27.6064 16.9519 27.6064" fill="white"/>
<path d="M31.3012 27.6064C30.7602 27.6064 30.2304 27.4503 29.7786 27.1547C29.3241 26.8619 28.9671 26.4408 28.744 25.9472C28.5237 25.4536 28.4512 24.907 28.5321 24.3716C28.6157 23.8362 28.85 23.3398 29.2097 22.9355C29.5695 22.5311 30.0379 22.2411 30.5594 22.0989C31.0809 21.9567 31.633 21.9678 32.1489 22.1324C32.6648 22.2969 33.1222 22.6064 33.4652 23.0247C33.8082 23.443 34.0229 23.9506 34.0842 24.4888C34.0898 24.5362 34.0842 24.5836 34.0703 24.631C34.0563 24.6756 34.0312 24.7202 34.0006 24.7537C33.9699 24.7871 33.9309 24.8178 33.8862 24.8373C33.8416 24.8569 33.7942 24.868 33.7468 24.868H31.7418C31.6526 24.8652 31.5689 24.8262 31.5075 24.762C31.4462 24.6979 31.4099 24.6115 31.4099 24.5222C31.4099 24.433 31.4434 24.3465 31.5075 24.2824C31.5689 24.2183 31.6526 24.182 31.7418 24.1764H33.3257C33.1807 23.7052 32.8768 23.298 32.464 23.0275C32.0513 22.757 31.5577 22.6399 31.0669 22.6957C30.5761 22.7514 30.1216 22.9773 29.7786 23.3315C29.4356 23.6884 29.2292 24.1513 29.193 24.6421C29.1567 25.1329 29.2934 25.6237 29.5806 26.0253C29.8678 26.4268 30.2861 26.7169 30.763 26.8424C31.2398 26.9678 31.7474 26.9232 32.1935 26.7169C32.6425 26.5105 33.0022 26.1508 33.2142 25.7074C33.2532 25.6237 33.3229 25.5624 33.4094 25.5317C33.4958 25.501 33.5906 25.5066 33.6715 25.5456C33.7552 25.5847 33.8165 25.6544 33.8472 25.7408C33.8779 25.8273 33.8723 25.9221 33.8333 26.003C33.6046 26.4798 33.2449 26.8842 32.7987 27.1686C32.3497 27.4531 31.831 27.6036 31.3012 27.6036" fill="white"/>
<path d="M23.4924 27.6074C23.0099 27.6074 22.5359 27.4819 22.1148 27.2449C21.6937 27.0078 21.3423 26.6676 21.0942 26.2549C20.846 25.8422 20.7065 25.3709 20.6926 24.8913C20.6787 24.4088 20.7874 23.932 21.0133 23.5053C21.2364 23.0787 21.5682 22.7161 21.9726 22.454C22.3769 22.1919 22.8426 22.0385 23.3251 22.0106C23.8075 21.9827 24.2871 22.0776 24.7194 22.2867C25.1516 22.4986 25.5253 22.8165 25.7986 23.2153C25.8515 23.2906 25.8711 23.3826 25.8543 23.4719C25.8376 23.5611 25.7874 23.642 25.7121 23.6922C25.6368 23.7451 25.5448 23.7647 25.4556 23.7479C25.3663 23.7312 25.2855 23.681 25.2353 23.6057C24.9787 23.232 24.6078 22.9532 24.1784 22.8054C23.7489 22.6576 23.2832 22.6548 22.851 22.7942C22.4188 22.9337 22.0423 23.2069 21.7774 23.575C21.5125 23.9431 21.373 24.3865 21.3814 24.8411C21.387 25.2956 21.5403 25.7334 21.8164 26.0932C22.0925 26.4529 22.4745 26.715 22.9123 26.8405C23.3474 26.966 23.8131 26.9465 24.2369 26.7903C24.6608 26.6314 25.0233 26.3414 25.2715 25.9593C25.2966 25.9203 25.3273 25.8868 25.3635 25.8589C25.3998 25.831 25.4444 25.8115 25.489 25.8032C25.5336 25.792 25.5811 25.792 25.6257 25.8004C25.6703 25.8087 25.7149 25.8255 25.7539 25.8506C25.793 25.8757 25.8264 25.9091 25.8515 25.9454C25.8766 25.9844 25.8962 26.0262 25.9045 26.0709C25.9129 26.1155 25.9129 26.1629 25.9045 26.2075C25.8962 26.2521 25.8766 26.2939 25.8515 26.333C25.5978 26.7262 25.2492 27.0469 24.8393 27.27C24.4293 27.4931 23.9692 27.6102 23.5007 27.6102L23.4924 27.6074Z" fill="white"/>
<path d="M12.8547 27.6067C12.7627 27.6067 12.6762 27.5705 12.6121 27.5063C12.548 27.4422 12.5117 27.3558 12.5117 27.2637V20.716C12.5117 20.6714 12.5201 20.6268 12.5368 20.585C12.5535 20.5432 12.5786 20.5041 12.6121 20.4734C12.6428 20.4428 12.6818 20.4149 12.7237 20.3981C12.7655 20.3814 12.8101 20.373 12.8547 20.373C12.8993 20.373 12.944 20.3814 12.9858 20.3981C13.0276 20.4149 13.0667 20.44 13.0973 20.4734C13.128 20.5041 13.1559 20.5432 13.1726 20.585C13.1894 20.6268 13.1977 20.6714 13.1977 20.716V27.2609C13.1977 27.353 13.1615 27.4394 13.0973 27.5036C13.0332 27.5677 12.9467 27.6039 12.8547 27.6039" fill="white"/>
<path d="M27.2024 27.6067C27.1104 27.6067 27.0239 27.5705 26.9598 27.5063C26.8956 27.4422 26.8594 27.3558 26.8594 27.2637V20.716C26.8594 20.6714 26.8677 20.6268 26.8845 20.585C26.9012 20.5432 26.9263 20.5041 26.9598 20.4734C26.9904 20.4428 27.0295 20.4149 27.0713 20.3981C27.1131 20.3814 27.1578 20.373 27.2024 20.373C27.247 20.373 27.2916 20.3814 27.3334 20.3981C27.3753 20.4149 27.4143 20.44 27.445 20.4734C27.4757 20.5041 27.5035 20.5432 27.5203 20.585C27.537 20.6268 27.5454 20.6714 27.5454 20.716V27.2609C27.5454 27.353 27.5091 27.4394 27.445 27.5036C27.3808 27.5677 27.2944 27.6039 27.2024 27.6039" fill="white"/>
</g>
</g>
<defs>
<clipPath id="clip0_833_96241">
<rect width="40" height="40" rx="20" fill="white"/>
</clipPath>
<clipPath id="clip1_833_96241">
<rect width="30" height="14.6068" fill="white" transform="translate(5 13)"/>
</clipPath>
</defs>
</svg>
