<svg width="40" height="40" viewBox="0 0 40 40" fill="none" xmlns="http://www.w3.org/2000/svg">
<circle cx="20" cy="20" r="20" fill="#FFD939"/>
<path d="M11.176 13.334L7.61719 19.0555H9.13285L12.6917 13.334H11.176ZM15.3164 13.334H13.8008L10.2419 19.0555H11.7576L15.3164 13.334ZM12.8667 19.0555H14.3824L16.3 15.9713H14.7843L12.8667 19.0555ZM22.988 13.334L19.4292 19.0555H20.9449L24.5037 13.334H22.988ZM27.1284 13.334H25.6128L22.054 19.0555H23.5696L27.1284 13.334ZM14.9122 25.4483C13.6441 25.4483 12.6156 24.4937 12.6156 23.3167C12.6156 22.1397 13.6441 21.185 14.9122 21.185C16.1802 21.185 17.2087 22.1397 17.2087 23.3167C17.2087 24.4937 16.1802 25.4483 14.9122 25.4483ZM16.7169 20.4153C16.5752 20.3394 16.4301 20.2774 16.2827 20.2207L20.5671 13.334H19.0514L14.9237 19.9684C13.6729 19.9652 12.4555 20.5639 11.7852 21.6415C10.789 23.244 11.3798 25.2923 13.1063 26.2181C14.8327 27.1428 17.0394 26.5944 18.0368 24.9919C19.033 23.3894 18.4422 21.34 16.7157 20.4153M26.723 25.4483C25.455 25.4483 24.4265 24.4937 24.4265 23.3167C24.4265 22.1397 25.455 21.185 26.723 21.185C27.9911 21.185 29.0195 22.1397 29.0195 23.3167C29.0195 24.4937 27.9911 25.4483 26.723 25.4483ZM28.5278 20.4153C28.3861 20.3394 28.241 20.2774 28.0936 20.2207L32.3791 13.334H30.8634L26.7368 19.9684C25.4861 19.9652 24.2687 20.5639 23.5984 21.6415C22.6022 23.244 23.193 25.2923 24.9194 26.2181C26.6458 27.1428 28.8525 26.5944 29.8499 24.9919C30.8473 23.3894 30.2553 21.34 28.5289 20.4153M24.6799 19.0555H26.1955L28.1131 15.9713H26.5975L24.6799 19.0555Z" fill="#040423"/>
</svg>
