<svg width="40" height="40" viewBox="0 0 40 40" fill="none" xmlns="http://www.w3.org/2000/svg">
<g clip-path="url(#clip0_833_96248)">
<rect width="40" height="40" rx="20" fill="black"/>
<g clip-path="url(#clip1_833_96248)">
<path d="M19.9978 31.9995C26.624 31.9995 31.9956 26.6279 31.9956 20.0017C31.9956 13.3755 26.624 8.00391 19.9978 8.00391C13.3716 8.00391 8 13.3755 8 20.0017C8 26.6279 13.3716 31.9995 19.9978 31.9995Z" fill="white"/>
<mask id="mask0_833_96248" style="mask-type:luminance" maskUnits="userSpaceOnUse" x="8" y="8" width="24" height="24">
<path d="M19.9978 31.9995C26.624 31.9995 31.9956 26.6279 31.9956 20.0017C31.9956 13.3755 26.624 8.00391 19.9978 8.00391C13.3716 8.00391 8 13.3755 8 20.0017C8 26.6279 13.3716 31.9995 19.9978 31.9995Z" fill="white"/>
</mask>
<g mask="url(#mask0_833_96248)">
<path d="M13.4329 14.5171C13.2249 14.4745 12.972 14.4591 12.7054 14.4427C12.4985 14.4299 12.1526 14.409 12.0447 14.3762L12.0211 14.3691C11.4239 14.2021 11.0225 13.7649 11.0225 13.2821C11.0225 12.6557 11.7119 12.1269 12.5286 12.1269H13.5088L14.3781 11.4878L15.0259 9.42034L13.2862 8.875L12.8388 10.3033H12.5285C10.693 10.3033 9.1992 11.6397 9.1992 13.2821C9.1992 14.5887 10.1308 15.7287 11.5188 16.1219C11.8317 16.2158 12.2191 16.2401 12.594 16.2627C12.7521 16.2722 12.9901 16.2865 13.0652 16.3028L13.1022 16.3101C14.3429 16.5275 15.2433 17.4273 15.2433 18.4502C15.2433 19.6574 14.0256 20.6393 12.5286 20.6393H10.5921L9.72173 21.2785L9.07422 23.3456L10.8139 23.8907L11.2618 22.4625H12.5286C13.7141 22.4625 14.8353 22.0625 15.6852 21.3355C16.5759 20.5739 17.0667 19.5494 17.0667 18.4502C17.0667 17.4941 16.6816 16.5688 15.9826 15.8444C15.326 15.1648 14.4213 14.6939 13.4328 14.5171H13.4329Z" fill="black"/>
<path d="M26.7584 7.65327L25.0185 7.10742L22.272 15.8578L20.1932 9.2225L18.4531 9.7681L21.6771 20.056L23.4166 19.5112L22.2725 15.8603L24.0106 16.4057L26.7584 7.65327Z" fill="black"/>
<path d="M15.2773 9.76825L18.4158 19.7837L17.8534 21.5784L19.5929 22.1234L20.2412 20.0562V19.5113L17.0169 9.22266L15.2773 9.76825Z" fill="black"/>
<path d="M27.3121 7.40533L27.2706 7.67783V17.8744L26.6641 19.8085L28.4038 20.3536L29.0521 18.2862L29.0932 18.0138V7.81727L29.699 5.88323L27.9597 5.33789L27.3121 7.40533Z" fill="black"/>
<path d="M20.0599 22.251L20.018 22.5235V29.3774L15.9415 22.1247L14.2353 22.5717V32.7201L13.6289 34.6546L15.3692 35.1993L16.0165 33.1319L16.0584 32.8595V26.0539L20.1351 33.3062L21.841 32.8595V22.663L22.4473 20.7289L20.7074 20.1836L20.0599 22.251Z" fill="black"/>
<path d="M27.4673 24.7289H26.8629V26.5521H27.4673C28.2833 26.5521 28.9742 27.0811 28.9742 27.7079V29.7988C28.9742 30.4248 28.284 30.9546 27.4673 30.9546H26.2585C25.4419 30.9546 24.7522 30.4248 24.7522 29.7988V23.5973C24.7522 22.971 25.4419 22.4417 26.2585 22.4417L29.411 22.4174L30.2741 21.7783L30.9218 19.7114L29.1817 19.166L28.7332 20.5993L26.2553 20.6184C24.4207 20.6204 22.9297 21.9557 22.9297 23.5974V29.7988C22.9297 31.0444 23.7888 32.1142 25.0049 32.5585L24.6636 33.6338L26.4017 34.1845L26.8478 32.7775H27.4672C29.3027 32.7775 30.7965 31.4413 30.7965 29.7988V27.708C30.7965 26.0652 29.3027 24.729 27.4672 24.729L27.4673 24.7289Z" fill="black"/>
</g>
</g>
</g>
<defs>
<clipPath id="clip0_833_96248">
<rect width="40" height="40" rx="20" fill="white"/>
</clipPath>
<clipPath id="clip1_833_96248">
<rect width="24" height="24" fill="white" transform="translate(8 8)"/>
</clipPath>
</defs>
</svg>
