<svg width="22" height="22" viewBox="0 0 22 22" fill="none" xmlns="http://www.w3.org/2000/svg">
<path fill-rule="evenodd" clip-rule="evenodd" d="M0 5C0 2.23858 2.23858 0 5 0H17C19.7614 0 22 2.23858 22 5V17C22 19.7614 19.7614 22 17 22H5C2.23858 22 0 19.7614 0 17V5Z" fill="#F08300"/>
<g clip-path="url(#clip0_3220_5040)">
<path fill-rule="evenodd" clip-rule="evenodd" d="M15.1444 7.51966C15.3274 7.33661 15.6242 7.33661 15.8072 7.51966L16.8017 8.51388C17.3503 9.06278 17.3503 9.95388 16.8017 10.5028L10.504 16.8004C9.9551 17.3491 9.064 17.3491 8.5151 16.8004L7.52088 15.806C7.33783 15.6229 7.33783 15.3262 7.52088 15.1432C7.70369 14.9601 7.70369 14.6632 7.52088 14.4801C7.33783 14.2973 7.04088 14.2973 6.85783 14.4801C6.67479 14.6632 6.37807 14.6632 6.19502 14.4801L5.20057 13.4859C4.65189 12.937 4.65189 12.0459 5.20057 11.497L11.4982 5.19935C12.0471 4.65067 12.9382 4.65067 13.4871 5.19935L14.4813 6.1938C14.6644 6.37685 14.6644 6.67356 14.4813 6.85661C14.2985 7.03966 14.2985 7.33661 14.4813 7.51966C14.6644 7.70247 14.9613 7.70247 15.1444 7.51966ZM13.4856 10.5027L11.4968 8.514C11.3139 8.33104 11.3139 8.03405 11.4968 7.85109C11.6798 7.66813 11.9768 7.66813 12.1597 7.85109L14.1485 9.83983C14.3314 10.0228 14.3314 10.3198 14.1485 10.5027C13.9655 10.6857 13.6685 10.6857 13.4856 10.5027ZM8.18313 11.8276L9.17747 10.8333C9.36043 10.6503 9.65743 10.6503 9.84039 10.8333C10.0234 11.0162 10.0233 11.3132 9.84038 11.4962L8.84603 12.4905C8.66307 12.6735 8.36607 12.6735 8.18311 12.4905C8.00015 12.3076 8.00017 12.0106 8.18313 11.8276ZM11.8289 10.8345L9.50866 13.1547C9.32569 13.3376 9.32569 13.6346 9.50866 13.8176C9.69162 14.0006 9.98861 14.0006 10.1716 13.8176L12.4918 11.4974C12.6747 11.3144 12.6747 11.0175 12.4918 10.8345C12.3088 10.6515 12.0118 10.6515 11.8289 10.8345Z" fill="white"/>
</g>
<defs>
<clipPath id="clip0_3220_5040">
<rect width="15" height="15" fill="white" transform="translate(3.5 3.5)"/>
</clipPath>
</defs>
</svg>
