<svg width="20" height="14" viewBox="0 0 20 14" fill="none" xmlns="http://www.w3.org/2000/svg">
<path fill-rule="evenodd" clip-rule="evenodd" d="M2 0C0.895508 0 0 0.895508 0 2V12C0 13.1045 0.895508 14 2 14H18C19.1045 14 20 13.1045 20 12V2C20 0.895508 19.1045 0 18 0H2ZM9.99829 10.6533C10.4358 10.6533 10.7913 10.2949 10.7913 9.85791V5.56958C10.7913 4.16016 10.0449 3.41553 8.63184 3.41553H7.35376C6.91797 3.41553 6.5625 3.77148 6.5625 4.20923C6.5625 4.64624 6.91797 5.00415 7.35376 5.00415H8.59424C8.89136 5.00415 9.2063 5.20239 9.2063 5.60522V9.85791C9.2063 10.2949 9.56055 10.6533 9.99829 10.6533ZM12.6414 5.00342H11.4026C11.2773 5.00342 11.1501 5.03979 11.0447 5.11084C10.9624 4.45239 10.6997 3.95068 10.2725 3.61694C10.5745 3.48438 10.9409 3.41553 11.3677 3.41553H12.6414C13.0825 3.41553 13.4375 3.771 13.4375 4.2085C13.4375 4.64624 13.0825 5.00342 12.6414 5.00342ZM5.875 1.72925H14.125C14.7578 1.72925 15.2708 2.24219 15.2708 2.875V11.125C15.2708 11.7578 14.7578 12.2708 14.125 12.2708H5.875C5.24219 12.2708 4.72925 11.7578 4.72925 11.125V2.875C4.72925 2.24219 5.24219 1.72925 5.875 1.72925ZM4.5 2.875C4.5 2.11572 5.11572 1.5 5.875 1.5H14.125C14.8843 1.5 15.5 2.11572 15.5 2.875V11.125C15.5 11.8843 14.8843 12.5 14.125 12.5H5.875C5.11572 12.5 4.5 11.8843 4.5 11.125V2.875Z" fill="white"/>
</svg>

