<svg width="22" height="22" viewBox="0 0 22 22" fill="none" xmlns="http://www.w3.org/2000/svg">
<path fill-rule="evenodd" clip-rule="evenodd" d="M0 5C0 2.23858 2.23858 0 5 0H17C19.7614 0 22 2.23858 22 5V17C22 19.7614 19.7614 22 17 22H5C2.23858 22 0 19.7614 0 17V5Z" fill="#5EBAFF"/>
<path d="M13.6098 8.10581L15.5515 7.13478C15.5902 7.11544 15.6306 7.10129 15.6731 7.09359C15.8835 7.0555 16.5799 6.94532 17.1765 7.03306C17.3876 7.0641 17.5579 7.20936 17.662 7.39555V7.39555C17.8584 7.74668 17.7789 8.18767 17.4723 8.44815L16.1098 9.60581L14.6098 10.6058L12.6231 15.7849C12.549 15.9782 12.3633 16.1058 12.1563 16.1058H11.3591C11.2312 16.1058 11.1361 15.9873 11.1639 15.8624L12.1098 11.6056L10.1098 12.6056L8.14157 13.5898C8.12042 13.6003 8.09855 13.6094 8.07612 13.6169L7.19617 13.9103C6.83681 14.0301 6.4406 13.9366 6.17274 13.6687L5.65333 13.1493C5.62442 13.1204 5.59917 13.0881 5.57814 13.053L4.1201 10.623C4.11322 10.6115 4.10611 10.6003 4.09928 10.5888C4.05485 10.514 3.89426 10.2136 4.10977 10.1058C4.45907 9.93116 4.78484 9.88918 5.10977 10.1058C6.60977 11.1058 7.10977 11.6058 7.10977 11.6058C8.67187 10.8248 8.54771 10.8869 10.1098 10.1058M13.6098 8.10581L10.1098 10.1058M13.6098 8.10581L10.6098 7.60565L8.66952 7.12058C8.62986 7.11066 8.58913 7.10565 8.54825 7.10565H7.96138C7.49718 7.10565 7.28354 7.68316 7.63597 7.98527L10.1098 10.1058" stroke="white"/>
</svg>
