<svg width="22" height="22" viewBox="0 0 22 22" fill="none" xmlns="http://www.w3.org/2000/svg">
<path fill-rule="evenodd" clip-rule="evenodd" d="M0 5C0 2.23858 2.23858 0 5 0H17C19.7614 0 22 2.23858 22 5V17C22 19.7614 19.7614 22 17 22H5C2.23858 22 0 19.7614 0 17V5Z" fill="#4675BC"/>
<path fill-rule="evenodd" clip-rule="evenodd" d="M6.89469 5.47949L6.21469 9.80949H5.55469V14.2795L6.11469 14.8395H7.50469V15.6795C7.50469 16.1495 7.88469 16.5295 8.34469 16.5195C8.80469 16.5195 9.17469 16.1395 9.17469 15.6795V14.8395H12.8047V15.6795C12.8047 16.1395 13.1847 16.5195 13.6447 16.5195C14.1047 16.5195 14.4847 16.1395 14.4847 15.6795V14.8395H15.8847L16.4447 14.2795V9.80949H15.7847L15.1047 5.47949H6.89469ZM7.84469 6.59949H14.1347L14.6347 9.80949H7.34469L7.84469 6.59949ZM15.3247 13.7195H6.67469V10.9295H15.3247V13.7195ZM8.52469 12.8795H7.42469V11.7695H8.52469V12.8795ZM14.5847 12.8795H13.4847V11.7695H14.5847V12.8795ZM12.7747 12.8795H9.31469V11.7695H12.7847V12.8795H12.7747Z" fill="white"/>
</svg>
