<svg width="22" height="22" viewBox="0 0 22 22" fill="none" xmlns="http://www.w3.org/2000/svg">
<g id="22 / ic_vehicle_ssing_22">
<path id="&#236;&#130;&#172;&#234;&#176;&#129;&#237;&#152;&#149; 85" fill-rule="evenodd" clip-rule="evenodd" d="M0 5C0 2.23858 2.23858 0 5 0H17C19.7614 0 22 2.23858 22 5V17C22 19.7614 19.7614 22 17 22H5C2.23858 22 0 19.7614 0 17V5Z" fill="#FFD939"/>
<g id="Vector">
<path d="M5.33601 6.2L3 10.3231H3.99498L6.33082 6.2H5.33601ZM8.05383 6.2H7.05901L4.723 10.3231H5.71781L8.05383 6.2ZM7.78805 14.9302C8.62063 14.9302 9.2957 14.2424 9.2957 13.3938C9.2957 12.5452 8.62063 11.8574 7.78805 11.8574C6.95547 11.8574 6.2804 12.5453 6.2804 13.3938C6.2804 14.2422 6.95547 14.9302 7.78805 14.9302ZM8.97275 11.303C10.1057 11.9696 10.4941 13.4462 9.83973 14.6009C9.18541 15.7556 7.73661 16.1512 6.60352 15.4846C5.47025 14.8178 5.08221 13.3414 5.73636 12.1867C6.17618 11.4103 6.9752 10.9792 7.79614 10.9811L10.5052 6.2H11.5L8.68808 11.163C8.78455 11.2035 8.87983 11.2485 8.97275 11.303ZM6.44617 10.3231H7.44099L8.69989 8.10087H7.70525L6.44617 10.3231Z" fill="#040423"/>
<path d="M12.836 6.2L10.5 10.3231H11.495L13.8308 6.2H12.836ZM15.5538 6.2H14.559L12.223 10.3231H13.2178L15.5538 6.2ZM15.288 14.9302C16.1206 14.9302 16.7957 14.2424 16.7957 13.3938C16.7957 12.5452 16.1206 11.8574 15.288 11.8574C14.4555 11.8574 13.7804 12.5453 13.7804 13.3938C13.7804 14.2422 14.4555 14.9302 15.288 14.9302ZM16.4727 11.303C17.6057 11.9696 17.9941 13.4462 17.3397 14.6009C16.6854 15.7556 15.2366 16.1512 14.1035 15.4846C12.9703 14.8178 12.5822 13.3414 13.2364 12.1867C13.6762 11.4103 14.4752 10.9792 15.2961 10.9811L18.0052 6.2H19L16.1881 11.163C16.2845 11.2035 16.3798 11.2485 16.4727 11.303ZM13.9462 10.3231H14.941L16.1999 8.10087H15.2052L13.9462 10.3231Z" fill="#040423"/>
</g>
</g>
</svg>
