<svg width="22" height="22" viewBox="0 0 22 22" fill="none" xmlns="http://www.w3.org/2000/svg">
<path fill-rule="evenodd" clip-rule="evenodd" d="M0 5C0 2.23858 2.23858 0 5 0H17C19.7614 0 22 2.23858 22 5V17C22 19.7614 19.7614 22 17 22H5C2.23858 22 0 19.7614 0 17V5Z" fill="#6BB551"/>
<path fill-rule="evenodd" clip-rule="evenodd" d="M7.92847 16.8352V16.0626H6.62505L6 15.4371L6.00698 7.1555C6.00698 5.96728 6.95986 5 8.13074 5H14.876C16.0469 5 17 5.96728 17 7.15595L16.9928 15.4375L16.3678 16.0626H15.0585V16.8291C15.0585 17.3354 14.6467 17.7469 14.1407 17.7469C13.6349 17.7469 13.2234 17.3354 13.2234 16.8291V16.0626H9.76379V16.8352C9.76379 17.341 9.35204 17.7526 8.84601 17.7526C8.33999 17.7526 7.92846 17.341 7.92846 16.8352L7.92847 16.8352ZM7.25029 14.8125H15.7427L15.7451 12.0403H7.25276L7.25029 14.8125ZM7.25348 11.0401H15.7463L15.7495 7.6559H7.2564L7.25348 11.0401ZM10.3332 7.25011H12.6735V6.25011H10.3332V7.25011ZM13.584 14.0457V12.9322H14.6976V14.0457H13.584ZM8.29525 14.0457V12.9322H9.40854V14.0457H8.29525Z" fill="white"/>
</svg>
