<svg width="22" height="22" viewBox="0 0 22 22" fill="none" xmlns="http://www.w3.org/2000/svg">
<g id="22 / ic_vehicle_seoulbike_22">
<path id="&#236;&#130;&#172;&#234;&#176;&#129;&#237;&#152;&#149; 85" d="M0.5 5C0.5 2.51472 2.51472 0.5 5 0.5H17C19.4853 0.5 21.5 2.51472 21.5 5V17C21.5 19.4853 19.4853 21.5 17 21.5H5C2.51472 21.5 0.5 19.4853 0.5 17V5Z" fill="white" stroke="#DDDDDD"/>
<g id="Vector">
<path fill-rule="evenodd" clip-rule="evenodd" d="M11 8.73531C10.235 7.51312 8.87687 6.7 7.32844 6.7C4.93781 6.7 3 8.63781 3 11.0284C3 13.4191 4.93781 15.3569 7.32844 15.3569C8.87687 15.3569 10.235 14.5437 11 13.3216C10.5838 12.6566 10.3431 11.8709 10.3431 11.0284C10.3431 10.1859 10.5841 9.40031 11 8.73531ZM7.32844 12.9331C6.27656 12.9331 5.42406 12.0803 5.42406 11.0287C5.42406 9.97718 6.27688 9.12406 7.32844 9.12406C8.38 9.12406 9.23281 9.97687 9.23281 11.0287C9.23281 12.0806 8.38 12.9331 7.32844 12.9331Z" fill="#30E291"/>
<path fill-rule="evenodd" clip-rule="evenodd" d="M14.6716 6.7C13.1231 6.7 11.765 7.51312 11 8.73531C11.4163 9.40031 11.6569 10.1859 11.6569 11.0284C11.6569 11.8709 11.4159 12.6566 11 13.3216C11.765 14.5437 13.1231 15.3569 14.6716 15.3569C17.0622 15.3569 19 13.4191 19 11.0284C19 8.63781 17.0622 6.7 14.6716 6.7Z" fill="#3D5567"/>
<path fill-rule="evenodd" clip-rule="evenodd" d="M10.9994 8.73523C10.5832 9.40023 10.3425 10.1859 10.3425 11.0284C10.3425 11.8709 10.5835 12.6565 10.9994 13.3215C11.4157 12.6565 11.6563 11.8709 11.6563 11.0284C11.6563 10.1859 11.4154 9.40023 10.9994 8.73523Z" fill="#002A3A"/>
</g>
</g>
</svg>
