<svg width="22" height="22" viewBox="0 0 22 22" fill="none" xmlns="http://www.w3.org/2000/svg">
<g id="22 / ic_vehicle_swing_22">
<path id="&#236;&#130;&#172;&#234;&#176;&#129;&#237;&#152;&#149; 85" fill-rule="evenodd" clip-rule="evenodd" d="M0 5C0 2.23858 2.23858 0 5 0H17C19.7614 0 22 2.23858 22 5V17C22 19.7614 19.7614 22 17 22H5C2.23858 22 0 19.7614 0 17V5Z" fill="black"/>
<g id="Vector">
<path d="M8.04577 19.5041C8.83507 19.7783 9.67469 19.9458 10.5467 19.9889L8.04577 15.5397V19.5041Z" fill="white"/>
<path d="M6.67824 12.9278L7.95835 12.5927L11.0162 18.0334V12.892L11.0478 12.6878L11.5335 11.1369L12.8387 11.5458L12.3837 12.9965V19.8947C12.8114 19.8286 13.2289 19.7326 13.6344 19.609C13.3594 19.2499 13.1982 18.8158 13.1982 18.3485V13.6962C13.1982 12.4648 14.3167 11.4631 15.6927 11.4618L17.5515 11.4473L17.8879 10.3723L19.1932 10.7812L18.7071 12.3317L18.0598 12.811L15.6949 12.8293C15.0821 12.8293 14.5649 13.2263 14.5649 13.6962V18.3485C14.5649 18.6312 14.7525 18.8879 15.0356 19.0474C16.0624 18.5314 16.9767 17.8248 17.7319 16.9741V16.7801C17.7319 16.3098 17.2138 15.9132 16.6014 15.9132H16.1482V14.5457H16.6014C17.5003 14.5457 18.2901 14.9729 18.7301 15.6126C19.5365 14.2638 20 12.6865 20 11.0009C20 8.75832 19.18 6.70767 17.8236 5.13205V9.50881L17.7929 9.71307L17.3067 11.264L16.0015 10.855L16.4565 9.40391V3.84213C16.181 3.63191 15.8927 3.43703 15.5934 3.25879L14.0101 8.30247L12.7061 7.89311L13.5645 10.632L12.2596 11.0405L9.84057 3.32318L11.1458 2.91382L12.7053 7.89141L14.3521 2.64517C13.3163 2.22899 12.185 2 11 2C9.5425 2 8.16645 2.34625 6.94859 2.96115L7.27011 3.06178L6.784 4.61267L6.132 5.09196H5.39685C4.78409 5.09196 4.26684 5.48853 4.26684 5.95845C4.26684 6.32048 4.5679 6.64839 5.01606 6.77376L5.03355 6.7793C5.11456 6.80404 5.37383 6.81981 5.52904 6.8292C5.72903 6.84156 5.91879 6.85308 6.07486 6.88506C6.8164 7.01767 7.49526 7.37075 7.98735 7.88075C8.51185 8.424 8.80053 9.11821 8.80053 9.83545C8.80053 10.6601 8.43253 11.4286 7.76433 12C7.12684 12.5453 6.28551 12.8455 5.39643 12.8455H4.44594L4.10992 13.9167L2.80508 13.5078L3.29077 11.9573L3.94362 11.4776H5.396C6.51876 11.4776 7.43258 10.7412 7.43258 9.83545C7.43258 9.06832 6.75713 8.3933 5.82668 8.22998L5.79897 8.22444C5.74268 8.21207 5.56401 8.20141 5.44547 8.19416C5.16403 8.17711 4.87364 8.1592 4.63911 8.08841C3.89458 7.87733 3.32531 7.38013 3.06093 6.75542C2.3842 8.02061 2 9.46532 2 11C2 14.4045 3.89032 17.3673 6.67824 18.8964V12.9278ZM7.45774 3.32318L8.76258 2.91382L11.1812 10.632V11.0405L10.6951 12.5914L9.39027 12.1825L9.812 10.8363L7.45774 3.32318Z" fill="white"/>
<path d="M4.63953 8.08926C4.87406 8.15962 5.16488 8.17796 5.44589 8.19502C5.56444 8.20227 5.74311 8.21293 5.79939 8.22529L5.82711 8.23083C6.75798 8.39415 7.43301 9.06875 7.43301 9.8363C7.43301 10.742 6.51962 11.4784 5.39643 11.4784H3.94404L3.2912 11.9582L2.80551 13.5086L4.11035 13.9176L4.44637 12.8464H5.39685C6.28636 12.8464 7.12726 12.5462 7.76476 12.0008C8.43296 11.4294 8.80096 10.661 8.80096 9.8363C8.80096 9.11907 8.51227 8.42486 7.98778 7.8816C7.49526 7.3716 6.81683 7.01853 6.07529 6.88591C5.91922 6.85393 5.72946 6.84241 5.52947 6.83005C5.37425 6.82024 5.11499 6.80489 5.03397 6.78016L5.01649 6.77461C4.56832 6.64925 4.26727 6.32133 4.26727 5.9593C4.26727 5.48939 4.78452 5.09282 5.39728 5.09282H6.13243L6.78442 4.61352L7.27054 3.06264L6.94902 2.962C5.29579 3.79693 3.93509 5.12693 3.06178 6.75713C3.32574 7.38183 3.89543 7.87904 4.63996 8.09012L4.63953 8.08926Z" fill="black"/>
<path d="M11.1458 2.91382L9.84057 3.32318L12.2588 11.0405L13.5636 10.632L12.7053 7.89311L14.0092 8.30247L15.5925 3.25879C15.1972 3.02383 14.7832 2.8183 14.3521 2.64517L12.7053 7.89141L11.1458 2.91382Z" fill="black"/>
<path d="M9.39027 12.1825L10.6951 12.5914L11.1812 11.0405V10.632L8.76258 2.91382L7.45774 3.32318L9.812 10.8363L9.39027 12.1825Z" fill="black"/>
<path d="M16.0015 10.855L17.3067 11.264L17.7929 9.71307L17.8236 9.50881V5.13205C17.4142 4.65659 16.9558 4.22378 16.4565 3.84213V9.40391L16.0015 10.855Z" fill="black"/>
<path d="M12.8383 11.5454L11.533 11.1365L11.0473 12.6873L11.0158 12.8916V18.0329L7.95793 12.5922L6.67782 12.9274L6.67824 18.8964C7.11362 19.1352 7.57074 19.3391 8.04577 19.5041V15.5397L10.5467 19.9889C10.6968 19.9962 10.8473 20 10.9996 20C11.4699 20 11.9322 19.9638 12.3829 19.8942V12.9961L12.8383 11.5454Z" fill="black"/>
<path d="M16.6019 14.5448H16.1486V15.9123H16.6019C17.2138 15.9123 17.7323 16.3093 17.7323 16.7793V16.9733C18.1058 16.5528 18.4402 16.097 18.7306 15.6117C18.2905 14.9721 17.5008 14.5448 16.6019 14.5448Z" fill="black"/>
<path d="M14.5649 18.3485V13.6962C14.5649 13.2263 15.0821 12.8293 15.6949 12.8293L18.0598 12.811L18.7071 12.3317L19.1932 10.7812L17.8879 10.3723L17.5515 11.4473L15.6927 11.4618C14.3167 11.4631 13.1982 12.4648 13.1982 13.6962V18.3485C13.1982 18.8158 13.3594 19.2499 13.6344 19.609C14.1205 19.4606 14.5887 19.2717 15.0361 19.047C14.7529 18.8875 14.5653 18.6312 14.5653 18.3481L14.5649 18.3485Z" fill="black"/>
</g>
</g>
</svg>
