<svg width="22" height="22" viewBox="0 0 22 22" fill="none" xmlns="http://www.w3.org/2000/svg">
<path fill-rule="evenodd" clip-rule="evenodd" d="M0 5C0 2.23858 2.23858 0 5 0H17C19.7614 0 22 2.23858 22 5V17C22 19.7614 19.7614 22 17 22H5C2.23858 22 0 19.7614 0 17V5Z" fill="#00BE72"/>
<path fill-rule="evenodd" clip-rule="evenodd" d="M15.7306 9.68C15.426 9.68 15.1366 9.73731 14.8573 9.81867L12.8494 5.31598C12.7633 5.12396 12.5726 5 12.3619 5H11.002C10.708 5 10.4686 5.23932 10.4686 5.53333C10.4686 5.82801 10.708 6.06666 11.002 6.06666H12.016L12.8627 7.96601L10.4559 12.5533H9.48792C9.35596 11.6853 8.91199 10.934 8.27674 10.4153L9.40198 8.27399H10.0813C10.376 8.27399 10.6146 8.03467 10.6146 7.74066C10.6146 7.44598 10.376 7.20733 10.0813 7.20733H7.64331C7.34936 7.20733 7.10998 7.44598 7.10998 7.74066C7.10998 8.03467 7.34936 8.27399 7.64331 8.27399H8.19739L7.34998 9.88532C7.01001 9.76069 6.65064 9.68 6.27002 9.68C4.46399 9.68 3 11.2053 3 13.086C3 14.9667 4.61133 16.492 6.41736 16.492C8.04736 16.492 9.26868 15.2453 9.49268 13.6193H10.778C10.9767 13.6193 11.158 13.5093 11.25 13.334L13.416 9.20668L13.8914 10.2713C13.0287 10.8847 12.4613 11.916 12.4613 13.086C12.4613 14.9667 13.9247 16.492 15.7306 16.492C17.5366 16.492 19 14.9667 19 13.086C19 11.2053 17.5366 9.68001 15.7306 9.68001L15.7306 9.68ZM6.41737 15.4254C5.16542 15.4254 4.06666 14.332 4.06666 13.086C4.06666 11.796 5.05531 10.7466 6.27003 10.7466C6.47132 10.7466 6.66334 10.7847 6.84864 10.8393L5.79737 12.838C5.66004 13.0987 5.76063 13.4213 6.02137 13.558C6.10072 13.6 6.18531 13.6193 6.26868 13.6193C6.46131 13.6193 6.64661 13.516 6.74134 13.334L7.76795 11.3813C8.19861 11.8087 8.47266 12.412 8.47266 13.086C8.47266 14.4193 7.58863 15.4254 6.41736 15.4254L6.41737 15.4254ZM15.7306 15.4254C14.516 15.4254 13.528 14.3753 13.528 13.086C13.528 12.3574 13.8494 11.714 14.3427 11.284L15.2433 13.304C15.332 13.5013 15.5267 13.6193 15.7306 13.6193C15.8033 13.6193 15.8773 13.6053 15.948 13.5733C16.2167 13.4533 16.3373 13.138 16.2174 12.8687L15.292 10.794C15.434 10.7633 15.5807 10.7467 15.7306 10.7467C16.9453 10.7467 17.9333 11.796 17.9333 13.086C17.9333 14.3753 16.9453 15.4254 15.7306 15.4254L15.7306 15.4254Z" fill="white"/>
</svg>
