<svg width="22" height="22" viewBox="0 0 22 22" fill="none" xmlns="http://www.w3.org/2000/svg">
<g id="22 / ic_vehicle_tashu_22">
<path id="&#236;&#130;&#172;&#234;&#176;&#129;&#237;&#152;&#149; 85" fill-rule="evenodd" clip-rule="evenodd" d="M0 5C0 2.23858 2.23858 0 5 0H17C19.7614 0 22 2.23858 22 5V17C22 19.7614 19.7614 22 17 22H5C2.23858 22 0 19.7614 0 17V5Z" fill="#0095EB"/>
<g id="Vector">
<path d="M8.02535 8.14926C8.41242 8.14926 8.60595 7.96976 8.76533 7.75662C8.93609 7.53225 9.08409 7.29666 9.39146 7.20692C9.44838 7.1957 9.53945 7.17326 9.51669 7.08351C9.49392 6.99377 9.40284 7.00499 9.33454 7.00499C9.03855 7.00499 8.74256 6.99377 8.44657 7.00499C8.03674 7.03864 7.61552 7.03864 7.21707 7.15082C6.96662 7.22935 6.88693 7.36397 7.01215 7.50981C7.29676 7.83514 7.66106 8.05951 8.02535 8.12682V8.14926Z" fill="white"/>
<path d="M12.818 8.45217C13.114 8.2278 13.4214 8.17171 13.7743 8.21659C13.8768 8.2278 13.9792 8.21659 14.0817 8.21659C14.15 8.21659 14.2183 8.18293 14.2297 8.1044C14.2297 8.02587 14.1614 8.00344 14.0931 7.99222C13.6149 7.90247 13.1482 7.75663 12.579 7.76785C12.3968 7.75663 12.1464 7.79029 11.8959 7.86882C11.5658 7.981 11.5089 8.2278 11.7707 8.46339C12.0667 8.73263 12.4537 8.74385 12.8294 8.45217H12.818Z" fill="white"/>
<path d="M18.9886 8.88967C18.9886 8.88967 18.9886 8.8448 18.9886 8.81114V8.7214C18.9886 8.64287 18.9431 8.598 18.8634 8.57556C18.6926 8.5419 18.6471 8.68774 18.6129 8.78871C18.6129 8.79993 18.6129 8.81114 18.6016 8.83358C18.4877 9.11404 18.4422 9.36084 18.4422 9.60765C18.4422 10.1125 18.2942 10.55 17.9868 10.9202C17.9413 10.9763 17.8957 11.0436 17.8616 11.1109C17.8388 11.167 17.7819 11.2792 17.8957 11.3465C17.9185 11.3577 17.9413 11.3689 17.964 11.3689C18.0096 11.3689 18.0665 11.3353 18.112 11.2792C18.1462 11.2343 18.1917 11.2007 18.2259 11.1558C18.3169 11.0548 18.408 10.9538 18.4877 10.8304C18.704 10.4827 18.7609 10.09 18.8179 9.71983C18.8634 9.46181 18.8975 9.18135 19 8.93455C19 8.92333 19 8.91211 19 8.90089V8.87845L18.9886 8.88967Z" fill="white"/>
<path d="M11.316 11.7953C11.316 11.9075 11.2819 12.0533 11.4185 12.1094C11.5665 12.1767 11.6917 12.087 11.7828 11.986C11.9991 11.7616 12.1585 11.4924 12.2495 11.2007C12.3634 10.8642 12.4317 10.8417 12.739 11.0325C12.7846 11.0661 12.8301 11.0885 12.8757 11.1222C13.627 11.5934 14.1735 11.4924 14.6744 10.7857C14.7996 10.6062 14.7654 10.494 14.5605 10.5052C13.9913 10.5164 13.4449 10.4154 12.887 10.3818C12.3292 10.3481 12.3292 10.3706 12.204 9.82087C12.204 9.79844 12.204 9.76478 12.1926 9.74234C12.1698 9.59651 12.1129 9.4731 11.9308 9.48432C11.76 9.49554 11.7031 9.63016 11.7031 9.776C11.7031 10.0004 11.6689 10.2247 11.6006 10.4491C11.4982 10.8193 11.1908 11.1334 11.3046 11.4924C11.3046 11.6495 11.3046 11.728 11.3046 11.8065L11.316 11.7953Z" fill="white"/>
<path d="M7.24056 12.3898C7.24056 12.3898 7.16087 12.3449 7.12672 12.3449C6.89904 12.3449 6.65997 12.3225 6.44367 12.3898C6.19321 12.4683 5.93138 12.4683 5.68092 12.4347C5.20278 12.3786 4.83849 12.143 4.64496 11.683C4.55388 11.4587 4.6108 11.3577 4.84987 11.3465C5.03202 11.3465 5.22555 11.3465 5.39632 11.3801C5.69231 11.4362 5.91999 11.3241 6.11352 11.1221C6.18183 11.0548 6.2729 10.9763 6.22737 10.8641C6.18183 10.7519 6.06799 10.7631 5.96553 10.7631C5.56708 10.7631 5.16863 10.7631 4.78157 10.7744C4.48558 10.7968 4.28066 10.7295 4.18959 10.4266C4.16682 10.3593 4.12128 10.292 4.08713 10.2359C4.04159 10.1573 3.98467 10.0676 3.88221 10.0788C3.75699 10.09 3.72283 10.2022 3.68868 10.292C3.63176 10.4378 3.65453 10.5949 3.64314 10.8192C3.64314 11.3241 3.82529 11.8401 4.12128 12.3113C4.40589 12.7488 4.77018 13.1302 5.3394 13.22C6.10214 13.3434 6.65997 12.9283 7.20641 12.5132C7.24056 12.4908 7.27472 12.4459 7.26333 12.401L7.24056 12.3898Z" fill="white"/>
<path d="M5.00865 9.71981C5.1111 9.71981 5.20218 9.66372 5.28187 9.60762C5.36156 9.55153 5.46402 9.49544 5.44125 9.37204C5.41848 9.27107 5.30464 9.25986 5.22495 9.23742C4.83788 9.14767 4.45082 9.18133 4.06375 9.18133C3.80192 9.18133 3.5287 9.18133 3.26686 9.18133C3.1644 9.18133 3.03917 9.15889 3.00502 9.28229C2.97087 9.42813 3.11886 9.45057 3.20994 9.48422C3.79053 9.70859 4.3939 9.75346 5.00865 9.70859V9.71981Z" fill="white"/>
<path d="M9.39158 11.1334C9.48266 11.1334 9.57373 11.1558 9.65342 11.2007C10.2226 11.4924 10.6666 11.2007 10.6438 10.5725C10.6438 10.4042 10.5642 10.3369 10.382 10.3705C10.1543 10.4154 9.91526 10.4603 9.68757 10.4715C9.10698 10.5051 8.83376 10.55 8.86791 9.77595C8.89068 9.37209 8.50361 8.99066 8.10517 8.93457C7.80918 8.8897 7.60426 9.00188 7.53595 9.29356C7.45626 9.63011 7.35381 9.96666 7.38796 10.3144C7.47903 11.1782 7.52457 12.0645 7.92302 12.8722C8.0824 13.2088 8.16209 13.6014 7.95717 13.9267C7.74087 14.2857 7.44488 14.5774 7.09197 14.8242L7.03505 14.8803C6.81875 15.0598 7.01228 15.3402 7.14889 15.3739C7.2855 15.4076 7.44488 15.4412 7.82056 15.3739C8.13932 15.3178 8.25316 15.0934 8.25316 15.0934C8.25316 15.0934 8.33285 15.0037 8.367 14.9588L8.40115 14.9139L8.44669 14.8579L8.50361 14.7793L8.74268 14.4764C8.99313 14.196 9.24359 13.9267 9.52819 13.6687C9.73311 13.4892 9.74449 13.3209 9.63065 13.0966C9.3802 12.6142 9.11836 12.1318 9.00452 11.5933C8.92483 11.2343 9.00452 11.1221 9.3802 11.1446L9.39158 11.1334Z" fill="white"/>
<path d="M17.7475 9.13655C17.5085 9.9667 17.0303 10.651 16.3473 11.1783C15.8236 11.5934 15.2544 11.9636 14.56 12.0533C14.2526 12.087 13.9338 12.0533 13.672 12.2889C13.5923 12.3562 13.4785 12.3562 13.376 12.3562C12.5336 12.3113 11.7025 12.502 10.8715 12.4684C10.7235 12.4684 10.5755 12.4796 10.4389 12.5581C10.1656 12.704 10.1543 12.8386 10.3933 13.0181C10.6438 13.2088 10.9398 13.2537 11.2585 13.2761C11.5431 13.2986 11.6342 13.3995 11.5659 13.6688L11.4293 13.9717C11.4293 13.9717 10.9056 14.7121 10.9853 14.9589C10.9853 14.9925 11.0081 15.0037 11.0195 15.0262C11.0195 15.0262 11.0195 15.0486 11.0422 15.0823C11.0764 15.1496 11.1561 15.2505 11.2927 15.2505C11.4407 15.2505 11.6114 15.172 11.7594 15.0486C11.805 15.0262 11.8391 14.9925 11.8847 14.9364C11.8847 14.9252 11.9074 14.9252 11.9188 14.9028C11.9188 14.8916 11.9188 14.8803 11.9416 14.8691C11.9871 14.8242 12.0213 14.7906 12.0668 14.7233C12.397 14.2745 12.6702 13.7585 12.6702 13.7585L12.7043 13.6912C12.784 13.5454 12.7612 13.4668 12.8296 13.3098C12.8637 13.22 12.9434 13.1639 13.0459 13.1751C13.1483 13.1976 13.2052 13.2761 13.2166 13.3659C13.2622 13.579 13.2394 13.8034 13.2166 14.0165C13.1939 14.2521 13.1483 14.4877 13.2166 14.7233C13.3077 15.0935 13.7744 14.914 13.8655 14.813C14.1729 14.454 14.0591 13.9941 13.968 13.6014C13.8314 13.0405 13.8428 12.9844 14.3892 12.7825C14.4803 12.7489 14.56 12.7264 14.651 12.7152C15.3455 12.5806 15.9944 12.345 16.4953 11.8065C17.1214 11.1334 17.5199 10.3257 17.8045 9.4731C17.8614 9.2936 17.8614 9.10289 17.9069 8.87852C17.7931 8.96827 17.7703 9.05802 17.7475 9.14776V9.13655Z" fill="white"/>
</g>
</g>
</svg>
