<svg width="22" height="22" viewBox="0 0 22 22" fill="none" xmlns="http://www.w3.org/2000/svg">
<path fill-rule="evenodd" clip-rule="evenodd" d="M0 5C0 2.23858 2.23858 0 5 0H17C19.7614 0 22 2.23858 22 5V17C22 19.7614 19.7614 22 17 22H5C2.23858 22 0 19.7614 0 17V5Z" fill="#58CD61"/>
<path d="M11 4C7.13405 4 4 7.13405 4 11C4 14.8659 7.13405 18 11 18C14.8659 18 18 14.8659 18 11V4H11ZM11 16.5416C7.8904 16.5416 5.37888 13.9802 5.46025 10.8523C5.53857 7.84031 8.04563 5.45837 11.0588 5.45837H16.5416V7.5H11.0014C9.04022 7.5 7.45579 9.11289 7.50235 11.0847C7.54657 12.9532 9.07949 14.472 10.9485 14.4995C12.3833 14.5207 13.623 13.678 14.183 12.4584H16.3464C15.706 14.8111 13.5557 16.5416 11 16.5416ZM16.5433 11H14.5V8.95673H16.5433V11Z" fill="white"/>
</svg>
