<svg width="22" height="22" viewBox="0 0 22 22" fill="none" xmlns="http://www.w3.org/2000/svg">
<path d="M0.5 5C0.5 2.51472 2.51472 0.5 5 0.5H17C19.4853 0.5 21.5 2.51472 21.5 5V17C21.5 19.4853 19.4853 21.5 17 21.5H5C2.51472 21.5 0.5 19.4853 0.5 17V5Z" fill="white" stroke="#DDDDDD"/>
<g clip-path="url(#clip0_10_3423)">
<mask id="mask0_10_3423" style="mask-type:alpha" maskUnits="userSpaceOnUse" x="3" y="6" width="16" height="10">
<rect x="3" y="6" width="16" height="9.37931" fill="#D9D9D9"/>
</mask>
<g mask="url(#mask0_10_3423)">
<path d="M10.9257 8.41379C10.4885 9.09999 10.2565 9.8968 10.2568 10.7104C10.2568 11.5553 10.5033 12.3435 10.9257 13.0078C11.3628 12.3213 11.5945 11.5242 11.5937 10.7104C11.5943 9.89688 11.3626 9.10008 10.9257 8.41379Z" fill="#002A3A"/>
<path d="M7.29663 12.5732C6.27006 12.5732 5.43457 11.7377 5.43457 10.7104C5.43457 9.68385 6.27006 8.84835 7.29663 8.84835C8.32394 8.84835 9.15869 9.68385 9.15869 10.7104C9.15869 11.7377 8.32394 12.5732 7.29663 12.5732ZM10.926 8.41378C10.163 7.21268 8.82178 6.41379 7.29663 6.41379C4.92735 6.41379 3 8.34114 3 10.7104C3 13.0804 4.92735 15.0078 7.29663 15.0078C8.82178 15.0078 10.163 14.2091 10.926 13.0078C10.4889 12.3213 10.2571 11.5242 10.2579 10.7104C10.2573 9.89686 10.4891 9.10005 10.926 8.41378ZM67.9732 16.7413H66.9595C66.7835 16.7413 66.6414 16.8844 66.6414 17.0604V19.8175H67.2786V17.3783H67.9732V16.7413ZM72.7684 18.301C72.6304 18.3008 72.4982 18.2458 72.4007 18.1482C72.3032 18.0505 72.2484 17.9182 72.2483 17.7802C72.2485 17.6423 72.3034 17.5101 72.4009 17.4126C72.4984 17.3151 72.6306 17.2603 72.7684 17.2601C72.9064 17.2601 73.0388 17.3149 73.1364 17.4124C73.234 17.5099 73.289 17.6422 73.2893 17.7802C73.2892 17.9183 73.2343 18.0507 73.1366 18.1484C73.0389 18.246 72.9065 18.3009 72.7684 18.301ZM72.7684 16.6229C72.4614 16.6229 72.1669 16.7448 71.9498 16.9619C71.7327 17.1791 71.6107 17.4735 71.6107 17.7806C71.6107 18.0876 71.7327 18.3821 71.9498 18.5992C72.1669 18.8163 72.4614 18.9383 72.7684 18.9383C72.9205 18.9383 73.0711 18.9084 73.2116 18.8502C73.3521 18.7921 73.4797 18.7067 73.5872 18.5992C73.6947 18.4916 73.7799 18.3639 73.838 18.2234C73.8961 18.0829 73.9259 17.9323 73.9258 17.7802C73.9258 17.6282 73.896 17.4777 73.8378 17.3372C73.7797 17.1968 73.6944 17.0692 73.587 16.9617C73.4795 16.8542 73.3519 16.7689 73.2114 16.7108C73.071 16.6527 72.9204 16.6228 72.7684 16.6229ZM69.7312 20.7766C69.5932 20.7764 69.4609 20.7214 69.3633 20.6238C69.2658 20.5261 69.211 20.3938 69.2109 20.2558C69.2111 20.1179 69.266 19.9857 69.3635 19.8882C69.4611 19.7907 69.5933 19.7358 69.7312 19.7357C69.8692 19.7357 70.0015 19.7905 70.0992 19.888C70.1968 19.9855 70.2518 20.1178 70.252 20.2558C70.2519 20.3939 70.197 20.5263 70.0994 20.6239C70.0017 20.7216 69.8693 20.7765 69.7312 20.7766ZM69.7312 19.0984C69.5792 19.0984 69.4287 19.1283 69.2883 19.1865C69.1479 19.2446 69.0203 19.3299 68.9128 19.4374C68.8053 19.5448 68.7201 19.6724 68.6619 19.8128C68.6038 19.9533 68.5738 20.1038 68.5739 20.2558C68.5738 20.4078 68.6038 20.5583 68.6619 20.6987C68.7201 20.8391 68.8053 20.9667 68.9128 21.0742C69.0203 21.1816 69.1479 21.2669 69.2883 21.325C69.4287 21.3832 69.5792 21.4131 69.7312 21.4131C69.8832 21.4131 70.0337 21.3832 70.1741 21.325C70.3145 21.2668 70.4421 21.1816 70.5496 21.0741C70.657 20.9667 70.7423 20.8391 70.8004 20.6987C70.8586 20.5582 70.8885 20.4077 70.8885 20.2558C70.8885 20.1038 70.8586 19.9533 70.8004 19.8129C70.7423 19.6725 70.657 19.5449 70.5496 19.4374C70.4421 19.3299 70.3145 19.2447 70.1741 19.1865C70.0337 19.1284 69.8832 19.0984 69.7312 19.0984ZM74.392 19.8749H75.0285V16.6256H74.3922L74.392 19.8749ZM64.7714 18.2981H64.2763V17.3785H64.7714V18.2981ZM64.7714 16.7413H63.9574C63.7822 16.7413 63.6398 16.8844 63.6398 17.0604V18.6162C63.6398 18.7924 63.7822 18.9346 63.9574 18.9346H66.193V18.2983H65.4077V17.3787H66.193V16.7413H64.7714ZM68.9235 18.0516H70.8582V17.4144H69.2418V17.1415H70.5393C70.7153 17.1415 70.8582 16.9993 70.8582 16.8233V15.9137C70.8582 15.7384 70.7153 15.5956 70.5393 15.5956H68.6053V16.2319H70.2211V16.505H68.9237C68.7477 16.505 68.6055 16.6473 68.6055 16.8231V17.7335C68.6055 17.9087 68.7477 18.0516 68.9237 18.0516M67.9401 18.9346H71.5226V18.2983H67.9401V18.9346Z" fill="#00B551"/>
<path d="M14.5543 6.41379C13.0291 6.41379 11.6879 7.21268 10.9258 8.41378C11.3627 9.10007 11.5944 9.89688 11.5937 10.7104C11.5937 11.5553 11.3482 12.3435 10.9258 13.0078C11.6879 14.2091 13.0291 15.0078 14.5543 15.0078C16.9236 15.0078 18.8516 13.0804 18.8516 10.7104C18.8516 8.34114 16.9236 6.41379 14.5543 6.41379ZM27.5587 7.31898H25.6268V8.53295H26.9515V13.1825H28.1656V7.92606C28.1657 7.84634 28.15 7.76741 28.1195 7.69375C28.089 7.6201 28.0443 7.55318 27.9879 7.4968C27.9316 7.44043 27.8647 7.39571 27.791 7.3652C27.7174 7.33468 27.6385 7.31898 27.5587 7.31898ZM22.818 7.31898C22.6333 7.31898 22.4594 7.40303 22.3439 7.54666L19.963 10.523L20.9107 11.2816L22.8178 8.89727L24.7245 11.2816L25.6728 10.523L23.2912 7.54666C23.2344 7.47565 23.1624 7.41831 23.0805 7.3789C22.9986 7.33949 22.9089 7.31901 22.818 7.31898ZM36.9996 11.028L38.5702 8.93681L40.1411 11.0278L41.1116 10.2988L39.7849 8.53295H41.0038V7.31898H36.1369V8.53295H37.3559L36.0292 10.2988L36.9996 11.028ZM50.2481 10.2988L48.9222 8.5324H50.1411V7.31898H45.2733V8.5324H46.4926L45.1662 10.2988L46.1369 11.028L47.7073 8.93681L49.2784 11.0278L50.2481 10.2988ZM58.1267 11.4999V7.92606C58.1268 7.84634 58.1111 7.76741 58.0806 7.69375C58.0501 7.6201 58.0054 7.55318 57.9491 7.4968C57.8927 7.44043 57.8258 7.39571 57.7521 7.3652C57.6785 7.33468 57.5996 7.31898 57.5198 7.31898H54.1683V8.53295H56.9126V11.4999H58.1267ZM49.0189 12.1659V14.4482C49.0189 14.5279 49.0347 14.6069 49.0652 14.6806C49.0958 14.7543 49.1406 14.8213 49.197 14.8776C49.2535 14.934 49.3205 14.9787 49.3942 15.0092C49.4679 15.0397 49.5469 15.0553 49.6267 15.0552H53.4235V13.8413H50.2331V12.1659H49.0189ZM41.8581 7.92606V13.1825H43.0723V8.53295H44.3977V7.31898H42.4659C42.3048 7.31888 42.1503 7.38276 42.0363 7.49657C41.9224 7.61038 41.8582 7.76499 41.8581 7.92606ZM52.2101 12.7406H53.4242V7.92588C53.4242 7.84616 53.4085 7.76723 53.378 7.69358C53.3475 7.61994 53.3028 7.55303 53.2464 7.49667C53.19 7.44031 53.1231 7.39561 53.0494 7.36512C52.9758 7.33464 52.8969 7.31896 52.8171 7.31898H50.8854V8.53295H52.2101V12.7406ZM60.8028 7.31898H58.8708V8.53295H60.1963V13.1825H61.4102V7.92606C61.4102 7.8463 61.3945 7.76732 61.3639 7.69364C61.3334 7.61996 61.2886 7.55302 61.2322 7.49665C61.1757 7.44027 61.1088 7.39557 61.0351 7.36508C60.9613 7.3346 60.8824 7.31893 60.8026 7.31898M31.7526 11.9669H28.945V13.181H31.7526V14.2722H30.2123V15.4856H33.2928V16.0057H30.8192C30.7395 16.0057 30.6606 16.0214 30.5869 16.0519C30.5133 16.0824 30.4464 16.1271 30.39 16.1835C30.3337 16.2399 30.289 16.3068 30.2585 16.3804C30.228 16.4541 30.2123 16.533 30.2123 16.6127V18.3463C30.2123 18.5072 30.2763 18.6616 30.3901 18.7754C30.5039 18.8892 30.6583 18.9532 30.8192 18.9532H34.506V17.7392H31.4263V17.2191H33.8999C34.0606 17.219 34.2148 17.1551 34.3284 17.0414C34.4421 16.9277 34.506 16.7735 34.506 16.6127V14.8792C34.506 14.5438 34.2346 14.2723 33.8999 14.2723H32.9665V13.181H35.7733V11.9669H31.7526ZM32.3596 8.26206C32.9119 8.26206 33.3969 8.74647 33.3969 9.29893C33.3965 9.5739 33.2871 9.8375 33.0927 10.0319C32.8982 10.2264 32.6346 10.3358 32.3596 10.3362C31.7877 10.3362 31.3215 9.8707 31.3215 9.29893C31.3215 8.72698 31.7877 8.26206 32.3596 8.26206ZM32.3596 11.5503C33.603 11.5503 34.6103 10.5425 34.6103 9.29893C34.6103 8.08054 33.578 7.04808 32.3596 7.04808C31.1161 7.04808 30.1081 8.05535 30.1081 9.29893C30.1081 10.5423 31.1159 11.5503 32.3596 11.5503ZM38.2 17.7636C38.1209 17.7406 37.8416 17.6673 37.7071 17.6321C37.6663 17.6213 37.6376 17.6141 37.6312 17.6119C37.4866 17.5726 37.4164 17.4984 37.4164 17.385C37.4164 17.1724 37.6727 17.1558 37.7511 17.1558C38.004 17.1558 38.134 17.2614 38.1476 17.4777C38.1491 17.492 38.1605 17.5034 38.175 17.5034H38.5198C38.5234 17.5035 38.527 17.5028 38.5304 17.5015C38.5338 17.5001 38.5368 17.4981 38.5394 17.4956C38.542 17.4931 38.5441 17.49 38.5455 17.4867C38.547 17.4834 38.5477 17.4798 38.5478 17.4762C38.5478 17.0223 38.1542 16.8196 37.7647 16.8196C37.4042 16.8196 37.0169 17.0092 37.0169 17.4265C37.0169 17.6099 37.096 17.8499 37.473 17.9525C37.5701 17.9792 37.6562 18.0007 37.7323 18.02C37.866 18.0546 37.9716 18.0811 38.0578 18.1142C38.1204 18.1379 38.2029 18.1859 38.2029 18.3312C38.2029 18.5007 38.0577 18.6013 37.8136 18.6013C37.6376 18.6013 37.3423 18.5502 37.3423 18.2069C37.3423 18.1996 37.3394 18.1927 37.3343 18.1876C37.3292 18.1825 37.3223 18.1796 37.315 18.1796H36.9702C36.9665 18.1795 36.9628 18.1802 36.9593 18.1816C36.9558 18.1829 36.9527 18.185 36.95 18.1875C36.9449 18.193 36.9421 18.2001 36.9421 18.2076C36.95 18.6644 37.2676 18.9383 37.7921 18.9383C38.1654 18.9383 38.6031 18.7687 38.6031 18.2924C38.6031 18.104 38.4974 17.8528 38.2 17.7636ZM41.2238 18.5381H40.159V18.0165H41.1245C41.1281 18.0166 41.1317 18.0159 41.1351 18.0145C41.1384 18.0132 41.1415 18.0112 41.144 18.0086C41.1466 18.0061 41.1486 18.003 41.15 17.9997C41.1514 17.9963 41.1521 17.9927 41.1521 17.9891V17.7077C41.1521 17.7041 41.1514 17.7005 41.1501 17.6971C41.1487 17.6937 41.1467 17.6907 41.1441 17.6881C41.1415 17.6855 41.1385 17.6835 41.1351 17.6821C41.1317 17.6808 41.1281 17.6801 41.1245 17.6801H40.159V17.2198H41.2043C41.2194 17.2198 41.2324 17.207 41.2324 17.1917V16.8938C41.2323 16.8864 41.2293 16.8793 41.2241 16.8742C41.2188 16.869 41.2117 16.8661 41.2043 16.8662H39.7869C39.7833 16.8661 39.7797 16.8668 39.7763 16.8682C39.7729 16.8695 39.7698 16.8716 39.7672 16.8741C39.7646 16.8767 39.7625 16.8797 39.7611 16.8831C39.7597 16.8865 39.759 16.8901 39.759 16.8938V18.8634C39.759 18.8785 39.7711 18.8915 39.7869 18.8915H41.2238C41.2389 18.8915 41.251 18.8787 41.251 18.8634V18.5655C41.2511 18.5619 41.2504 18.5583 41.2491 18.5549C41.2477 18.5516 41.2457 18.5486 41.2432 18.546C41.2407 18.5434 41.2376 18.5414 41.2343 18.54C41.231 18.5386 41.2274 18.5381 41.2238 18.5381ZM43.8445 17.8786C43.8445 18.2118 43.695 18.6013 43.2733 18.6013C42.8523 18.6013 42.703 18.2118 42.703 17.8786C42.703 17.5452 42.8523 17.1558 43.2733 17.1558C43.695 17.1558 43.8445 17.5452 43.8445 17.8786ZM43.2733 16.8196C42.7013 16.8196 42.3021 17.2549 42.3021 17.8786C42.3021 18.502 42.7015 18.9383 43.2733 18.9383C43.8452 18.9383 44.2447 18.502 44.2447 17.8786C44.2447 17.2551 43.8452 16.8196 43.2733 16.8196ZM47.0364 16.8664H46.6914C46.6878 16.8663 46.6842 16.867 46.6809 16.8683C46.6776 16.8697 46.6746 16.8717 46.672 16.8742C46.6695 16.8768 46.6675 16.8798 46.6661 16.8831C46.6648 16.8864 46.6641 16.89 46.6642 16.8936V18.0417C46.6642 18.3391 46.6311 18.5848 46.2281 18.5848C45.8242 18.5848 45.7921 18.3391 45.7921 18.0417V16.8936C45.7919 16.8863 45.7888 16.8793 45.7836 16.8742C45.7783 16.8691 45.7712 16.8663 45.7639 16.8664H45.4191C45.4119 16.8664 45.405 16.8692 45.3999 16.8743C45.3947 16.8794 45.3919 16.8864 45.3919 16.8936V18.1544C45.3919 18.6523 45.6964 18.9383 46.2281 18.9383C46.7589 18.9383 47.0636 18.6523 47.0636 18.1544V16.8936C47.0636 16.89 47.0629 16.8864 47.0615 16.8831C47.0601 16.8798 47.0581 16.8768 47.0556 16.8743C47.053 16.8717 47.05 16.8697 47.0467 16.8684C47.0434 16.867 47.04 16.8663 47.0364 16.8664ZM49.69 18.5381H48.7158V16.8936C48.7158 16.8864 48.713 16.8794 48.7079 16.8743C48.7027 16.8692 48.6958 16.8664 48.6886 16.8664H48.3438C48.3365 16.8663 48.3294 16.8691 48.3242 16.8742C48.3189 16.8793 48.3158 16.8863 48.3156 16.8936V18.8634C48.3156 18.8785 48.3285 18.8915 48.3438 18.8915H49.69C49.7051 18.8915 49.7172 18.8787 49.7172 18.8634V18.5655C49.7172 18.5619 49.7166 18.5583 49.7152 18.5549C49.7139 18.5516 49.7119 18.5486 49.7094 18.546C49.7068 18.5434 49.7038 18.5414 49.7005 18.54C49.6972 18.5386 49.6936 18.5381 49.69 18.5381ZM52.8876 17.995H53.4687C53.6648 17.995 53.7725 18.0925 53.7725 18.2701C53.7725 18.4533 53.6648 18.5546 53.4687 18.5546H52.8876V17.995ZM53.422 17.691H52.8876V17.2033H53.422C53.6087 17.2033 53.6843 17.273 53.6843 17.4453C53.6843 17.597 53.5837 17.691 53.422 17.691ZM53.8445 17.7973C54.0002 17.7098 54.0843 17.5646 54.0843 17.3822C54.0843 17.0545 53.861 16.8664 53.4722 16.8664H52.5146C52.5073 16.8664 52.5003 16.8692 52.4951 16.8743C52.4899 16.8794 52.4869 16.8863 52.4867 16.8936V18.8634C52.4867 18.8785 52.4995 18.8915 52.5146 18.8915H53.4198C53.8976 18.8915 54.1727 18.681 54.1727 18.3146C54.1727 18.0546 54.0541 17.8692 53.8445 17.7973ZM55.7122 16.8664H55.3674C55.3638 16.8663 55.3602 16.867 55.3568 16.8683C55.3534 16.8697 55.3504 16.8716 55.3478 16.8742C55.3452 16.8767 55.3431 16.8797 55.3417 16.883C55.3402 16.8864 55.3395 16.8899 55.3394 16.8936V18.8634C55.3394 18.8785 55.3516 18.8915 55.3674 18.8915H55.7122C55.7273 18.8915 55.7394 18.8787 55.7394 18.8634V16.8938C55.7395 16.8902 55.7388 16.8866 55.7375 16.8832C55.7361 16.8799 55.7341 16.8768 55.7316 16.8743C55.7291 16.8717 55.726 16.8697 55.7227 16.8683C55.7194 16.8669 55.7158 16.8664 55.7122 16.8664ZM57.9406 17.6831L58.7108 16.9138C58.7146 16.9099 58.7172 16.9049 58.7182 16.8996C58.7191 16.8942 58.7185 16.8886 58.7163 16.8836C58.7143 16.8785 58.7108 16.8741 58.7062 16.871C58.7016 16.8679 58.6961 16.8663 58.6906 16.8664H58.2661C58.2625 16.8663 58.2588 16.8671 58.2555 16.8686C58.2521 16.8701 58.2491 16.8722 58.2467 16.875L57.4163 17.7228V16.8936C57.4163 16.89 57.4156 16.8864 57.4142 16.8831C57.4128 16.8798 57.4108 16.8768 57.4083 16.8743C57.4057 16.8717 57.4027 16.8697 57.3994 16.8684C57.3961 16.867 57.3925 16.8663 57.3889 16.8664H57.0441C57.0405 16.8663 57.0369 16.867 57.0336 16.8683C57.0303 16.8697 57.0273 16.8717 57.0247 16.8742C57.0222 16.8768 57.0202 16.8798 57.0188 16.8831C57.0175 16.8864 57.0168 16.89 57.0169 16.8936V18.8634C57.0168 18.867 57.0174 18.8707 57.0188 18.874C57.0201 18.8774 57.0221 18.8805 57.0246 18.8831C57.0271 18.8858 57.0302 18.8878 57.0335 18.8893C57.0368 18.8907 57.0404 18.8915 57.0441 18.8915H57.3889C57.404 18.8915 57.4163 18.8787 57.4163 18.8634V18.2126L57.6662 17.9656L58.2926 18.8792C58.2953 18.8829 58.2987 18.8859 58.3027 18.8881C58.3067 18.8902 58.3111 18.8914 58.3156 18.8915H58.7467C58.7518 18.8915 58.7567 18.89 58.761 18.8874C58.7653 18.8847 58.7688 18.881 58.7712 18.8765C58.7733 18.8719 58.7743 18.8668 58.7739 18.8617C58.7735 18.8567 58.7718 18.8518 58.7689 18.8476L57.9406 17.6831ZM61.2811 18.5381H60.2172V18.0165H61.1827C61.1863 18.0165 61.1899 18.0158 61.1932 18.0145C61.1966 18.0131 61.1996 18.0111 61.2022 18.0085C61.2047 18.006 61.2067 18.003 61.2081 17.9996C61.2095 17.9963 61.2102 17.9927 61.2101 17.9891V17.7077C61.2102 17.7041 61.2095 17.7005 61.2081 17.6972C61.2068 17.6938 61.2048 17.6907 61.2022 17.6882C61.1997 17.6856 61.1966 17.6836 61.1933 17.6822C61.1899 17.6808 61.1864 17.6801 61.1827 17.6801H60.2172V17.2198H61.2625C61.2776 17.2198 61.2898 17.207 61.2898 17.1917V16.8938C61.2898 16.8902 61.2891 16.8866 61.2878 16.8832C61.2865 16.8799 61.2845 16.8768 61.2819 16.8743C61.2794 16.8717 61.2764 16.8697 61.273 16.8683C61.2697 16.8669 61.2662 16.8662 61.2625 16.8662H59.8444C59.8371 16.8661 59.83 16.869 59.8247 16.8742C59.8194 16.8793 59.8164 16.8864 59.8163 16.8938V18.8634C59.8163 18.8785 59.8292 18.8915 59.8444 18.8915H61.2811C61.2969 18.8915 61.3093 18.8787 61.3093 18.8634V18.5655C61.3093 18.5618 61.3085 18.5582 61.3071 18.5548C61.3057 18.5514 61.3036 18.5483 61.301 18.5458C61.2984 18.5432 61.2953 18.5412 61.2918 18.5398C61.2884 18.5385 61.2848 18.538 61.2811 18.5381Z" fill="#415464"/>
</g>
</g>
<defs>
<clipPath id="clip0_10_3423">
<rect width="16" height="9.37931" fill="white" transform="translate(3 6)"/>
</clipPath>
</defs>
</svg>
