<svg width="22" height="22" viewBox="0 0 22 22" fill="none" xmlns="http://www.w3.org/2000/svg">
<path fill-rule="evenodd" clip-rule="evenodd" d="M0 5C0 2.23858 2.23858 0 5 0H17C19.7614 0 22 2.23858 22 5V17C22 19.7614 19.7614 22 17 22H5C2.23858 22 0 19.7614 0 17V5Z" fill="#E41E6E"/>
<g clip-path="url(#clip0_1686_85812)">
<path fill-rule="evenodd" clip-rule="evenodd" d="M15.1444 7.5199C15.3274 7.33686 15.6242 7.33686 15.8072 7.5199L16.8017 8.51412C17.3503 9.06303 17.3503 9.95412 16.8017 10.503L10.504 16.8007C9.9551 17.3494 9.064 17.3494 8.5151 16.8007L7.52088 15.8062C7.33783 15.6232 7.33783 15.3265 7.52088 15.1434C7.70369 14.9604 7.70369 14.6634 7.52088 14.4804C7.33783 14.2976 7.04088 14.2976 6.85783 14.4804C6.67479 14.6634 6.37807 14.6634 6.19502 14.4804L5.20057 13.4862C4.65189 12.9372 4.65189 12.0462 5.20057 11.4972L11.4982 5.19959C12.0471 4.65092 12.9382 4.65092 13.4871 5.19959L14.4813 6.19404C14.6644 6.37709 14.6644 6.67381 14.4813 6.85686C14.2985 7.0399 14.2985 7.33686 14.4813 7.5199C14.6644 7.70271 14.9613 7.70271 15.1444 7.5199ZM13.4856 10.503L11.4968 8.51425C11.3139 8.33128 11.3139 8.0343 11.4968 7.85133C11.6798 7.66837 11.9768 7.66837 12.1597 7.85133L14.1485 9.84007C14.3314 10.023 14.3314 10.32 14.1485 10.503C13.9655 10.6859 13.6685 10.6859 13.4856 10.503ZM8.18313 11.8279L9.17747 10.8335C9.36043 10.6506 9.65743 10.6505 9.84039 10.8335C10.0234 11.0165 10.0233 11.3135 9.84038 11.4964L8.84603 12.4908C8.66307 12.6737 8.36607 12.6738 8.18311 12.4908C8.00015 12.3078 8.00017 12.0108 8.18313 11.8279ZM11.8289 10.8347L9.50866 13.1549C9.32569 13.3379 9.32569 13.6349 9.50866 13.8178C9.69162 14.0008 9.98861 14.0008 10.1716 13.8178L12.4918 11.4976C12.6747 11.3147 12.6747 11.0177 12.4918 10.8347C12.3088 10.6518 12.0118 10.6518 11.8289 10.8347Z" fill="white"/>
</g>
<defs>
<clipPath id="clip0_1686_85812">
<rect width="15" height="15" fill="white" transform="translate(3.5 3.5)"/>
</clipPath>
</defs>
</svg>
