<svg width="22" height="22" viewBox="0 0 22 22" fill="none" xmlns="http://www.w3.org/2000/svg">
<path fill-rule="evenodd" clip-rule="evenodd" d="M0 5C0 2.23858 2.23858 0 5 0H17C19.7614 0 22 2.23858 22 5V17C22 19.7614 19.7614 22 17 22H5C2.23858 22 0 19.7614 0 17V5Z" fill="#FF8B00"/>
<path fill-rule="evenodd" clip-rule="evenodd" d="M15.655 12.9877L14.3183 6.84765C14.6598 6.60632 14.8844 6.21032 14.8844 5.76037C14.8844 5.02435 14.2877 4.427 13.551 4.427C12.9917 4.427 12.5144 4.77234 12.3164 5.26105H11.0257C10.7496 5.26105 10.5257 5.48505 10.5257 5.76105C10.5257 6.03705 10.7496 6.26105 11.0257 6.26105H12.3164C12.4897 6.68701 12.8771 6.9997 13.3451 7.073L14.3771 11.8151C13.197 12.2611 12.3617 13.3104 12.1924 14.5584H9.77307C9.54309 12.8823 8.11706 11.583 6.37903 11.583C5.75501 11.583 5.14368 11.7524 4.61109 12.0717C4.3744 12.2137 4.297 12.521 4.4397 12.7577C4.58167 12.9937 4.88977 13.0724 5.12574 12.929C5.50233 12.703 5.93568 12.583 6.37904 12.583C7.56569 12.583 8.55507 13.4344 8.77308 14.5584H8.36768C8.15638 13.6557 7.349 12.9817 6.37976 12.9817C5.24963 12.9817 4.33301 13.8957 4.33301 15.023C4.33301 16.151 5.24964 17.0651 6.37976 17.0651C7.32312 17.0651 8.10901 16.4244 8.3457 15.5584H13.6277C13.8644 16.4244 14.6504 17.0651 15.5937 17.0651C16.7237 17.0651 17.6404 16.151 17.6404 15.023C17.6404 13.9164 16.7563 13.021 15.655 12.9877V12.9877ZM13.7176 5.42699C13.9936 5.42699 14.2176 5.65101 14.2176 5.92704C14.2176 6.20297 13.9936 6.42699 13.7176 6.42699C13.4417 6.42699 13.2176 6.20297 13.2176 5.92704C13.2176 5.65101 13.4417 5.42699 13.7176 5.42699ZM14.5917 12.799L14.6797 13.2057C14.1457 13.4737 13.745 13.963 13.6057 14.5583H13.2018C13.3517 13.7804 13.8684 13.1237 14.5917 12.799ZM6.37975 16.0651C5.80236 16.0651 5.333 15.5976 5.333 15.023C5.333 14.449 5.80236 13.9817 6.37975 13.9817C6.95641 13.9817 7.42565 14.449 7.42565 15.023C7.42565 15.5977 6.95641 16.0651 6.37975 16.0651ZM15.5937 16.0651C15.017 16.0651 14.5477 15.5976 14.5477 15.023C14.5477 14.449 15.017 13.9817 15.5937 13.9817C16.171 13.9817 16.6404 14.449 16.6404 15.023C16.6404 15.5977 16.171 16.0651 15.5937 16.0651Z" fill="white"/>
<path fill-rule="evenodd" clip-rule="evenodd" d="M7.4032 14.6153C7.74184 14.6153 8.01636 14.3408 8.01636 14.0022C8.01636 13.6635 7.74184 13.389 7.4032 13.389C7.06456 13.389 6.79004 13.6635 6.79004 14.0022C6.79004 14.3408 7.06456 14.6153 7.4032 14.6153Z" fill="white"/>
<path fill-rule="evenodd" clip-rule="evenodd" d="M14.6267 13.39C14.2876 13.39 14.0127 13.664 14.0127 14.002C14.0127 14.341 14.2876 14.614 14.6267 14.614C14.9657 14.614 15.2406 14.341 15.2406 14.002C15.2406 13.664 14.9657 13.39 14.6267 13.39Z" fill="white"/>
</svg>
