<svg width="22" height="22" viewBox="0 0 22 22" fill="none" xmlns="http://www.w3.org/2000/svg">
<path fill-rule="evenodd" clip-rule="evenodd" d="M0 5C0 2.23858 2.23858 0 5 0H17C19.7614 0 22 2.23858 22 5V17C22 19.7614 19.7614 22 17 22H5C2.23858 22 0 19.7614 0 17V5Z" fill="#29C888"/>
<path d="M11 12C12.6575 12 14 10.6575 14 9C14 7.3425 12.6575 6 11 6C9.3425 6 8 7.3425 8 9C8 10.6575 9.3425 12 11 12ZM11 13.5C8.9975 13.5 5 14.505 5 16.5V17.25C5 17.6625 5.3375 18 5.75 18H16.25C16.6625 18 17 17.6625 17 17.25V16.5C17 14.505 13.0025 13.5 11 13.5Z" stroke="white"/>
<path d="M7.74967 5.28787C7.85523 4.54889 8.48811 4 9.23459 4H12.7654C13.5119 4 14.1448 4.54889 14.2503 5.28787L14.4235 6.5L7.5765 6.5L7.74967 5.28787Z" fill="#29C888" stroke="white"/>
<path d="M5 4L17 4" stroke="white" stroke-linecap="round"/>
<path d="M16 4L16 8" stroke="white" stroke-linecap="round"/>
<path d="M16 8.90139L16.3991 9.5L16 10.0986L15.6009 9.5L16 8.90139Z" fill="#D9D9D9" stroke="white"/>
</svg>
