<svg width="22" height="22" viewBox="0 0 22 22" fill="none" xmlns="http://www.w3.org/2000/svg">
<path fill-rule="evenodd" clip-rule="evenodd" d="M0 5C0 2.23858 2.23858 0 5 0H17C19.7614 0 22 2.23858 22 5V17C22 19.7614 19.7614 22 17 22H5C2.23858 22 0 19.7614 0 17V5Z" fill="#38D430"/>
<path d="M11 5C7.68633 5 5 7.68633 5 11C5 14.3137 7.68633 17 11 17C14.3137 17 17 14.3137 17 11V5H11ZM11 15.75C8.33463 15.75 6.1819 13.5545 6.25165 10.8734C6.31877 8.29169 8.46768 6.25003 11.0504 6.25003H15.75V8H11.0012C9.32019 8 7.9621 9.38248 8.00202 11.0726C8.03991 12.6742 9.35385 13.976 10.9559 13.9996C12.1857 14.0177 13.2483 13.2955 13.7283 12.25H15.5826C15.0337 14.2667 13.1906 15.75 11 15.75ZM15.7514 11H14V9.24862H15.7514V11Z" fill="white"/>
</svg>
