<svg width="22" height="22" viewBox="0 0 22 22" fill="none" xmlns="http://www.w3.org/2000/svg">
<g id="22 / ic_vehicle_elecle_22">
<path id="&#236;&#130;&#172;&#234;&#176;&#129;&#237;&#152;&#149; 85" fill-rule="evenodd" clip-rule="evenodd" d="M0 5C0 2.23858 2.23858 0 5 0H17C19.7614 0 22 2.23858 22 5V17C22 19.7614 19.7614 22 17 22H5C2.23858 22 0 19.7614 0 17V5Z" fill="#008CFF"/>
<g id="Vector">
<path d="M7.08027 6.75C6.10983 6.75 5.32344 7.53639 5.32344 8.50683C5.32344 9.47727 6.10983 10.2637 7.08027 10.2637C8.05071 10.2637 8.8371 9.47727 8.8371 8.50683C8.8371 7.53639 8.05071 6.75 7.08027 6.75ZM7.08027 9.52077C6.51976 9.52077 6.06633 9.06567 6.06633 8.50683C6.06633 7.94799 6.52143 7.49289 7.08027 7.49289C7.63911 7.49289 8.09421 7.94799 8.09421 8.50683C8.09421 9.06734 7.64078 9.52077 7.08027 9.52077Z" fill="white"/>
<path d="M2.85332 7.73048C2.85332 7.3239 3.9208 7.31888 4.15003 7.84091L4.74902 7.49456C4.58505 7.10137 3.98606 6.75 3.39375 6.75C2.69269 6.75 2.09704 7.11642 2.09704 7.75558C2.09704 8.48508 2.93865 8.67415 3.28834 8.75948C3.63804 8.84481 4.10485 8.91843 4.10485 9.20789C4.10485 9.4756 3.80201 9.57599 3.46737 9.57599C3.04406 9.57599 2.71612 9.43377 2.57223 9.10583L2 9.43712C2.17736 9.94743 2.75795 10.2637 3.45064 10.2637C4.35415 10.2637 4.85611 9.84704 4.85611 9.17777C4.85611 8.64738 4.39431 8.3094 3.83212 8.17387C3.33185 8.05173 2.85332 7.98146 2.85332 7.73215V7.73048Z" fill="white"/>
<path d="M12.0318 8.89001C11.8845 9.26815 11.5549 9.52414 11.1232 9.52414C10.5627 9.52414 10.126 9.06904 10.126 8.50853C10.126 7.94801 10.5627 7.49291 11.1232 7.49291C11.5332 7.49291 11.8711 7.72214 12.0318 8.07183L12.6927 7.69035C12.4116 7.12816 11.7992 6.75337 11.1232 6.75337C10.1528 6.75337 9.36641 7.53976 9.36641 8.5102C9.36641 9.48064 10.1528 10.267 11.1232 10.267C11.8193 10.267 12.4116 9.86212 12.6943 9.27651L12.0318 8.89503V8.89001Z" fill="white"/>
<path d="M15.1392 6.8387H14.3059L12.9523 10.1717H13.809L14.7242 7.78571L15.6662 10.1717H16.5229L15.1392 6.8387Z" fill="white"/>
<path d="M19.2973 8.95356L19.3608 8.91508C19.6888 8.71932 19.8762 8.38469 19.8762 7.99651C19.8762 7.31553 19.3742 6.84035 18.6564 6.84035H17.0468V10.1733H17.8048V9.10582H18.5376L19.1534 10.1733H20L19.2973 8.95524V8.95356ZM18.6129 8.45161H17.8065V7.53973H18.6129C18.9124 7.53973 19.1132 7.72211 19.1132 7.99484C19.1132 8.26756 18.9124 8.45161 18.6129 8.45161Z" fill="white"/>
<path d="M4.26268 15.5141C3.93808 15.5141 3.62018 15.4204 3.34913 15.2431C3.0764 15.0674 2.86223 14.8147 2.72838 14.5186C2.5962 14.2224 2.55102 13.8945 2.60122 13.5732C2.65141 13.252 2.79196 12.9542 3.0078 12.7115C3.22364 12.4689 3.50473 12.2949 3.81762 12.2096C4.1305 12.1243 4.46179 12.131 4.77132 12.2297C5.08086 12.3284 5.35526 12.5141 5.56106 12.7651C5.76686 13.0161 5.8957 13.3206 5.93251 13.6435C5.93585 13.6719 5.93251 13.7021 5.92414 13.7288C5.91578 13.7573 5.90072 13.7824 5.88064 13.8041C5.86056 13.8259 5.83714 13.8426 5.81204 13.8543C5.78527 13.866 5.75682 13.8727 5.72838 13.8727H4.57724C4.5237 13.8711 4.4735 13.8476 4.43669 13.8091C4.39988 13.7707 4.37813 13.7188 4.37813 13.6653C4.37813 13.6117 4.39821 13.5598 4.43669 13.5214C4.4735 13.4829 4.5237 13.4611 4.57724 13.4578H5.47573C5.38873 13.175 5.20468 12.9307 4.95705 12.7701C4.70942 12.6078 4.41327 12.5375 4.11879 12.571C3.82431 12.6045 3.55158 12.74 3.34745 12.9542C3.14333 13.1683 3.01951 13.4461 2.99776 13.7422C2.97601 14.0367 3.05967 14.3312 3.23201 14.5721C3.40434 14.8131 3.65532 14.9854 3.94143 15.0607C4.22754 15.136 4.53206 15.1092 4.79977 14.9837C5.06748 14.8582 5.28499 14.6441 5.41048 14.3764C5.42219 14.3513 5.43892 14.3295 5.459 14.3111C5.47908 14.2927 5.5025 14.2793 5.5276 14.2693C5.5527 14.2609 5.57947 14.2559 5.60791 14.2576C5.63468 14.2576 5.66145 14.2659 5.68655 14.2776C5.71165 14.2893 5.7334 14.3061 5.7518 14.3262C5.77021 14.3462 5.78359 14.3697 5.79363 14.3948C5.802 14.4199 5.80702 14.4466 5.80535 14.4751C5.80535 14.5018 5.79698 14.5286 5.78527 14.5537C5.64807 14.8398 5.43223 15.0824 5.16452 15.2531C4.89514 15.4238 4.58393 15.5141 4.26603 15.5141" fill="white"/>
<path d="M9.17284 15.5141C8.84824 15.5141 8.53034 15.4204 8.25928 15.243C7.98656 15.0673 7.77239 14.8147 7.63854 14.5185C7.50635 14.2224 7.46118 13.8944 7.51137 13.5732C7.56157 13.2519 7.70212 12.9541 7.91796 12.7115C8.1338 12.4689 8.41489 12.2949 8.72777 12.2096C9.04065 12.1242 9.37194 12.1309 9.68148 12.2296C9.99102 12.3284 10.2654 12.5141 10.4712 12.7651C10.677 13.016 10.8059 13.3205 10.8427 13.6435C10.846 13.6719 10.8427 13.702 10.8343 13.7288C10.8259 13.7572 10.8109 13.7823 10.7925 13.8041C10.7724 13.8258 10.749 13.8426 10.7222 13.8543C10.6954 13.866 10.667 13.8727 10.6385 13.8727H9.43552C9.38198 13.871 9.33179 13.8476 9.29498 13.8091C9.25817 13.7706 9.23642 13.7188 9.23642 13.6652C9.23642 13.6117 9.25649 13.5598 9.29498 13.5213C9.33179 13.4828 9.38198 13.4611 9.43552 13.4578H10.3859C10.2989 13.175 10.1165 12.9307 9.86888 12.7684C9.62125 12.6061 9.32509 12.5358 9.03062 12.5693C8.73614 12.6028 8.46341 12.7383 8.25761 12.9508C8.05181 13.1649 7.92799 13.4427 7.90624 13.7388C7.88449 14.035 7.96648 14.3278 8.13881 14.5687C8.31115 14.8097 8.56213 14.9837 8.84824 15.059C9.13435 15.1343 9.43887 15.1075 9.70658 14.9837C9.97596 14.8582 10.1918 14.644 10.319 14.3763C10.3424 14.3261 10.3842 14.2893 10.4361 14.2709C10.4879 14.2525 10.5448 14.2559 10.5934 14.2793C10.6436 14.3027 10.6804 14.3445 10.6988 14.3964C10.7172 14.4483 10.7138 14.5052 10.6904 14.5537C10.5532 14.8398 10.3374 15.0824 10.0697 15.2531C9.80028 15.4237 9.48907 15.5141 9.17116 15.5141" fill="white"/>
<path d="M17.7807 15.5141C17.4561 15.5141 17.1382 15.4204 16.8672 15.243C16.5944 15.0673 16.3803 14.8147 16.2464 14.5185C16.1142 14.2224 16.0707 13.8944 16.1192 13.5732C16.1694 13.2519 16.31 12.9541 16.5258 12.7115C16.7417 12.4689 17.0228 12.2949 17.3356 12.2096C17.6485 12.1242 17.9798 12.1309 18.2894 12.2296C18.5989 12.3284 18.8733 12.5141 19.0791 12.7651C19.2849 13.016 19.4137 13.3205 19.4505 13.6435C19.4539 13.6719 19.4505 13.7004 19.4422 13.7288C19.4338 13.7556 19.4187 13.7823 19.4003 13.8024C19.3819 13.8225 19.3585 13.8409 19.3317 13.8526C19.305 13.8643 19.2765 13.871 19.2481 13.871H18.0451C17.9915 13.8694 17.9413 13.8459 17.9045 13.8074C17.8677 13.769 17.846 13.7171 17.846 13.6636C17.846 13.61 17.866 13.5581 17.9045 13.5197C17.9413 13.4812 17.9915 13.4594 18.0451 13.4561H18.9954C18.9084 13.1733 18.7261 12.929 18.4784 12.7667C18.2308 12.6044 17.9346 12.5342 17.6402 12.5676C17.3457 12.6011 17.073 12.7366 16.8672 12.9491C16.6614 13.1633 16.5375 13.441 16.5158 13.7355C16.494 14.03 16.576 14.3245 16.7484 14.5654C16.9207 14.8063 17.1717 14.9803 17.4578 15.0556C17.7439 15.1309 18.0484 15.1042 18.3161 14.9803C18.5855 14.8565 18.8013 14.6407 18.9285 14.3746C18.9519 14.3245 18.9938 14.2876 19.0456 14.2692C19.0975 14.2508 19.1544 14.2542 19.2029 14.2776C19.2531 14.301 19.2899 14.3429 19.3083 14.3947C19.3267 14.4466 19.3234 14.5035 19.3 14.552C19.1628 14.8381 18.9469 15.0807 18.6792 15.2514C18.4098 15.4221 18.0986 15.5124 17.7807 15.5124" fill="white"/>
<path d="M13.0954 15.5141C12.8059 15.5141 12.5215 15.4388 12.2688 15.2966C12.0162 15.1544 11.8053 14.9503 11.6564 14.7026C11.5075 14.455 11.4239 14.1722 11.4155 13.8844C11.4071 13.595 11.4724 13.3089 11.6079 13.0529C11.7418 12.7969 11.9409 12.5794 12.1835 12.4221C12.4261 12.2648 12.7055 12.1728 12.995 12.1561C13.2844 12.1393 13.5722 12.1962 13.8316 12.3217C14.0909 12.4489 14.3151 12.6396 14.4791 12.8789C14.5109 12.924 14.5226 12.9793 14.5125 13.0328C14.5025 13.0863 14.4724 13.1349 14.4272 13.165C14.382 13.1968 14.3268 13.2085 14.2733 13.1984C14.2197 13.1884 14.1712 13.1583 14.1411 13.1131C13.9872 12.8889 13.7646 12.7216 13.507 12.6329C13.2493 12.5442 12.9699 12.5426 12.7105 12.6262C12.4512 12.7099 12.2253 12.8738 12.0664 13.0947C11.9074 13.3156 11.8237 13.5816 11.8288 13.8543C11.8321 14.1271 11.9241 14.3897 12.0898 14.6056C12.2554 14.8214 12.4847 14.9787 12.7473 15.054C13.0084 15.1293 13.2878 15.1176 13.5421 15.0239C13.7964 14.9285 14.0139 14.7545 14.1628 14.5253C14.1779 14.5018 14.1963 14.4818 14.2181 14.465C14.2398 14.4483 14.2666 14.4366 14.2934 14.4316C14.3201 14.4249 14.3486 14.4249 14.3753 14.4299C14.4021 14.4349 14.4289 14.445 14.4523 14.46C14.4757 14.4751 14.4958 14.4951 14.5109 14.5169C14.5259 14.5403 14.5376 14.5654 14.5427 14.5922C14.5477 14.619 14.5477 14.6474 14.5427 14.6742C14.5376 14.7009 14.5259 14.726 14.5109 14.7495C14.3586 14.9854 14.1495 15.1778 13.9035 15.3117C13.6575 15.4455 13.3815 15.5158 13.1004 15.5158L13.0954 15.5141Z" fill="white"/>
<path d="M6.71283 15.5141C6.65762 15.5141 6.60575 15.4924 6.56726 15.4539C6.52878 15.4154 6.50703 15.3635 6.50703 15.3083V11.3797C6.50703 11.3529 6.51205 11.3262 6.52209 11.3011C6.53213 11.276 6.54719 11.2525 6.56726 11.2341C6.58567 11.2157 6.60909 11.199 6.63419 11.189C6.65929 11.1789 6.68606 11.1739 6.71283 11.1739C6.7396 11.1739 6.76637 11.1789 6.79147 11.189C6.81657 11.199 6.83999 11.2141 6.8584 11.2341C6.8768 11.2525 6.89353 11.276 6.90357 11.3011C6.91361 11.3262 6.91863 11.3529 6.91863 11.3797V15.3066C6.91863 15.3619 6.89688 15.4137 6.8584 15.4522C6.81991 15.4907 6.76805 15.5124 6.71283 15.5124" fill="white"/>
<path d="M15.3214 15.5141C15.2662 15.5141 15.2143 15.4924 15.1759 15.4539C15.1374 15.4154 15.1156 15.3635 15.1156 15.3083V11.3797C15.1156 11.3529 15.1206 11.3262 15.1307 11.3011C15.1407 11.276 15.1558 11.2525 15.1759 11.2341C15.1943 11.2157 15.2177 11.199 15.2428 11.189C15.2679 11.1789 15.2947 11.1739 15.3214 11.1739C15.3482 11.1739 15.375 11.1789 15.4001 11.189C15.4252 11.199 15.4486 11.2141 15.467 11.2341C15.4854 11.2525 15.5021 11.276 15.5122 11.3011C15.5222 11.3262 15.5272 11.3529 15.5272 11.3797V15.3066C15.5272 15.3619 15.5055 15.4137 15.467 15.4522C15.4285 15.4907 15.3766 15.5124 15.3214 15.5124" fill="white"/>
</g>
</g>
</svg>
