<svg width="22" height="22" viewBox="0 0 22 22" fill="none" xmlns="http://www.w3.org/2000/svg">
<g id="22 / ic_vehicle_kickgo_22">
<path id="&#236;&#130;&#172;&#234;&#176;&#129;&#237;&#152;&#149; 85" fill-rule="evenodd" clip-rule="evenodd" d="M0 5C0 2.23858 2.23858 0 5 0H17C19.7614 0 22 2.23858 22 5V17C22 19.7614 19.7614 22 17 22H5C2.23858 22 0 19.7614 0 17V5Z" fill="#00C2AB"/>
<g id="Vector">
<path fill-rule="evenodd" clip-rule="evenodd" d="M6.69584 14.674C6.57193 14.4963 6.61112 14.2356 6.66885 13.9133C6.67585 13.8742 6.68647 13.8355 6.69483 13.7961L8.43307 5.80893H8.42617L8.42663 5.80684H6.81976L5.11597 13.6294C4.90078 14.6392 4.98901 15.198 5.34777 15.6215C5.64666 15.9743 6.18435 16.2003 7.07663 16.2003H16.7129L17 14.8798H7.19298C6.93814 14.8798 6.79525 14.8167 6.69584 14.674Z" fill="white"/>
<path fill-rule="evenodd" clip-rule="evenodd" d="M8.33525 10.2244C8.37355 10.2945 10.2487 13.2311 10.3287 13.356L10.3374 13.3697H12.1451C12.1451 13.3697 10.5932 10.9329 9.92856 9.846C9.63938 9.36866 9.64853 9.21986 10.0904 8.85336C10.7619 8.29633 13.7656 5.87474 13.7959 5.8503L13.858 5.8L11.7155 5.80342L11.7075 5.80969C11.68 5.83181 8.97563 8.0029 8.71999 8.20696C8.2956 8.54573 8.123 8.86282 8.07973 9.23153C8.03003 9.65472 8.18603 9.95232 8.33525 10.2244Z" fill="white"/>
</g>
</g>
</svg>
