<svg width="22" height="22" viewBox="0 0 22 22" fill="none" xmlns="http://www.w3.org/2000/svg">
<path fill-rule="evenodd" clip-rule="evenodd" d="M0 5C0 2.23858 2.23858 0 5 0H17C19.7614 0 22 2.23858 22 5V17C22 19.7614 19.7614 22 17 22H5C2.23858 22 0 19.7614 0 17V5Z" fill="#48004A"/>
<path fill-rule="evenodd" clip-rule="evenodd" d="M15.7888 10.7309L15.0707 6.09855H13.0577V4.59717L12.4683 4H9.02079L8.43195 4.59717V6.09855H6.41897L5.70087 10.7309H5V15.5105L5.58884 16.1077H7.05549V17.0108H7.05664V17.023C7.06009 17.5176 7.4582 17.9161 7.94651 17.9126C8.43424 17.9097 8.82719 17.5054 8.82374 17.0108V16.1077H12.6596V17.0044C12.6596 17.499 13.0554 17.9004 13.5437 17.9004C14.032 17.9004 14.4278 17.499 14.4278 17.0044V16.1077H15.9002L16.4896 15.5106V10.7309L15.7888 10.7309ZM9.60938 5.19434H11.8786V6.19434H9.60938V5.19434ZM7.42707 7.29395H14.0646L14.5972 10.729H6.89453L7.42707 7.29395ZM15.3112 14.9124H6.17578V11.9248H15.3112V14.9124ZM8.13828 14.0147H6.97266V12.832H8.13828V14.0147ZM14.5367 14.0147H13.3711V12.832H14.5367V14.0147ZM12.6289 14.0128H8.96484V12.8301H12.6289V14.0128Z" fill="white"/>
</svg>
