<svg width="82" height="12" viewBox="0 0 82 12" fill="none" xmlns="http://www.w3.org/2000/svg">
<g id="img_nhcard_logo_wh">
<g id="&#234;&#183;&#184;&#235;&#163;&#185; 10734">
<mask id="mask0_495_23941" style="mask-type:luminance" maskUnits="userSpaceOnUse" x="0" y="0" width="82" height="12">
<path id="&#236;&#130;&#172;&#234;&#176;&#129;&#237;&#152;&#149; 6683" fill-rule="evenodd" clip-rule="evenodd" d="M0 0H82V11.9645H0V0Z" fill="white"/>
</mask>
<g mask="url(#mask0_495_23941)">
<path id="&#237;&#140;&#168;&#236;&#138;&#164; 19423" fill-rule="evenodd" clip-rule="evenodd" d="M45.6941 7.09155C45.9597 7.43339 46.1016 7.85515 46.0966 8.28799C46.0966 10.05 44.0735 10.844 41.5718 10.844C39.0702 10.844 37.0471 10.0391 37.0471 8.28799C37.0471 7.54837 37.406 6.9719 38.0043 6.56946H36.6338L36.1878 5.8951H40.767V4.62252H37.5801C37.1918 4.6288 36.8689 4.3252 36.8513 3.93728V1.38124H38.026C38.2321 1.38116 38.4008 1.54506 38.4067 1.75105V3.57835C38.4126 3.78434 38.5813 3.94825 38.7874 3.94816H46.2815C46.3459 3.94726 46.4013 3.99344 46.412 4.05693C46.4308 4.1977 46.4308 4.34035 46.412 4.48112C46.4068 4.55094 46.3513 4.60645 46.2815 4.61164H42.3332V5.90598H46.4882C46.5562 5.90574 46.613 5.95782 46.6187 6.02562C46.6376 6.16274 46.6376 6.30181 46.6187 6.43894C46.6189 6.51297 46.562 6.57464 46.4882 6.58034H41.561C39.9077 6.58034 38.5916 7.14593 38.5916 8.37501C38.5916 9.60408 39.9186 10.1697 41.561 10.1697C43.2034 10.1697 44.5303 9.60409 44.5303 8.36414C44.5303 7.79855 44.2584 7.37435 43.8016 7.08068L45.6941 7.09155ZM56.1793 2.98013V1.21809H57.3867C57.5969 1.212 57.7723 1.37762 57.7782 1.5879V10.496H49.4575C49.055 10.5082 48.7188 10.1915 48.707 9.78899V6.66735H49.9143C50.0172 6.66441 50.1168 6.70322 50.1906 6.77493C50.2643 6.84664 50.3059 6.94516 50.3059 7.04804V7.74415H56.1685V5.24249H53.9605C53.4167 5.9386 52.4704 6.4063 51.1978 6.4063C49.2944 6.4063 48.0109 5.37301 48.0109 4.10042C48.0109 3.45869 48.3698 2.87134 48.9572 2.45803H47.8151L47.3583 1.77279H50.3929V1.03317H51.6002C51.8105 1.02707 51.9859 1.19269 51.9918 1.40298V1.77279H54.6566C54.7247 1.77255 54.7815 1.82463 54.7871 1.89244C54.8084 2.03668 54.8084 2.18327 54.7871 2.32751C54.7873 2.40154 54.7304 2.46321 54.6566 2.46891H51.176C50.2809 2.48084 49.5651 3.21622 49.5771 4.1113C49.5771 5.02495 50.2298 5.75369 51.1978 5.75369C52.1658 5.75369 52.8184 5.01407 52.8184 4.1113C52.8149 3.82896 52.7401 3.55209 52.6009 3.30642C52.5398 3.19719 52.4669 3.09506 52.3834 3.00187L56.1793 2.98013ZM56.1793 8.42939H50.3059V9.60408C50.3117 9.71995 50.4074 9.81088 50.5234 9.81074H56.1685L56.1793 8.42939ZM56.1793 3.66536H54.3303C54.3649 3.8229 54.3831 3.98449 54.3847 4.14684C54.3822 4.3221 54.3603 4.49632 54.3194 4.66536H56.1793V3.66536ZM34.0016 1.4465H32.5985V5.06847H26.8773V1.4465H25.4742C25.1479 1.4465 24.876 1.76193 24.876 2.16437V9.79987C24.876 10.1914 25.1479 10.5177 25.4742 10.5177H26.8773V6.63473H32.6094V10.5177H34.0125C34.3497 10.5177 34.6107 10.2023 34.6107 9.79987V2.16437C34.6107 1.77281 34.3497 1.4465 34.0125 1.4465M22.5484 1.4465H21.1344V8.39676L16.9251 2.84961C16.229 2.04473 15.7504 1.44651 14.6301 1.44651H13.1943V9.79987C13.1943 10.1914 13.4663 10.5177 13.8034 10.5177H15.2065V3.53485L19.4485 9.04937C20.1663 9.876 20.7972 10.5177 21.8414 10.5177H23.1466V2.16437C23.1466 1.77281 22.8747 1.4465 22.5483 1.4465M63.4885 5.41652C63.0678 6.21571 62.4952 6.92509 61.8026 7.50486C61.0686 8.11301 60.2223 8.57124 59.3118 8.85358L59.7796 9.40829C60.9859 9.03365 62.106 8.42368 63.0752 7.61362C63.9536 6.88505 64.6751 5.98591 65.1962 4.97056C65.6784 4.04993 65.9391 3.02945 65.9576 1.99032C65.9596 1.89505 65.9198 1.80366 65.8488 1.74015C65.7784 1.67264 65.6853 1.63385 65.5877 1.63138H59.8448L60.2799 2.30574H64.2825C64.2831 2.72197 64.243 3.13725 64.1629 3.54569C64.0813 3.95372 63.9648 4.35401 63.8148 4.74213H59.8448L60.2799 5.40561L63.4885 5.41652ZM69.3076 10.3655V4.70954H70.4823C70.5352 4.70221 70.5782 4.66344 70.5911 4.61165C70.6154 4.5343 70.6264 4.4534 70.6237 4.37236C70.6266 4.28775 70.6156 4.20323 70.5911 4.1222C70.5855 4.06641 70.5384 4.02403 70.4823 4.02431H69.3076V1.63142C69.3069 1.5367 69.2676 1.44637 69.1988 1.38125C69.1304 1.3108 69.036 1.27149 68.9378 1.27248H67.7522V10.3655H69.3076ZM82.0008 9.85389C82.0108 9.7307 82.0034 9.60566 81.9791 9.48725C81.9686 9.4084 81.9228 9.35231 81.8703 9.35393H71.4612L71.8963 10.3539H81.8703C81.9228 10.3555 81.9686 10.2994 81.9791 10.2205C82.003 10.102 82.0104 9.97709 82.0008 9.85389ZM73.865 2.30577H81.2829C81.3348 2.3008 81.3759 2.25974 81.3808 2.20788C81.3983 2.12938 81.4057 2.04896 81.4026 1.96859C81.4063 1.88821 81.399 1.8077 81.3808 1.7293C81.3696 1.68063 81.3316 1.64262 81.2829 1.63141H72.3096V6.18878C72.3117 6.37591 72.3857 6.55505 72.5163 6.68911C72.6503 6.81968 72.8295 6.89368 73.0166 6.89577H81.3917C81.4442 6.89683 81.49 6.86022 81.5005 6.80875C81.5236 6.72751 81.531 6.6426 81.5222 6.55859C81.5309 6.47818 81.5235 6.39683 81.5005 6.3193C81.49 6.26784 81.4442 6.23123 81.3917 6.23229H74.2239C74.1266 6.22881 74.0339 6.19016 73.9629 6.12352C73.897 6.05729 73.8615 5.9667 73.865 5.87336V2.30577Z" fill="white"/>
<path id="&#237;&#140;&#168;&#236;&#138;&#164; 19424" fill-rule="evenodd" clip-rule="evenodd" d="M4.83984 4.48123L2.49046 0L4.83984 1.18557L7.2001 0L4.83984 4.48123ZM8.02673 3.45881L7.9941 3.42618L9.68 2.71919V0.35893L6.75415 1.60976L5.13351 4.67701C6.42606 4.82962 7.37562 5.96329 7.29918 7.26257C7.22274 8.56185 6.1468 9.57635 4.84527 9.57635C3.54374 9.57635 2.4678 8.56184 2.39136 7.26257C2.31492 5.96329 3.26449 4.82962 4.55703 4.67701L2.93639 1.60976L0.0105404 0.35893V2.73007L1.69644 3.43706L1.66381 3.46969C0.14309 4.79604 -0.39521 6.92667 0.31302 8.81616C1.02125 10.7057 2.8274 11.9575 4.84527 11.9575C6.86314 11.9575 8.66929 10.7056 9.37752 8.81616C10.0858 6.92666 9.54745 4.79604 8.02673 3.46969" fill="white"/>
</g>
</g>
</g>
</svg>
