<svg width="74" height="14" viewBox="0 0 74 14" fill="none" xmlns="http://www.w3.org/2000/svg">
<mask id="mask0_495_24052" style="mask-type:luminance" maskUnits="userSpaceOnUse" x="0" y="0" width="74" height="14">
<path fill-rule="evenodd" clip-rule="evenodd" d="M0 0H74V13.936H0V0Z" fill="white"/>
</mask>
<g mask="url(#mask0_495_24052)">
<path fill-rule="evenodd" clip-rule="evenodd" d="M67.9379 11.0934C67.9379 10.2851 68.7044 9.6301 69.6799 9.6301C70.6554 9.6301 71.408 10.299 71.4219 11.0934C71.4358 11.8877 70.6415 12.5567 69.6799 12.5567C68.7183 12.5567 67.9519 11.8877 67.9379 11.0934ZM66.0426 11.0934C66.0426 12.6681 67.6731 13.9363 69.6799 13.9363C71.6867 13.9363 73.3172 12.6681 73.3172 11.0934C73.3172 9.51861 71.6727 8.25044 69.6799 8.25044C67.6871 8.25044 66.0426 9.51861 66.0426 11.0934ZM63.3669 5.72803C63.3669 5.04517 64.0219 4.47379 64.8441 4.47379C65.6663 4.47379 66.3213 5.04516 66.3213 5.72803C66.3213 6.41089 65.6663 6.96833 64.8441 6.96833C64.0219 6.96833 63.3669 6.39696 63.3669 5.72803M61.7364 5.72803C61.7364 7.07982 63.1439 8.16682 64.8441 8.16682C66.5443 8.16682 67.9518 7.07981 67.9518 5.72803C67.9518 4.37624 66.5443 3.28924 64.8441 3.28924C63.1439 3.28924 61.7364 4.36231 61.7364 5.72803M49.0686 9.03085V12.2222C49.1038 12.8512 49.6098 13.3512 50.2392 13.3789H58.7541V12.1665H51.1869C51.1451 12.1665 51.1172 12.1386 51.1033 12.0968C51.0946 12.0697 51.0899 12.0416 51.0893 12.0132V9.03085H49.0686ZM23.5379 11.0934C23.5379 10.299 24.3044 9.64404 25.266 9.64404C26.2275 9.64404 26.9801 10.299 26.994 11.0934C27.008 11.8877 26.2136 12.5427 25.266 12.5427C24.3183 12.5427 23.5518 11.8877 23.5379 11.0934ZM21.6565 11.0934C21.6565 12.6542 23.2731 13.9084 25.266 13.9084C27.2588 13.9084 28.8614 12.6542 28.8754 11.0934C28.8893 9.53255 27.2588 8.27831 25.266 8.27831C23.2731 8.27831 21.6705 9.53255 21.6565 11.0934ZM23.4682 5.81164H25.4611V1.15703H18.3537L18.7997 2.36946H23.4682V5.81164ZM17.8102 7.66513H26.562V6.4527H21.9771V4.13933H19.9982V6.4527H17.3643L17.8102 7.66513ZM31.4675 4.55741C31.5861 4.43786 31.5861 4.24494 31.4675 4.12539L30.492 3.14987C30.3724 3.03118 30.1795 3.03118 30.0599 3.14987L29.2238 3.98603V0.86437H27.2309V8.05533H29.2238V4.69676L30.0599 5.53292C30.1795 5.65161 30.3724 5.65161 30.492 5.53292L31.4675 4.55741ZM43.9959 6.87078L44.4976 5.85345H44.4419C43.7679 5.66994 43.1177 5.40802 42.5048 5.07304C41.5014 4.54347 40.4004 3.67944 39.9823 2.4252H43.8844V1.21277H34.0874L34.5334 2.4252H38.0174C37.5853 3.69337 36.4983 4.54347 35.4949 5.07303C34.885 5.39704 34.2397 5.64956 33.5718 5.82557H33.516L34.0177 6.8429H34.0456C36.7771 6.66173 38.6166 4.65495 39.0068 4.19507C39.397 4.65496 41.2366 6.66174 43.968 6.8429L43.9959 6.87078ZM39.9963 9.40712H45.6543V8.0832H32.3176L32.7635 9.40712H37.9756V13.4904H39.9963V9.40712ZM55.3955 3.33104C55.3955 4.09752 54.6569 4.72464 53.7372 4.72464C52.8174 4.72464 52.0788 4.09752 52.0788 3.33104C52.0788 2.56456 52.8174 1.93744 53.7372 1.92351C54.6569 1.90957 55.3955 2.55063 55.3955 3.33104ZM57.2072 3.33104C57.2072 1.81202 55.6464 0.61353 53.7371 0.61353C51.8279 0.61353 50.2671 1.81202 50.2671 3.33104C50.2671 4.85006 51.8279 6.04855 53.7371 6.04855C55.6464 6.04855 57.2072 4.83612 57.2072 3.33104ZM47.2987 8.2365H60.2592V7.01013H46.8667L47.2987 8.2365ZM61.4855 2.85722H68.4396V1.63085H65.959V0.293H63.9662V1.63085H60.9978L61.4437 2.85722H61.4855ZM74 0.65534H71.9933V3.69338H71.0317V0.65534H69.0249V7.70694H71.0317V4.91975H71.9933V8.348H74V0.65534Z" fill="white"/>
<path fill-rule="evenodd" clip-rule="evenodd" d="M0 0V13.936H13.936V13.922L9.47646 9.47646L5.17024 13.713L2.70357 11.2463L9.47645 4.45951L13.936 8.70998V0L0 0Z" fill="white"/>
</g>
</svg>
