<svg width="72" height="20" viewBox="0 0 72 20" fill="none" xmlns="http://www.w3.org/2000/svg">
<mask id="mask0_495_24144" style="mask-type:luminance" maskUnits="userSpaceOnUse" x="0" y="0" width="72" height="20">
<path fill-rule="evenodd" clip-rule="evenodd" d="M0 0H72V19.4369H0V0Z" fill="white"/>
</mask>
<g mask="url(#mask0_495_24144)">
<path fill-rule="evenodd" clip-rule="evenodd" d="M25.1983 6.19182V4.859H27.1559V6.19182H29.766V7.45522H28.3916C29.0024 8.19104 29.3912 9.24619 29.405 10.4541C29.3912 12.8143 28.0584 14.5775 26.1702 14.5775C24.282 14.5775 22.9214 12.8143 22.9214 10.4541C22.9214 9.23231 23.3102 8.19104 23.9211 7.45522H22.6299V6.19182H25.1983ZM26.1702 7.48299C25.4066 7.48299 24.7818 8.6492 24.7957 10.4541C24.8096 12.2589 25.3788 13.3141 26.1563 13.3141C26.9338 13.3141 27.5308 12.2034 27.5308 10.4541C27.5308 8.70474 26.9754 7.48299 26.1702 7.48299M32.9037 9.96814V17.5069H31.0155V4.859H32.9037V8.70474H34.7224V9.96814H32.9037Z" fill="white"/>
<path fill-rule="evenodd" clip-rule="evenodd" d="M38.124 12.6199H41.2895C42.1364 12.6199 42.7889 12.6616 43.5803 12.245V4.859H45.4684V8.70474H47.2872V9.96814H45.4684V17.5069H43.5803V13.4946C42.9277 13.7861 42.0392 13.8694 41.2478 13.8694H37.0828C36.2636 13.8694 35.625 13.0781 35.625 12.134V5.42823H37.5131V12.0923C37.5131 12.4117 37.7214 12.606 38.124 12.606" fill="white"/>
<path fill-rule="evenodd" clip-rule="evenodd" d="M51.6328 9.96814H48.3285V8.70474H52.1048C52.2419 8.21195 52.312 7.70293 52.3131 7.19143V6.81657H48.3285V5.56705H54.2567V6.80268C54.2567 10.6345 51.6466 13.7861 48.1758 14.2026V12.9392C49.7585 12.4672 50.9247 11.301 51.605 9.96813M58.0192 9.96814V17.5069H56.1588V4.859H58.047V8.70474H59.8657V9.96814H58.0192Z" fill="white"/>
<path fill-rule="evenodd" clip-rule="evenodd" d="M60.6992 14.4246H72.0143V15.688H60.6992V14.4246ZM62.1154 5.553H70.6398V6.8164H63.9896V10.2873C63.9896 10.6066 64.1979 10.801 64.6144 10.801H70.626V12.0644H63.5731C62.7401 12.0644 62.1015 11.273 62.1015 10.3289L62.1154 5.553Z" fill="white"/>
<path fill-rule="evenodd" clip-rule="evenodd" d="M13.9946 11.5235C13.9493 11.2269 13.8653 10.9375 13.7447 10.6627C13.3698 9.85749 12.8422 9.16331 12.0648 8.71903C10.8599 8.00381 9.35806 8.0145 8.16349 8.7468C7.61729 9.07614 7.17468 9.55242 6.88621 10.1213C6.78646 10.313 6.70287 10.5127 6.63631 10.7183C6.31699 11.7318 6.33087 13.0785 6.9001 14.0087C7.08268 14.3156 7.36057 14.5545 7.69146 14.689C8.02394 14.8198 8.39831 14.7891 8.70496 14.6057C9.0937 14.3558 9.16312 13.8837 9.07982 13.4672C8.99652 13.0507 8.91322 12.3982 9.12147 11.8706C9.17722 11.6984 9.27228 11.5415 9.39914 11.4124C9.4827 11.3431 9.57633 11.287 9.67681 11.2458C9.88231 11.1414 10.115 11.1026 10.3432 11.1348C10.7438 11.2228 11.0788 11.4959 11.2457 11.8706C11.408 12.243 11.493 12.6445 11.4956 13.0507C11.5789 14.8139 11.1624 16.6327 10.7042 18.3264C10.6625 18.5069 10.607 18.6735 10.5654 18.8401C10.5237 19.0067 10.4543 19.1456 10.5376 19.2705C10.5753 19.3261 10.6284 19.3695 10.6903 19.3955C10.9541 19.5066 11.1623 19.34 11.3428 19.1595C12.3841 18.1321 13.0505 16.7993 13.5087 15.4109C13.6841 14.8984 13.8233 14.3741 13.9252 13.8421C14.086 13.0751 14.1142 12.2862 14.0085 11.5096" fill="white"/>
<path fill-rule="evenodd" clip-rule="evenodd" d="M21.3807 3.38737C21.3774 3.26439 21.3233 3.14828 21.2312 3.0667C21.1391 2.98513 21.0173 2.9454 20.8948 2.95698C20.6449 2.97087 20.4089 3.09582 20.1729 3.193C15.633 4.91456 10.5099 5.24776 5.734 4.55359C4.91487 4.44252 4.08186 4.27592 3.26273 4.13708C2.74904 4.05378 2.23535 3.94271 1.72166 3.90106C1.20797 3.85941 0.722046 3.84553 0.361066 4.16485C9.55164e-05 4.48417 -0.0693245 5.34495 0.194466 5.84476C0.458256 6.34457 1.08302 6.92768 1.66612 7.27476C2.24923 7.62185 2.91564 7.96894 3.59593 7.92729C5.42856 7.80697 7.25193 7.63111 9.06604 7.39972C12.1621 6.9971 15.4108 6.62224 18.3263 5.41437C19.2925 5.03348 20.2031 4.52449 21.0336 3.90107C21.1864 3.79 21.3946 3.60951 21.3946 3.38738" fill="white"/>
<path fill-rule="evenodd" clip-rule="evenodd" d="M8.35755 1.83264C8.29795 2.50759 8.62435 3.15838 9.20095 3.51425C9.77755 3.87011 10.5056 3.87012 11.0822 3.51425C11.6588 3.15839 11.9852 2.50759 11.9256 1.83264C11.9244 1.68388 11.8912 1.53712 11.8284 1.40225C11.6896 1.08293 11.5091 0.91633 11.523 0.52759C11.5369 0.13885 10.8844 2.0183e-05 10.5234 2.0183e-05C10.1218 -0.0111498 9.72287 0.0695802 9.35718 0.23604C9.07027 0.37832 8.82602 0.59384 8.64912 0.8608C8.47203 1.13909 8.37588 1.46117 8.37145 1.791V1.83265" fill="white"/>
</g>
</svg>
