<svg width="88" height="20" viewBox="0 0 88 20" fill="none" xmlns="http://www.w3.org/2000/svg">
<g id="img_mgbank_logo_wh">
<g id="&#234;&#183;&#184;&#235;&#163;&#185; 10738">
<mask id="mask0_495_24018" style="mask-type:luminance" maskUnits="userSpaceOnUse" x="0" y="0" width="88" height="20">
<path id="&#236;&#130;&#172;&#234;&#176;&#129;&#237;&#152;&#149; 6687" fill-rule="evenodd" clip-rule="evenodd" d="M0 0H88V19.6458H0V0Z" fill="white"/>
</mask>
<g mask="url(#mask0_495_24018)">
<path id="&#237;&#140;&#168;&#236;&#138;&#164; 19445" fill-rule="evenodd" clip-rule="evenodd" d="M16.1229 6.03821C18.9634 6.04652 21.4992 7.82014 22.4812 10.4854C23.4633 13.1507 22.6846 16.1457 20.5286 17.995C18.3726 19.8444 15.2941 20.1581 12.8093 18.7818V14.3942C13.7825 15.6692 15.5595 16.007 16.9326 15.178C18.3057 14.349 18.8344 12.6192 18.1594 11.1642C17.4843 9.70919 15.8221 8.99584 14.3024 9.50897C14.9438 8.52755 15.033 7.28448 14.5381 6.22157C15.0532 6.09983 15.5806 6.03829 16.1098 6.03821M7.60973 15.6385C6.47153 15.6428 5.42067 15.029 4.86536 14.0354C4.31006 13.0418 4.33783 11.8252 4.9379 10.858C3.81154 9.03746 3.87703 7.08598 3.90322 6.69306C1.67201 7.76127 0.197256 9.95728 0.0526757 12.4268C-0.0919043 14.8963 1.11651 17.2494 3.20783 18.5707C5.29915 19.892 7.94316 19.9728 10.1113 18.7818V14.3942C9.5177 15.1771 8.59221 15.6374 7.60973 15.6384M18.3494 5.82866C17.9025 3.07051 15.8597 0.841472 13.1509 0.156272C10.4421 -0.528928 7.58518 0.460682 5.8806 2.67462C4.17602 4.88855 3.94968 7.90358 5.30463 10.3472C6.14986 9.43394 7.45426 9.10527 8.63132 9.50897C7.72072 7.96622 8.16674 5.98135 9.6498 4.97647C11.1329 3.97159 13.1417 4.29316 14.2369 5.71079C15.591 5.36405 17.0148 5.40033 18.3494 5.81557M51.1579 7.0205H52.389V15.3372H51.171V10.6222H50.4899V15.3503H49.2719V7.02049H50.4899V9.71851H51.171L51.1579 7.0205ZM47.268 9.48277V7.30864H45.9845V9.48277C45.9845 11.0282 45.4344 11.8665 44.308 12.2725V13.1762C45.3558 12.9404 46.2202 12.4296 46.6262 11.6176C47.0323 12.4296 47.8967 12.9404 48.9444 13.1762V12.2725C47.8181 11.8665 47.268 11.0282 47.268 9.48277ZM60.6795 7.0205H59.4091V15.3372H60.6795V10.6222H62.0023V9.71851H60.6795V7.0205ZM57.6148 7.40032C57.7282 7.39677 57.8382 7.43936 57.9196 7.51835C58.0011 7.59734 58.047 7.70597 58.047 7.81943V13.0714H54.3536C53.9341 13.0714 53.5939 12.7313 53.5939 12.3118V7.40031H57.6148M56.7635 8.25164H54.8644V12.2201H56.7504L56.7635 8.25164ZM63.3121 8.57907C63.3121 7.58368 64.517 6.87644 66.3375 6.87644C68.158 6.87644 69.363 7.57059 69.363 8.57907C69.363 9.58755 68.158 10.2817 66.3375 10.2817C64.517 10.2817 63.3121 9.58755 63.3121 8.57907M68.0401 8.57907C68.0401 8.12067 67.3591 7.72775 66.3375 7.72775C65.3159 7.72775 64.6349 8.12067 64.6349 8.57907C64.6349 9.03747 65.3159 9.43039 66.3375 9.43039C67.3591 9.43039 68.0401 9.03747 68.0401 8.57907ZM62.1726 11.6615H70.4893V10.6615H62.1726V11.6615ZM63.1156 13.2286V14.5776C63.1156 14.9971 63.4557 15.3372 63.8752 15.3372H69.638V14.5383H64.4384V13.9882H69.5463V12.3642C69.55 12.2484 69.5057 12.1364 69.4238 12.0545C69.3419 11.9726 69.2298 11.9283 69.1141 11.932H63.1156V12.7309H68.2235V13.2286L63.1156 13.2286ZM78.4 9.10295V7.72774C78.4 7.49627 78.2124 7.30863 77.9809 7.30863H71.9693V8.15995H77.1165V9.10295C77.1165 9.66613 77.0248 10.059 76.8284 10.3341H71.0263V11.1854H79.343V10.3341H78.0726C78.2691 10.0591 78.4 9.66613 78.4 9.10295ZM72.7289 15.3372C72.3094 15.3372 71.9693 14.9971 71.9693 14.5776V11.945H77.9678C78.0813 11.945 78.1899 11.9909 78.2689 12.0724C78.3479 12.1538 78.3905 12.2638 78.3869 12.3773V15.3503L72.7289 15.3372ZM73.2528 14.4859H77.1296V12.7833H73.2528V14.4859ZM85.4594 12.5999H86.6906C86.9608 11.9719 87.0904 11.2925 87.0704 10.6091V7.92421C87.0704 7.69274 86.8827 7.5051 86.6513 7.5051H80.6396V8.35642H85.7868V10.6222C85.7868 11.4736 85.669 12.1153 85.4594 12.613M83.9663 10.6222H82.6828V13.556H79.6966V14.4073H88.0134V13.556H83.9663V10.6222ZM39.3573 12.1546H41.2171V13.2024C40.6561 13.704 39.9264 13.9753 39.1739 13.962C37.7333 13.962 36.62 13.0452 36.62 11.1592C36.62 9.69234 37.3272 8.35642 39.1739 8.35642C40.1038 8.35642 40.8897 8.73624 41.1647 9.75782H42.5268C42.3828 8.23855 41.1778 7.0729 39.2656 7.0729C36.7903 7.0729 35.1662 8.60527 35.1662 11.2116C35.1662 13.818 36.9736 15.2848 39.2656 15.2848C40.5446 15.2653 41.7565 14.7093 42.6054 13.7525V10.8711H39.3573V12.1546ZM30.3595 13.1238L28.1854 7.21696H26.3911V15.1539H27.7663V9.77092L29.7178 15.0622H31.0013L32.9528 9.77092V15.1539H34.328V7.21696H32.5337L30.3595 13.1238Z" fill="white"/>
</g>
</g>
</g>
</svg>
