<svg width="59" height="22" viewBox="0 0 59 22" fill="none" xmlns="http://www.w3.org/2000/svg">
<g clip-path="url(#clip0_538_48836)">
<path d="M47.1313 0C53.207 0 58.1313 4.92433 58.1313 11C58.1313 17.0757 53.207 22 47.1313 22H11C4.92433 22 0 17.0757 0 11C0 4.92433 4.92433 0 11 0H47.1313Z" fill="#00DE5A"/>
<path d="M11 18.9754C6.59636 18.9754 3.02502 15.4041 3.02502 11.0004C3.02502 6.59672 6.59636 3.02539 11 3.02539C15.4037 3.02539 18.975 6.59672 18.975 11.0004C18.975 15.4041 15.4037 18.9754 11 18.9754ZM12.54 7.01106V11.3964L9.45636 7.01106H7.01069V14.9861H9.46002V10.6007L12.5437 14.9861H14.9894V7.01106H12.54Z" fill="black"/>
<path d="M24.9297 17.1861V13.8494V17.1861ZM50.4754 5.93676L48.114 11.3561L45.5034 5.93676H43.12L47.0727 13.6258L45.485 17.1861H47.7364L52.7304 5.93676H50.479H50.4754ZM39.7907 14.5608H41.9247V5.93676H39.7907V6.64443C39.0574 6.05409 38.2287 5.74609 37.224 5.74609C34.7967 5.74609 32.8937 7.74076 32.8937 10.2451C32.8937 12.7494 34.7967 14.7441 37.224 14.7441C38.2287 14.7441 39.0574 14.4361 39.7907 13.8458V14.5534V14.5608ZM37.532 12.9988C36.1057 12.9988 35.0277 11.8144 35.0277 10.2488C35.0277 8.68309 36.1057 7.49876 37.532 7.49876C38.9584 7.49876 40.0364 8.68309 40.0364 10.2488C40.0364 11.8144 38.9584 12.9988 37.532 12.9988ZM24.959 13.8934C25.6777 14.4581 26.4807 14.7478 27.4524 14.7478C29.8797 14.7478 31.7827 12.7531 31.7827 10.2488C31.7827 7.74076 29.8797 5.74976 27.4524 5.74976C26.4477 5.74976 25.619 6.05776 24.8857 6.64809V5.94043H22.7517V17.1898H24.959V13.8934ZM24.64 10.2488C24.64 8.67943 25.718 7.49876 27.1444 7.49876C28.5707 7.49876 29.6487 8.68309 29.6487 10.2488C29.6487 11.8181 28.5707 12.9988 27.1444 12.9988C25.718 12.9988 24.64 11.8144 24.64 10.2488Z" fill="black"/>
</g>
<defs>
<clipPath id="clip0_538_48836">
<rect width="58.1313" height="22" fill="white"/>
</clipPath>
</defs>
</svg>
