<svg width="66" height="16" viewBox="0 0 66 16" fill="none" xmlns="http://www.w3.org/2000/svg">
<mask id="mask0_35_6230" style="mask-type:luminance" maskUnits="userSpaceOnUse" x="0" y="0" width="66" height="16">
<path fill-rule="evenodd" clip-rule="evenodd" d="M0 0H66V16H0V0Z" fill="white"/>
</mask>
<g mask="url(#mask0_35_6230)">
<path fill-rule="evenodd" clip-rule="evenodd" d="M2.60458 7.01358C2.24596 6.89357 1.79436 7.10691 1.48886 7.36024C1.46297 7.39135 1.42004 7.40213 1.3826 7.38691C1.34703 7.37019 1.32577 7.33282 1.32947 7.29358V7.10691C1.325 7.05258 1.34441 6.99899 1.3826 6.96024C2.23267 6.16024 2.63115 5.4269 2.61786 4.7069C2.61786 4.57357 2.5913 4.40024 2.48504 4.36023C2.37878 4.32024 2.12641 4.42689 1.87405 4.68023L1.82092 4.73357L1.35604 5.2269C1.27805 5.32262 1.22754 5.43786 1.20994 5.56024C1.07443 6.97048 1.19596 8.3937 1.56856 9.76024C1.59512 9.81357 1.60841 9.84024 1.63498 9.85357C1.65606 9.86327 1.6803 9.86327 1.70138 9.85357L2.24596 9.5869H2.25924C2.68428 9.3869 3.37496 8.90689 3.17572 7.89356C3.06946 7.41356 2.8835 7.12023 2.60457 7.01356" fill="white"/>
<path fill-rule="evenodd" clip-rule="evenodd" d="M7.96746 0C3.56607 0 -0.00195312 3.58172 -0.00195312 8C-0.00195312 12.4183 3.56607 16 7.96746 16C12.3688 16 15.9369 12.4183 15.9369 8C15.9369 3.58172 12.3688 0 7.96746 0ZM4.66256 8.14633C4.64405 8.36312 4.604 8.57752 4.54302 8.78632C4.43475 9.15451 4.22253 9.48332 3.93203 9.73299C3.72802 9.89368 3.4992 10.0198 3.25463 10.1063L2.90929 10.2663L2.63036 10.3863L2.35143 10.5197L2.27174 10.5597C2.00609 10.7063 1.68732 10.8663 1.36854 10.733C1.04976 10.5996 0.930218 10.253 0.890375 10.1197C0.548039 8.8612 0.4533 7.54782 0.611447 6.25298C0.70442 5.45298 1.20915 4.69298 1.32869 4.53298L1.80685 3.99965C2.60379 3.18631 3.09524 3.13298 3.37417 3.23964C3.6531 3.34631 3.81249 3.62631 3.85233 3.99965C3.85233 4.05298 3.86561 4.10631 3.86561 4.17298C3.86561 4.78631 3.58668 5.39965 3.05538 5.94632C3.33852 5.89759 3.62972 5.94945 3.87888 6.09298C4.14453 6.25298 4.48987 6.58631 4.63598 7.27964C4.68994 7.5652 4.70335 7.85698 4.67582 8.14631M11.8083 6.84016C11.8171 7.07834 11.7197 7.30809 11.5426 7.46683C10.9713 7.93698 10.2903 8.25356 9.56354 8.38683C8.22202 8.66682 6.9602 8.48015 6.01715 7.84016C5.20564 7.27894 4.66221 6.40514 4.51624 5.42682C4.33459 4.42443 4.57506 3.39131 5.18036 2.57349C5.77657 1.78226 6.65032 1.24836 7.62431 1.08016C8.29807 0.959214 8.99105 1.00498 9.64323 1.21349C9.70963 1.24016 9.97528 1.34683 10.1214 1.88015C10.1745 2.10682 9.94872 2.04016 9.94872 2.04016C9.41167 1.81594 8.82408 1.74221 8.24858 1.82682C7.53709 1.91009 6.89223 2.28689 6.46874 2.86682C6.08013 3.45055 5.95025 4.17 6.11012 4.85349C6.45547 6.54682 7.88996 7.41349 9.7362 7.06682C10.4534 6.92015 11.0379 6.61349 11.4098 6.17349C11.4392 6.1337 11.4814 6.10541 11.5293 6.09349C11.609 6.09349 11.6488 6.12015 11.6887 6.24015C11.7442 6.431 11.7754 6.62811 11.7817 6.82681" fill="white"/>
<path fill-rule="evenodd" clip-rule="evenodd" d="M24.3463 5.37333V2.81333H25.1698C25.3961 2.79976 25.6177 2.88197 25.7808 3.03999C25.9334 3.20134 26.0148 3.41764 26.0066 3.64V7.70666C26.0133 8.08958 25.964 8.47141 25.8605 8.84C25.7712 9.15854 25.6224 9.45716 25.4221 9.72C25.2351 9.9601 24.9938 10.1521 24.7182 10.28C24.4273 10.4163 24.1094 10.4847 23.7884 10.48H21.1585C20.8287 10.497 20.5066 10.3764 20.2686 10.1467C20.0428 9.91999 19.9365 9.59999 19.9365 9.18666V2.81332H20.7866C21.0131 2.79806 21.2354 2.88052 21.3976 3.03998C21.5441 3.20423 21.6204 3.41973 21.6101 3.63999V5.37332H24.3463M23.4314 9.35949C23.6756 9.37023 23.9142 9.28401 24.0955 9.11949C24.2638 8.95949 24.3479 8.69726 24.3479 8.33282V6.47949H21.6117V8.90616C21.5991 9.03137 21.6374 9.15638 21.718 9.25283C21.7869 9.31562 21.8774 9.34909 21.9703 9.34616H23.4447M29.6986 2.37305V12.773C29.711 12.9976 29.6347 13.218 29.4861 13.3864C29.3198 13.548 29.0926 13.6305 28.8618 13.613H28.0117V2.38638L29.6986 2.37305Z" fill="white"/>
<path fill-rule="evenodd" clip-rule="evenodd" d="M34.2929 6.20029C34.2835 6.6553 34.3417 7.10916 34.4655 7.54696C34.5784 7.91644 34.7536 8.26371 34.9835 8.57362H35.0367C35.2661 8.28296 35.4415 7.95328 35.5547 7.60029C35.6781 7.1852 35.7363 6.75337 35.7274 6.32029V2.81363H36.6837C36.8672 2.79835 37.0477 2.86692 37.1751 3.00029C37.2893 3.14853 37.3459 3.33331 37.3345 3.5203V6.20029C37.3345 7.05362 37.4895 7.76918 37.7994 8.34696C38.106 8.9159 38.6055 9.35579 39.2073 9.58696L38.251 10.3603C37.9153 10.2503 37.6009 10.0834 37.3212 9.86695C37.0209 9.63759 36.7528 9.36848 36.5243 9.06696H36.4712C36.3756 9.19644 36.2736 9.32105 36.1657 9.44029L35.8469 9.7603L35.475 10.0536L34.9968 10.3736C34.6987 10.1955 34.4146 9.99494 34.1468 9.77363C33.8999 9.56271 33.6811 9.32071 33.4959 9.05364H33.4428C32.9646 9.71141 32.4023 10.1381 31.7559 10.3336L30.8262 9.54697C31.414 9.32555 31.9069 8.90611 32.2208 8.36031C32.5307 7.80919 32.6857 7.12031 32.6857 6.29364V2.81365H33.6553C33.8388 2.79837 34.0193 2.86694 34.1468 3.00031C34.262 3.14796 34.3188 3.33318 34.3061 3.52031V6.20031M41.4797 2.40055V12.8005C41.4921 13.0251 41.4157 13.2455 41.2671 13.4139C41.1008 13.5755 40.8737 13.6579 40.6429 13.6405H39.8193V2.38721L41.4797 2.40055Z" fill="white"/>
<path fill-rule="evenodd" clip-rule="evenodd" d="M47.6429 6.98682H43.5254V5.85349H47.6429V6.98682ZM43.6474 10.1868C44.1027 10.0782 44.544 9.91715 44.9624 9.7068C45.41 9.48236 45.8292 9.20483 46.2109 8.88014C46.5858 8.56785 46.9047 8.19358 47.154 7.77347C47.398 7.36707 47.5266 6.90136 47.5259 6.42681V5.00014C47.5259 4.28014 47.1894 3.92014 46.5164 3.92014H43.7935V2.81348H46.968C48.4999 2.81348 49.2659 3.49792 49.2659 4.86681V6.14681C49.2732 6.74985 49.1318 7.34534 48.8541 7.88014C48.577 8.40852 48.2133 8.88631 47.7782 9.29348C47.3285 9.71208 46.8234 10.0665 46.2773 10.3468C45.7471 10.6235 45.185 10.834 44.6038 10.9735L43.6607 10.1735M52.8109 2.38722V12.7872C52.8248 13.012 52.7482 13.233 52.5984 13.4005C52.4321 13.5621 52.2049 13.6446 51.9741 13.6272H51.124V2.38721H52.7976M52.7281 5.82666H54.6939V6.94666H52.7148L52.7281 5.82666Z" fill="white"/>
<path fill-rule="evenodd" clip-rule="evenodd" d="M66.002 11.4135C66.0174 11.5663 65.9664 11.7183 65.8621 11.8306C65.7578 11.943 65.6104 12.0048 65.4575 12.0002H55.2832V10.8802H66.0021V11.4135M64.5302 7.58665V8.21331C64.5361 8.3464 64.4882 8.47623 64.3973 8.57331C64.2917 8.66737 64.1531 8.71536 64.0122 8.70665H57.8492C57.5214 8.71968 57.2033 8.59388 56.9725 8.35998C56.7512 8.12887 56.6405 7.80442 56.6405 7.38665V4.17331C56.6176 3.82144 56.7373 3.47523 56.9725 3.21331C57.2033 2.97941 57.5214 2.85362 57.8492 2.86664H64.3841V3.47997C64.3941 3.62412 64.3407 3.76545 64.238 3.86664C64.1316 3.95944 63.9935 4.00723 63.8528 3.99997H58.7789C58.6509 3.99756 58.527 4.0454 58.4336 4.13331C58.335 4.24184 58.2868 4.38713 58.3008 4.5333V7.10664C58.2729 7.23567 58.3101 7.3702 58.4005 7.46619C58.4908 7.56218 58.6224 7.60725 58.7523 7.58664L64.5302 7.58665Z" fill="white"/>
</g>
</svg>
