<svg width="34" height="20" viewBox="0 0 34 20" fill="none" xmlns="http://www.w3.org/2000/svg">
<mask id="mask0_495_23724" style="mask-type:luminance" maskUnits="userSpaceOnUse" x="0" y="0" width="34" height="20">
<path fill-rule="evenodd" clip-rule="evenodd" d="M0 0H34V19.3811H0V0Z" fill="white"/>
</mask>
<g mask="url(#mask0_495_23724)">
<path fill-rule="evenodd" clip-rule="evenodd" d="M29.8889 5.06639C27.661 1.88417 24.0207 -0.0109863 20.1361 -0.0109863C16.2515 -0.0109863 12.6111 1.88418 10.3832 5.06639L10.2725 5.23251H13.0966L13.1243 5.20482C15.0485 3.22518 17.5542 2.17306 20.1291 2.17306C22.7041 2.17306 25.2098 3.22518 27.1479 5.20482L27.1756 5.23251H29.9997L29.8889 5.06639Z" fill="white"/>
<path fill-rule="evenodd" clip-rule="evenodd" d="M9.15064 15.6296L9.09527 15.685C8.22312 16.571 7.22638 17.0417 6.1881 17.0417C4.02849 17.0417 2.46416 15.4219 2.46416 13.1931C2.46416 10.9643 4.04234 9.33073 6.20195 9.33073C7.24022 9.33073 8.23697 9.80141 9.10912 10.6874L9.16449 10.7428L10.5489 9.0677L10.5073 9.02617C9.35831 7.65565 7.97394 7.005 6.27117 7.005C4.5684 7.005 2.99022 7.57259 1.86889 8.59702C0.74755 9.62145 0 11.3104 0 13.1793C0 15.0482 0.65065 16.6402 1.86889 17.7615C3.08713 18.8829 4.55456 19.3812 6.25733 19.3812C7.9601 19.3812 9.34446 18.7167 10.4935 17.3601L10.535 17.3185L9.15064 15.6296Z" fill="white"/>
<path fill-rule="evenodd" clip-rule="evenodd" d="M11.9473 7.18484H14.3976V19.1513H11.9473V7.18484Z" fill="white"/>
<path fill-rule="evenodd" clip-rule="evenodd" d="M23.9907 16.5434C23.34 16.9449 22.7309 17.1387 22.1772 17.1387C21.3881 17.1387 21.0281 16.7234 21.0281 15.7959V9.45547H23.52V7.19895H21.042V3.47501L18.6332 4.76247V7.19895H16.5566V9.45547H18.6332V16.2112C18.6332 18.0524 19.7268 19.3121 21.3466 19.3398C22.11 19.3751 22.8666 19.1824 23.52 18.7861H23.5477L24.143 16.4742L23.9907 16.5434Z" fill="white"/>
<path fill-rule="evenodd" clip-rule="evenodd" d="M26.0264 7.18484H28.4767V19.1513H26.0264V7.18484Z" fill="white"/>
<path fill-rule="evenodd" clip-rule="evenodd" d="M33.7924 5.70331C33.7924 6.30731 33.3028 6.79696 32.6988 6.79696C32.0948 6.79696 31.6051 6.30732 31.6051 5.70331C31.6051 5.0993 32.0948 4.60966 32.6988 4.60966C32.9911 4.60196 33.2738 4.71471 33.4806 4.92151C33.6874 5.1283 33.8001 5.41097 33.7924 5.70331ZM34.0001 5.70331C34.0001 4.98462 33.4175 4.40201 32.6988 4.40201C31.9801 4.40201 31.3975 4.98462 31.3975 5.70331C31.3975 6.422 31.9801 7.00461 32.6988 7.00461C33.0462 7.01225 33.3816 6.8776 33.6273 6.63188C33.8731 6.38616 34.0077 6.05071 34.0001 5.7033M33.294 5.39875C33.294 5.10803 33.0864 4.9696 32.8234 4.9696H32.2004V6.38165H32.4357V5.8279H32.7126L32.9895 6.38165H33.2802L32.9895 5.81406C33.1781 5.76756 33.3064 5.59264 33.294 5.39875ZM33.4496 5.69118C33.4496 6.02415 33.2868 6.19063 33.0775 6.19063H32.4496V5.19175H33.0775C33.174 5.18251 33.2688 5.23103 33.3393 5.32572C33.4099 5.42041 33.4498 5.55276 33.4496 5.69118Z" fill="white"/>
</g>
</svg>
