<svg width="68" height="18" viewBox="0 0 68 18" fill="none" xmlns="http://www.w3.org/2000/svg">
<g id="img_postbank_logo_wh">
<g id="&#234;&#183;&#184;&#235;&#163;&#185; 10750">
<mask id="mask0_495_23969" style="mask-type:luminance" maskUnits="userSpaceOnUse" x="0" y="0" width="68" height="18">
<path id="&#236;&#130;&#172;&#234;&#176;&#129;&#237;&#152;&#149; 6701" fill-rule="evenodd" clip-rule="evenodd" d="M0 0H68V17.6203H0V0Z" fill="white"/>
</mask>
<g mask="url(#mask0_495_23969)">
<path id="&#237;&#140;&#168;&#236;&#138;&#164; 19538" fill-rule="evenodd" clip-rule="evenodd" d="M0.414114 6.11091C0.388734 6.11091 0.368164 6.13148 0.368164 6.15686C0.368164 6.18224 0.388734 6.20281 0.414114 6.20281L4.36546 8.82173L5.51411 3.492L0.414114 6.11091Z" fill="white"/>
<path id="&#237;&#140;&#168;&#236;&#138;&#164; 19539" fill-rule="evenodd" clip-rule="evenodd" d="M23.8924 3.49201H22.6978L17.6897 6.11093C17.6438 6.11093 17.6438 6.15688 17.6897 6.20282L21.5951 8.77579H22.7897C22.8357 8.77579 22.8357 8.77579 22.7897 8.72984L18.7924 6.11092L23.8924 3.53795C23.9384 3.492 23.9384 3.492 23.8924 3.492" fill="white"/>
<path id="&#237;&#140;&#168;&#236;&#138;&#164; 19540" fill-rule="evenodd" clip-rule="evenodd" d="M21.732 3.49201H14.7483L13.5996 8.82174H20.5834C20.6293 8.82174 20.6293 8.82174 20.5834 8.77579L16.632 6.15687L21.732 3.53795C21.778 3.492 21.778 3.492 21.732 3.492" fill="white"/>
<path id="&#237;&#140;&#168;&#236;&#138;&#164; 19541" fill-rule="evenodd" clip-rule="evenodd" d="M26.0047 3.49201H24.8561L19.802 6.11093C19.7561 6.11093 19.7561 6.15688 19.802 6.20282L23.7074 8.77579H24.902C24.948 8.77579 24.948 8.77579 24.902 8.72984L20.9047 6.11092L26.0047 3.53795C26.0507 3.492 26.0507 3.492 26.0047 3.492" fill="white"/>
<path id="&#237;&#140;&#168;&#236;&#138;&#164; 19542" fill-rule="evenodd" clip-rule="evenodd" d="M21.4112 0.000333124H5.00849C4.18735 -0.0654369 3.44297 0.483053 3.26254 1.28682C3.1882 1.65246 3.33133 2.02819 3.63011 2.25168L9.51119 6.15709L21.4112 0.0462831C21.4571 0.000333123 21.4571 0.000333124 21.4112 0.000333124Z" fill="white"/>
<path id="&#237;&#140;&#168;&#236;&#138;&#164; 19543" fill-rule="evenodd" clip-rule="evenodd" d="M18.7924 12.2678L9.55723 6.157L1.97615 10.0624C1.59369 10.2623 1.31098 10.6116 1.19507 11.0273C1.05723 11.7624 1.4248 12.3138 2.34372 12.3138H18.7924C18.8383 12.3138 18.8383 12.2678 18.7924 12.2678" fill="white"/>
<path id="&#237;&#140;&#168;&#236;&#138;&#164; 19544" fill-rule="evenodd" clip-rule="evenodd" d="M18.7915 15.1623C18.6975 15.0376 18.5701 14.942 18.424 14.8867L17.8726 14.7948C17.4871 14.7826 17.1107 14.9136 16.8159 15.1624C16.5116 15.4249 16.3018 15.78 16.2186 16.1732C16.1096 16.5288 16.1599 16.9142 16.3564 17.2299C16.5777 17.5043 16.9259 17.6436 17.2753 17.5975L17.8726 17.5056L18.378 17.2299C18.5263 17.0993 18.6507 16.9438 18.7456 16.7705C18.8521 16.5842 18.9295 16.3828 18.9753 16.1732C19.0191 15.9929 19.0346 15.8069 19.0213 15.6218C18.9972 15.4563 18.9343 15.2988 18.8375 15.1624M18.2861 16.5407L18.1024 16.8623L17.8267 17.0921L17.4591 17.184L17.1375 17.0921C17.0548 17.0354 16.9908 16.9555 16.9537 16.8623C16.9173 16.7592 16.9017 16.6499 16.9078 16.5407C16.9059 16.4167 16.9214 16.2929 16.9537 16.1732C16.9861 16.046 17.0323 15.9227 17.0916 15.8056L17.3213 15.484L17.597 15.2542L17.9645 15.1623L18.2862 15.2542C18.3709 15.3086 18.4355 15.3893 18.4699 15.484C18.5222 15.5838 18.5534 15.6932 18.5618 15.8056C18.5626 15.9296 18.5471 16.0532 18.5159 16.1732C18.4839 16.3005 18.4377 16.4238 18.378 16.5407" fill="white"/>
<path id="&#237;&#140;&#168;&#236;&#138;&#164; 19545" fill-rule="evenodd" clip-rule="evenodd" d="M5.19149 15.1623C5.09747 15.0376 4.97002 14.942 4.82392 14.8867L4.27257 14.7948C3.88702 14.7826 3.5106 14.9136 3.21581 15.1624C2.9285 15.4315 2.73523 15.7859 2.66446 16.1732C2.54751 16.5229 2.58079 16.9056 2.75635 17.2299C2.97762 17.5043 3.32583 17.6436 3.67527 17.5975L4.27257 17.5056L4.77798 17.2299C4.92561 17.0987 5.0499 16.9433 5.14555 16.7705C5.25137 16.5839 5.32879 16.3826 5.37528 16.1732C5.4198 15.993 5.43531 15.8069 5.42123 15.6218C5.39898 15.4558 5.33583 15.2979 5.23745 15.1623M4.68608 16.5407L4.5023 16.8623L4.22662 17.0921L3.85905 17.184L3.53743 17.0921C3.45474 17.0354 3.39077 16.9555 3.35365 16.8623C3.31834 16.759 3.30276 16.6499 3.3077 16.5407C3.30794 16.4168 3.32337 16.2933 3.35365 16.1732C3.38484 16.0456 3.43112 15.9222 3.49149 15.8056L3.72122 15.484L3.9969 15.2542L4.36447 15.1624L4.68609 15.2542C4.77088 15.3086 4.83545 15.3893 4.86987 15.484C4.92209 15.5838 4.95336 15.6933 4.96176 15.8056C4.96305 15.9296 4.9476 16.0533 4.91581 16.1732C4.88505 16.3009 4.83876 16.4243 4.77797 16.5407" fill="white"/>
<path id="&#237;&#140;&#168;&#236;&#138;&#164; 19546" fill-rule="evenodd" clip-rule="evenodd" d="M21.0892 14.886H20.0784L19.7567 15.0238L19.4811 15.2995C19.3953 15.4082 19.3327 15.5333 19.2973 15.6671C19.2719 15.7728 19.2719 15.883 19.2973 15.9887C19.3217 16.0763 19.3693 16.1557 19.4351 16.2184L19.6189 16.3563L19.8946 16.4941L20.2162 16.6779C20.2723 16.7403 20.2899 16.8284 20.2621 16.9076C20.2386 17.0332 20.1517 17.1376 20.0324 17.1833C19.8045 17.3004 19.538 17.3171 19.2973 17.2292L19.1135 17.1373H19.0675L18.9297 17.5968H20.0324L20.4 17.459L20.6756 17.1833C20.7603 17.074 20.8228 16.9491 20.8594 16.8157C20.8848 16.71 20.8848 16.5998 20.8594 16.4941C20.835 16.4065 20.7874 16.3272 20.7216 16.2644L20.5378 16.1265L20.2621 15.9887L19.9405 15.8049C19.872 15.7493 19.8527 15.6529 19.8945 15.5752L19.9864 15.3914L20.1243 15.2995H20.2621C20.4315 15.2671 20.6067 15.283 20.7675 15.3455H20.9972L21.1351 14.9319" fill="white"/>
<path id="&#237;&#140;&#168;&#236;&#138;&#164; 19547" fill-rule="evenodd" clip-rule="evenodd" d="M16.0355 15.2545C16.007 15.1446 15.9422 15.0475 15.8517 14.9788L15.5301 14.841H14.3815L13.7842 17.5518H14.3355L14.5653 16.587C14.847 16.5911 15.1271 16.5444 15.3923 16.4491L15.5761 16.3572L15.8517 16.0815C15.9398 15.9573 16.0023 15.8167 16.0355 15.668C16.0751 15.533 16.0751 15.3895 16.0355 15.2545ZM15.5975 15.7326C15.5686 15.8881 15.4679 16.0228 15.3235 16.0994C15.0976 16.186 14.8539 16.2219 14.6112 16.2042L14.8304 15.2086H15.0495L15.4879 15.3134C15.5932 15.4064 15.6355 15.5479 15.5974 15.6802" fill="white"/>
<path id="&#237;&#140;&#168;&#236;&#138;&#164; 19548" fill-rule="evenodd" clip-rule="evenodd" d="M23.4787 15.2536H23.5246L23.6165 14.886H21.503L21.4111 15.2536H22.1922L21.6868 17.5049H22.2382L22.7436 15.2536H23.5246H23.4787Z" fill="white"/>
<path id="&#237;&#140;&#168;&#236;&#138;&#164; 19549" fill-rule="evenodd" clip-rule="evenodd" d="M7.76513 15.1626C7.71908 15.0606 7.63739 14.9789 7.53539 14.9329L7.16782 14.841H6.01917L5.42188 17.5518H5.97322L6.20296 16.4491H6.61646C6.66752 16.5158 6.69931 16.5953 6.70835 16.6788L6.84619 17.5059H7.4435L7.25971 16.4491L7.16782 16.2653L7.02998 16.1734C7.20271 16.1447 7.36279 16.0646 7.48944 15.9437C7.60465 15.8312 7.6845 15.6875 7.71918 15.5302C7.76469 15.3961 7.76469 15.2508 7.71918 15.1167M7.34081 15.7251L7.2297 15.9751L7.06303 16.1626H6.3408L6.50747 15.1626H7.17414L7.28524 15.2876C7.30686 15.3692 7.30686 15.4561 7.28524 15.5376" fill="white"/>
<path id="&#237;&#140;&#168;&#236;&#138;&#164; 19550" fill-rule="evenodd" clip-rule="evenodd" d="M10.2006 14.841H8.54652L7.94922 17.5518H9.60327L9.69516 17.1842H8.6384L8.82218 16.4032H9.78704L9.87893 16.0356H8.86812L9.00596 15.3464H10.1087L10.2006 14.841Z" fill="white"/>
<path id="&#237;&#140;&#168;&#236;&#138;&#164; 19551" fill-rule="evenodd" clip-rule="evenodd" d="M2.8946 14.841H2.11352L0.87298 15.9897L1.10271 14.841H0.5973L0 17.5518H0.55135L0.82703 16.3113L1.51622 17.5518H2.25136L1.47028 16.1734L2.8946 14.841Z" fill="white"/>
<path id="&#237;&#140;&#168;&#236;&#138;&#164; 19552" fill-rule="evenodd" clip-rule="evenodd" d="M12.1751 14.841H11.5319L9.96973 17.5518H10.5211L10.9346 16.7707H11.8994L11.9913 17.5518H12.5886L12.1751 14.841ZM11.2817 16.3924L12.0674 15.3924L12.2103 16.3924H11.2103H11.2817Z" fill="white"/>
<path id="&#237;&#140;&#168;&#236;&#138;&#164; 19553" fill-rule="evenodd" clip-rule="evenodd" d="M47.3702 5.65173H48.9783V2.022H50.7702V13.968H48.9783V6.66254H47.3242V5.69767H47.3702" fill="white"/>
<path id="&#236;&#130;&#172;&#234;&#176;&#129;&#237;&#152;&#149; 6700" fill-rule="evenodd" clip-rule="evenodd" d="M51.4131 1.97568C51.4131 1.9503 51.4337 1.92973 51.459 1.92973H53.159C53.1844 1.92973 53.205 1.9503 53.205 1.97568V13.963C53.205 13.9884 53.1844 14.0089 53.159 14.0089H51.459C51.4337 14.0089 51.4131 13.9884 51.4131 13.963V1.97568Z" fill="white"/>
<path id="&#237;&#140;&#168;&#236;&#138;&#164; 19554" fill-rule="evenodd" clip-rule="evenodd" d="M48.7484 9.3274L48.1052 9.00578C47.6697 8.70876 47.3082 8.3158 47.0484 7.85713C46.5486 6.95882 46.295 5.94441 46.3133 4.91659L46.3133 4.41119H47.9214V3.49227H46.3133V2.022H44.4755V3.35443H42.7295V4.27335H44.4755V4.77876C44.4937 5.80658 44.2401 6.82099 43.7403 7.7193C43.4793 8.17701 43.118 8.5697 42.6836 8.86795L42.0403 9.18957C41.9944 9.18957 41.9944 9.23552 42.0403 9.28146L42.6836 9.83281H42.8673C43.3403 9.74731 43.7833 9.54162 44.1538 9.23551L44.3836 9.05173C44.8369 8.62483 45.1967 8.10855 45.4403 7.53552C45.6839 8.10856 46.0438 8.62484 46.4971 9.05173L46.7268 9.23551C47.0973 9.54162 47.5404 9.74731 48.0133 9.83281H48.1971L48.8403 9.28146C48.8863 9.23551 48.8863 9.18957 48.8403 9.18957" fill="white"/>
<path id="&#237;&#140;&#168;&#236;&#138;&#164; 19555" fill-rule="evenodd" clip-rule="evenodd" d="M39.3759 9.83292H39.4218V8.914H28.165V9.78697H32.8975V13.9681H34.6434V9.83291L39.3759 9.83292Z" fill="white"/>
<path id="&#237;&#140;&#168;&#236;&#138;&#164; 19556" fill-rule="evenodd" clip-rule="evenodd" d="M31.1971 7.07551C32.753 8.27854 34.9251 8.27854 36.4809 7.07551C37.1563 6.56297 37.5531 5.76393 37.5531 4.91605C37.5531 4.06817 37.1563 3.26913 36.4809 2.75659C34.9307 1.53713 32.7473 1.53713 31.1971 2.75659C30.5217 3.26913 30.125 4.06817 30.125 4.91605C30.125 5.76393 30.5217 6.56297 31.1971 7.07551ZM32.5296 3.44578C32.8612 3.05636 33.3506 2.83698 33.862 2.84848C34.3734 2.83698 34.8628 3.05636 35.1944 3.44578C35.5562 3.84932 35.753 4.37414 35.7458 4.91605C35.753 5.45796 35.5562 5.98278 35.1944 6.38632C34.8628 6.77574 34.3734 6.99512 33.862 6.98362C33.3493 7.00195 32.857 6.7813 32.5296 6.38632C32.1844 5.97598 32.0043 5.45189 32.0242 4.91605C32.0043 4.38021 32.1844 3.85612 32.5296 3.44578Z" fill="white"/>
<path id="&#237;&#140;&#168;&#236;&#138;&#164; 19557" fill-rule="evenodd" clip-rule="evenodd" d="M67.9539 6.6166H66.0701V6.52471C66.2311 6.2731 66.3405 5.99196 66.3917 5.69768C66.4781 5.35189 66.5243 4.9973 66.5296 4.64092V2.022H58.2133V2.94092H64.6917V5.65173C64.6738 5.96978 64.5958 6.28156 64.462 6.57065H56.835V7.48957H61.4296V9.55714H58.1674V10.4761H64.6458V13.6923H66.5296V9.78687H63.3133V7.67336H67.9998V6.75444H67.9539" fill="white"/>
</g>
</g>
</g>
</svg>
