<svg width="86" height="15" viewBox="0 0 86 15" fill="none" xmlns="http://www.w3.org/2000/svg">
<g id="img_kbcard_logo_wh">
<g id="&#234;&#183;&#184;&#235;&#163;&#185; 10735">
<mask id="mask0_1_12124" style="mask-type:luminance" maskUnits="userSpaceOnUse" x="-1" y="0" width="87" height="15">
<path id="&#236;&#130;&#172;&#234;&#176;&#129;&#237;&#152;&#149; 6684" fill-rule="evenodd" clip-rule="evenodd" d="M-0.00195312 0H85.998V14.1234H-0.00195312V0Z" fill="white"/>
</mask>
<g mask="url(#mask0_1_12124)">
<path id="&#237;&#140;&#168;&#236;&#138;&#164; 19425" fill-rule="evenodd" clip-rule="evenodd" d="M19.5119 7.25026C19.7238 7.43857 19.8297 7.80343 19.8297 8.20359C19.8248 8.77241 19.6301 9.32332 19.2766 9.76894C18.2997 11.0047 16.4754 11.5108 15.1572 11.5697C15.1454 11.7344 15.0866 11.8875 14.9924 11.9228H14.9454L14.71 12.0758C14.6486 12.129 14.564 12.1468 14.4864 12.1228C12.9445 11.6991 10.367 10.0396 8.66044 8.93331L7.42464 8.15652V8.26245C7.42464 9.5571 7.50703 11.4991 7.60118 12.8526L7.62472 13.1468C7.63649 13.3469 7.64826 13.5117 7.64826 13.6529C7.64781 13.7753 7.63599 13.8975 7.61295 14.0177L7.56587 14.1237H7.49525C7.21278 14.159 6.80085 13.9942 6.65961 13.9001L6.58899 13.8294L6.3536 13.0291C6.24767 12.6289 6.12998 12.1699 6.02405 12.0169L6.00051 11.9698V11.9463C5.78866 10.8635 5.68273 9.46294 5.65919 7.53274V7.46212L5.45911 7.56805C5.26021 7.6633 5.07102 7.77761 4.89417 7.90937C4.78824 7.99176 4.65878 8.08591 4.55285 8.07414L4.28215 8.23891C3.6466 8.61553 2.1754 9.49825 1.63401 9.74541C1.09261 9.99257 0.715987 10.122 0.515897 10.122L0.386437 10.0985L0.245207 10.0043L0.115747 9.92194L0.0215869 9.85132L-0.00195312 9.80424L0.0333569 9.73362C0.155867 9.52107 0.353027 9.36166 0.586527 9.28638C0.823967 9.18519 1.05578 9.07125 1.28093 8.94506L2.49319 8.14473L4.80002 6.60292L4.77648 6.57938L4.62348 6.49699L4.41163 6.32045L3.14052 5.63782L2.30488 5.20235C1.58694 4.81396 0.857227 4.31963 0.574757 4.0254L0.551217 3.95478L0.527677 3.82532C0.514227 3.77935 0.506317 3.73193 0.504137 3.68409C0.503617 3.65119 0.511737 3.61872 0.527677 3.58993C0.680677 3.36631 1.175 3.02499 1.43393 2.97791L1.5987 3.01322L2.19895 3.40161L2.58734 3.64877C2.76088 3.7744 2.95652 3.86624 3.16405 3.91947H3.23467C4.08408 4.33105 4.90929 4.79081 5.70627 5.29651C5.80043 3.64877 6.2359 1.57733 6.76553 0.317988C6.78584 0.266078 6.82947 0.226808 6.88323 0.212058L7.1657 0.117898L7.37755 0.0355085C7.5518 -0.0233215 7.74228 -0.0106215 7.90718 0.0708185H7.93072L8.01311 0.223818L8.11904 0.435668L8.15435 0.600438C7.88648 1.99666 7.70176 3.40757 7.60118 4.8257C8.69575 4.1313 10.7789 2.83665 11.697 2.31879L11.8264 2.24817C12.016 2.15742 12.1906 2.03836 12.3443 1.89508C13.1799 1.10652 14.098 0.682818 14.8159 0.753438C14.8768 0.767018 14.926 0.811768 14.9454 0.871128C14.996 1.04867 14.9919 1.23735 14.9336 1.41253L14.9101 1.54199L14.863 1.68322C13.945 2.62478 12.2031 3.58988 10.673 4.42552L9.07237 5.33177L8.98998 5.37885C8.91936 5.47301 8.62512 5.66132 7.9778 6.03794L7.49525 6.33218V6.41457L7.88364 6.68527C8.61335 7.16782 9.53138 7.77984 10.0139 8.16823L10.0963 8.23885C10.2689 8.3931 10.4585 8.52734 10.6613 8.63901C11.4969 8.95679 12.4149 9.60411 13.1564 10.122L14.0273 10.7104C14.9571 10.7458 15.7104 10.6398 16.393 10.3809C17.0757 10.122 17.6759 9.67473 17.9466 9.15687C18.3115 8.46247 18.2173 7.85045 18.1702 7.7916C17.8171 7.41497 17.3817 7.26197 16.8167 7.35613C15.8281 7.50913 14.9924 8.50954 14.7806 9.35695V9.63942C14.7873 9.68319 14.7761 9.72782 14.7495 9.76325C14.723 9.79868 14.6833 9.82192 14.6394 9.82773H14.5334C14.2392 9.93366 13.7449 10.0749 13.5919 10.0043C13.4389 9.93365 13.2623 9.80419 13.2506 9.71003C13.1334 8.57511 13.1374 7.43095 13.2623 6.29687L13.2976 6.19094C13.3683 6.08501 13.4389 5.17876 13.4506 4.84921L13.5213 4.68444C13.6625 4.56674 14.2392 4.36666 14.5217 4.35489C14.5907 4.35156 14.6535 4.39499 14.6747 4.46082C14.7772 4.72299 14.8253 5.00332 14.8159 5.28469C14.8101 5.5879 14.7865 5.8905 14.7453 6.19094C14.7217 6.48518 14.6864 6.79119 14.6864 7.08542V7.10896C15.2396 6.77941 15.9575 6.41456 16.8638 6.35571C17.77 6.29686 18.7705 6.54402 19.3472 7.1325L19.5237 7.23843" fill="#FFFDFA"/>
<path id="&#237;&#140;&#168;&#236;&#138;&#164; 19426" fill-rule="evenodd" clip-rule="evenodd" d="M61.4227 5.88445H58.1037V3.15392H61.411L61.4227 5.88445ZM62.6115 2.1182H56.915V6.93194H62.6115V2.1182ZM55.7027 6.10807V5.06058H54.8436V1.94165H46.7343V2.97737H53.6313V5.06058H45.8634V6.0963H50.1593V7.6028H46.6049V8.63852H53.6901V11.5456H54.8906V7.6028H51.3598V6.10807H55.7027ZM65.5774 10.4628H59.1983V7.96766H57.9978V11.5103H65.5656L65.5774 10.4628ZM65.4832 1.88281H64.2827V8.20305H65.4832V1.88281ZM24.3369 11.5456H25.867V6.41408L31.4692 11.5456H33.6348L27.7383 6.29639L33.1876 1.9652H31.0102L25.867 6.24931V1.9652H24.3369V11.5456ZM34.7059 1.98874H39.4137C41.6499 1.98874 42.8269 2.73022 42.8269 4.36619C42.8269 5.51961 42.0148 6.31993 40.9437 6.53178V6.56709C42.4855 6.7554 43.2153 7.76758 43.2153 8.89746C43.2153 10.3333 42.1678 11.5692 39.5667 11.5692H34.7059L34.7059 1.98874ZM36.2359 6.02569H39.3431C40.4965 6.02569 41.3557 5.59022 41.3557 4.56627C41.3557 3.54232 40.932 3.08331 39.1665 3.08331H36.2241L36.2359 6.02569ZM36.2359 10.4863H39.2489C41.1203 10.4863 41.6146 9.75663 41.6146 8.82684C41.6146 7.89705 40.8496 7.12026 39.1665 7.12026H36.2241L36.2359 10.4863ZM66.719 2.14174V3.17746H71.0149V4.62511H66.719V5.64906H71.0149V8.4149H72.2272V2.12997L66.719 2.14174ZM85.9975 9.86255H76.7937V10.8983H85.9975V9.86255ZM78.9593 3.16569H84.9971V2.12997H77.7706V7.67342H84.9971V6.64947H78.9593V3.16569ZM73.6866 11.5456H74.8989V5.36659H76.1229V4.33087H74.8989V1.91812H73.6866V11.5456Z" fill="white"/>
</g>
</g>
</g>
</svg>
