<svg width="96" height="20" viewBox="0 0 96 20" fill="none" xmlns="http://www.w3.org/2000/svg">
<mask id="mask0_35_7125" style="mask-type:luminance" maskUnits="userSpaceOnUse" x="0" y="0" width="96" height="20">
<path fill-rule="evenodd" clip-rule="evenodd" d="M0 0H96V20H0V0Z" fill="white"/>
</mask>
<g mask="url(#mask0_35_7125)">
<path fill-rule="evenodd" clip-rule="evenodd" d="M5.20597 1.005e-05C2.33442 0.0091656 0.0087456 2.44386 0 5.45V20H1.73532V5.45C1.73532 3.44337 3.28919 1.81667 5.20597 1.81667H90.794C92.7108 1.81667 94.2647 3.44337 94.2647 5.45L94.2647 20H96V5.45C95.9912 2.44385 93.6656 0.00915555 90.794 0L5.20597 1.005e-05Z" fill="white"/>
<path fill-rule="evenodd" clip-rule="evenodd" d="M16.0011 16.1675C16.0011 16.3175 15.9215 16.3675 15.7623 16.3675H14.4728C14.3295 16.3675 14.2817 16.3175 14.2817 16.1675V12.5008C14.2872 12.4255 14.2598 12.3515 14.2073 12.2998C14.1547 12.248 14.0826 12.2238 14.0111 12.2341H10.6359C10.5682 12.2283 10.5015 12.2551 10.455 12.3071C10.4085 12.359 10.3872 12.4304 10.3971 12.5008V16.1675C10.3971 16.3175 10.3175 16.3675 10.1742 16.3675H8.85286C8.72549 16.3675 8.67773 16.3175 8.67773 16.1675V7.05081C8.67773 6.90081 8.72549 6.83414 8.85286 6.83414H10.1583C10.2159 6.82949 10.2728 6.85025 10.3151 6.89139C10.3574 6.93254 10.3814 6.99034 10.3812 7.05081V10.5841C10.3681 10.6569 10.3914 10.7317 10.443 10.7823C10.4947 10.833 10.5674 10.8525 10.6359 10.8341H14.0111C14.1703 10.8341 14.2817 10.7508 14.2817 10.5841V7.05081C14.2817 6.90081 14.3295 6.83414 14.4728 6.83414H15.7623C15.9056 6.83414 16.0011 6.91747 16.0011 7.05081L16.0011 16.1675Z" fill="white"/>
<path fill-rule="evenodd" clip-rule="evenodd" d="M19.105 16.4996C18.7237 16.5085 18.3551 16.3562 18.0824 16.0771C17.8098 15.7979 17.6562 15.4155 17.6563 15.0162V9.33291C17.6563 9.16624 17.7199 9.0829 17.8632 9.0829H19.105C19.2324 9.0829 19.312 9.16624 19.312 9.33291V14.7996C19.312 14.9496 19.3756 15.0329 19.5508 15.0329H21.8115C21.9548 15.0329 22.0662 14.9496 22.0662 14.7996V9.33291C22.0662 9.16624 22.1299 9.0829 22.2732 9.0829H23.515C23.5785 9.07692 23.6412 9.102 23.6848 9.15086C23.7283 9.19972 23.7479 9.2669 23.7378 9.3329V17.5996C23.7329 17.8082 23.6839 18.0131 23.5946 18.1996L22.7508 19.6329C22.69 19.7501 22.5755 19.8258 22.4483 19.8329H22.2891C22.1458 19.8329 22.0821 19.7496 22.0821 19.5996V15.9496C22.0821 15.7996 22.0025 15.7329 21.8592 15.7662L19.4871 16.4662C19.3665 16.4909 19.2438 16.5021 19.1209 16.4996" fill="white"/>
<path fill-rule="evenodd" clip-rule="evenodd" d="M26.8271 16.4829C26.0481 16.4739 25.4188 15.815 25.4102 14.9996V9.33291C25.4102 9.16624 25.4738 9.0829 25.6171 9.0829H26.8748C26.9863 9.0829 27.0659 9.16624 27.0659 9.33291V14.7996C27.0659 14.9496 27.1455 15.0162 27.3206 15.0162H29.5813C29.7246 15.0162 29.8201 14.9496 29.8201 14.7996V9.33291C29.8201 9.16624 29.8679 9.0829 30.0111 9.0829H31.2529C31.3165 9.07692 31.3792 9.102 31.4228 9.15086C31.4663 9.19972 31.4859 9.2669 31.4758 9.3329V16.1662C31.4758 16.3162 31.3962 16.3662 31.2529 16.3662H30.0111C29.8679 16.3662 29.8201 16.3162 29.8201 16.1662V15.9496C29.8201 15.7829 29.7246 15.7162 29.5813 15.7662L27.2092 16.4329C27.0839 16.4629 26.9553 16.4742 26.8271 16.4662" fill="white"/>
<path fill-rule="evenodd" clip-rule="evenodd" d="M39.2293 10.4835V16.1668C39.2293 16.3168 39.1497 16.3668 39.0065 16.3668H37.7647C37.6214 16.3668 37.5736 16.3168 37.5736 16.1668V10.6835C37.5847 10.6098 37.5614 10.535 37.511 10.4823C37.4607 10.4296 37.3893 10.4052 37.3189 10.4168H35.0423C34.9719 10.4052 34.9005 10.4296 34.8501 10.4823C34.7998 10.535 34.7765 10.6098 34.7876 10.6835V16.1501C34.7925 16.2046 34.774 16.2586 34.7371 16.2973C34.7001 16.336 34.6486 16.3554 34.5965 16.3501H33.3388C33.1955 16.3501 33.1318 16.3001 33.1318 16.1501V9.33347C33.1318 9.1668 33.1955 9.08347 33.3388 9.08347H34.5965C34.708 9.08347 34.7876 9.1668 34.7876 9.33347V9.55014C34.7876 9.70014 34.8512 9.75014 35.0423 9.70014L37.4144 9.03347C37.534 8.9983 37.6567 8.97596 37.7806 8.9668C38.5771 8.97581 39.2207 9.6496 39.2293 10.4835" fill="white"/>
<path fill-rule="evenodd" clip-rule="evenodd" d="M40.6316 14.9831V11.7164C40.6024 11.059 40.9455 10.4452 41.5072 10.1498L42.8127 9.34977C43.0678 9.17383 43.367 9.08103 43.6724 9.08311H44.8187C44.9779 9.08311 45.0575 9.01644 45.0575 8.86644V6.18311C45.0575 6.03311 45.1212 5.93311 45.2485 5.93311H46.5063C46.6495 5.93311 46.7132 6.0331 46.7132 6.18311V16.1664C46.7132 16.3164 46.6496 16.3664 46.5063 16.3664H45.2485C45.1212 16.3664 45.0575 16.3164 45.0575 16.1664V15.9498C45.0575 15.7831 44.9779 15.7164 44.8187 15.7664L42.4306 16.4331C42.3106 16.462 42.1874 16.4732 42.0645 16.4664C41.2862 16.4491 40.6568 15.7976 40.6316 14.9831M45.0572 14.7999V10.6998C45.0572 10.5165 44.9776 10.4332 44.8025 10.4332H42.5259C42.3508 10.4332 42.2871 10.5165 42.2871 10.6998V14.7999C42.2871 14.9499 42.3508 15.0165 42.5259 15.0165H44.8184C44.9936 15.0165 45.0732 14.9499 45.0732 14.7999" fill="white"/>
<path fill-rule="evenodd" clip-rule="evenodd" d="M49.579 16.4831C48.7938 16.4831 48.1548 15.8216 48.1462 14.9997V11.7164C48.118 11.0638 48.4532 10.4531 49.0059 10.1497L50.3273 9.34975C50.5819 9.17288 50.8814 9.08 51.187 9.08308H54.0208C54.1641 9.08308 54.2277 9.16642 54.2277 9.33309V16.1664C54.2277 16.3164 54.1481 16.3664 54.0208 16.3664H52.7631C52.6198 16.3664 52.572 16.3164 52.572 16.1664V15.9498C52.572 15.7831 52.4924 15.7164 52.3173 15.7664L49.9452 16.4331C49.8252 16.462 49.7019 16.4732 49.579 16.4664M52.5732 14.7998V10.6998C52.5842 10.6261 52.5609 10.5514 52.5106 10.4987C52.4602 10.4459 52.3888 10.4216 52.3184 10.4331H50.0259C49.8508 10.4331 49.7871 10.5165 49.7871 10.6998V14.7998C49.7871 14.9498 49.8508 15.0165 50.0259 15.0165H52.3184C52.4776 15.0165 52.5732 14.9498 52.5732 14.7998" fill="white"/>
<path fill-rule="evenodd" clip-rule="evenodd" d="M57.5551 7.24978C57.5551 7.39977 57.4755 7.44978 57.3482 7.44978H56.1064C55.9472 7.44978 55.8994 7.39978 55.8994 7.24978V6.18311C55.8994 6.03311 55.9472 5.93311 56.1064 5.93311H57.3482C57.4073 5.93738 57.4624 5.96615 57.5013 6.01307C57.5401 6.05999 57.5595 6.12118 57.5551 6.18311V7.24978ZM57.5551 16.1668C57.5551 16.3168 57.4755 16.3668 57.3482 16.3668H56.1064C55.9472 16.3668 55.8994 16.3168 55.8994 16.1668V9.33346C55.8994 9.16679 55.9472 9.08346 56.1064 9.08346H57.3482C57.4755 9.08346 57.5551 9.1668 57.5551 9.33346V16.1668Z" fill="white"/>
<path fill-rule="evenodd" clip-rule="evenodd" d="M61.0247 14.4997V9.58306C60.9995 8.89196 61.3513 8.24583 61.9322 7.9164L63.3809 7.0664C63.6402 6.90228 63.9376 6.8158 64.2406 6.8164H67.3133C67.3752 6.80427 67.4389 6.82492 67.4835 6.87157C67.528 6.91822 67.5477 6.98487 67.5362 7.04973V7.99973C67.5362 8.14973 67.4566 8.19973 67.3133 8.19973H63.0147C62.8715 8.19973 62.8078 8.28306 62.8078 8.46639V14.7331C62.8078 14.8997 62.8715 14.9831 63.0147 14.9831H67.4406C67.5839 14.9831 67.6635 15.0497 67.6635 15.1831C67.6659 15.3233 67.5918 15.4527 67.4725 15.5164L66.3899 16.1331C66.1225 16.2897 65.8206 16.3701 65.5143 16.3664H62.8237C61.9481 16.3664 61.0088 15.6997 61.0088 14.4997" fill="white"/>
<path fill-rule="evenodd" clip-rule="evenodd" d="M70.1132 16.4831C69.3279 16.4831 68.689 15.8216 68.6804 14.9997V11.7164C68.6522 11.0638 68.9874 10.4531 69.54 10.1497L70.8614 9.34975C71.1161 9.17288 71.4156 9.08 71.7211 9.08308H74.555C74.6982 9.08308 74.7619 9.16642 74.7619 9.33309V16.1664C74.7619 16.3164 74.6823 16.3664 74.555 16.3664H73.2972C73.154 16.3664 73.1062 16.3164 73.1062 16.1664V15.9498C73.1062 15.7831 73.0266 15.7164 72.8515 15.7664L70.4793 16.4331C70.3593 16.462 70.2361 16.4732 70.1132 16.4664M73.1061 14.7998V10.6998C73.1171 10.6261 73.0939 10.5514 73.0435 10.4987C72.9931 10.4459 72.9217 10.4216 72.8514 10.4331H70.5747C70.3996 10.4331 70.3359 10.5165 70.3359 10.6998V14.7998C70.3359 14.9498 70.3996 15.0165 70.5747 15.0165H72.8673C73.0265 15.0165 73.122 14.9498 73.122 14.7998" fill="white"/>
<path fill-rule="evenodd" clip-rule="evenodd" d="M80.9871 10.2329C80.9871 10.3663 80.9075 10.4329 80.7643 10.4329H78.3125C78.1533 10.4329 78.0896 10.5163 78.0896 10.6996V16.1496C78.0896 16.2996 77.9941 16.3496 77.8667 16.3496H76.609C76.4657 16.3496 76.418 16.2996 76.418 16.1496V9.33295C76.418 9.16628 76.4657 9.08294 76.609 9.08294H77.8667C77.9303 9.07696 77.993 9.10204 78.0365 9.1509C78.0801 9.19976 78.0997 9.26694 78.0896 9.33294L78.0896 9.53294C78.0896 9.68294 78.1533 9.73295 78.3125 9.73295L78.4558 9.69961L79.1722 9.19961C79.4369 9.05297 79.7325 8.97846 80.0319 8.98294H80.7642C80.8231 8.97223 80.8833 8.9909 80.927 9.03343C80.9707 9.07595 80.993 9.13742 80.9871 9.19961L80.9871 10.2329Z" fill="white"/>
<path fill-rule="evenodd" clip-rule="evenodd" d="M81.2263 14.9831V11.7164C81.1972 11.059 81.5402 10.4452 82.102 10.1498L83.4074 9.34977C83.6625 9.17383 83.9617 9.08103 84.2671 9.08311H85.4134C85.5726 9.08311 85.6522 9.01644 85.6522 8.86644V6.18311C85.6522 6.03311 85.7159 5.93311 85.8432 5.93311H87.101C87.2443 5.93311 87.308 6.0331 87.308 6.18311V16.1664C87.308 16.3164 87.2443 16.3664 87.101 16.3664H85.8432C85.7159 16.3664 85.6522 16.3164 85.6522 16.1664V15.9498C85.6522 15.7831 85.5726 15.7164 85.4134 15.7664L83.0253 16.4331C82.9054 16.462 82.7821 16.4732 82.6592 16.4664C81.8809 16.4491 81.2516 15.7976 81.2263 14.9831M85.653 14.7999V10.6998C85.653 10.5165 85.5733 10.4332 85.3983 10.4332H83.1216C82.9465 10.4332 82.8828 10.5165 82.8828 10.6998V14.7999C82.8828 14.9499 82.9465 15.0165 83.1216 15.0165H85.4142C85.5893 15.0165 85.6689 14.9499 85.6689 14.7999" fill="white"/>
</g>
</svg>
