<svg width="79" height="20" viewBox="0 0 79 20" fill="none" xmlns="http://www.w3.org/2000/svg">
<path d="M8.36011 7.76005V15.5334C8.36011 16.3334 9.00011 16.9867 9.81344 16.9867C10.6268 16.9867 11.2668 16.3334 11.2668 15.5334V7.69338C11.2668 5.12005 9.90677 3.76005 7.32011 3.76005H4.98677C4.18677 3.76005 3.54677 4.41338 3.54677 5.21338C3.54677 6.01338 4.20011 6.66671 4.98677 6.66671H7.25344C7.80011 6.66671 8.37344 7.02671 8.37344 7.76005" fill="white"/>
<path d="M14.6401 3.76005H12.3068C11.5334 3.76005 10.8534 3.89338 10.3068 4.13338C11.0934 4.74671 11.5734 5.66671 11.7201 6.86671C11.9068 6.73338 12.1468 6.66671 12.3734 6.66671H14.6401C15.4401 6.66671 16.0934 6.01338 16.0934 5.21338C16.0934 4.41338 15.4401 3.76005 14.6401 3.76005Z" fill="white"/>
<path d="M18.8801 16.6C18.8801 17.96 17.7734 19.0667 16.4268 19.0667H3.20011C1.84011 19.0667 0.733441 17.96 0.733441 16.6V3.38671C0.733441 2.02671 1.84011 0.920045 3.20011 0.920045H16.4268C17.7734 0.920045 18.8801 2.02671 18.8801 3.38671V16.6134V16.6ZM16.4268 0.546712H3.20011C1.62677 0.546712 0.360107 1.81338 0.360107 3.38671V16.6134C0.360107 18.1734 1.62677 19.4534 3.20011 19.4534H16.4268C17.9868 19.4534 19.2534 18.1734 19.2534 16.6134V3.38671C19.2534 1.81338 17.9868 0.546712 16.4268 0.546712Z" fill="white"/>
<path d="M41.8134 14.0134C41.8134 14.7334 42.2134 15.1734 42.9468 15.1734C43.6801 15.1734 44.0934 14.7334 44.0934 14.0134V10.0534C44.0934 8.22671 42.9201 7.48005 41.5201 7.48005C40.3601 7.48005 39.4934 7.92005 38.9734 8.82671C38.7334 8.06671 38.1201 7.48005 37.1201 7.48005C36.1201 7.48005 35.4268 7.94671 35.0801 8.65338C35.0401 8.10671 34.6268 7.60005 33.9601 7.60005C33.2934 7.60005 32.8268 8.00005 32.8268 8.77338V14.0267C32.8268 14.7467 33.2534 15.1867 33.9734 15.1867C34.6934 15.1867 35.1068 14.7467 35.1068 14.0267V10.72C35.1068 9.92005 35.5468 9.42671 36.2401 9.42671C36.9334 9.42671 37.3734 9.94671 37.3734 10.6V14.0267C37.3734 14.7467 37.7734 15.1867 38.4801 15.1867C39.1868 15.1867 39.5868 14.7467 39.5868 14.0267V10.72C39.5868 9.92005 40.0268 9.42671 40.7201 9.42671C41.4134 9.42671 41.8534 9.94671 41.8534 10.6V14.0267L41.8134 14.0134Z" fill="white"/>
<path d="M45.2401 11.3867C45.2401 13.7467 46.7601 15.3067 49.1334 15.3067C51.5068 15.3067 53.0268 13.7467 53.0268 11.3867C53.0268 9.02671 51.5068 7.46671 49.1334 7.46671C46.7601 7.46671 45.2401 9.02671 45.2401 11.3867ZM47.5201 11.3867C47.5201 10.3067 48.0934 9.36005 49.1334 9.36005C50.1734 9.36005 50.7468 10.3067 50.7468 11.3867C50.7468 12.4667 50.1468 13.4134 49.1334 13.4134C48.1201 13.4134 47.5201 12.4667 47.5201 11.3867Z" fill="white"/>
<path d="M54.1734 14.0134C54.1734 14.7334 54.6134 15.1734 55.3334 15.1734C56.0534 15.1734 56.4801 14.7334 56.4801 14.0134V10.64C56.4801 9.92005 57.0401 9.41338 57.7468 9.41338C58.4934 9.41338 59.0134 9.96005 59.0134 10.6534V14.0134C59.0134 14.7334 59.4401 15.1734 60.1601 15.1734C60.8801 15.1734 61.3201 14.7334 61.3201 14.0134V10.3867C61.3201 8.65338 60.2534 7.46671 58.4934 7.46671C57.6001 7.46671 56.7334 7.90671 56.4134 8.62671C56.3734 8.09338 56.0134 7.58671 55.3068 7.58671C54.6001 7.58671 54.1734 8.04005 54.1734 8.76005V14.0134Z" fill="white"/>
<path d="M69.3334 14.3867C69.7868 13.96 70.0001 13.36 69.6268 12.9334C69.2534 12.4934 68.6401 12.5067 68.2001 12.8667C67.7068 13.2667 67.2268 13.5334 66.4268 13.5334C65.4001 13.5334 64.6134 12.8134 64.6134 11.96H68.7468C69.5868 11.96 69.8801 11.5734 69.8801 10.7334C69.8801 9.04005 68.5601 7.45338 66.2268 7.45338C63.8934 7.45338 62.4668 9.08005 62.4668 11.3334C62.4668 13.5867 63.8534 15.2934 66.4401 15.2934C67.6001 15.2934 68.6401 15.0134 69.3334 14.36M64.6268 10.4667C64.6268 9.74671 65.3734 9.20005 66.2268 9.20005C67.0801 9.20005 67.8268 9.74671 67.8268 10.4667H64.6268Z" fill="white"/>
<path d="M72.8668 8.34671C72.6001 7.70671 71.9868 7.40005 71.3334 7.69338C70.6934 7.98671 70.4668 8.53338 70.7734 9.21338L73.3868 14.92L73.1601 15.48C72.9468 16.0267 72.6934 16.5867 72.1334 16.5867C71.9468 16.5867 71.7334 16.5467 71.5734 16.5067C71.1068 16.4134 70.6401 16.6534 70.5068 17.16C70.3734 17.6667 70.6534 18.1334 71.1068 18.32C71.5068 18.4934 71.8801 18.5067 72.2668 18.5067C73.8268 18.5067 74.4268 17.36 75.1468 15.8L78.1734 9.18671C78.4801 8.50671 78.2534 7.94671 77.6134 7.66671C76.9734 7.37338 76.3468 7.68005 76.0934 8.32005L74.4934 12.12L72.8934 8.32005L72.8668 8.34671Z" fill="white"/>
<path d="M27.7601 13.8934C27.7601 14.6534 28.2668 15.1734 29.0268 15.1734C29.7868 15.1734 30.2801 14.6534 30.2801 13.8934V6.05338H32.7468C33.4801 6.05338 34.0534 5.66671 34.0534 4.90671C34.0534 4.14671 33.4801 3.77338 32.7468 3.77338H25.2934C24.5468 3.77338 23.9868 4.16005 23.9868 4.90671C23.9868 5.65338 24.5468 6.05338 25.2934 6.05338H27.7468V13.8934H27.7601Z" fill="white"/>
</svg>
