<svg width="54" height="15" viewBox="0 0 54 15" fill="none" xmlns="http://www.w3.org/2000/svg">
<g id="img_shinhyupbank_logo_wh">
<g id="&#234;&#183;&#184;&#235;&#163;&#185; 10739">
<mask id="mask0_495_24087" style="mask-type:luminance" maskUnits="userSpaceOnUse" x="0" y="0" width="54" height="15">
<path id="&#236;&#130;&#172;&#234;&#176;&#129;&#237;&#152;&#149; 6688" fill-rule="evenodd" clip-rule="evenodd" d="M0 0H54V14.1103H0V0Z" fill="white"/>
</mask>
<g mask="url(#mask0_495_24087)">
<path id="&#237;&#140;&#168;&#236;&#138;&#164; 19446" fill-rule="evenodd" clip-rule="evenodd" d="M21.476 8.73406H23.3809C23.6066 8.73406 23.6489 8.90338 23.6489 9.10093C23.6489 9.97577 23.6489 10.8553 23.6489 11.7395C23.6489 11.8524 23.6489 11.9653 23.6489 12.0641C23.663 12.5297 23.8041 12.6849 24.2557 12.6849H30.309C30.5489 12.6849 30.6194 12.6003 30.6194 12.3745C30.61 10.8224 30.61 9.27025 30.6194 7.71812C30.6194 7.45002 30.5065 7.37947 30.2667 7.37947C29.4059 7.39358 28.5452 7.39358 27.6986 7.22426C26.3017 6.95616 25.1587 6.3212 24.3827 5.10772L24.2557 4.95251L24.0722 5.19238C23.1833 6.50464 21.9134 7.16782 20.3471 7.32303L19.4441 7.37947C19.2748 7.39358 19.1901 7.32303 19.2042 7.1396C19.2183 6.95617 19.2183 6.57519 19.2042 6.29298C19.1901 6.01077 19.2465 6.06722 19.43 6.03899C20.3612 5.92611 21.2643 5.70034 22.0122 5.07949C22.76 4.45864 23.1128 3.65435 23.1551 2.70896C23.1833 2.25743 23.1692 1.79179 23.1551 1.34026C23.1551 1.1145 23.1128 0.874618 23.0704 0.606528H25.1164C25.4833 0.606528 25.582 0.733518 25.582 1.08628C25.582 1.6648 25.582 2.24332 25.5679 2.80773C25.5538 4.37397 26.2452 5.30525 27.7691 5.72856C28.6214 5.94872 29.4994 6.05313 30.3795 6.03899C30.6194 6.03899 30.6194 5.89789 30.6194 5.72856C30.6194 4.59974 30.6335 3.48503 30.6194 2.35621C30.6194 1.67892 30.5771 1.00162 30.5489 0.281998H32.1292C32.5525 0.296108 32.7218 0.465428 32.7218 0.888738C32.7218 4.84902 32.7218 8.8046 32.7218 12.7555C32.7218 13.5174 32.4114 13.8279 31.6354 13.8279H22.9293C22.7928 13.8344 22.6559 13.8297 22.5201 13.8137C21.8005 13.6868 21.5606 13.4045 21.5606 12.6708C21.5606 11.6408 21.5606 10.6248 21.5606 9.59478C21.5606 9.31257 21.5183 9.04448 21.4901 8.71994" fill="white"/>
<path id="&#237;&#140;&#168;&#236;&#138;&#164; 19447" fill-rule="evenodd" clip-rule="evenodd" d="M42.4574 8.79072C42.5223 8.82032 42.5801 8.86364 42.6267 8.91771C42.7028 9.02149 42.7513 9.14285 42.7678 9.27047V12.9109C42.7678 13.9128 43.2758 14.0397 43.8825 14.0397H52.9131C53.675 14.0397 54.0278 13.6729 54.0278 12.9109V0.84664C54.0278 0.50799 53.7738 0.33867 53.3082 0.33867H51.6149C51.658 0.40404 51.6913 0.47534 51.7137 0.55032C51.7843 0.77608 51.8125 1.12884 51.8125 1.82024V2.69508H49.7524V3.93678H51.8125V5.22081H49.7524V6.46251H51.8125V9.90542H44.9549V9.31279C44.9549 8.97414 44.715 8.80482 44.2353 8.80482L42.4574 8.79072ZM51.8266 12.798H44.9549V11.1471H51.8125L51.8266 12.798ZM43.8261 0.07057C43.8902 0.10155 43.9477 0.14467 43.9954 0.19756C44.1054 0.35934 44.1598 0.55246 44.1506 0.74786V1.0724H40.7218V2.3141H42.7255C41.6813 2.8644 40.9899 3.76746 40.9899 4.82573C40.9899 6.60362 42.8807 7.77478 45.223 7.77478C47.5653 7.77478 49.4561 6.60363 49.4561 4.82573C49.4561 3.76746 48.7788 2.8644 47.7205 2.3141H49.7242V1.0724H46.3377V0.5221C46.3377 0.22578 46.1261 0.08468 45.7169 0.08468L43.8261 0.07057ZM45.2371 6.66007C44.0236 6.66007 43.0359 5.92634 43.0359 4.88218C43.0359 3.83802 44.0236 2.8503 45.2371 2.8503C46.4506 2.8503 47.4383 3.83802 47.4383 4.88218C47.4383 5.92634 46.4506 6.66007 45.2371 6.66007ZM25.0312 0.60676C25.4404 0.60676 25.652 0.74786 25.652 1.04418V2.4411C25.3557 5.67235 27.8391 6.02511 30.5765 6.09566V1.79203C30.5765 1.08652 30.5483 0.74787 30.4778 0.52211C30.4557 0.44698 30.4224 0.37562 30.379 0.31045H32.0581C32.5379 0.31045 32.7777 0.47977 32.7777 0.81842V12.8827C32.7777 13.7152 32.3544 14.0115 31.8041 14.0115H22.9146C22.3785 14.0115 21.9975 13.8845 21.7717 13.6446C21.6192 13.4916 21.5374 13.282 21.5459 13.0661V9.52445C21.5483 9.38749 21.5389 9.25059 21.5177 9.11525C21.4982 8.98435 21.4332 8.86449 21.3343 8.7766H23.3238C23.4438 8.76054 23.5643 8.80244 23.6484 8.88948C23.7128 8.99532 23.7424 9.11869 23.733 9.24224V12.2759C23.7226 12.406 23.7575 12.5356 23.8318 12.6428C23.9024 12.7275 24.0576 12.7698 24.2692 12.7698H30.5765V7.52079C28.7563 7.52079 25.7649 7.64778 24.2692 5.03738C23.3097 6.58951 21.8846 7.52079 19.1895 7.52079V6.10976C21.9834 5.884 23.1545 4.44475 23.1545 2.41287V1.28405C23.1648 1.08853 23.1102 0.89508 22.9993 0.73375C22.9516 0.68086 22.8941 0.63773 22.83 0.60676H25.0312ZM14.519 8.29686C13.8135 10.0606 12.6142 10.5545 12.6142 10.5545C16.1135 7.01282 13.9829 2.92084 13.9829 2.92084C13.4608 2.00367 14.124 1.60858 14.124 1.60858C12.6283 1.98956 13.0939 3.24537 13.0939 3.24537C13.8559 5.03737 13.7006 6.50484 13.4467 7.4079L12.9528 7.12569H12.9669C12.9669 7.12569 14.1381 2.49752 9.35468 0.88895V0H8.32463V5.72877L13.0234 8.40972C12.9387 8.57904 12.854 8.74837 12.7553 8.90358L8.02831 6.16619L3.30137 8.90358C3.2026 8.74837 3.11794 8.57904 3.03327 8.40972L7.73199 5.72877V0H6.71605V0.87484C1.91856 2.49752 3.10382 7.11158 3.10382 7.11158L2.60996 7.39379C2.35598 6.50484 2.20076 5.03737 2.96272 3.24537C2.96272 3.24537 3.42836 2.00367 1.93267 1.62269C1.93267 1.62269 2.59585 2.01778 2.07377 2.93495C2.07377 2.93495 -0.0568781 7.02693 3.44247 10.5686C3.44247 10.5686 2.25721 10.0747 1.53758 8.31097C1.53758 8.31097 1.12838 7.45024 0.0136719 7.63368C0.0136719 7.63368 0.436982 7.83122 0.690962 8.60729C0.690962 8.60729 1.7069 11.8385 5.62955 12.3324V14.1103H7.53444V11.4858C6.15591 11.3938 4.86647 10.7718 3.93632 9.75022L4.41607 9.46801C4.50073 9.55267 5.98231 10.9214 8.01419 10.9637H8.04241C10.0602 10.9214 11.5418 9.55267 11.6405 9.46801L12.1203 9.75022C11.1867 10.7751 9.89157 11.3973 8.50805 11.4858V14.1103H10.4412V12.3324C14.3638 11.8385 15.3798 8.6073 15.3798 8.6073C15.6337 7.83124 16.057 7.63369 16.057 7.63369C14.9282 7.45026 14.5331 8.31098 14.5331 8.31098M6.68784 1.94724H6.70195V5.12205L4.03511 6.60363C3.49892 2.82208 6.68784 1.94724 6.68784 1.94724ZM8.02831 7.36558L10.681 8.9036H10.6528C9.70743 9.65144 8.80438 9.89132 8.02831 9.89132C7.25225 9.89132 6.34919 9.63733 5.4038 8.9036H5.37558L8.02831 7.36558Z" fill="white"/>
</g>
</g>
</g>
</svg>
