<svg width="94" height="10" viewBox="0 0 94 10" fill="none" xmlns="http://www.w3.org/2000/svg">
<mask id="mask0_35_10751" style="mask-type:luminance" maskUnits="userSpaceOnUse" x="0" y="0" width="94" height="10">
<path fill-rule="evenodd" clip-rule="evenodd" d="M0 0H94V10H0V0Z" fill="white"/>
</mask>
<g mask="url(#mask0_35_10751)">
<path fill-rule="evenodd" clip-rule="evenodd" d="M2.94811 10C0.386799 10 -0.0947305 8.53001 0.00772947 6.85001H2.08751C2.08751 7.78001 2.12848 8.55 3.26571 8.55C3.96239 8.55 4.31072 8.11001 4.31072 7.45001C4.31072 5.71001 0.130668 5.60001 0.130668 2.72C0.130668 1.21 0.878572 0 3.40914 0C5.42745 0 6.42123 0.880004 6.28805 2.91H4.26974C4.26974 2.19 4.1468 1.45 3.30669 1.45C2.6305 1.45 2.23093 1.80999 2.23093 2.47999C2.23093 4.31999 6.41099 4.15999 6.41099 7.2C6.41099 9.71 4.52587 9.99999 2.9481 9.99999M12.0673 6.20978L11.0633 2.02979H11.0326L10.09 6.20978H12.0673ZM7.06453 9.84016L9.8205 0.160156H12.556L15.2505 9.84016H13.058L12.5047 7.70015H9.67706L9.11357 9.84016H7.06453ZM18.1213 9.84016V2.37015H18.152L19.9654 9.84015H21.9428L23.8484 2.37015H23.8791V9.84016H25.8974V0.160156H22.6702L21.0207 6.74016H21.0002L19.4429 0.160156H16.1132V9.84016H18.1213ZM33.6752 7.2C33.6752 4.16 29.5054 4.31999 29.5054 2.47999C29.5054 1.80999 29.9049 1.45 30.5811 1.45C31.4212 1.45 31.5442 2.19 31.5442 2.91H33.5625C33.6854 0.880004 32.6814 0 30.6631 0C28.1325 0 27.3949 1.21 27.3949 2.72C27.3949 5.6 31.5647 5.71001 31.5647 7.45001C31.5647 8.11001 31.2163 8.55 30.5197 8.55C29.3824 8.55 29.3415 7.77001 29.3415 6.85001H27.2719C27.1592 8.53001 27.6407 10 30.2123 10C31.7901 10 33.6752 9.70001 33.6752 7.20002M39.7191 0.160156V6.89016C39.7191 7.96016 39.3093 8.55016 38.3975 8.55016C37.4856 8.55016 37.1168 8.08016 37.1168 6.89016V0.160156H35.0473V7.02015C35.0473 8.84016 36.1435 10.0002 38.4282 10.0002C40.9588 10.0002 41.7886 8.47016 41.7886 7.02015V0.160156H39.7191ZM45.3639 9.84016V2.76015H45.3947L48.0994 9.84016H50.8349V0.160156H48.8883V6.86015H48.8678L46.2348 0.160156H43.4276V9.84016H45.3639ZM59.1033 3.14C59.216 1.11001 57.9558 0 55.9273 0C52.5361 0 52.4131 2.48 52.4131 4.92C52.4131 8.59 52.8127 10 56.2961 10C57.1157 10 58.5398 9.79001 59.093 9.68V4.77H55.8965V6.26H57.0235V8.41C56.6914 8.52751 56.3419 8.59168 55.9887 8.6C54.8105 8.6 54.5032 8.05999 54.5032 5.03C54.5032 3.14999 54.5032 1.45 55.7941 1.45C56.8903 1.45 57.044 2.23999 57.0337 3.13999L59.1033 3.14ZM67.1242 10C69.0605 10 70.1158 9.17 70.1158 6.58H68.0667C68.036 7.34 68.077 8.55001 67.1139 8.55001C65.946 8.55001 65.7923 7.48 65.7923 5.00001C65.7923 2.52001 65.946 1.45001 67.1139 1.45001C67.7286 1.45001 67.9643 1.93001 67.9643 3.22H69.9928C70.0953 1.14 69.2449 0 67.1242 0C63.7023 0 63.7023 2.44 63.7023 5C63.7023 7.56 63.7023 10 67.1242 10ZM75.608 6.20978L74.6039 2.02979H74.5835L73.6307 6.20978H75.608M70.6186 9.84016L73.3643 0.160156H76.0998L78.784 9.84016H76.6018L76.0485 7.70015H73.2311L72.6676 9.84016H70.6186ZM81.7241 1.65039V4.34039H82.6462C83.4658 4.34039 83.7014 3.54038 83.7014 2.92039C83.7014 1.99039 83.3018 1.65039 82.6462 1.65039H81.7241ZM81.7215 9.84016H79.652V0.160156H83.4837C84.8975 0.160156 85.8093 1.05016 85.8093 2.69015C85.8093 3.92016 85.3176 4.85015 83.9652 5.06015V5.09015C84.416 5.14015 85.7683 5.25015 85.7683 6.99015C85.7683 7.61014 85.8093 9.43015 86.004 9.83015H83.9652C83.6886 9.24015 83.75 8.58015 83.75 7.95015C83.75 6.80015 83.8627 5.82016 82.2645 5.82016H81.7317L81.7215 9.84016ZM89.3748 1.65039V8.35039H90.3788C91.639 8.35039 91.8849 7.42039 91.8849 5.00039C91.8849 3.22039 91.8849 1.65039 90.4403 1.65039H89.3748ZM87.3065 0.160156H90.7694C93.4844 0.160156 93.9966 1.93015 93.9966 4.95015C93.9966 6.44015 94.2323 9.84016 90.6874 9.84016H87.3065L87.3065 0.160156Z" fill="white"/>
</g>
</svg>
