<svg width="70" height="16" viewBox="0 0 70 16" fill="none" xmlns="http://www.w3.org/2000/svg">
<g id="img_wooricard_logo_wh">
<g id="&#234;&#183;&#184;&#235;&#163;&#185; 10747">
<g id="&#234;&#183;&#184;&#235;&#163;&#185; 10744">
<mask id="mask0_495_23844" style="mask-type:luminance" maskUnits="userSpaceOnUse" x="0" y="0" width="70" height="16">
<path id="&#236;&#130;&#172;&#234;&#176;&#129;&#237;&#152;&#149; 6695" fill-rule="evenodd" clip-rule="evenodd" d="M0 0H70V15.6881H0V0Z" fill="white"/>
</mask>
<g mask="url(#mask0_495_23844)">
<path id="&#237;&#140;&#168;&#236;&#138;&#164; 19462" fill-rule="evenodd" clip-rule="evenodd" d="M7.84584 15.6917C12.179 15.6917 15.6917 12.179 15.6917 7.84584C15.6917 3.5127 12.179 0 7.84584 0C3.5127 0 0 3.5127 0 7.84584C0 12.179 3.5127 15.6917 7.84584 15.6917Z" fill="white"/>
</g>
</g>
<g id="&#234;&#183;&#184;&#235;&#163;&#185; 10745">
<mask id="mask1_495_23844" style="mask-type:luminance" maskUnits="userSpaceOnUse" x="0" y="0" width="16" height="16">
<path id="&#237;&#140;&#168;&#236;&#138;&#164; 19526" fill-rule="evenodd" clip-rule="evenodd" d="M9.04141e-06 7.84606C-0.00650096 12.1807 3.50332 15.6993 7.83799 15.7037C12.1727 15.708 15.6895 12.1964 15.6917 7.86177C15.6939 3.5271 12.1805 0.0120023 7.84586 0.0120023C5.7661 0.00887229 3.77045 0.832862 2.29872 2.30237C0.826999 3.77188 9.04141e-06 5.76629 9.04141e-06 7.84606Z" fill="white"/>
</mask>
<g mask="url(#mask1_495_23844)">
<path id="&#237;&#140;&#168;&#236;&#138;&#164; 19463" fill-rule="evenodd" clip-rule="evenodd" d="M7.91674 11.6275C11.3684 11.6275 14.3136 12.5935 15.5859 13.9483C16.0151 12.947 16.2356 11.8687 16.2338 10.7793C16.2338 6.27917 12.4994 2.63899 7.90495 2.63899C3.31054 2.63899 -0.412109 6.27918 -0.412109 10.7911C-0.410469 11.8814 -0.185969 12.9598 0.247601 13.9601C1.5199 12.5936 4.46503 11.6393 7.91673 11.6393" fill="white"/>
<path id="&#237;&#140;&#168;&#236;&#138;&#164; 19464" fill-rule="evenodd" clip-rule="evenodd" d="M7.91662 11.6396C11.3565 11.6396 14.3017 12.5939 15.574 13.9486C16.0029 12.9555 16.2234 11.885 16.2219 10.8032C16.2219 6.3384 12.4993 2.70999 7.91662 2.70999C3.33399 2.70999 -0.38866 6.3384 -0.38866 10.8032C-0.39052 11.885 -0.16998 12.9557 0.25927 13.9486C1.53157 12.5939 4.4767 11.6396 7.91662 11.6396Z" fill="#F8FDFF"/>
<path id="&#237;&#140;&#168;&#236;&#138;&#164; 19465" fill-rule="evenodd" clip-rule="evenodd" d="M7.9165 11.6507C11.3446 11.6507 14.2898 12.5932 15.5503 13.9362C15.9789 12.9513 16.1995 11.8885 16.1982 10.8143C16.1982 6.38484 12.4873 2.78 7.9165 2.78C3.34565 2.78 -0.365225 6.38485 -0.365225 10.8143C-0.366885 11.8885 -0.146275 12.9514 0.282705 13.9362C1.54322 12.5932 4.48835 11.6507 7.90471 11.6507" fill="#F1FBFE"/>
<path id="&#237;&#140;&#168;&#236;&#138;&#164; 19466" fill-rule="evenodd" clip-rule="evenodd" d="M7.90459 11.6508C11.3327 11.6508 14.2543 12.5933 15.5148 13.9245C15.9432 12.9478 16.1639 11.8927 16.1628 10.8262C16.1628 6.43206 12.4637 2.83899 7.90459 2.83899C3.34552 2.83899 -0.34179 6.43206 -0.34179 10.8262C-0.34326 11.8927 -0.1226 12.9479 0.30614 13.9245C1.56666 12.5933 4.50001 11.6508 7.91637 11.6508" fill="#E9F9FE"/>
<path id="&#237;&#140;&#168;&#236;&#138;&#164; 19467" fill-rule="evenodd" clip-rule="evenodd" d="M7.90452 11.6629C11.3209 11.6629 14.2425 12.5936 15.503 13.913C15.9312 12.9446 16.1519 11.8972 16.1509 10.8383C16.1509 6.4795 12.4636 2.90999 7.9163 2.90999C3.36901 2.90999 -0.330078 6.49128 -0.330078 10.8501C-0.329398 11.905 -0.108728 12.9482 0.317852 13.913C1.57837 12.5936 4.49994 11.6629 7.90452 11.6629Z" fill="#E2F7FD"/>
<path id="&#237;&#140;&#168;&#236;&#138;&#164; 19468" fill-rule="evenodd" clip-rule="evenodd" d="M7.90538 11.6745C11.31 11.6745 14.2197 12.5934 15.4803 13.9128C15.9066 12.9562 16.1274 11.9207 16.1282 10.8734C16.1282 6.54994 12.4527 3.004 7.90538 3.004C3.35809 3.004 -0.305664 6.53816 -0.305664 10.8616C-0.304834 11.9089 -0.084094 12.9444 0.342266 13.901C1.59101 12.5934 4.51258 11.6627 7.90538 11.6627" fill="#DBF5FD"/>
<path id="&#237;&#140;&#168;&#236;&#138;&#164; 19469" fill-rule="evenodd" clip-rule="evenodd" d="M7.9043 11.6863C11.2971 11.6863 14.2069 12.6052 15.4556 13.9011C15.8818 12.9527 16.1026 11.925 16.1036 10.8853C16.1036 6.59715 12.428 3.06299 7.9043 3.06299C3.38057 3.06299 -0.283177 6.58537 -0.283177 10.8735C-0.285917 11.9123 -0.0691275 12.9401 0.352973 13.8893C1.60171 12.5934 4.5115 11.6746 7.9043 11.6746" fill="#D4F3FD"/>
<path id="&#237;&#140;&#168;&#236;&#138;&#164; 19470" fill-rule="evenodd" clip-rule="evenodd" d="M7.90422 11.6865C11.297 11.6865 14.195 12.5936 15.432 13.8776C15.858 12.9375 16.0788 11.9175 16.0799 10.8854C16.0799 6.63259 12.4162 3.12199 7.90422 3.12199C3.39227 3.12199 -0.271484 6.64437 -0.271484 10.8972C-0.270044 11.9292 -0.0491844 12.9492 0.376446 13.8894C1.62519 12.6053 4.5232 11.6982 7.90422 11.6982" fill="#CCF1FC"/>
<path id="&#237;&#140;&#168;&#236;&#138;&#164; 19471" fill-rule="evenodd" clip-rule="evenodd" d="M7.90507 11.6986C11.2861 11.6986 14.1723 12.5939 15.4211 13.878C15.8425 12.9451 16.0594 11.9329 16.0572 10.9093C16.0572 6.69182 12.4052 3.19299 7.90507 3.19299C3.4049 3.19299 -0.24707 6.69181 -0.24707 10.9093C-0.24553 11.9337 -0.0246003 12.946 0.40086 13.878C1.63782 12.6057 4.53583 11.6986 7.90507 11.6986Z" fill="#C5F0FC"/>
<path id="&#237;&#140;&#168;&#236;&#138;&#164; 19472" fill-rule="evenodd" clip-rule="evenodd" d="M7.90496 11.7097C11.2742 11.7097 14.1604 12.605 15.3974 13.8655C15.8187 12.9409 16.0356 11.9364 16.0335 10.9204C16.0335 6.73826 12.3934 3.263 7.90496 3.263C3.41657 3.263 -0.223618 6.75004 -0.223618 10.9204C-0.225708 11.9364 -0.00872785 12.9409 0.412532 13.8655C1.64949 12.605 4.53572 11.7097 7.90496 11.7097Z" fill="#BEEEFC"/>
<path id="&#237;&#140;&#168;&#236;&#138;&#164; 19473" fill-rule="evenodd" clip-rule="evenodd" d="M7.90482 11.722C11.2623 11.722 14.1485 12.6055 15.3737 13.866C15.7948 12.9497 16.0119 11.9529 16.0098 10.9444C16.0098 6.80947 12.3814 3.34599 7.89304 3.34599C3.40465 3.34599 -0.200186 6.79769 -0.200186 10.9444C-0.201846 11.9528 0.0151942 12.9496 0.435964 13.866C1.67292 12.6055 4.54737 11.722 7.90482 11.722Z" fill="#B7ECFB"/>
<path id="&#237;&#140;&#168;&#236;&#138;&#164; 19474" fill-rule="evenodd" clip-rule="evenodd" d="M7.90476 11.7221C11.2622 11.7221 14.1249 12.5938 15.3618 13.8426C15.7808 12.938 15.9979 11.9532 15.998 10.9563C15.998 6.8567 12.3696 3.405 7.90475 3.405C3.43992 3.405 -0.188477 6.84492 -0.188477 10.9563C-0.188477 11.9526 0.0285234 12.9375 0.447443 13.8421C1.67285 12.5938 4.5473 11.7221 7.89298 11.7221" fill="#B0EAFB"/>
<path id="&#237;&#140;&#168;&#236;&#138;&#164; 19475" fill-rule="evenodd" clip-rule="evenodd" d="M7.90463 11.7341C11.2503 11.7341 14.113 12.6059 15.3382 13.8311C15.7567 12.9348 15.9738 11.9576 15.9743 10.9684C15.9743 6.90413 12.3577 3.476 7.90463 3.476C3.45158 3.476 -0.165039 6.90414 -0.165039 10.9684C-0.164559 11.9576 0.052581 12.9348 0.471111 13.8311C1.69629 12.6059 4.55896 11.7341 7.90463 11.7341Z" fill="#A8E8FA"/>
<path id="&#237;&#140;&#168;&#236;&#138;&#164; 19476" fill-rule="evenodd" clip-rule="evenodd" d="M7.90549 11.7452C11.2394 11.7452 14.0903 12.6052 15.3154 13.8304C15.7339 12.9424 15.9511 11.9729 15.9516 10.9913C15.9516 6.96234 12.3468 3.54599 7.90549 3.54599C3.46422 3.54599 -0.140625 6.95057 -0.140625 10.9795C-0.139765 11.9611 0.077435 12.9305 0.495525 13.8186C1.70893 12.6052 4.5716 11.7452 7.90549 11.7452" fill="#A1E6FA"/>
<path id="&#237;&#140;&#168;&#236;&#138;&#164; 19477" fill-rule="evenodd" clip-rule="evenodd" d="M7.89267 11.7573C11.2148 11.7573 14.0657 12.6055 15.2908 13.8189C15.7089 12.9391 15.9262 11.9774 15.927 11.0034C15.927 7.00978 12.3339 3.61699 7.90445 3.61699C3.47497 3.61699 -0.129883 7.00979 -0.129883 11.0034C-0.129053 11.9774 0.0882372 12.9391 0.506267 13.8189C1.73145 12.6055 4.58234 11.7573 7.89267 11.7573Z" fill="#9AE4FA"/>
<path id="&#237;&#140;&#168;&#236;&#138;&#164; 19478" fill-rule="evenodd" clip-rule="evenodd" d="M7.89254 11.7577C11.2147 11.7577 14.0538 12.6059 15.2672 13.8075C15.6852 12.936 15.9025 11.982 15.9033 11.0155C15.9033 7.05723 12.322 3.68799 7.89254 3.68799C3.46306 3.68799 -0.106445 7.05723 -0.106445 11.0155C-0.105275 11.9819 0.112085 12.9359 0.529705 13.8075C1.7431 12.6059 4.58221 11.7577 7.89254 11.7577Z" fill="#93E2F9"/>
<path id="&#237;&#140;&#168;&#236;&#138;&#164; 19479" fill-rule="evenodd" clip-rule="evenodd" d="M7.8934 11.7685C11.2037 11.7685 14.0311 12.605 15.2445 13.7948C15.658 12.9306 15.8714 11.9844 15.8688 11.0264C15.8688 7.10345 12.2875 3.74599 7.88162 3.74599C3.4757 3.74599 -0.0820312 7.10344 -0.0820312 11.0264C-0.0805412 11.9852 0.136889 12.9315 0.554119 13.7948C1.75573 12.605 4.59485 11.7685 7.8934 11.7685Z" fill="#8BE0F9"/>
<path id="&#237;&#140;&#168;&#236;&#138;&#164; 19480" fill-rule="evenodd" clip-rule="evenodd" d="M7.89236 11.7806C11.1909 11.7806 14.0182 12.6053 15.2316 13.7833C15.6448 12.9274 15.8583 11.9889 15.856 11.0385C15.856 7.15088 12.2865 3.81699 7.89236 3.81699C3.49822 3.81699 -0.0712891 7.16266 -0.0712891 11.0502C-0.0677291 11.9975 0.149731 12.9318 0.564861 13.7833C1.77826 12.6053 4.60559 11.7806 7.89236 11.7806Z" fill="#84DEF8"/>
<path id="&#237;&#140;&#168;&#236;&#138;&#164; 19481" fill-rule="evenodd" clip-rule="evenodd" d="M7.89322 11.7927C11.18 11.7927 13.9955 12.6174 15.2089 13.7837C15.62 12.9396 15.8335 12.013 15.8333 11.0741C15.8333 7.21011 12.2756 3.888 7.89322 3.888C3.51086 3.888 -0.046875 7.21011 -0.046875 11.0624C-0.046875 12 0.166445 12.9265 0.576965 13.7708C1.79088 12.6056 4.60643 11.7927 7.89322 11.7927Z" fill="#7DDCF8"/>
<path id="&#237;&#140;&#168;&#236;&#138;&#164; 19482" fill-rule="evenodd" clip-rule="evenodd" d="M7.89211 11.7921C11.1789 11.7921 13.9826 12.6049 15.1843 13.7594C15.5954 12.9237 15.809 12.0048 15.8086 11.0734C15.8086 7.25654 12.2627 3.95799 7.89212 3.95799C3.52154 3.95799 -0.0244141 7.25654 -0.0244141 11.0734C-0.0239641 12.0047 0.189616 12.9235 0.599956 13.7594C1.80158 12.6049 4.61713 11.7921 7.89212 11.7921" fill="#76DAF8"/>
<path id="&#237;&#140;&#168;&#236;&#138;&#164; 19483" fill-rule="evenodd" clip-rule="evenodd" d="M7.89296 11.8042C11.1679 11.8042 13.9717 12.6052 15.1733 13.7597C15.5819 12.9278 15.7916 12.0123 15.7859 11.0855C15.7859 7.30398 12.2518 4.02899 7.88118 4.02899C3.5106 4.02899 0 7.31576 0 11.0855C0.0007 12.0092 0.21436 12.9203 0.62437 13.748C1.82598 12.6052 4.62975 11.7924 7.89296 11.7924" fill="#6ED8F7"/>
<path id="&#237;&#140;&#168;&#236;&#138;&#164; 19484" fill-rule="evenodd" clip-rule="evenodd" d="M7.8929 11.8162C11.1561 11.8162 13.9481 12.6173 15.1497 13.7483C15.5602 12.9292 15.774 12.0256 15.7741 11.1094C15.7741 7.3632 12.2399 4.09999 7.89291 4.09999C3.54589 4.09999 0.0117188 7.3632 0.0117188 11.1094C0.0126388 12.0255 0.226389 12.9289 0.636089 13.7483C1.8377 12.6055 4.62969 11.8162 7.89291 11.8162" fill="#67D6F7"/>
<path id="&#237;&#140;&#168;&#236;&#138;&#164; 19485" fill-rule="evenodd" clip-rule="evenodd" d="M7.89278 11.8283C11.1442 11.8283 13.9362 12.6176 15.126 13.7368C15.5363 12.926 15.7501 12.0302 15.7504 11.1215C15.7504 7.42242 12.228 4.17099 7.89278 4.17099C3.55754 4.17099 0.0351562 7.42242 0.0351562 11.1215C0.0362763 12.0301 0.250106 12.9257 0.659526 13.7368C1.84936 12.6176 4.64135 11.8283 7.89278 11.8283Z" fill="#60D4F6"/>
<path id="&#237;&#140;&#168;&#236;&#138;&#164; 19486" fill-rule="evenodd" clip-rule="evenodd" d="M7.89265 11.8277C11.1441 11.8277 13.9243 12.6052 15.1141 13.7243C15.5241 12.9219 15.7381 12.0337 15.7385 11.1326C15.7267 7.46887 12.2161 4.241 7.89265 4.241C3.56919 4.241 0.0585938 7.46887 0.0585938 11.1326C0.0598838 12.0336 0.273804 12.9216 0.682964 13.7243C1.8728 12.617 4.653 11.8277 7.89265 11.8277Z" fill="#59D2F6"/>
<path id="&#237;&#140;&#168;&#236;&#138;&#164; 19487" fill-rule="evenodd" clip-rule="evenodd" d="M7.88179 11.8398C11.1214 11.8398 13.8899 12.6173 15.0797 13.7129C15.4831 12.9212 15.6931 12.0451 15.6923 11.1565C15.6923 7.52808 12.1935 4.312 7.88179 4.312C3.57011 4.312 0.0712891 7.51631 0.0712891 11.1565C0.0727291 12.05 0.286739 12.9302 0.695659 13.7246C1.88549 12.6291 4.65392 11.8515 7.89357 11.8515" fill="#52D1F6"/>
<path id="&#237;&#140;&#168;&#236;&#138;&#164; 19488" fill-rule="evenodd" clip-rule="evenodd" d="M7.88069 11.8511C11.1086 11.8511 13.877 12.6168 15.055 13.7124C15.4583 12.929 15.6683 12.0606 15.6676 11.1796C15.6676 7.58652 12.1806 4.394 7.86891 4.394C3.55723 4.394 0.09375 7.57475 0.09375 11.1678C0.09375 12.0501 0.30397 12.9184 0.70695 13.7018C1.89617 12.605 4.65282 11.8393 7.88069 11.8393" fill="#4ACFF5"/>
<path id="&#237;&#140;&#168;&#236;&#138;&#164; 19489" fill-rule="evenodd" clip-rule="evenodd" d="M7.88154 11.851C11.0976 11.851 13.8543 12.6049 15.0441 13.6887C15.4471 12.9137 15.6573 12.053 15.6567 11.1795C15.6567 7.62174 12.1814 4.44099 7.88154 4.44099C3.58164 4.44099 0.118164 7.62173 0.118164 11.1795C0.118514 12.0529 0.328604 12.9134 0.730754 13.6887C1.9088 12.6049 4.66545 11.851 7.88154 11.851" fill="#43CDF5"/>
<path id="&#237;&#140;&#168;&#236;&#138;&#164; 19490" fill-rule="evenodd" clip-rule="evenodd" d="M7.88045 11.863C11.0965 11.863 13.8414 12.617 15.0195 13.6773C15.4223 12.9107 15.6326 12.0576 15.632 11.1916C15.632 7.66918 12.1568 4.51199 7.88045 4.51199C3.6041 4.51199 0.140625 7.66917 0.140625 11.1916C0.141055 12.0574 0.351245 12.9103 0.753215 13.6773C1.93127 12.6052 4.68791 11.863 7.88045 11.863Z" fill="#3CCBF5"/>
<path id="&#237;&#140;&#168;&#236;&#138;&#164; 19491" fill-rule="evenodd" clip-rule="evenodd" d="M7.88136 11.8752C11.0857 11.8752 13.8305 12.6173 14.9968 13.6776C15.3995 12.9194 15.6099 12.0739 15.6094 11.2154C15.6094 7.7284 12.1459 4.58299 7.88136 4.58299C3.6168 4.58299 0.15332 7.72839 0.15332 11.2154C0.15379 12.0738 0.36409 12.9191 0.76591 13.6776C1.94396 12.6173 4.68883 11.8752 7.88136 11.8752" fill="#35C9F4"/>
<path id="&#237;&#140;&#168;&#236;&#138;&#164; 19492" fill-rule="evenodd" clip-rule="evenodd" d="M7.88124 11.8873C11.0738 11.8873 13.8068 12.6176 14.9849 13.6661C15.3871 12.9162 15.5975 12.0785 15.5975 11.2275C15.5975 7.77583 12.1458 4.65399 7.89302 4.65399C3.64024 4.65399 0.176758 7.77583 0.176758 11.2275C0.177728 12.0783 0.388108 12.9158 0.789348 13.6661C1.95562 12.6176 4.70049 11.8872 7.88124 11.8872" fill="#2DC7F4"/>
<path id="&#237;&#140;&#168;&#236;&#138;&#164; 19493" fill-rule="evenodd" clip-rule="evenodd" d="M7.88111 11.8866C11.0619 11.8866 13.7949 12.617 14.9612 13.6536C15.3633 12.9122 15.5738 12.0821 15.5738 11.2386C15.5738 7.82228 12.1339 4.724 7.88111 4.724C3.62833 4.724 0.200195 7.83406 0.200195 11.2386C0.201145 12.082 0.411645 12.9118 0.812785 13.6536C1.97906 12.617 4.71215 11.8866 7.88112 11.8866" fill="#26C5F3"/>
<path id="&#237;&#140;&#168;&#236;&#138;&#164; 19494" fill-rule="evenodd" clip-rule="evenodd" d="M7.88097 11.8987C11.0617 11.8987 13.7712 12.6173 14.9375 13.6422C15.3372 12.9125 15.5478 12.0944 15.5501 11.2625C15.5501 7.8815 12.122 4.795 7.88098 4.795C3.63998 4.795 0.223633 7.8815 0.223633 11.2625C0.223363 12.0933 0.429843 12.9111 0.824443 13.6422C1.99071 12.6173 4.71202 11.8987 7.88099 11.8987" fill="#1FC3F3"/>
<path id="&#237;&#140;&#168;&#236;&#138;&#164; 19495" fill-rule="evenodd" clip-rule="evenodd" d="M7.88098 11.9225C11.05 11.9225 13.7713 12.6411 14.9257 13.6543C15.3258 12.9291 15.5365 12.1146 15.5383 11.2864C15.5383 7.92894 12.1102 4.866 7.88098 4.866C3.65176 4.866 0.223633 7.94072 0.223633 11.2864C0.226453 12.1145 0.437083 12.9287 0.836223 13.6543C2.00249 12.6411 4.71202 11.9225 7.88099 11.9225" fill="#1EC1F2"/>
<path id="&#237;&#140;&#168;&#236;&#138;&#164; 19496" fill-rule="evenodd" clip-rule="evenodd" d="M7.88191 11.9452C11.0509 11.9452 13.7604 12.652 14.9267 13.6652C15.3226 12.9431 15.5293 12.1326 15.5275 11.3091C15.5275 7.97516 12.0993 4.924 7.8819 4.924C3.66447 4.924 0.236331 7.97516 0.236331 11.3091C0.235491 12.1324 0.442121 12.9427 0.837141 13.6652C2.00341 12.652 4.71294 11.9452 7.87013 11.9452" fill="#1DBFF0"/>
<path id="&#237;&#140;&#168;&#236;&#138;&#164; 19497" fill-rule="evenodd" clip-rule="evenodd" d="M7.88085 11.9571C11.038 11.9571 13.7476 12.6639 14.9138 13.6652C15.3079 12.9509 15.5146 12.1485 15.5147 11.3327C15.5147 8.02237 12.0983 4.98299 7.88086 4.98299C3.66343 4.98299 0.24707 8.02237 0.24707 11.3327C0.25177 12.1494 0.46247 12.9516 0.85966 13.6652C2.02593 12.6639 4.73546 11.9571 7.88086 11.9571" fill="#1CBDEF"/>
<path id="&#237;&#140;&#168;&#236;&#138;&#164; 19498" fill-rule="evenodd" clip-rule="evenodd" d="M7.8808 11.9809C11.038 11.9809 13.7475 12.676 14.902 13.6773C15.296 12.9673 15.5028 12.1686 15.5028 11.3566C15.5028 8.06981 12.0864 5.05399 7.8808 5.05399C3.67515 5.05399 0.258789 8.06981 0.258789 11.3566C0.259829 12.1685 0.466529 12.9669 0.859599 13.6773C2.01409 12.676 4.72362 11.9809 7.88081 11.9809" fill="#1BBBEE"/>
<path id="&#237;&#140;&#168;&#236;&#138;&#164; 19499" fill-rule="evenodd" clip-rule="evenodd" d="M7.88171 12.0046C11.0389 12.0046 13.7366 12.6997 14.8911 13.6892C15.2852 12.9835 15.492 12.1886 15.4919 11.3802C15.4919 8.10525 12.0874 5.11299 7.88171 5.11299C3.67606 5.11299 0.271484 8.11703 0.271484 11.3802C0.271944 12.1885 0.478744 12.9833 0.872294 13.6892C2.02678 12.6997 4.73631 12.0046 7.88171 12.0046Z" fill="#1AB9EC"/>
<path id="&#237;&#140;&#168;&#236;&#138;&#164; 19500" fill-rule="evenodd" clip-rule="evenodd" d="M7.88165 12.0165C11.0271 12.0165 13.7248 12.7115 14.8793 13.6893C15.2719 12.9915 15.4788 12.2046 15.4801 11.4039C15.4801 8.15248 12.0755 5.172 7.86987 5.172C3.66422 5.172 0.283203 8.15248 0.283203 11.4039C0.283573 12.2084 0.490443 12.9994 0.884013 13.7011C2.0385 12.7115 4.73625 12.0283 7.88165 12.0283" fill="#19B6EB"/>
<path id="&#237;&#140;&#168;&#236;&#138;&#164; 19501" fill-rule="evenodd" clip-rule="evenodd" d="M7.88159 12.0404C11.027 12.0404 13.7247 12.7236 14.8792 13.7014C15.2719 13.0079 15.4788 12.2247 15.48 11.4278C15.48 8.19992 12.0755 5.243 7.88159 5.243C3.68772 5.243 0.294922 8.19992 0.294922 11.4278C0.297222 12.2246 0.504092 13.0075 0.895732 13.7014C2.05022 12.7236 4.74797 12.0404 7.88159 12.0404" fill="#18B4EA"/>
<path id="&#237;&#140;&#168;&#236;&#138;&#164; 19502" fill-rule="evenodd" clip-rule="evenodd" d="M7.88055 12.063C11.026 12.063 13.7119 12.7463 14.8664 13.7123C15.2591 13.023 15.4661 12.2437 15.4672 11.4504C15.4672 8.24612 12.0626 5.30099 7.88055 5.30099C3.69846 5.30099 0.305664 8.24613 0.305664 11.4504C0.307334 12.2436 0.514314 13.0228 0.906474 13.7123C2.06096 12.7463 4.74693 12.063 7.88055 12.063" fill="#17B2E8"/>
<path id="&#237;&#140;&#168;&#236;&#138;&#164; 19503" fill-rule="evenodd" clip-rule="evenodd" d="M7.88055 12.0751C11.0142 12.0751 13.7001 12.7466 14.8546 13.7126C15.2454 13.0311 15.4524 12.2598 15.4554 11.4743C15.4554 8.29356 12.0626 5.37199 7.88055 5.37199C3.69846 5.37199 0.305664 8.29356 0.305664 11.4743C0.307214 12.2638 0.514274 13.0392 0.906474 13.7244C2.06096 12.7584 4.74693 12.0869 7.88055 12.0869" fill="#16B0E7"/>
<path id="&#237;&#140;&#168;&#236;&#138;&#164; 19504" fill-rule="evenodd" clip-rule="evenodd" d="M7.88147 12.0988C11.0151 12.0988 13.7011 12.7703 14.8438 13.7245C15.235 13.0475 15.4422 12.2799 15.4446 11.498C15.4446 8.3408 12.0518 5.431 7.88147 5.431C3.71116 5.431 0.318359 8.34079 0.318359 11.498C0.321829 12.2797 0.528899 13.0471 0.919169 13.7245C2.06188 12.7703 4.74784 12.0988 7.88147 12.0988Z" fill="#15AEE5"/>
<path id="&#237;&#140;&#168;&#236;&#138;&#164; 19505" fill-rule="evenodd" clip-rule="evenodd" d="M7.88141 12.1224C11.015 12.1224 13.6892 12.7939 14.8319 13.7364C15.2233 13.0637 15.4305 12.2998 15.4327 11.5216C15.4327 8.38801 12.0517 5.48999 7.88141 5.48999C3.7111 5.48999 0.330078 8.388 0.330078 11.5216C0.333418 12.2997 0.540568 13.0633 0.930888 13.7364C2.0736 12.7822 4.75957 12.1224 7.88141 12.1224Z" fill="#14ACE4"/>
<path id="&#237;&#140;&#168;&#236;&#138;&#164; 19506" fill-rule="evenodd" clip-rule="evenodd" d="M7.88135 12.1463C11.0032 12.1463 13.6774 12.806 14.8201 13.7485C15.2115 13.0801 15.4188 12.32 15.4209 11.5455C15.4209 8.42366 12.0399 5.56099 7.88135 5.56099C3.72282 5.56099 0.341797 8.43544 0.341797 11.5455C0.344997 12.3199 0.552227 13.0797 0.942607 13.7485C2.08532 12.806 4.77129 12.1463 7.88135 12.1463" fill="#13AAE3"/>
<path id="&#237;&#140;&#168;&#236;&#138;&#164; 19507" fill-rule="evenodd" clip-rule="evenodd" d="M7.88031 12.1582C11.0021 12.1582 13.6763 12.8179 14.819 13.7486C15.2085 13.088 15.4159 12.336 15.4199 11.5692C15.4199 8.47089 12.0506 5.62 7.89209 5.62C3.73356 5.62 0.352539 8.48267 0.352539 11.5692C0.357649 12.3358 0.564889 13.0876 0.953349 13.7486C2.09606 12.8061 4.77025 12.1582 7.88031 12.1464" fill="#12A8E1"/>
<path id="&#237;&#140;&#168;&#236;&#138;&#164; 19508" fill-rule="evenodd" clip-rule="evenodd" d="M7.88122 12.1811C10.9913 12.1811 13.6655 12.8408 14.8082 13.7714C15.1978 13.1152 15.4052 12.3669 15.409 11.6038C15.409 8.5291 12.0398 5.68999 7.893 5.68999C3.74625 5.68999 0.365234 8.5291 0.365234 11.592C0.369624 12.3551 0.576984 13.1032 0.966044 13.7597C2.10875 12.829 4.78294 12.1811 7.893 12.1693" fill="#11A6E0"/>
<path id="&#237;&#140;&#168;&#236;&#138;&#164; 19509" fill-rule="evenodd" clip-rule="evenodd" d="M7.88116 12.2049C10.9912 12.2049 13.6536 12.8529 14.7963 13.7835C15.186 13.1317 15.3935 12.3871 15.3972 11.6277C15.3972 8.57654 12.0279 5.76099 7.88116 5.76099C3.73441 5.76099 0.376953 8.57654 0.376953 11.6159C0.377593 12.3742 0.580953 13.1185 0.965983 13.7718C2.10869 12.8529 4.77109 12.1932 7.88116 12.1932" fill="#10A4DF"/>
<path id="&#237;&#140;&#168;&#236;&#138;&#164; 19510" fill-rule="evenodd" clip-rule="evenodd" d="M7.8811 12.2168C10.9912 12.2168 13.6536 12.8648 14.7845 13.7836C15.1681 13.1384 15.3716 12.402 15.3735 11.6514C15.3735 8.62376 12.0161 5.81999 7.86932 5.81999C3.72257 5.81999 0.388672 8.62376 0.388672 11.6514C0.391222 12.402 0.594602 13.1382 0.977702 13.7836C2.12041 12.8648 4.78282 12.2168 7.8811 12.2168Z" fill="#0FA1DD"/>
<path id="&#237;&#140;&#168;&#236;&#138;&#164; 19511" fill-rule="evenodd" clip-rule="evenodd" d="M7.8811 12.2405C10.9794 12.2405 13.6418 12.8766 14.7727 13.7955C15.1565 13.1546 15.36 12.422 15.3618 11.675C15.3618 8.67099 12.0043 5.879 7.86932 5.879C3.73435 5.879 0.388672 8.65921 0.388672 11.675C0.391022 12.4219 0.594492 13.1544 0.977702 13.7955C2.10863 12.8884 4.77104 12.2405 7.86932 12.2405" fill="#0E9FDC"/>
<path id="&#237;&#140;&#168;&#236;&#138;&#164; 19512" fill-rule="evenodd" clip-rule="evenodd" d="M7.88201 12.2634C10.9803 12.2634 13.6309 12.8995 14.7736 13.8066C15.1575 13.1701 15.3611 12.4412 15.3627 11.6979C15.3627 8.71742 12.017 5.94899 7.88202 5.94899C3.74705 5.94899 0.401367 8.70564 0.401367 11.6979C0.403497 12.4411 0.607067 13.1699 0.990397 13.8066C2.12133 12.8995 4.78373 12.2634 7.87024 12.2634" fill="#0D9DDB"/>
<path id="&#237;&#140;&#168;&#236;&#138;&#164; 19513" fill-rule="evenodd" clip-rule="evenodd" d="M7.88097 12.2753C10.9792 12.2753 13.6299 12.9114 14.7608 13.8067C15.1428 13.178 15.3464 12.4572 15.3498 11.7216C15.3498 8.75287 12.0042 6.008 7.88098 6.008C3.75779 6.008 0.412109 8.75287 0.412109 11.7216C0.416149 12.4571 0.619729 13.1778 1.00114 13.8067C2.13207 12.9114 4.79447 12.2753 7.8692 12.2753" fill="#0C9BD9"/>
<path id="&#237;&#140;&#168;&#236;&#138;&#164; 19514" fill-rule="evenodd" clip-rule="evenodd" d="M7.8809 12.2991C10.9674 12.2991 13.618 12.9235 14.749 13.8188C15.1311 13.1945 15.3348 12.4774 15.338 11.7454C15.338 8.8003 11.9923 6.07899 7.88091 6.07899C3.7695 6.07899 0.423828 8.8003 0.423828 11.7454C0.427628 12.4773 0.631308 13.1942 1.01286 13.8188C2.14379 12.9235 4.79441 12.2991 7.88092 12.2991" fill="#0B99D8"/>
<path id="&#237;&#140;&#168;&#236;&#138;&#164; 19515" fill-rule="evenodd" clip-rule="evenodd" d="M7.88084 12.3228C10.9673 12.3228 13.6062 12.9472 14.7371 13.8307C15.1194 13.2108 15.3232 12.4974 15.3261 11.7691C15.3261 8.84752 11.9923 6.138 7.88085 6.138C3.76944 6.138 0.435547 8.84752 0.435547 11.7691C0.439097 12.4973 0.642867 13.2105 1.02458 13.8307C2.15551 12.9472 4.80613 12.3228 7.88086 12.3228" fill="#0A97D7"/>
<path id="&#237;&#140;&#168;&#236;&#138;&#164; 19516" fill-rule="evenodd" clip-rule="evenodd" d="M7.88175 12.3347C10.9565 12.3347 13.6071 12.9472 14.7263 13.8308C15.1066 13.2187 15.3104 12.5134 15.3153 11.7928C15.3153 8.89474 11.9814 6.19699 7.88176 6.19699C3.78213 6.19699 0.448242 8.89474 0.448242 11.7928C0.451512 12.5173 0.655392 13.2268 1.03727 13.8426C2.1682 12.9708 4.80704 12.3464 7.88177 12.3464" fill="#0995D5"/>
<path id="&#237;&#140;&#168;&#236;&#138;&#164; 19517" fill-rule="evenodd" clip-rule="evenodd" d="M7.88071 12.3575C10.9554 12.3575 13.5943 12.9701 14.7134 13.8419C15.094 13.2342 15.2979 12.5326 15.3025 11.8156C15.3025 8.94119 11.9804 6.267 7.88072 6.267C3.78109 6.267 0.458984 8.94118 0.458984 11.8156C0.464144 12.5325 0.668044 13.2339 1.04801 13.8419C2.17894 12.9701 4.81778 12.3575 7.88073 12.3575" fill="#0893D4"/>
<path id="&#237;&#140;&#168;&#236;&#138;&#164; 19518" fill-rule="evenodd" clip-rule="evenodd" d="M7.88065 12.3812C10.9554 12.3812 13.5824 12.9938 14.7134 13.8537C15.0935 13.2502 15.2975 12.5525 15.3024 11.8393C15.3024 8.98839 11.9803 6.32599 7.88066 6.32599C3.78103 6.32599 0.470703 8.98839 0.470703 11.8393C0.475573 12.5525 0.679573 13.2502 1.05973 13.8537C2.17888 12.9938 4.81772 12.3812 7.88066 12.3812" fill="#0791D2"/>
<path id="&#237;&#140;&#168;&#236;&#138;&#164; 19519" fill-rule="evenodd" clip-rule="evenodd" d="M7.88158 12.4051C10.9445 12.4051 13.5834 13.0059 14.7025 13.8658C15.0808 13.2702 15.2848 12.5805 15.2915 11.8749C15.2915 9.04761 11.9694 6.39699 7.88158 6.39699C3.79373 6.39699 0.483398 9.03583 0.483398 11.8632C0.487948 12.5728 0.692068 13.2668 1.07243 13.8658C2.19158 13.0059 4.83042 12.4051 7.89336 12.4051" fill="#068FD1"/>
<path id="&#237;&#140;&#168;&#236;&#138;&#164; 19520" fill-rule="evenodd" clip-rule="evenodd" d="M7.88158 12.4169C10.9445 12.4169 13.5716 13.0178 14.6907 13.866C15.0692 13.2747 15.2733 12.5888 15.2798 11.8868C15.2798 9.07127 11.9694 6.45599 7.88158 6.45599C3.79373 6.45599 0.483398 9.08305 0.483398 11.8868C0.489818 12.5888 0.693968 13.2747 1.07243 13.866C2.19158 13.0178 4.81864 12.4169 7.88158 12.4169Z" fill="#058CD0"/>
<path id="&#237;&#140;&#168;&#236;&#138;&#164; 19521" fill-rule="evenodd" clip-rule="evenodd" d="M7.88152 12.4406C10.9445 12.4406 13.5597 13.0414 14.6789 13.8778C15.0576 13.2911 15.2618 12.6088 15.2679 11.9105C15.2679 9.1185 11.9576 6.515 7.88152 6.515C3.80545 6.515 0.495117 9.13028 0.495117 11.9105C0.501197 12.6088 0.705457 13.2911 1.08415 13.8778C2.2033 13.0296 4.83036 12.4406 7.88152 12.4406Z" fill="#048ACE"/>
<path id="&#237;&#140;&#168;&#236;&#138;&#164; 19522" fill-rule="evenodd" clip-rule="evenodd" d="M7.88146 12.4637C10.9326 12.4637 13.5597 13.0527 14.667 13.8892C15.0438 13.3102 15.2481 12.6361 15.2561 11.9454C15.2561 9.17694 11.9575 6.597 7.88146 6.597C3.80539 6.597 0.506836 9.16516 0.506836 11.9336C0.509686 12.627 0.709906 13.3053 1.08409 13.8892C2.20324 13.0527 4.8303 12.4637 7.86968 12.4637" fill="#0388CD"/>
<path id="&#237;&#140;&#168;&#236;&#138;&#164; 19523" fill-rule="evenodd" clip-rule="evenodd" d="M7.88042 12.4754C10.9316 12.4754 13.5469 13.0644 14.666 13.889C15.0424 13.3143 15.2468 12.644 15.255 11.957C15.255 9.21216 11.9565 6.644 7.8922 6.644C3.82791 6.644 0.517578 9.21216 0.517578 11.957C0.520048 12.6468 0.720388 13.3215 1.09483 13.9008C2.21398 13.0762 4.82926 12.4872 7.86864 12.4872" fill="#0286CC"/>
<path id="&#237;&#140;&#168;&#236;&#138;&#164; 19524" fill-rule="evenodd" clip-rule="evenodd" d="M7.88133 12.499C10.9325 12.499 13.536 13.0763 14.6551 13.9009C15.0318 13.3307 15.2363 12.664 15.2442 11.9807C15.2442 9.25936 11.9456 6.70299 7.89311 6.70299C3.8406 6.70299 0.530273 9.25937 0.530273 11.9807C0.534603 12.6628 0.734983 13.3294 1.10752 13.9009C2.22667 13.0763 4.84195 12.499 7.88133 12.499Z" fill="#0184CA"/>
<path id="&#237;&#140;&#168;&#236;&#138;&#164; 19525" fill-rule="evenodd" clip-rule="evenodd" d="M7.88127 12.5231C10.9207 12.5231 13.5359 13.1004 14.6433 13.9132C15.014 13.3496 15.2144 12.6911 15.2206 12.0166C15.2206 9.31881 11.9338 6.786 7.88127 6.786C3.82876 6.786 0.541992 9.30703 0.541992 12.0048C0.545922 12.6833 0.746422 13.3462 1.11924 13.9132C2.22661 13.1004 4.84189 12.5231 7.88127 12.5231Z" fill="#0082C9"/>
</g>
</g>
<g id="&#234;&#183;&#184;&#235;&#163;&#185; 10746">
<mask id="mask2_495_23844" style="mask-type:luminance" maskUnits="userSpaceOnUse" x="0" y="0" width="70" height="16">
<path id="&#236;&#130;&#172;&#234;&#176;&#129;&#237;&#152;&#149; 6697" fill-rule="evenodd" clip-rule="evenodd" d="M0 0H70V15.6881H0V0Z" fill="white"/>
</mask>
<g mask="url(#mask2_495_23844)">
<path id="&#237;&#140;&#168;&#236;&#138;&#164; 19527" fill-rule="evenodd" clip-rule="evenodd" d="M7.84525 9.825C5.18285 9.825 2.70893 10.2727 0.670898 11.0384C1.93078 13.8703 4.73981 15.6951 7.83936 15.6951C10.9389 15.6951 13.7479 13.8703 15.0078 11.0384C12.9698 10.2727 10.4959 9.825 7.84525 9.825Z" fill="white"/>
<path id="&#237;&#140;&#168;&#236;&#138;&#164; 19528" fill-rule="evenodd" clip-rule="evenodd" d="M18.2012 10.1905H23.3964V14.6553H25.4226V10.1905H30.6061V8.92999H18.2012V10.1905Z" fill="white"/>
<path id="&#237;&#140;&#168;&#236;&#138;&#164; 19529" fill-rule="evenodd" clip-rule="evenodd" d="M21.2403 6.82074C21.6671 7.14484 22.1448 7.39566 22.654 7.56292C23.2169 7.74586 23.8056 7.83733 24.3975 7.83387C24.9856 7.83709 25.5703 7.7456 26.1292 7.56292C26.6422 7.39605 27.1239 7.14526 27.5547 6.82074C27.9461 6.51377 28.2742 6.13368 28.5207 5.70159C28.9994 4.85345 28.9994 3.81665 28.5207 2.9685C28.2745 2.53623 27.9464 2.1561 27.5547 1.84935C27.1263 1.52776 26.649 1.27717 26.141 1.10718C25.0085 0.734945 23.7865 0.734945 22.654 1.10718C22.1459 1.27679 21.6685 1.52742 21.2403 1.84936C20.8461 2.15337 20.5175 2.53407 20.2743 2.96851C20.0438 3.38294 19.9222 3.84906 19.9209 4.32327C19.9198 4.80526 20.0414 5.2796 20.2743 5.70159C20.5183 6.13547 20.8467 6.51603 21.2403 6.82074M21.9589 4.32326C21.9582 4.03006 22.0225 3.74034 22.1474 3.47506C22.2759 3.20689 22.4561 2.9667 22.6775 2.76823C22.9033 2.55583 23.1671 2.38797 23.4551 2.27345C23.7589 2.15388 24.0828 2.09389 24.4093 2.09674C24.7319 2.09451 25.0519 2.15451 25.3517 2.27345C25.6397 2.38797 25.9035 2.55584 26.1292 2.76823C26.3489 2.9683 26.5288 3.20813 26.6594 3.47506C26.7898 3.73885 26.8584 4.02896 26.8596 4.32326C26.8607 4.62537 26.7922 4.92366 26.6594 5.19502C26.5283 5.46166 26.3485 5.7014 26.1292 5.90185C25.9055 6.11685 25.6412 6.28506 25.3517 6.39663C24.7403 6.6262 24.0664 6.6262 23.455 6.39663C23.1657 6.28477 22.9014 6.11659 22.6775 5.90185C22.4563 5.70317 22.2762 5.46303 22.1474 5.19502C22.0202 4.92217 21.9558 4.62428 21.9589 4.32326" fill="white"/>
<path id="&#237;&#140;&#168;&#236;&#138;&#164; 19530" fill-rule="evenodd" clip-rule="evenodd" d="M41.6448 1.05976H40.0662L40.1604 1.17757C40.1988 1.22496 40.2233 1.28205 40.2311 1.3425C40.2871 1.64146 40.3109 1.94558 40.3018 2.2496V8.54041C40.3018 8.92917 40.0662 9.20012 39.595 9.34149C39.3561 9.40329 39.1112 9.43884 38.8646 9.44751H34.5529C34.3291 9.44751 34.2466 9.40039 34.2231 9.36505C34.1718 9.27593 34.1511 9.17251 34.1642 9.07054V6.56128H37.8868C38.1106 6.56128 38.2638 6.51416 38.3462 6.43169C38.4405 6.32045 38.4871 6.17652 38.4758 6.03115V1.99042C38.4838 1.84342 38.433 1.69929 38.3344 1.58988C38.2402 1.49564 38.0871 1.4603 37.8632 1.4603H32.0554V2.72082H36.426V5.30076H31.9141L32.0436 5.58349C32.1027 5.7741 32.1306 5.97301 32.1261 6.17252V9.78915C32.123 10.0091 32.2078 10.2211 32.3617 10.3782C32.5738 10.602 32.9154 10.708 33.3866 10.708H38.4641L39.2651 10.6727C39.7481 10.6256 40.0898 10.5313 40.29 10.4018V14.5014H42.3163V1.60169C42.3163 1.3543 42.1985 1.07157 41.633 1.048" fill="white"/>
<path id="&#237;&#140;&#168;&#236;&#138;&#164; 19531" fill-rule="evenodd" clip-rule="evenodd" d="M55.1329 1.57834C55.1329 1.34273 55.0151 1.06 54.4496 1.06H52.8828L53.0124 1.33095C53.0765 1.62487 53.1042 1.92558 53.0949 2.22627V14.5134H55.1329V6.60863H57.0414V5.34811H55.1329V1.57834Z" fill="white"/>
<path id="&#237;&#140;&#168;&#236;&#138;&#164; 19532" fill-rule="evenodd" clip-rule="evenodd" d="M50.9624 1.46078H44.7894V2.70952H49.2896L49.3838 2.74486C49.3838 2.74486 49.3956 2.76842 49.372 2.85088C49.3268 3.62279 49.1721 4.38435 48.9126 5.11275H44.8601V6.37327H48.3236C47.4675 7.8262 46.1049 9.01997 44.2357 9.95456L44.165 9.98989L44.7305 10.8617L44.7894 10.8381C49.2778 9.29484 51.5632 6.30259 51.5632 1.96735C51.5632 1.73174 51.4572 1.44901 50.9742 1.44901" fill="white"/>
<path id="&#237;&#140;&#168;&#236;&#138;&#164; 19533" fill-rule="evenodd" clip-rule="evenodd" d="M59.0089 2.15587C59.0827 2.35969 59.1187 2.57528 59.115 2.79202V7.42177C59.1156 7.6871 59.2215 7.94131 59.4095 8.1286C59.6569 8.38777 60.0338 8.51736 60.5286 8.51736H68.5394V7.26862H61.53C61.2708 7.26862 61.153 7.16259 61.153 6.92698V3.08652H68.4805V1.826H58.7969L58.8911 1.94381C58.9408 2.00385 58.9806 2.07146 59.0089 2.14408" fill="white"/>
<path id="&#236;&#130;&#172;&#234;&#176;&#129;&#237;&#152;&#149; 6696" fill-rule="evenodd" clip-rule="evenodd" d="M57.583 11.7805H69.9879V13.0434H57.583V11.7805Z" fill="white"/>
</g>
</g>
</g>
</g>
</svg>
