<svg width="74" height="14" viewBox="0 0 74 14" fill="none" xmlns="http://www.w3.org/2000/svg">
<g id="img_jbbank_logo_wh">
<g id="&#234;&#183;&#184;&#235;&#163;&#185; 10749">
<mask id="mask0_495_24176" style="mask-type:luminance" maskUnits="userSpaceOnUse" x="0" y="0" width="74" height="14">
<path id="&#236;&#130;&#172;&#234;&#176;&#129;&#237;&#152;&#149; 6699" fill-rule="evenodd" clip-rule="evenodd" d="M0 0H74V13.9491H0V0Z" fill="white"/>
</mask>
<g mask="url(#mask0_495_24176)">
<path id="&#237;&#140;&#168;&#236;&#138;&#164; 19536" fill-rule="evenodd" clip-rule="evenodd" d="M67.9324 11.1035C67.9324 10.2945 68.6996 9.63889 69.676 9.63889C70.6525 9.63889 71.4057 10.3084 71.4197 11.1035C71.4336 11.8986 70.6525 12.5682 69.676 12.5682C68.6996 12.5682 67.9463 11.9126 67.9324 11.1035ZM66.0353 11.1035C66.0353 12.6798 67.6674 13.9492 69.6761 13.9492C71.6847 13.9492 73.3028 12.6798 73.3168 11.1035C73.3307 9.5273 71.6847 8.25793 69.676 8.25793C67.6674 8.25793 66.0493 9.5273 66.0353 11.1035M63.3571 5.73314C63.3571 5.04963 64.0127 4.49167 64.8357 4.49167C65.6587 4.49167 66.3143 5.04963 66.3143 5.73314C66.3143 6.41665 65.6587 6.97461 64.8357 6.97461C64.0127 6.97461 63.3571 6.41665 63.3571 5.73314ZM61.725 5.73314C61.725 7.0862 63.1339 8.17423 64.8357 8.17423C66.5375 8.17423 67.9464 7.0862 67.9464 5.73314C67.9464 4.38008 66.5514 3.29205 64.8357 3.29205C63.12 3.29205 61.725 4.38008 61.725 5.73314ZM49.0593 9.05303V12.2334C49.0945 12.863 49.601 13.3635 50.231 13.3912H58.7539V12.1776H51.1795C51.1377 12.1776 51.1098 12.1497 51.0958 12.1079C51.0872 12.0808 51.0825 12.0526 51.0819 12.0242V9.05304L49.0593 9.05303ZM22.6118 2.32956H25.4713V1.10204H18.0365L18.4828 2.32956H20.91C20.9033 2.76818 20.8707 3.20601 20.8123 3.64078C20.5891 4.91015 19.7522 5.78894 18.9571 6.36086C18.4712 6.71227 17.9413 6.99835 17.3809 7.21175L17.883 8.23004H17.9249C20.4357 7.69997 21.5098 6.05398 21.7609 5.57971C22.012 6.04003 23.086 7.69997 25.5969 8.23004H25.6387L26.1409 7.21176C25.5805 6.99835 25.0506 6.71228 24.5647 6.36086C23.7696 5.78895 22.9326 4.8962 22.7094 3.64078C22.6509 3.20604 22.6183 2.76819 22.6118 2.32957M29.5305 9.33201V0.711459H27.5358V3.9616L26.8104 3.23625C26.6908 3.11745 26.4977 3.11745 26.378 3.23625L25.4016 4.21269C25.2828 4.33235 25.2828 4.52545 25.4016 4.64511L26.378 5.62155C26.4977 5.74035 26.6908 5.74035 26.8104 5.62155L27.5358 4.8962V9.33202L29.5305 9.33201ZM21.0495 13.3912H29.5445V12.1637H21.9841C21.9407 12.1614 21.9026 12.1342 21.8864 12.0939C21.8737 12.0722 21.8643 12.0487 21.8585 12.0242V9.03908H19.8498V12.2055C19.8851 12.8505 20.4041 13.3635 21.0495 13.3912ZM35.4728 3.69657H41.5128V4.85435H35.6681C35.6005 4.86316 35.5343 4.83005 35.5007 4.77066C35.4849 4.74035 35.4754 4.70712 35.4728 4.67302V3.69657ZM34.7196 6.09582H43.5075V0.711469H41.5128V2.46906H35.4728V0.711469H33.4642V4.78461C33.5185 5.46418 34.043 6.01195 34.7196 6.09583M39.6576 8.24398H45.3767V7.01646H31.9577L32.404 8.24398H37.6628V9.35991H33.3526L33.799 10.5874H41.5965V13.4051H43.6052V9.35991H39.6576L39.6576 8.24398ZM55.3922 3.33389C55.3922 4.10109 54.6529 4.7288 53.7322 4.7288C52.8116 4.7288 52.0723 4.10109 52.0723 3.33389C52.0723 2.56669 52.8116 1.93898 53.7322 1.93898C54.6529 1.93898 55.3922 2.56669 55.3922 3.33389ZM57.2055 3.33389C57.2055 1.82739 55.6432 0.613809 53.7322 0.613809C51.8212 0.613809 50.2589 1.82738 50.2589 3.33389C50.2589 4.84039 51.8212 6.05397 53.7322 6.05397C55.6432 6.05397 57.2055 4.8404 57.2055 3.33389ZM47.2877 8.24398H60.2604V7.01646H46.8414L47.2877 8.24398ZM61.474 2.85963H68.4346V1.63211H65.9516V0.292999H63.9569V1.63211H60.9997L61.4461 2.85963H61.474ZM74.0003 0.669619H71.9916V3.69658H71.0291V0.669619H69.0204V7.71392H71.0291V4.93805H71.9916V8.35558H74.0003V0.669619Z" fill="white"/>
<path id="&#237;&#140;&#168;&#236;&#138;&#164; 19537" fill-rule="evenodd" clip-rule="evenodd" d="M0 0V13.9491H13.9491V13.9352L9.48539 9.4854L5.17512 13.7259L2.70613 11.2569L9.48539 4.46373L13.9491 8.71821V2e-05L0 0Z" fill="white"/>
</g>
</g>
</g>
</svg>
