<svg width="41" height="40" viewBox="0 0 41 40" fill="none" xmlns="http://www.w3.org/2000/svg">
<rect x="0.5" width="40" height="40" rx="20" fill="#FAE100"/>
<g clip-path="url(#clip0_614_960)">
<path d="M20.501 10.815C14.9766 10.815 10.5 14.3534 10.5 18.7206C10.5 21.5618 12.3968 24.0544 15.2441 25.4467C15.0354 26.2269 14.4862 28.2757 14.3768 28.7135C14.241 29.2566 14.5754 29.2505 14.7943 29.1046C14.9665 28.9891 17.5341 27.2422 18.6427 26.4903C19.2446 26.5795 19.8647 26.6261 20.499 26.6261C26.0213 26.6261 30.5 23.0878 30.5 18.7206C30.5 14.3534 26.0234 10.815 20.501 10.815Z" fill="#371D1E"/>
<path d="M13.5236 17.2655H14.5531C14.5531 17.2655 14.5592 20.0925 14.5531 20.7512C14.5531 21.2315 15.6231 21.2375 15.6231 20.7572L15.6272 17.302C15.6272 17.302 15.9717 17.304 16.6506 17.304C17.291 17.304 17.291 16.2968 16.6506 16.2968C15.9291 16.2968 13.5196 16.2766 13.5196 16.2766C12.9156 16.2766 12.9177 17.2635 13.5196 17.2635" fill="#FAE100"/>
<mask id="mask0_614_960" style="mask-type:luminance" maskUnits="userSpaceOnUse" x="13" y="16" width="5" height="6">
<path d="M13.5236 17.2655H14.5531C14.5531 17.2655 14.5592 20.0925 14.5531 20.7512C14.5531 21.2315 15.6231 21.2375 15.6231 20.7572L15.6272 17.302C15.6272 17.302 15.9717 17.304 16.6506 17.304C17.291 17.304 17.291 16.2968 16.6506 16.2968C15.9291 16.2968 13.5196 16.2766 13.5196 16.2766C12.9156 16.2766 12.9177 17.2635 13.5196 17.2635" fill="white"/>
</mask>
<g mask="url(#mask0_614_960)">
<path d="M17.293 16.2786H12.9177V21.2396H17.293V16.2786Z" fill="#FAE100"/>
</g>
<path d="M18.4501 17.4479L19.0237 19.2434H17.83L18.4501 17.4479ZM17.8077 16.6069C17.5544 17.1642 16.6404 19.7987 16.3365 20.4978C16.1176 21.0024 17.064 21.4138 17.2829 20.9092L17.4896 20.1898H19.3722C19.3722 20.1898 19.3074 20.2202 19.5566 20.8788C19.7593 21.4138 20.7381 21.043 20.5334 20.508C20.2436 19.744 19.2446 16.996 19.0622 16.6069C18.9791 16.4265 18.6771 16.2988 18.3853 16.2988C18.1441 16.2988 17.907 16.388 17.8077 16.6069Z" fill="#FAE100"/>
<mask id="mask1_614_960" style="mask-type:luminance" maskUnits="userSpaceOnUse" x="16" y="16" width="5" height="6">
<path d="M18.4501 17.4479L19.0237 19.2434H17.83L18.4501 17.4479ZM17.8077 16.6069C17.5544 17.1642 16.6404 19.7987 16.3365 20.4978C16.1176 21.0024 17.064 21.4138 17.2829 20.9092L17.4896 20.1898H19.3722C19.3722 20.1898 19.3074 20.2202 19.5566 20.8788C19.7593 21.4138 20.7381 21.043 20.5334 20.508C20.2436 19.744 19.2446 16.996 19.0622 16.6069C18.9791 16.4265 18.6771 16.2988 18.3853 16.2988C18.1441 16.2988 17.907 16.388 17.8077 16.6069Z" fill="white"/>
</mask>
<g mask="url(#mask1_614_960)">
<path d="M20.7401 16.2988H16.1176V21.4159H20.7401V16.2988Z" fill="#FAE100"/>
</g>
<path d="M20.8962 16.773C20.8962 17.6688 20.9023 20.5546 20.9023 20.5546C20.9023 20.5546 20.8192 21.1281 21.3116 21.1281C21.8041 21.1281 22.8944 21.122 23.3787 21.122C23.8631 21.122 23.859 20.0925 23.3767 20.0925C22.8944 20.0925 22.0108 20.0864 22.0108 20.0864C22.0108 20.0864 22.0148 17.4175 22.0128 16.769C22.0128 16.4549 21.7332 16.2988 21.4555 16.2988C21.1779 16.2988 20.8982 16.4569 20.8982 16.771" fill="#FAE100"/>
<mask id="mask2_614_960" style="mask-type:luminance" maskUnits="userSpaceOnUse" x="20" y="16" width="4" height="6">
<path d="M20.8962 16.773C20.8962 17.6688 20.9023 20.5546 20.9023 20.5546C20.9023 20.5546 20.8192 21.1281 21.3116 21.1281C21.8041 21.1281 22.8944 21.122 23.3787 21.122C23.8631 21.122 23.859 20.0925 23.3767 20.0925C22.8944 20.0925 22.0108 20.0864 22.0108 20.0864C22.0108 20.0864 22.0148 17.4175 22.0128 16.769C22.0128 16.4549 21.7332 16.2988 21.4555 16.2988C21.1779 16.2988 20.8982 16.4569 20.8982 16.771" fill="white"/>
</mask>
<g mask="url(#mask2_614_960)">
<path d="M23.861 16.2988H20.8192V21.1261H23.861V16.2988Z" fill="#FAE100"/>
</g>
<path d="M23.9907 16.6291C24.0009 17.0223 23.9786 20.5708 23.9786 20.8342C23.9786 21.2497 25.0364 21.2476 25.0344 20.8342C25.0344 20.3519 25.0344 19.4379 25.0344 19.4379L25.3445 19.1887L26.7022 21.0409C26.9758 21.4037 27.8391 20.7491 27.5656 20.3864L26.1247 18.4875C26.1247 18.4875 27.1035 17.4296 27.4885 17.0466C27.7135 16.8237 27.0164 16.1205 26.7914 16.3454C26.5725 16.5623 25.0405 18.0964 25.0405 18.0964C25.0405 18.0964 25.0547 17.1338 25.0405 16.6008C25.0344 16.3981 24.7872 16.3008 24.5338 16.3008C24.2623 16.3008 23.9846 16.4123 23.9907 16.6291Z" fill="#FAE100"/>
<mask id="mask3_614_960" style="mask-type:luminance" maskUnits="userSpaceOnUse" x="23" y="16" width="5" height="6">
<path d="M23.9907 16.6291C24.0009 17.0223 23.9786 20.5708 23.9786 20.8342C23.9786 21.2497 25.0364 21.2476 25.0344 20.8342C25.0344 20.3519 25.0344 19.4379 25.0344 19.4379L25.3445 19.1887L26.7022 21.0409C26.9758 21.4037 27.8391 20.7491 27.5656 20.3864L26.1247 18.4875C26.1247 18.4875 27.1035 17.4296 27.4885 17.0466C27.7135 16.8237 27.0164 16.1205 26.7914 16.3454C26.5725 16.5623 25.0405 18.0964 25.0405 18.0964C25.0405 18.0964 25.0547 17.1338 25.0405 16.6008C25.0344 16.3981 24.7872 16.3008 24.5338 16.3008C24.2623 16.3008 23.9846 16.4123 23.9907 16.6291Z" fill="white"/>
</mask>
<g mask="url(#mask3_614_960)">
<path d="M27.8412 16.1225H23.9786V21.4017H27.8412V16.1225Z" fill="#FAE100"/>
</g>
</g>
<defs>
<clipPath id="clip0_614_960">
<rect width="20" height="18.3747" fill="white" transform="translate(10.5 10.815)"/>
</clipPath>
</defs>
</svg>
