<svg width="48" height="48" viewBox="0 0 48 48" fill="none" xmlns="http://www.w3.org/2000/svg">
<rect width="48" height="48" rx="10" fill="#E6460A"/>
<path opacity="0.5" d="M19.9167 18.1667C25.3935 18.1667 29.8333 16.3385 29.8333 14.0833C29.8333 11.8282 25.3935 10 19.9167 10C14.4398 10 10 11.8282 10 14.0833C10 16.3385 14.4398 18.1667 19.9167 18.1667Z" fill="white"/>
<g filter="url(#filter0_d_614_759)">
<path d="M38.0002 28.6666C38.0002 33.8254 33.8256 38 28.6668 38C23.508 38 19.3335 33.8254 19.3335 28.6666C19.3335 23.5079 23.508 19.3333 28.6668 19.3333C33.8256 19.3333 38.0002 23.5079 38.0002 28.6666ZM28.6753 30.5079H28.6499L27.0462 25.4339C26.9359 25.0776 26.7662 24.84 26.5456 24.7042C26.325 24.5685 26.028 24.5091 25.6802 24.5091C25.2644 24.5091 24.9505 24.6109 24.7383 24.806C24.5262 25.0097 24.4159 25.3151 24.4159 25.7309V31.9418C24.4159 32.1963 24.4923 32.4085 24.6365 32.5782C24.7808 32.7479 24.9844 32.8242 25.2474 32.8242C25.5105 32.8242 25.7056 32.7394 25.8583 32.5782C26.0026 32.417 26.079 32.1963 26.079 31.9418V27.2327H26.1044L27.7929 32.1709C27.8523 32.366 27.9541 32.5103 28.1153 32.6121C28.2765 32.7139 28.4547 32.7648 28.6668 32.7648C28.879 32.7648 29.0656 32.7139 29.2183 32.6121C29.3711 32.5103 29.4814 32.366 29.5408 32.1709L31.2293 27.2327H31.2547V31.9418C31.2547 32.1963 31.3311 32.4085 31.4753 32.5782C31.6196 32.7479 31.8232 32.8242 32.0862 32.8242C32.3493 32.8242 32.5444 32.7394 32.6971 32.5782C32.8414 32.417 32.9177 32.1963 32.9177 31.9418V25.7309C32.9177 25.3151 32.8074 25.0012 32.5953 24.806C32.3832 24.6109 32.0693 24.5091 31.6535 24.5091C31.2971 24.5091 31.0086 24.5769 30.788 24.7042C30.5674 24.84 30.3977 25.0776 30.2874 25.4339L28.6838 30.5079H28.6753Z" fill="white"/>
</g>
<path opacity="0.5" d="M22.7011 19.5589C20.8578 20.7644 19.4111 22.5144 18.5711 24.5756C13.7333 24.3033 10 22.6 10 20.5311V15.8644H10.0156C10.2956 18.0111 14.6278 19.7222 19.9167 19.7222C20.8811 19.7222 21.8144 19.6678 22.7011 19.5589Z" fill="white"/>
<path opacity="0.5" d="M17.7778 28.6667C17.7778 29.3744 17.8478 30.0589 17.9722 30.7278C13.43 30.2067 10 27.9589 10 25.9756V22.0867H10.0156C10.2644 23.9844 13.6867 25.5478 18.1433 25.8744C17.9022 26.7611 17.7778 27.7022 17.7778 28.6667Z" fill="white"/>
<g clip-path="url(#clip0_614_759)">
<path d="M32.3667 13.9267C33.8733 14.68 34.9333 16.0667 35.26 17.72L35.34 18.1267C35.4 18.44 35.6733 18.66 35.9933 18.66C36.3133 18.66 36.5867 18.4333 36.6467 18.1267L36.7267 17.72C37.06 16.0667 38.1133 14.68 39.62 13.9267C39.8467 13.8133 39.9867 13.58 39.9867 13.3333C39.9867 13.0867 39.8467 12.8533 39.62 12.74C38.1133 11.9867 37.0533 10.6 36.7267 8.94665L36.6467 8.53999C36.5867 8.22665 36.3133 8.00665 35.9933 8.00665C35.6733 8.00665 35.4 8.23332 35.34 8.53999L35.26 8.94665C34.9267 10.6 33.8733 11.9867 32.3667 12.74C32.14 12.8533 32 13.0867 32 13.3333C32 13.58 32.14 13.8133 32.3667 13.9267Z" fill="#F3A284"/>
</g>
<g clip-path="url(#clip1_614_759)">
<path d="M6.36667 36.9267C7.87333 37.68 8.93333 39.0667 9.26 40.72L9.34 41.1267C9.4 41.44 9.67333 41.66 9.99333 41.66C10.3133 41.66 10.5867 41.4333 10.6467 41.1267L10.7267 40.72C11.06 39.0667 12.1133 37.68 13.62 36.9267C13.8467 36.8133 13.9867 36.58 13.9867 36.3333C13.9867 36.0867 13.8467 35.8533 13.62 35.74C12.1133 34.9867 11.0533 33.6 10.7267 31.9467L10.6467 31.54C10.5867 31.2267 10.3133 31.0067 9.99333 31.0067C9.67333 31.0067 9.4 31.2333 9.34 31.54L9.26 31.9467C8.92667 33.6 7.87333 34.9867 6.36667 35.74C6.14 35.8533 6 36.0867 6 36.3333C6 36.58 6.14 36.8133 6.36667 36.9267Z" fill="#F3A284"/>
</g>
<defs>
<filter id="filter0_d_614_759" x="17.6365" y="19.3333" width="22.0606" height="22.0606" filterUnits="userSpaceOnUse" color-interpolation-filters="sRGB">
<feFlood flood-opacity="0" result="BackgroundImageFix"/>
<feColorMatrix in="SourceAlpha" type="matrix" values="0 0 0 0 0 0 0 0 0 0 0 0 0 0 0 0 0 0 127 0" result="hardAlpha"/>
<feOffset dy="1.69697"/>
<feGaussianBlur stdDeviation="0.848485"/>
<feComposite in2="hardAlpha" operator="out"/>
<feColorMatrix type="matrix" values="0 0 0 0 0 0 0 0 0 0 0 0 0 0 0 0 0 0 0.1 0"/>
<feBlend mode="normal" in2="BackgroundImageFix" result="effect1_dropShadow_614_759"/>
<feBlend mode="normal" in="SourceGraphic" in2="effect1_dropShadow_614_759" result="shape"/>
</filter>
<clipPath id="clip0_614_759">
<rect width="8" height="10.6667" fill="white" transform="translate(32 8)"/>
</clipPath>
<clipPath id="clip1_614_759">
<rect width="8" height="10.6667" fill="white" transform="translate(6 31)"/>
</clipPath>
</defs>
</svg>
