<svg width="48" height="48" viewBox="0 0 48 48" fill="none" xmlns="http://www.w3.org/2000/svg">
<rect width="48" height="48" rx="10" fill="#E6460A"/>
<g filter="url(#filter0_d_614_781)">
<path fill-rule="evenodd" clip-rule="evenodd" d="M37.5969 23.8737C38.2375 23.9009 38.8066 24.2934 38.9741 24.9186L39.9517 28.567C40.1542 29.3228 39.7015 30.1068 38.9457 30.3093L14.211 36.937C13.4552 37.1395 12.6711 36.6868 12.4686 35.9311L11.491 32.2827C11.3253 31.6643 11.6133 31.0349 12.1613 30.6892C13.447 29.8808 14.1072 28.3047 13.6929 26.7588C13.2787 25.2128 11.9139 24.1867 10.4013 24.1207C9.7607 24.0935 9.1916 23.7011 9.02407 23.0759L8.04833 19.4344C7.84582 18.6786 8.2985 17.8945 9.05428 17.692L33.789 11.0643C34.5448 10.8618 35.3289 11.3145 35.5314 12.0703L36.509 15.7187C36.6747 16.337 36.3867 16.9665 35.8387 17.3122C34.553 18.1206 33.8928 19.6967 34.3071 21.2426C34.7213 22.7885 36.0861 23.8146 37.5987 23.8806L37.5969 23.8737ZM18.5759 24.3973C18.2667 24.4802 18.0359 24.6083 17.8854 24.7885C17.7348 24.9688 17.7063 25.2195 17.7946 25.5493C17.883 25.879 18.0331 26.0818 18.2536 26.1627C18.4741 26.2435 18.738 26.2391 19.0472 26.1562L19.59 26.0108L20.9996 28.8806C21.1783 29.2451 21.4187 29.4827 21.7015 29.5763C21.9861 29.6767 22.3037 29.68 22.6472 29.588C23.3618 29.3965 23.7126 28.9195 23.6929 28.159L23.5544 24.9485L24.8598 24.5987L26.3588 27.4446C26.722 28.1132 27.2644 28.3508 27.9789 28.1593C28.3225 28.0673 28.5958 27.9057 28.7921 27.6763C28.9884 27.447 29.0728 27.1298 29.0521 26.723L28.8243 23.5365L29.3808 23.3873C29.69 23.3045 29.9208 23.1764 30.0713 22.9961C30.2218 22.8159 30.2504 22.5652 30.162 22.2354C30.0737 21.9056 29.9236 21.7028 29.7031 21.622C29.4826 21.5411 29.2187 21.5456 28.9095 21.6284L28.7034 21.6837L28.5015 18.8142C28.4819 18.466 28.362 18.2109 28.1487 18.0472C27.9355 17.8834 27.6843 17.8255 27.4021 17.8716C26.8066 17.9576 26.5316 18.3332 26.5792 19.0053L26.9101 22.1642L25.6047 22.514L24.1727 19.7532C24.0285 19.4899 23.8285 19.2931 23.5763 19.1766C23.3242 19.06 23.0323 19.0425 22.7025 19.1309C22.3727 19.2193 22.1287 19.3804 21.9686 19.6074C21.8085 19.8344 21.7318 20.0979 21.7404 20.4049L21.8807 23.5118L20.5615 23.8653L19.2824 20.9604C18.9875 20.3546 18.5685 20.165 18.0029 20.3902C17.7354 20.4913 17.5469 20.667 17.4441 20.9155C17.3413 21.1639 17.365 21.4448 17.5221 21.7562L18.782 24.3421L18.5759 24.3973ZM22.0161 27.1502L21.3077 25.5505L21.9535 25.3775L22.0367 27.1447L22.0092 27.152L22.0161 27.1502ZM23.4303 21.9846L23.4853 21.9699L23.9969 22.9448L23.4816 23.0828L23.4372 21.9828L23.4303 21.9846ZM27.2654 25.7436L26.4539 24.1716L27.0997 23.9986L27.286 25.7381L27.2585 25.7455L27.2654 25.7436Z" fill="white"/>
</g>
<defs>
<filter id="filter0_d_614_781" x="6" y="11.016" width="36" height="29.9693" filterUnits="userSpaceOnUse" color-interpolation-filters="sRGB">
<feFlood flood-opacity="0" result="BackgroundImageFix"/>
<feColorMatrix in="SourceAlpha" type="matrix" values="0 0 0 0 0 0 0 0 0 0 0 0 0 0 0 0 0 0 127 0" result="hardAlpha"/>
<feOffset dy="2"/>
<feGaussianBlur stdDeviation="1"/>
<feComposite in2="hardAlpha" operator="out"/>
<feColorMatrix type="matrix" values="0 0 0 0 0 0 0 0 0 0 0 0 0 0 0 0 0 0 0.1 0"/>
<feBlend mode="normal" in2="BackgroundImageFix" result="effect1_dropShadow_614_781"/>
<feBlend mode="normal" in="SourceGraphic" in2="effect1_dropShadow_614_781" result="shape"/>
</filter>
</defs>
</svg>
