<svg width="100" height="71" viewBox="0 0 100 71" fill="none" xmlns="http://www.w3.org/2000/svg">
<g clip-path="url(#clip0_614_811)">
<path d="M61.3453 65.1396H94.7796C97.3118 65.1396 99.3646 63.0868 99.3646 60.5546V8.88715C99.3646 6.35492 97.3118 4.30215 94.7796 4.30215L61.3453 4.30215C58.813 4.30215 56.7603 6.35492 56.7603 8.88715L56.7603 60.5546C56.7603 63.0868 58.813 65.1396 61.3453 65.1396Z" fill="#FF7A00"/>
<path d="M90.4475 56.1834V59.738C90.4475 60.1062 90.7444 60.4032 91.1097 60.4032C91.4749 60.4032 91.7719 60.1062 91.7719 59.738V56.1537C91.7719 54.9778 91.1483 54.3512 89.9664 54.3512H88.8974C88.5321 54.3512 88.2351 54.6482 88.2351 55.0164C88.2351 55.3846 88.5321 55.6816 88.8974 55.6816H89.9337C90.1802 55.6816 90.4445 55.8449 90.4445 56.1834" fill="white"/>
<path d="M93.325 54.3512H92.2589C91.9025 54.3512 91.5967 54.4106 91.3443 54.5205C91.7006 54.8026 91.9204 55.2213 91.9887 55.7707C92.0748 55.7113 92.1817 55.6816 92.2856 55.6816H93.322C93.6902 55.6816 93.9872 55.3787 93.9872 55.0164C93.9872 54.6541 93.6902 54.3512 93.322 54.3512" fill="white"/>
<path d="M95.2641 60.2309C95.2641 60.8516 94.7563 61.3594 94.1416 61.3594H88.0896C87.466 61.3594 86.9612 60.8516 86.9612 60.2309V54.1849C86.9612 53.5583 87.469 53.0535 88.0896 53.0535H94.1416C94.7563 53.0535 95.2641 53.5613 95.2641 54.1849V60.2309ZM94.1446 52.8813H88.0926C87.374 52.8813 86.7919 53.4633 86.7919 54.1819V60.228C86.7919 60.9436 87.374 61.5286 88.0926 61.5286H94.1446C94.8602 61.5286 95.4363 60.9436 95.4363 60.228V54.1819C95.4363 53.4633 94.8573 52.8813 94.1446 52.8813Z" fill="white"/>
<path d="M61.3453 65.1396H94.7796C97.3118 65.1396 99.3646 63.0868 99.3646 60.5546V8.88715C99.3646 6.35492 97.3118 4.30215 94.7796 4.30215L61.3453 4.30215C58.813 4.30215 56.7603 6.35492 56.7603 8.88715L56.7603 60.5546C56.7603 63.0868 58.813 65.1396 61.3453 65.1396Z" stroke="black" stroke-width="1.27097" stroke-miterlimit="10"/>
<path d="M68.2857 54.6641L68.1937 54.6879C65.3451 55.4241 63.6326 58.3302 64.3688 61.1788L65.3741 65.0688C66.1103 67.9175 69.0163 69.63 71.865 68.8938L71.957 68.87C74.8056 68.1338 76.5181 65.2278 75.782 62.3791L74.7766 58.4891C74.0405 55.6404 71.1344 53.9279 68.2857 54.6641Z" fill="white" stroke="black" stroke-width="1.27097" stroke-linecap="round" stroke-linejoin="round"/>
<path d="M84.1582 68.8656L84.2502 68.8893C87.0988 69.6255 90.0049 67.913 90.7411 65.0644L91.7464 61.1744C92.4826 58.3257 90.7701 55.4196 87.9214 54.6835L87.8294 54.6597C84.9808 53.9235 82.0747 55.636 81.3385 58.4846L80.3332 62.3747C79.5971 65.2233 81.3095 68.1294 84.1582 68.8656Z" fill="white" stroke="black" stroke-width="1.27097" stroke-linecap="round" stroke-linejoin="round"/>
<path d="M74.3253 32.026C75.3077 32.026 76.1041 31.1698 76.1041 30.1136C76.1041 29.0574 75.3077 28.2012 74.3253 28.2012C73.3429 28.2012 72.5465 29.0574 72.5465 30.1136C72.5465 31.1698 73.3429 32.026 74.3253 32.026Z" fill="black"/>
<path d="M81.7996 31.9933C82.782 31.9933 83.5784 31.1371 83.5784 30.0809C83.5784 29.0247 82.782 28.1685 81.7996 28.1685C80.8172 28.1685 80.0208 29.0247 80.0208 30.0809C80.0208 31.1371 80.8172 31.9933 81.7996 31.9933Z" fill="black"/>
<path d="M78.0613 40.9912C76.4904 40.9912 75.2135 39.9578 75.2135 38.6809V35.251L78.0613 35.3609L80.9091 35.251V38.6809C80.9091 39.9578 79.6352 40.9912 78.0613 40.9912Z" fill="#D50000"/>
<path d="M78.0612 35.3044V38.1196" stroke="black" stroke-width="1.27097" stroke-linecap="round" stroke-linejoin="round"/>
<path d="M72.1309 34.173C72.1309 34.173 76.5852 35.9607 83.9943 34.173" stroke="black" stroke-width="1.27097" stroke-linecap="round" stroke-linejoin="round"/>
</g>
<g clip-path="url(#clip1_614_811)">
<path d="M61.2887 60.8723V27.542C61.2887 25.0163 59.2412 22.9688 56.7156 22.9688L5.20554 22.9688C2.67987 22.9688 0.632416 25.0163 0.632416 27.542V60.8723C0.632416 63.398 2.67987 65.4455 5.20554 65.4455H56.7156C59.2412 65.4455 61.2887 63.398 61.2887 60.8723Z" fill="#9F0084" stroke="black" stroke-width="1.27097" stroke-linecap="round" stroke-linejoin="round"/>
<path d="M52.1101 56.519V60.0646C52.1101 60.4299 52.407 60.7268 52.7723 60.7268C53.1375 60.7268 53.4345 60.4299 53.4345 60.0646V56.4922C53.4345 55.3193 52.8139 54.6956 51.6349 54.6956H50.5689C50.2066 54.6956 49.9096 54.9926 49.9096 55.3579C49.9096 55.7231 50.2066 56.0201 50.5689 56.0201H51.6023C51.8487 56.0201 52.113 56.1834 52.113 56.519" fill="white"/>
<path d="M54.9789 54.6927H53.9158C53.5595 54.6927 53.2566 54.7521 53.0042 54.862C53.3605 55.1441 53.5773 55.5598 53.6486 56.1092C53.7347 56.0498 53.8416 56.0201 53.9455 56.0201H54.9789C55.3472 56.0201 55.6411 55.7172 55.6411 55.3579C55.6411 54.9986 55.3472 54.6957 54.9789 54.6957" fill="white"/>
<path d="M56.9118 60.5516C56.9118 61.1693 56.407 61.6741 55.7923 61.6741H49.7582C49.1375 61.6741 48.6327 61.1693 48.6327 60.5516V54.5234C48.6327 53.8998 49.1375 53.395 49.7582 53.395H55.7923C56.407 53.395 56.9118 53.8998 56.9118 54.5234V60.5516ZM55.7953 53.2257H49.7611C49.0425 53.2257 48.4634 53.8048 48.4634 54.5234V60.5516C48.4634 61.2643 49.0425 61.8493 49.7611 61.8493H55.7953C56.508 61.8493 57.0841 61.2643 57.0841 60.5516V54.5234C57.0841 53.8048 56.508 53.2257 55.7953 53.2257Z" fill="white"/>
<path d="M23.5448 53.5607L23.4441 53.5685C20.2768 53.8133 17.9076 56.5794 18.1525 59.7467L18.4866 64.0694C18.7314 67.2367 21.4975 69.6058 24.6648 69.361L24.7655 69.3532C27.9328 69.1084 30.302 66.3423 30.0571 63.175L29.723 58.8523C29.4782 55.685 26.7121 53.3159 23.5448 53.5607Z" fill="white" stroke="black" stroke-width="1.27097" stroke-linecap="round" stroke-linejoin="round"/>
<path d="M37.1546 69.3546L37.2553 69.3624C40.4226 69.6072 43.1887 67.2381 43.4335 64.0708L43.7677 59.7481C44.0125 56.5808 41.6433 53.8147 38.476 53.5699L38.3754 53.5621C35.208 53.3173 32.442 55.6864 32.1971 58.8537L31.863 63.1764C31.6182 66.3437 33.9873 69.1098 37.1546 69.3546Z" fill="white" stroke="black" stroke-width="1.27097" stroke-linecap="round" stroke-linejoin="round"/>
<path d="M31.8395 35.0787H29.7074C29.3728 35.0787 29.1016 35.3499 29.1016 35.6845V36.8486C29.1016 37.1831 29.3728 37.4544 29.7074 37.4544H31.8395C32.1741 37.4544 32.4453 37.1831 32.4453 36.8486V35.6845C32.4453 35.3499 32.1741 35.0787 31.8395 35.0787Z" fill="white"/>
<path d="M29.1583 30.3868C29.1583 31.441 28.3654 32.2932 27.3855 32.2932C26.4055 32.2932 25.6126 31.441 25.6126 30.3868C25.6126 29.3326 26.4055 28.4803 27.3855 28.4803C28.3654 28.4803 29.1583 29.3326 29.1583 30.3868Z" fill="black"/>
<path d="M36.6089 30.3541C36.6089 31.4083 35.8161 32.2606 34.8361 32.2606C33.8561 32.2606 33.0633 31.4083 33.0633 30.3541C33.0633 29.2999 33.8561 28.4477 34.8361 28.4477C35.8161 28.4477 36.6089 29.2999 36.6089 30.3541Z" fill="black"/>
<path d="M25.0958 34.1017C25.0958 34.1017 28.5731 36.0884 36.8285 34.3927" stroke="black" stroke-width="1.27097" stroke-linecap="round" stroke-linejoin="round"/>
</g>
<defs>
<clipPath id="clip0_614_811">
<rect width="43.8753" height="66.0282" fill="white" transform="translate(56.1247 3.66666)"/>
</clipPath>
<clipPath id="clip1_614_811">
<rect width="61.9243" height="47.6793" fill="white" transform="translate(0 22.3333)"/>
</clipPath>
</defs>
</svg>
