<svg width="48" height="48" viewBox="0 0 48 48" fill="none" xmlns="http://www.w3.org/2000/svg">
<rect width="48" height="48" rx="10" fill="#E6460A"/>
<g filter="url(#filter0_d_614_795)">
<path d="M42.9999 32C42.9999 38.08 38.0799 43 31.9999 43C25.9199 43 20.9999 38.08 20.9999 32C20.9999 25.92 25.9199 21 31.9999 21C38.0799 21 42.9999 25.92 42.9999 32ZM32.0099 34.17H31.9799L30.0899 28.19C29.9599 27.77 29.7599 27.49 29.4999 27.33C29.2399 27.17 28.8899 27.1 28.4799 27.1C27.9899 27.1 27.6199 27.22 27.3699 27.45C27.1199 27.69 26.9899 28.05 26.9899 28.54V35.86C26.9899 36.16 27.0799 36.41 27.2499 36.61C27.4199 36.81 27.6599 36.9 27.9699 36.9C28.2799 36.9 28.5099 36.8 28.6899 36.61C28.8599 36.42 28.9499 36.16 28.9499 35.86V30.31H28.9799L30.9699 36.13C31.0399 36.36 31.1599 36.53 31.3499 36.65C31.5399 36.77 31.7499 36.83 31.9999 36.83C32.2499 36.83 32.4699 36.77 32.6499 36.65C32.8299 36.53 32.9599 36.36 33.0299 36.13L35.0199 30.31H35.0499V35.86C35.0499 36.16 35.1399 36.41 35.3099 36.61C35.4799 36.81 35.7199 36.9 36.0299 36.9C36.3399 36.9 36.5699 36.8 36.7499 36.61C36.9199 36.42 37.0099 36.16 37.0099 35.86V28.54C37.0099 28.05 36.8799 27.68 36.6299 27.45C36.3799 27.22 36.0099 27.1 35.5199 27.1C35.0999 27.1 34.7599 27.18 34.4999 27.33C34.2399 27.49 34.0399 27.77 33.9099 28.19L32.0199 34.17H32.0099Z" fill="white"/>
</g>
<g filter="url(#filter1_d_614_795)">
<path fill-rule="evenodd" clip-rule="evenodd" d="M18.6733 9.65256C18.949 9.50609 19.285 9.54055 19.5004 9.75595L20.7928 11.0484C21.0599 11.3155 21.0599 11.7549 20.7928 12.022L12.0217 20.7931C11.7546 21.0602 11.3152 21.0602 11.0481 20.7931L9.75567 19.5007C9.53165 19.2767 9.5058 18.9493 9.65228 18.6736C9.99692 18.0274 9.89353 17.2002 9.3421 16.6574C8.79067 16.1146 7.97215 16.0112 7.32594 16.3472C7.05023 16.4937 6.7142 16.4592 6.4988 16.2438L5.2064 14.9514C4.9393 14.6843 4.9393 14.2449 5.2064 13.9778L13.9775 5.19806C14.2446 4.93097 14.684 4.93097 14.9511 5.19806L16.2436 6.49047C16.4676 6.71449 16.4934 7.0419 16.3469 7.31761C16.0023 7.96382 16.1057 8.79096 16.6571 9.33377C17.2086 9.87658 18.0271 9.97997 18.6733 9.64395V9.65256Z" fill="white"/>
</g>
<g opacity="0.5">
<path fill-rule="evenodd" clip-rule="evenodd" d="M8.66088 25.2839C8.10966 25.3183 7.69066 25.7929 7.72501 26.3442C8.13037 32.8494 13.1665 36.4127 16.1997 37.5166C16.7186 37.7055 17.2925 37.438 17.4814 36.919C17.6703 36.4 17.4027 35.8262 16.8837 35.6373C14.2791 34.6893 10.0589 31.6402 9.72114 26.2198C9.68679 25.6686 9.2121 25.2496 8.66088 25.2839Z" fill="white"/>
<path fill-rule="evenodd" clip-rule="evenodd" d="M16.4406 36.3594L15.746 32.4202C15.6501 31.8763 16.0133 31.3576 16.5572 31.2617C17.1011 31.1658 17.6197 31.529 17.7156 32.0729L18.5839 36.9969C18.6798 37.5408 18.3166 38.0595 17.7727 38.1554L12.8487 39.0236C12.3048 39.1195 11.7861 38.7563 11.6902 38.2124C11.5943 37.6685 11.9575 37.1499 12.5014 37.054L16.4406 36.3594Z" fill="white"/>
</g>
<g opacity="0.5">
<path fill-rule="evenodd" clip-rule="evenodd" d="M38.4647 17.9786C38.9709 17.7578 39.2023 17.1684 38.9815 16.6622C36.3756 10.6879 30.4245 9.06199 27.1967 9.06199C26.6444 9.06199 26.1967 9.5097 26.1967 10.062C26.1967 10.6143 26.6444 11.062 27.1967 11.062C29.9685 11.062 34.977 12.4838 37.1483 17.4618C37.3691 17.968 37.9585 18.1994 38.4647 17.9786Z" fill="white"/>
<path fill-rule="evenodd" clip-rule="evenodd" d="M27.3661 10.2319L29.3661 13.696C29.6422 14.1743 29.4784 14.7859 29.0001 15.062C28.5218 15.3381 27.9102 15.1743 27.634 14.696L25.134 10.3658C24.8579 9.88755 25.0218 9.27596 25.5001 8.99982L29.8302 6.49982C30.3085 6.22368 30.9201 6.38755 31.1962 6.86584C31.4724 7.34414 31.3085 7.95573 30.8302 8.23187L27.3661 10.2319Z" fill="white"/>
</g>
<defs>
<filter id="filter0_d_614_795" x="18.9999" y="21" width="26" height="26" filterUnits="userSpaceOnUse" color-interpolation-filters="sRGB">
<feFlood flood-opacity="0" result="BackgroundImageFix"/>
<feColorMatrix in="SourceAlpha" type="matrix" values="0 0 0 0 0 0 0 0 0 0 0 0 0 0 0 0 0 0 127 0" result="hardAlpha"/>
<feOffset dy="2"/>
<feGaussianBlur stdDeviation="1"/>
<feComposite in2="hardAlpha" operator="out"/>
<feColorMatrix type="matrix" values="0 0 0 0 0 0 0 0 0 0 0 0 0 0 0 0 0 0 0.1 0"/>
<feBlend mode="normal" in2="BackgroundImageFix" result="effect1_dropShadow_614_795"/>
<feBlend mode="normal" in="SourceGraphic" in2="effect1_dropShadow_614_795" result="shape"/>
</filter>
<filter id="filter1_d_614_795" x="3.00607" y="4.99774" width="19.9871" height="19.9957" filterUnits="userSpaceOnUse" color-interpolation-filters="sRGB">
<feFlood flood-opacity="0" result="BackgroundImageFix"/>
<feColorMatrix in="SourceAlpha" type="matrix" values="0 0 0 0 0 0 0 0 0 0 0 0 0 0 0 0 0 0 127 0" result="hardAlpha"/>
<feOffset dy="2"/>
<feGaussianBlur stdDeviation="1"/>
<feComposite in2="hardAlpha" operator="out"/>
<feColorMatrix type="matrix" values="0 0 0 0 0 0 0 0 0 0 0 0 0 0 0 0 0 0 0.1 0"/>
<feBlend mode="normal" in2="BackgroundImageFix" result="effect1_dropShadow_614_795"/>
<feBlend mode="normal" in="SourceGraphic" in2="effect1_dropShadow_614_795" result="shape"/>
</filter>
</defs>
</svg>
