<svg width="41" height="40" viewBox="0 0 41 40" fill="none" xmlns="http://www.w3.org/2000/svg">
<rect x="0.5" width="40" height="40" rx="20" fill="#E6460A"/>
<path fill-rule="evenodd" clip-rule="evenodd" d="M27.5 29C28.6046 29 29.5 28.1046 29.5 27V17C29.5 15.8954 28.6046 15 27.5 15H25.5V13C25.5 11.8954 24.6046 11 23.5 11L13.5 11C12.3954 11 11.5 11.8954 11.5 13L11.5 23C11.5 24.1046 12.3954 25 13.5 25H15.5V27C15.5 28.1046 16.3954 29 17.5 29H27.5ZM23.5 15L17.5 15C16.3954 15 15.5 15.8954 15.5 17L15.5 23H13.5L13.5 13L23.5 13V15Z" fill="white"/>
</svg>
