<svg width="300" height="52" viewBox="0 0 300 52" fill="none" xmlns="http://www.w3.org/2000/svg">
<path d="M275.52 11.5144L268.719 11.4808C268.75 11.4612 268.781 11.4444 268.812 11.4276H274.91C275.123 11.4276 275.327 11.4584 275.52 11.5144Z" fill="#E35C00"/>
<path d="M278.71 11.5452C278.718 10.6632 278.186 9.84562 277.343 9.51802L276.013 8.99721L276.324 8.60241C276.629 8.23281 276.814 7.75682 276.814 7.23602C276.814 6.08242 275.904 5.14161 274.764 5.08841C274.731 5.08841 274.697 5.08841 274.664 5.08841C274.577 5.08841 274.484 5.09401 274.398 5.10521C274.146 5.13881 273.908 5.21161 273.689 5.32361C273.098 5.60641 272.23 5.85561 271.127 6.07401C270.886 4.38841 270.133 2.98001 269.528 2.21001C269.495 2.16801 269.461 2.12882 269.428 2.08962C268.506 1.07882 267.314 0.546814 265.981 0.546814C263.895 0.546814 261.59 1.84042 258.942 4.50322C258.793 4.65162 258.648 4.80282 258.508 4.95122C257.889 4.66842 257.2 4.51162 256.478 4.51162C255.755 4.51162 255.12 4.65442 254.52 4.91762C254.389 4.78042 254.257 4.64322 254.117 4.50602C251.468 1.84602 249.167 0.549617 247.078 0.549617C245.742 0.549617 244.552 1.08161 243.631 2.09241C243.595 2.13161 243.561 2.17082 243.53 2.21282C242.92 2.98842 242.161 4.40802 241.926 6.10482C240.73 5.87802 239.795 5.60922 239.179 5.30962C238.88 5.16122 238.555 5.09122 238.238 5.09122C237.603 5.09122 236.981 5.37402 236.561 5.89482C235.931 6.67602 235.928 7.79041 236.553 8.57721L236.889 9.00001L235.559 9.52081C234.688 9.85961 234.148 10.7192 234.192 11.6292C234.192 11.6292 234.192 11.6311 234.192 11.6348C233.89 12.2256 233.719 12.892 233.719 13.6004V46.688C233.719 49.0708 235.657 51.0056 238.037 51.0056H274.916C277.298 51.0056 279.233 49.068 279.233 46.688V13.6004C279.233 12.8584 279.046 12.1612 278.715 11.5508L278.71 11.5452ZM237.435 11.5116H237.421L236.332 11.5172L240.375 9.93802L239.848 9.27721L238.227 7.23602C239.048 7.63922 240.176 7.95281 241.467 8.20201C241.621 8.23281 241.778 8.26082 241.934 8.28602C241.951 8.29162 241.971 8.29441 241.99 8.29721C241.974 8.29721 241.954 8.29161 241.934 8.28881C241.985 8.61641 242.063 8.94681 242.17 9.27721C242.192 9.35561 242.22 9.43681 242.248 9.51521C242.352 9.80921 242.52 10.0752 242.738 10.2992C242.856 10.4196 243.337 10.8844 244.242 11.4248C244.272 11.4416 244.3 11.4584 244.331 11.478L237.435 11.5116ZM253.697 9.43122C253.697 8.53802 254.117 7.74282 254.775 7.23602C255.243 6.87202 255.834 6.65642 256.472 6.65642C257.11 6.65642 257.698 6.87482 258.166 7.23602C258.821 7.74002 259.244 8.53522 259.244 9.43122V11.3968H253.697V9.43122ZM259.297 48.8496H253.697V13.5836H259.297V48.8496ZM275.52 11.5144L268.719 11.4808C268.75 11.4612 268.781 11.4444 268.812 11.4276C269.713 10.8872 270.195 10.4224 270.315 10.302C270.534 10.078 270.699 9.81202 270.805 9.51802C270.833 9.43962 270.861 9.35841 270.884 9.28001C270.993 8.93841 271.074 8.59961 271.122 8.26361C271.225 8.24401 271.326 8.22442 271.427 8.20482C272.718 7.95562 273.846 7.64201 274.666 7.23881L273.045 9.28001L272.519 9.94081L276.562 11.52L275.52 11.5144Z" fill="#E35C00"/>
<path d="M241.934 8.28601C241.954 8.29161 241.974 8.2944 241.99 8.2972C241.971 8.2972 241.951 8.29161 241.934 8.28601Z" fill="#E35C00"/>
<path d="M232.067 32.0636C232.129 32.0972 232.188 32.1364 232.241 32.1812C232.188 32.1364 232.129 32.0944 232.067 32.0636ZM197.65 31.932C197.487 31.932 197.33 31.9684 197.19 32.0356C197.33 31.9712 197.487 31.9348 197.65 31.9348V31.932ZM231.544 31.932C231.709 31.932 231.866 31.9684 232.006 32.0328C231.866 31.9656 231.709 31.9292 231.544 31.9292V31.932Z" fill="#E35C00"/>
<path d="M231.544 29.7844H231.163C231.163 29.5352 231.121 29.2804 231.034 29.0396L228.43 21.88C228.212 21.2752 227.73 20.802 227.125 20.5892C226.893 20.508 226.652 20.466 226.411 20.466C226.218 20.466 226.025 20.4912 225.834 20.5444L221.674 17.7304C221.315 17.4868 220.895 17.3608 220.47 17.3608C220.307 17.3608 220.145 17.3804 219.982 17.4168C219.4 17.5512 218.899 17.9236 218.602 18.4416L214.94 24.8424C214.825 24.834 214.71 24.8284 214.592 24.8284C214.475 24.8284 214.36 24.834 214.245 24.8424L210.586 18.4416C210.286 17.9236 209.788 17.5512 209.205 17.4168C209.043 17.3804 208.88 17.3608 208.718 17.3608C208.292 17.3608 207.872 17.4868 207.511 17.7304L203.35 20.5444C203.163 20.494 202.97 20.466 202.776 20.466C202.536 20.466 202.295 20.508 202.062 20.5892C201.455 20.802 200.976 21.278 200.755 21.88L198.151 29.0396C198.064 29.2832 198.019 29.5352 198.019 29.7844H197.638C195.852 29.7844 194.396 31.2376 194.396 33.0268V47.7576C194.396 49.5468 195.852 51 197.638 51H231.532C233.322 51 234.775 49.544 234.775 47.7576V33.0268C234.775 31.2376 233.319 29.7844 231.532 29.7844H231.544ZM220.47 19.5056L223.737 21.7176L217.292 25.6264C217.213 25.5704 217.138 25.52 217.056 25.4724L220.472 19.5056H220.47ZM212.411 28.5804C212.411 28.5468 212.411 28.5132 212.417 28.4824C212.417 28.4712 212.417 28.46 212.417 28.4516C212.467 28.0036 212.764 27.6088 213.206 27.3428C213.335 27.2644 213.475 27.1972 213.624 27.144C213.797 27.0768 213.982 27.032 214.178 27.004C214.312 26.9844 214.452 26.9732 214.598 26.9732C214.744 26.9732 214.884 26.9844 215.018 27.004C215.214 27.032 215.399 27.0768 215.57 27.144C215.721 27.1944 215.858 27.2616 215.987 27.3428C216.429 27.6088 216.729 28.0036 216.779 28.4516C216.779 28.46 216.779 28.4684 216.779 28.4796C216.779 28.5132 216.785 28.5468 216.785 28.5804V29.7732H212.411V28.5804ZM208.724 19.5056L212.137 25.4752C212.056 25.5228 211.977 25.5732 211.902 25.6264L205.456 21.7176L208.726 19.5056H208.724ZM209.468 48.8496H197.65C197.048 48.8496 196.558 48.3596 196.558 47.7548V33.024C196.558 32.7244 196.681 32.4472 196.877 32.2512C196.899 32.226 196.927 32.2008 196.955 32.1812C197.008 32.1364 197.067 32.0944 197.129 32.0636C197.148 32.0524 197.168 32.0412 197.188 32.0328C197.328 31.9656 197.484 31.9292 197.647 31.9292H209.466V48.8496H209.468ZM232.638 47.7576C232.638 48.3624 232.148 48.8524 231.544 48.8524H219.725V31.932H231.544C231.709 31.932 231.866 31.9684 232.006 32.0356C232.028 32.044 232.048 32.0552 232.064 32.0664C232.126 32.1 232.185 32.1392 232.238 32.184C232.266 32.2064 232.291 32.2288 232.316 32.254C232.515 32.45 232.636 32.7244 232.636 33.0268V47.7576H232.638Z" fill="#E35C00"/>
<path d="M58.4325 15.2636C58.4941 15.2972 58.5529 15.3364 58.6061 15.3812C58.5529 15.3364 58.4941 15.2944 58.4325 15.2636ZM24.0149 15.132C23.8525 15.132 23.6957 15.1684 23.5557 15.2356C23.6957 15.1712 23.8525 15.1348 24.0149 15.1348V15.132ZM57.9089 15.132C58.0741 15.132 58.2309 15.1684 58.3709 15.2328C58.2309 15.1656 58.0741 15.1292 57.9089 15.1292V15.132Z" fill="#E35C00"/>
<path d="M57.9089 12.9844H57.5281C57.5281 12.7352 57.4861 12.4804 57.3993 12.2396L54.7953 5.08C54.5769 4.4752 54.0953 4.002 53.4905 3.7892C53.2581 3.708 53.0173 3.666 52.7765 3.666C52.5833 3.666 52.3901 3.6912 52.1997 3.7444L48.0389 0.930393C47.6805 0.686793 47.2605 0.560791 46.8349 0.560791C46.6725 0.560791 46.5101 0.580394 46.3477 0.616794C45.7653 0.751194 45.2641 1.1236 44.9673 1.6416L41.3049 8.04239C41.1901 8.03399 41.0753 8.02839 40.9577 8.02839C40.8401 8.02839 40.7253 8.03399 40.6105 8.04239L36.9509 1.6416C36.6513 1.1236 36.1529 0.751194 35.5705 0.616794C35.4081 0.580394 35.2457 0.560791 35.0833 0.560791C34.6577 0.560791 34.2377 0.686793 33.8765 0.930393L29.7157 3.7444C29.5281 3.694 29.3349 3.666 29.1417 3.666C28.9009 3.666 28.6601 3.708 28.4277 3.7892C27.8201 4.002 27.3413 4.478 27.1201 5.08L24.5161 12.2396C24.4293 12.4832 24.3845 12.7352 24.3845 12.9844H24.0037C22.2173 12.9844 20.7613 14.4376 20.7613 16.2268V47.7576C20.7613 49.5468 22.2173 51 24.0037 51H57.8977C59.6869 51 61.1401 49.544 61.1401 47.7576V16.2268C61.1401 14.4376 59.6841 12.9844 57.8977 12.9844H57.9089ZM46.8377 2.70559L50.1053 4.9176L43.6597 8.8264C43.5813 8.7704 43.5057 8.71999 43.4245 8.67239L46.8405 2.70559H46.8377ZM38.7765 11.7804C38.7765 11.7468 38.7765 11.7132 38.7821 11.6824C38.7821 11.6712 38.7821 11.66 38.7821 11.6516C38.8325 11.2036 39.1293 10.8088 39.5717 10.5428C39.7005 10.4644 39.8405 10.3972 39.9889 10.344C40.1625 10.2768 40.3473 10.232 40.5433 10.204C40.6777 10.1844 40.8177 10.1732 40.9633 10.1732C41.1089 10.1732 41.2489 10.1844 41.3833 10.204C41.5793 10.232 41.7641 10.2768 41.9349 10.344C42.0861 10.3944 42.2233 10.4616 42.3521 10.5428C42.7945 10.8088 43.0941 11.2036 43.1445 11.6516C43.1445 11.66 43.1445 11.6684 43.1445 11.6796C43.1445 11.7132 43.1501 11.7468 43.1501 11.7804V12.9732H38.7765V11.7804ZM35.0889 2.70559L38.5021 8.67519C38.4209 8.72279 38.3425 8.7732 38.2669 8.8264L31.8213 4.9176L35.0917 2.70559H35.0889ZM35.8337 48.8496H24.0149C23.4129 48.8496 22.9229 48.3596 22.9229 47.7548V16.224C22.9229 15.9244 23.0461 15.6472 23.2421 15.4512C23.2645 15.426 23.2925 15.4008 23.3205 15.3812C23.3737 15.3364 23.4325 15.2944 23.4941 15.2636C23.5137 15.2524 23.5333 15.2412 23.5529 15.2328C23.6929 15.1656 23.8497 15.1292 24.0121 15.1292H35.8309V48.8496H35.8337ZM59.0037 47.7576C59.0037 48.3624 58.5137 48.8524 57.9089 48.8524H46.0901V15.132H57.9089C58.0741 15.132 58.2309 15.1684 58.3709 15.2356C58.3933 15.244 58.4129 15.2552 58.4297 15.2664C58.4913 15.3 58.5501 15.3392 58.6033 15.384C58.6313 15.4064 58.6565 15.4288 58.6817 15.454C58.8805 15.65 59.0009 15.9244 59.0009 16.2268V47.7576H59.0037Z" fill="#E35C00"/>
<path d="M101.049 44.308L101.032 17.2124C101.032 16.5544 100.858 15.9384 100.556 15.4008C100.472 14.6196 99.9621 13.9252 99.2005 13.6284L98.3157 13.284L98.3913 13.1888C98.6965 12.8164 98.8813 12.3432 98.8813 11.8252C98.8813 10.6716 97.9713 9.72802 96.8317 9.67762C96.7981 9.67762 96.7645 9.67762 96.7309 9.67762C96.6413 9.67762 96.5517 9.68322 96.4593 9.69442C96.2101 9.72522 95.9721 9.80082 95.7537 9.91002C95.2945 10.1312 94.6253 10.33 93.7797 10.5064C93.5193 9.07282 92.8725 7.88282 92.3461 7.21082C92.3125 7.16882 92.2789 7.12962 92.2453 7.09042C91.3801 6.14122 90.2601 5.64282 89.0057 5.64282C87.0821 5.64282 84.9793 6.81882 82.5769 9.23522C82.4257 9.38642 82.2801 9.53762 82.1373 9.68882L79.0629 9.69442C78.9201 9.54322 78.7745 9.39482 78.6233 9.24082C76.2181 6.83002 74.1153 5.65682 72.1945 5.65682C70.9373 5.65682 69.8145 6.15802 68.9521 7.10722C68.9185 7.14642 68.8821 7.18562 68.8513 7.22762C68.3193 7.90522 67.6697 9.10922 67.4177 10.5596C66.4937 10.3748 65.7657 10.1592 65.2757 9.91842C64.9761 9.77282 64.6513 9.70002 64.3349 9.70002C63.6993 9.70002 63.0749 9.98282 62.6577 10.5036C62.0277 11.2876 62.0249 12.402 62.6521 13.1888L62.7501 13.312L61.8653 13.6592C61.0729 13.97 60.5549 14.7064 60.5045 15.524C60.2301 16.0532 60.0845 16.6384 60.0845 17.2488L60.1069 47.29C60.1069 48.4128 60.6109 49.4208 61.3977 50.104C62.0501 50.6696 62.8985 51.0084 63.8253 51.0084H64.1557L78.0857 51H78.1165L83.0501 50.9944L97.3385 50.986C98.3325 50.986 99.2677 50.5968 99.9705 49.894C100.673 49.1884 101.057 48.256 101.057 47.262V44.3164L101.049 44.308ZM64.6625 14.866L66.2417 14.2472L65.6593 13.5164L64.3321 11.8448C64.3797 11.8672 64.4301 11.8924 64.4805 11.9148C64.5281 11.9372 64.5757 11.9568 64.6233 11.9764C64.6569 11.9932 64.6933 12.0072 64.7297 12.0212C64.7997 12.0492 64.8669 12.0744 64.9397 12.0996C65.0685 12.15 65.2057 12.1976 65.3485 12.2424C65.4017 12.2592 65.4549 12.276 65.5109 12.2928C65.5529 12.3068 65.5977 12.318 65.6397 12.332C65.7181 12.3544 65.7965 12.3768 65.8777 12.3992C65.9673 12.4244 66.0597 12.4496 66.1521 12.472C66.2473 12.4944 66.3425 12.5168 66.4405 12.542C66.5385 12.5644 66.6393 12.5868 66.7401 12.6092C66.8717 12.6372 67.0033 12.6652 67.1377 12.6904C67.2161 12.7044 67.2973 12.7212 67.3785 12.7352C67.4149 12.9928 67.4681 13.256 67.5437 13.5164C67.5829 13.6592 67.6277 13.8076 67.6781 13.9504C67.7845 14.2416 67.9497 14.5104 68.1681 14.7316C68.2661 14.8296 68.6357 15.1852 69.2993 15.6164L65.5109 15.636L62.6437 15.6528L64.6597 14.8632L64.6625 14.866ZM65.9225 48.8468H63.8197C63.6573 48.8468 63.5005 48.8244 63.3521 48.7768C63.2541 48.746 63.1617 48.7068 63.0693 48.6592C62.5821 48.3932 62.2489 47.8752 62.2489 47.2788V46.3492L62.2405 35.208V30.7728L62.2321 19.2816V17.7584C62.3665 17.7864 62.5065 17.8004 62.6465 17.8004H62.6605L65.8581 17.7836L75.0141 17.7332L75.9409 17.7276V19.094L75.9465 29.2328L75.9521 34.1048L75.9605 48.844L65.9253 48.8496L65.9225 48.8468ZM83.0221 15.4904H79.4605H78.0885V13.5052V13.3428V11.8364H78.1221H80.2361H80.9277H83.0249V13.508V15.4876V15.4932L83.0221 15.4904ZM91.8953 15.6024C92.1809 15.4176 92.4133 15.2468 92.5925 15.1068C92.8333 14.9136 92.9761 14.7736 93.0321 14.7148C93.2505 14.4908 93.4157 14.2248 93.5221 13.9308C93.5641 13.8104 93.6033 13.6872 93.6369 13.5668C93.6481 13.5444 93.6537 13.5192 93.6565 13.4968C93.7349 13.2252 93.7881 12.9564 93.8245 12.6876C93.9785 12.6568 94.1297 12.626 94.2781 12.5952C94.4265 12.5644 94.5721 12.5308 94.7149 12.4972C94.8577 12.4636 94.9977 12.4272 95.1349 12.3908C95.2049 12.3712 95.2693 12.3544 95.3365 12.3348C95.4681 12.2984 95.5969 12.2592 95.7201 12.22C95.8461 12.178 95.9665 12.1388 96.0841 12.094C96.1429 12.0716 96.1989 12.052 96.2549 12.0296C96.3669 11.9848 96.4733 11.94 96.5769 11.8952C96.6273 11.8728 96.6777 11.8476 96.7281 11.8252L95.6333 13.2028L95.3981 13.4968L94.8185 14.2276L97.5457 15.2916L98.4165 15.6304L97.5709 15.6248V15.6668C97.4841 15.6528 97.3945 15.6444 97.3049 15.6444L92.5281 15.65H91.8197C91.8421 15.636 91.8673 15.6192 91.8897 15.6052L91.8953 15.6024ZM98.6881 48.0488C98.4165 48.5164 97.9097 48.8272 97.3329 48.83L87.6673 48.8356H85.1977V44.8764L85.1865 34.5164V29.7116L85.1809 23.406V21.3536L85.1753 17.722L93.6649 17.7584C94.0625 18.0216 94.5413 18.1756 95.0565 18.1756C95.5717 18.1756 96.0309 18.0272 96.4229 17.7724L98.4081 17.7808H98.4193C98.5789 17.7808 98.7329 17.764 98.8813 17.7304L98.8869 26.4552V28.9024L98.8953 43.0172V47.2592C98.8953 47.5504 98.8197 47.8192 98.6825 48.0516L98.6881 48.0488Z" fill="#E35C00"/>
<path d="M65.9365 48.5864C65.9365 48.6732 65.9309 48.7628 65.9225 48.8496H63.8197C63.6573 48.8496 63.5005 48.8272 63.3521 48.7796C63.2541 48.7488 63.1617 48.7096 63.0693 48.662C62.5821 48.396 62.2489 47.878 62.2489 47.2816V46.352C62.5961 46.17 62.9937 46.0664 63.4109 46.0664C64.8025 46.0664 65.9337 47.192 65.9337 48.5864H65.9365Z" fill="#E35C00"/>
<path d="M71.6793 41.2616C71.6793 42.6532 70.5537 43.7844 69.1593 43.7872C67.7677 43.7872 66.6365 42.6588 66.6365 41.2644C66.6365 39.8728 67.7649 38.7416 69.1565 38.7416C70.5481 38.7416 71.6793 39.8672 71.6793 41.2616Z" fill="#E35C00"/>
<path d="M65.9617 32.9904C65.9617 34.382 64.8333 35.5132 63.4389 35.5132C63.0049 35.5132 62.5961 35.404 62.2405 35.2108V30.7756C62.5961 30.5824 63.0049 30.4732 63.4389 30.4732C64.8305 30.4732 65.9617 31.5988 65.9617 32.9932V32.9904Z" fill="#E35C00"/>
<path d="M75.9409 17.7276V19.094C75.4957 18.7608 75.1653 18.2848 75.0141 17.736L75.9409 17.7304V17.7276Z" fill="#E35C00"/>
<path d="M65.8553 17.7864C65.5473 18.8308 64.5841 19.5924 63.4389 19.5924C62.9993 19.5924 62.5877 19.4804 62.2293 19.2816V17.7584C62.3637 17.7864 62.5037 17.8004 62.6437 17.8004H62.6577L65.8553 17.7836V17.7864Z" fill="#E35C00"/>
<path d="M71.9817 24.8984C71.9817 26.29 70.8561 27.4212 69.4617 27.4212C68.0673 27.4212 66.9389 26.2928 66.9389 24.8984C66.9389 23.5068 68.0645 22.3756 69.4589 22.3756C70.8505 22.3756 71.9817 23.5012 71.9817 24.8956V24.8984Z" fill="#E35C00"/>
<path d="M75.9521 34.102C75.7449 34.1608 75.5265 34.1888 75.2997 34.1888C73.9081 34.1888 72.7769 33.0604 72.7769 31.666C72.7769 30.2744 73.9025 29.1432 75.2969 29.1432C75.5237 29.1432 75.7393 29.174 75.9493 29.23L75.9549 34.102H75.9521Z" fill="#E35C00"/>
<path d="M88.1405 47.3572C88.1405 47.9088 87.9641 48.4184 87.6645 48.8328H85.1949V44.8736C85.3293 44.8512 85.4721 44.8372 85.6149 44.8372C87.0065 44.8372 88.1377 45.9628 88.1377 47.3572H88.1405Z" fill="#E35C00"/>
<path d="M98.9037 47.2564C98.9037 47.5476 98.8253 47.8164 98.6881 48.0488C97.3693 47.9704 96.3249 46.8728 96.3249 45.5372C96.3249 44.1456 97.4505 43.0144 98.8449 43.0144C98.8645 43.0144 98.8813 43.0144 98.9009 43.0144V47.2564H98.9037Z" fill="#E35C00"/>
<path d="M95.3673 37.4844C95.3673 38.876 94.2417 40.0072 92.8473 40.0072C91.4557 40.0072 90.3245 38.8816 90.3245 37.4872C90.3245 36.0956 91.4501 34.9644 92.8445 34.9644C94.2361 34.9644 95.3673 36.09 95.3673 37.4844Z" fill="#E35C00"/>
<path d="M88.4681 32.1084C88.4681 33.5 87.3425 34.6312 85.9481 34.6312C85.6821 34.6312 85.4245 34.5892 85.1837 34.5136V29.7088C85.4217 29.6304 85.6793 29.5884 85.9453 29.5884C87.3369 29.5884 88.4681 30.7168 88.4681 32.1084Z" fill="#E35C00"/>
<path d="M89.9997 22.3756C89.9997 23.7672 88.8741 24.8984 87.4797 24.8984C86.4521 24.8984 85.5701 24.2852 85.1753 23.4032V21.3508C85.5645 20.4688 86.4465 19.8556 87.4741 19.8528C88.8657 19.8528 89.9969 20.9812 89.9969 22.3756H89.9997Z" fill="#E35C00"/>
<path d="M98.8925 28.8996C98.4613 29.678 97.6353 30.1988 96.6861 30.2016C95.2945 30.2016 94.1633 29.0732 94.1633 27.6788C94.1633 26.2872 95.2889 25.156 96.6833 25.156C97.6325 25.156 98.4557 25.6796 98.8897 26.4524V28.8996H98.8925Z" fill="#E35C00"/>
</svg>
