<svg width="375" height="184" viewBox="0 0 375 184" fill="none" xmlns="http://www.w3.org/2000/svg">
<g clip-path="url(#clip0_620_1770)">
<g opacity="0.3" clip-path="url(#clip1_620_1770)">
<path d="M367.607 30.395C366.128 30.395 364.701 30.6138 363.352 31.0175C361.052 24.9888 355.218 20.705 348.382 20.705C346.596 20.705 344.881 21.0013 343.277 21.54C342.734 9.93751 333.157 0.69751 321.421 0.69751C309.684 0.69751 299.629 10.405 299.541 22.415C297.967 21.0575 295.918 20.2363 293.677 20.2363C288.713 20.2363 284.689 24.26 284.689 29.2238C284.689 29.7263 284.733 30.22 284.812 30.7C278.052 32.0875 272.967 38.0713 272.967 45.2438C272.967 53.445 279.614 60.0925 287.816 60.0925H367.607C375.808 60.0925 382.456 53.445 382.456 45.2438C382.456 37.0425 375.808 30.395 367.607 30.395Z" fill="white"/>
</g>
<g opacity="0.2" clip-path="url(#clip2_620_1770)">
<path d="M122.663 162.481C122.663 151.107 113.442 141.886 102.068 141.886C99.5725 141.886 97.1819 142.331 94.9675 143.142C95.1006 142.287 95.17 141.41 95.17 140.517C95.17 131.111 87.5444 123.485 78.1375 123.485C75.5781 123.485 73.1537 124.053 70.9769 125.064C67.8456 113.259 57.0887 104.557 44.2994 104.557C29.4494 104.557 17.3406 116.287 16.7256 130.985C16.1256 130.921 15.5181 130.887 14.9012 130.887C11.4756 130.887 8.28812 131.902 5.61812 133.644C-0.233751 136.267 -4.33625 142.094 -4.45063 148.895C-7.15813 147.316 -10.3063 146.412 -13.6681 146.412C-23.7931 146.412 -32 154.619 -32 164.744C-32 169.799 -29.9525 174.378 -26.6431 177.695C-23.63 181.002 -19.2894 183.078 -14.4631 183.078H103.094C103.094 183.078 103.094 183.061 103.094 183.052C113.991 182.517 122.663 173.514 122.663 162.481Z" fill="white"/>
</g>
</g>
<defs>
<clipPath id="clip0_620_1770">
<rect width="375" height="182.379" fill="white" transform="translate(0 0.69751)"/>
</clipPath>
<clipPath id="clip1_620_1770">
<rect width="109.489" height="59.395" fill="white" transform="translate(272.967 0.69751)"/>
</clipPath>
<clipPath id="clip2_620_1770">
<rect width="154.663" height="78.5194" fill="white" transform="translate(-32 104.557)"/>
</clipPath>
</defs>
</svg>
