<svg width="93" height="96" viewBox="0 0 93 96" fill="none" xmlns="http://www.w3.org/2000/svg">
<g clip-path="url(#clip0_614_633)">
<path d="M71.4176 66.8761L77.292 60.5579C77.6909 60.128 78.2997 59.9603 78.8624 60.1247C79.5228 60.3174 79.9769 60.9225 79.9793 61.6097L80.0011 70.1465C80.0044 71.2311 78.9189 71.9847 77.9036 71.603L72.006 69.3848C70.9734 68.9969 70.6653 67.6849 71.4162 66.8765L71.4176 66.8761Z" fill="#83CADF" stroke="black" stroke-width="0.642" stroke-miterlimit="10"/>
<path d="M72.3042 78.3103L65.8973 82.4325C65.3887 82.7598 64.7637 82.8496 64.1837 82.6789C63.1419 82.3726 62.5121 81.3145 62.7355 80.253L63.982 74.3456C64.2409 73.1209 65.515 72.3991 66.6993 72.8085L71.8597 74.5937C73.5011 75.1617 73.7653 77.3706 72.3042 78.3103Z" fill="#83CADF" stroke="black" stroke-width="0.642" stroke-miterlimit="10"/>
<path d="M38.9262 55.4595C31.7792 53.9799 23.4906 50.9752 19.6993 48.1213C18.8181 47.4582 18.0641 46.626 17.5589 45.6448C16.5629 43.7128 16.5389 41.3743 17.4625 39.4373C18.404 37.4628 20.2964 36.052 22.4573 35.7074C23.8141 35.4914 25.1595 35.7831 26.3774 36.3932C26.9799 36.6945 31.49 39.9476 34.8749 40.7861L54.9463 45.2659L38.9276 55.4591L38.9262 55.4595Z" fill="white" stroke="black" stroke-width="0.642" stroke-linecap="round" stroke-linejoin="round"/>
<path d="M28.9295 38.1925C28.9295 38.1925 28.9543 35.8798 27.2982 35.8654C25.7759 35.8525 25.6094 37.6534 25.6094 37.6534" fill="white"/>
<path d="M28.9295 38.1925C28.9295 38.1925 28.9543 35.8798 27.2982 35.8654C25.7759 35.8525 25.6094 37.6534 25.6094 37.6534" stroke="black" stroke-width="0.6645" stroke-linecap="round" stroke-linejoin="round"/>
<path d="M36.1845 50.5478C36.0722 50.7487 38.3569 62.1499 38.3569 62.1499L67.4901 62.7371C69.7712 51.3254 64.8771 41.5101 62.9253 39.5811L60.2445 30.2194" fill="white"/>
<path d="M36.1845 50.5478C36.0722 50.7487 38.3569 62.1499 38.3569 62.1499L67.4901 62.7371C69.7712 51.3254 64.8771 41.5101 62.9253 39.5811L60.2445 30.2194" stroke="black" stroke-width="0.642" stroke-linecap="round" stroke-linejoin="round"/>
<path d="M62.9253 39.581C64.0117 37.0693 64.4397 34.2618 64.0257 31.3896C63.3839 26.937 60.8484 23.2061 57.3074 20.8286L58.7045 13.9242C58.7371 13.7618 58.7678 13.5982 58.7839 13.4324C59.1291 10.0959 56.7784 7.05467 53.428 6.57653C49.9962 6.08448 46.8151 8.46957 46.3245 11.901L45.4976 18.227L45.486 18.2301L44.2543 13.3781L44.2512 13.3665C44.2191 13.2354 44.1809 13.1043 44.1398 12.974C43.2107 10.173 40.187 8.65384 37.3856 9.5815L33.6359 10.8238C30.8349 11.7529 29.3157 14.7767 30.2434 17.578C30.9261 19.639 32.7439 21.0046 34.7734 21.2124L35.8173 23.2481C32.6403 26.6104 30.9739 31.2405 31.6672 36.0535C32.2002 39.7464 34.035 42.943 36.6668 45.283" fill="white"/>
<path d="M62.9253 39.581C64.0117 37.0693 64.4397 34.2618 64.0257 31.3896C63.3839 26.937 60.8484 23.2061 57.3074 20.8286L58.7045 13.9242C58.7371 13.7618 58.7678 13.5982 58.7839 13.4324C59.1291 10.0959 56.7784 7.05467 53.428 6.57653C49.9962 6.08448 46.8151 8.46957 46.3245 11.901L45.4976 18.227L45.486 18.2301L44.2543 13.3781L44.2512 13.3665C44.2191 13.2354 44.1809 13.1043 44.1398 12.974C43.2107 10.173 40.187 8.65384 37.3856 9.5815L33.6359 10.8238C30.8349 11.7529 29.3157 14.7767 30.2434 17.578C30.9261 19.639 32.7439 21.0046 34.7734 21.2124L35.8173 23.2481C32.6403 26.6104 30.9739 31.2405 31.6672 36.0535C32.2002 39.7464 34.035 42.943 36.6668 45.283" stroke="black" stroke-width="0.642" stroke-linecap="round" stroke-linejoin="round"/>
<path d="M40.7719 21.0835C38.0846 21.979 37.0171 17.9138 37.0171 17.9138C35.2596 18.7325 33.987 18.0517 33.4899 16.7702C32.5964 14.4613 35.3382 13.3462 35.3382 13.3462C37.6201 12.2766 39.943 12.1884 41.1932 14.6114C41.1932 14.6114 44.1291 19.9525 40.7719 21.0835Z" fill="#8F0080"/>
<path d="M51.3271 18.5162C49.8246 18.4668 48.2154 19.294 48.8965 15.8954C48.8965 15.8954 49.39 10.6029 52.813 11.1609C56.941 11.8345 54.3619 18.5291 54.3619 18.5291C53.852 20.1907 52.8077 18.5651 51.3271 18.5162Z" fill="#FF7A00"/>
<path d="M41.9114 33.9019C41.9114 33.9019 42.333 35.6089 43.4307 35.5617C44.6004 35.5107 44.7139 33.8016 44.7139 33.8016L43.1428 33.1946L41.9099 33.9022L41.9114 33.9019Z" fill="#CB5641" stroke="black" stroke-width="0.642" stroke-linecap="round" stroke-linejoin="round"/>
<path d="M41.1793 33.8356C41.1793 33.8356 42.2246 34.3754 43.1273 32.8819" stroke="black" stroke-width="0.855" stroke-linecap="round" stroke-linejoin="round"/>
<path d="M43.1273 32.8819C43.5232 33.4032 43.931 33.6325 44.2886 33.7152C44.8833 33.8541 45.3318 33.5864 45.3318 33.5864" stroke="black" stroke-width="0.855" stroke-linecap="round" stroke-linejoin="round"/>
<path d="M41.626 30.9532C41.5895 30.2782 41.1015 29.7551 40.5333 29.7847C39.9651 29.8143 39.5345 30.3862 39.5709 31.0613C39.6059 31.7367 40.0954 32.2594 40.6636 32.2298C41.2318 32.2002 41.6624 31.6283 41.626 30.9532Z" fill="black"/>
<path d="M46.7994 30.637C46.7644 29.9615 46.275 29.4389 45.7068 29.4685C45.1385 29.4981 44.7079 30.07 44.7444 30.7451C44.7794 31.4205 45.2688 31.9432 45.837 31.9136C46.4052 31.884 46.8359 31.3121 46.7994 30.637Z" fill="black"/>
<path d="M43.9889 32.6432C43.9652 32.1837 43.5543 31.8326 43.0719 31.8578C42.5895 31.883 42.218 32.2761 42.2432 32.7352C42.267 33.1947 42.6778 33.5458 43.1603 33.5206C43.6427 33.4954 44.0141 33.1024 43.9889 32.6432Z" fill="black"/>
<path d="M45.3854 19.6454L45.4976 18.227" stroke="black" stroke-width="0.642" stroke-linecap="round" stroke-linejoin="round"/>
<path d="M31.7612 71.0792L50.0403 76.3871L29.5993 88.9284C28.9165 89.3474 28.0887 89.4574 27.3201 89.2317C25.6834 88.7509 24.8391 86.9444 25.5212 85.381L31.7594 71.0781L31.7608 71.0777L31.7612 71.0792Z" fill="white" stroke="black" stroke-width="0.642" stroke-linecap="round" stroke-linejoin="round"/>
<path d="M28.2316 83.9576C27.2791 83.7469 26.7365 82.7416 27.081 81.8309L27.0702 81.8369L25.5234 85.3836C24.8413 86.9469 25.6856 88.7534 27.3223 89.2342C28.0909 89.46 28.9187 89.35 29.6015 88.931L35.1962 85.4985L28.232 83.959L28.2316 83.9576Z" fill="#83CADF" stroke="black" stroke-width="0.642" stroke-miterlimit="10"/>
<path d="M84.4766 72.401C82.3998 68.7304 79.8654 65.8673 75.8872 64.4952L35.0569 50.634C28.3277 48.3141 20.8793 49.4884 15.1863 53.7827C13.2421 55.2494 12.0115 57.5358 11.7917 59.9551C11.0081 68.5524 22.8978 73.5737 29.4298 75.6498C31.2493 76.2276 33.1114 76.6744 34.997 76.9829C35.2764 77.0291 35.5562 77.0706 35.8371 77.1103L60.6842 79.4361C68.7282 80.3632 76.0513 79.1387 83.3996 75.7364C84.6622 75.1511 85.1628 73.6116 84.478 72.4006L84.4766 72.401Z" fill="white" stroke="black" stroke-width="0.642" stroke-linecap="round" stroke-linejoin="round"/>
<path d="M62.2193 50.0443C60.8813 51.4666 59.1191 52.4124 57.336 53.1588C55.3322 53.997 53.245 54.6169 51.1507 55.1811C49.1234 55.729 47.129 56.1795 45.016 56.1929C44.0577 56.1981 43.0813 56.101 42.1985 55.7272C40.907 55.1788 40.0271 53.9409 39.6447 52.6178C38.8292 49.8003 40.4534 46.8556 43.2708 46.0401C43.2708 46.0401 50.3252 44.3114 53.2783 42.4952" fill="white"/>
<path d="M62.2193 50.0443C60.8813 51.4666 59.1191 52.4124 57.336 53.1588C55.3322 53.997 53.245 54.6169 51.1507 55.1811C49.1234 55.729 47.129 56.1795 45.016 56.1929C44.0577 56.1981 43.0813 56.101 42.1985 55.7272C40.907 55.1788 40.0271 53.9409 39.6447 52.6178C38.8292 49.8003 40.4534 46.8556 43.2708 46.0401C43.2708 46.0401 50.3252 44.3114 53.2783 42.4952" stroke="black" stroke-width="0.642" stroke-linecap="round" stroke-linejoin="round"/>
<path d="M31.7006 51.6002C30.3736 51.0581 26.9782 49.9367 22.2635 50.2729C19.7398 50.9849 17.3331 52.1624 15.1798 53.7876C15.1798 53.7876 23.0912 50.7189 31.8145 54.4534C32.2407 54.6358 32.7021 54.2715 32.6275 53.8132L32.4182 52.5105C32.352 52.1011 32.0827 51.7571 31.7006 51.6002Z" fill="black"/>
<path d="M70.8355 70.5572L76.653 72.5577C77.1745 72.7363 77.7487 72.671 78.2153 72.3782L87.3183 66.6687C88.6515 65.8316 88.3716 63.8132 86.8604 63.3718C86.5503 63.281 86.2223 63.2741 85.9093 63.3518L70.9889 67.0609C69.2243 67.4996 69.1166 69.9665 70.8355 70.5572Z" fill="#83CADF" stroke="black" stroke-width="0.642" stroke-miterlimit="10"/>
<path d="M48.4979 63.3164L61.9895 67.2687C62.7914 67.5026 63.6552 67.3768 64.3549 66.9222L84.0014 54.1682C86.0569 52.8332 85.5967 49.7016 83.2448 49.015C82.6938 48.8536 82.1074 48.8616 81.5602 49.0393L48.4483 59.7409C46.6945 60.3071 46.7288 62.7997 48.4982 63.3179L48.4979 63.3164Z" fill="white" stroke="black" stroke-width="0.642" stroke-linecap="round" stroke-linejoin="round"/>
<path d="M83.2444 49.0135C82.6934 48.8521 82.107 48.8602 81.5598 49.0379L69.615 52.8984C68.7789 53.3306 68.7892 54.5919 69.7228 54.9582L77.8621 58.1535L84.0014 54.1683C86.0569 52.8333 85.5967 49.7017 83.2448 49.015L83.2444 49.0135Z" fill="#83CADF" stroke="black" stroke-width="0.642" stroke-miterlimit="10"/>
</g>
<defs>
<clipPath id="clip0_614_633">
<rect width="74.4045" height="78.498" fill="white" transform="translate(0 19.2573) rotate(-15)"/>
</clipPath>
</defs>
</svg>
