<svg width="143" height="27" viewBox="0 0 143 27" fill="none" xmlns="http://www.w3.org/2000/svg">
<g filter="url(#filter0_d_616_1474)">
<mask id="path-1-outside-1_616_1474" maskUnits="userSpaceOnUse" x="-3" y="-3" width="147" height="30" fill="black">
<rect fill="white" x="-3" y="-3" width="147" height="30"/>
<path d="M6.8185 18.992C5.9705 18.992 5.2265 18.856 4.5865 18.584C3.9465 18.312 3.4105 17.928 2.9785 17.432C2.5465 16.936 2.2185 16.344 1.9945 15.656C1.7705 14.968 1.6585 14.2 1.6585 13.352C1.6585 12.52 1.7705 11.76 1.9945 11.072C2.2185 10.368 2.5465 9.768 2.9785 9.272C3.4105 8.776 3.9465 8.392 4.5865 8.12C5.2265 7.848 5.9705 7.712 6.8185 7.712C7.6185 7.712 8.3225 7.832 8.9305 8.072C9.5385 8.312 10.0585 8.656 10.4905 9.104H13.8985V3.08C13.8985 1.992 14.4585 1.448 15.5785 1.448C16.6985 1.448 17.2585 1.992 17.2585 3.08V21.152C17.2585 22.24 16.6985 22.784 15.5785 22.784C14.4585 22.784 13.8985 22.24 13.8985 21.152V17.168H10.8745C10.4425 17.744 9.8825 18.192 9.1945 18.512C8.5225 18.832 7.7305 18.992 6.8185 18.992ZM21.6265 21.824C21.6265 22.368 21.4745 22.776 21.1705 23.048C20.8825 23.336 20.4665 23.48 19.9225 23.48C19.3785 23.48 18.9545 23.336 18.6505 23.048C18.3625 22.776 18.2185 22.368 18.2185 21.824V2.864C18.2185 2.32 18.3625 1.912 18.6505 1.64C18.9545 1.352 19.3785 1.208 19.9225 1.208C20.4665 1.208 20.8825 1.352 21.1705 1.64C21.4745 1.912 21.6265 2.32 21.6265 2.864V21.824ZM4.9465 2.48C4.9465 1.904 5.1145 1.472 5.4505 1.184C5.7865 0.879999 6.2425 0.727999 6.8185 0.727999C7.3945 0.727999 7.8505 0.879999 8.1865 1.184C8.5385 1.472 8.7145 1.904 8.7145 2.48V4.064H11.0905C11.6345 4.064 12.0425 4.2 12.3145 4.472C12.6025 4.744 12.7465 5.104 12.7465 5.552C12.7465 6 12.6025 6.36 12.3145 6.632C12.0425 6.904 11.6345 7.04 11.0905 7.04H2.3305C1.7865 7.04 1.3705 6.904 1.0825 6.632C0.810503 6.36 0.674503 6 0.674503 5.552C0.674503 5.104 0.810503 4.744 1.0825 4.472C1.3705 4.2 1.7865 4.064 2.3305 4.064H4.9465V2.48ZM6.8185 10.64C6.5145 10.64 6.2505 10.712 6.0265 10.856C5.8185 11 5.6425 11.2 5.4985 11.456C5.3545 11.696 5.2425 11.984 5.1625 12.32C5.0985 12.64 5.0665 12.984 5.0665 13.352C5.0665 13.72 5.0985 14.072 5.1625 14.408C5.2425 14.728 5.3545 15.016 5.4985 15.272C5.6425 15.512 5.8185 15.704 6.0265 15.848C6.2505 15.992 6.5145 16.064 6.8185 16.064C7.4105 16.064 7.8505 15.8 8.1385 15.272C8.4265 14.744 8.5705 14.104 8.5705 13.352C8.5705 12.984 8.5305 12.64 8.4505 12.32C8.3865 11.984 8.2825 11.696 8.1385 11.456C7.9945 11.2 7.8105 11 7.5865 10.856C7.3785 10.712 7.1225 10.64 6.8185 10.64ZM11.9785 13.352C11.9785 13.736 11.9545 14.096 11.9065 14.432H13.8985V11.84H11.8345C11.9305 12.32 11.9785 12.824 11.9785 13.352ZM33.8119 13.4C33.1239 13.48 32.3639 13.544 31.5319 13.592C30.6999 13.64 29.9239 13.664 29.2039 13.664H27.3799C26.5959 13.664 26.0279 13.496 25.6759 13.16C25.3399 12.824 25.1719 12.264 25.1719 11.48V3.848C25.1719 3.064 25.3399 2.504 25.6759 2.168C26.0279 1.816 26.5959 1.64 27.3799 1.64H32.7079C33.1719 1.64 33.5319 1.768 33.7879 2.024C34.0599 2.264 34.1959 2.616 34.1959 3.08C34.1959 3.544 34.0599 3.904 33.7879 4.16C33.5319 4.4 33.1719 4.52 32.7079 4.52H28.7479C28.6199 4.52 28.5399 4.544 28.5079 4.592C28.4759 4.64 28.4599 4.712 28.4599 4.808V6.272H32.5159C33.4759 6.272 33.9559 6.736 33.9559 7.664C33.9559 8.128 33.8279 8.48 33.5719 8.72C33.3319 8.944 32.9799 9.056 32.5159 9.056H28.4599V10.472C28.4599 10.6 28.4759 10.688 28.5079 10.736C28.5559 10.768 28.6359 10.784 28.7479 10.784H30.4039C30.8999 10.784 31.4279 10.768 31.9879 10.736C32.5639 10.688 33.0599 10.648 33.4759 10.616C33.9079 10.584 34.2679 10.656 34.5559 10.832C34.8599 10.992 35.0439 11.304 35.1079 11.768C35.1719 12.232 35.0759 12.608 34.8199 12.896C34.5799 13.184 34.2439 13.352 33.8119 13.4ZM35.8039 3.056C35.8039 2.544 35.9479 2.152 36.2359 1.88C36.5399 1.592 36.9479 1.448 37.4599 1.448C37.9719 1.448 38.3719 1.592 38.6599 1.88C38.9639 2.152 39.1159 2.544 39.1159 3.056V5.864H40.6039V2.84C40.6039 2.328 40.7559 1.928 41.0599 1.64C41.3639 1.352 41.7719 1.208 42.2839 1.208C42.7959 1.208 43.1959 1.352 43.4839 1.64C43.7879 1.928 43.9399 2.328 43.9399 2.84V12.224C43.9399 12.736 43.7879 13.136 43.4839 13.424C43.1959 13.696 42.7959 13.832 42.2839 13.832C41.7719 13.832 41.3639 13.696 41.0599 13.424C40.7559 13.136 40.6039 12.736 40.6039 12.224V8.696H39.1159V12.176C39.1159 12.688 38.9719 13.088 38.6839 13.376C38.3959 13.648 37.9879 13.784 37.4599 13.784C36.9479 13.784 36.5399 13.648 36.2359 13.376C35.9479 13.088 35.8039 12.688 35.8039 12.176V3.056ZM40.0999 18.464C40.0999 18.352 40.0839 18.28 40.0519 18.248C40.0359 18.216 39.9639 18.2 39.8359 18.2H29.3239C28.8599 18.2 28.4599 18.064 28.1239 17.792C27.8039 17.52 27.6439 17.128 27.6439 16.616C27.6439 16.104 27.8039 15.712 28.1239 15.44C28.4599 15.168 28.8599 15.032 29.3239 15.032H41.8039C42.6039 15.032 43.1559 15.184 43.4599 15.488C43.7799 15.776 43.9399 16.32 43.9399 17.12V21.728C43.9399 22.288 43.7559 22.72 43.3879 23.024C43.0359 23.328 42.5799 23.48 42.0199 23.48C41.4599 23.48 40.9959 23.328 40.6279 23.024C40.2759 22.72 40.0999 22.288 40.0999 21.728V18.464ZM54.2181 20.72C53.6741 20.72 53.2501 20.584 52.9461 20.312C52.6421 20.04 52.4901 19.632 52.4901 19.088C52.4901 18.544 52.6421 18.136 52.9461 17.864C53.2501 17.592 53.6741 17.456 54.2181 17.456H61.2981V13.904H57.6261C56.0421 13.904 55.2501 13.128 55.2501 11.576V4.664C55.2501 3.112 56.0421 2.336 57.6261 2.336H68.8341C70.4021 2.336 71.1861 3.112 71.1861 4.664V11.576C71.1861 13.128 70.4021 13.904 68.8341 13.904H65.1381V17.456H72.2181C72.7621 17.456 73.1861 17.592 73.4901 17.864C73.7941 18.136 73.9461 18.544 73.9461 19.088C73.9461 19.632 73.7941 20.04 73.4901 20.312C73.1861 20.584 72.7621 20.72 72.2181 20.72H54.2181ZM59.0181 10.328C59.0181 10.552 59.1301 10.664 59.3541 10.664H67.0821C67.2261 10.664 67.3221 10.64 67.3701 10.592C67.4181 10.544 67.4421 10.456 67.4421 10.328V5.912C67.4421 5.784 67.4181 5.696 67.3701 5.648C67.3221 5.6 67.2261 5.576 67.0821 5.576H59.3541C59.1301 5.576 59.0181 5.688 59.0181 5.912V10.328ZM87.8116 9.992C87.8116 11.192 87.6836 12.28 87.4276 13.256C87.1716 14.216 86.7876 15.04 86.2756 15.728C85.7636 16.416 85.1076 16.952 84.3076 17.336C83.5236 17.704 82.6036 17.888 81.5476 17.888C80.4916 17.888 79.5636 17.704 78.7636 17.336C77.9796 16.952 77.3316 16.416 76.8196 15.728C76.3076 15.04 75.9236 14.216 75.6676 13.256C75.4116 12.28 75.2836 11.192 75.2836 9.992C75.2836 8.792 75.4116 7.712 75.6676 6.752C75.9236 5.776 76.3076 4.944 76.8196 4.256C77.3316 3.568 77.9796 3.04 78.7636 2.672C79.5636 2.288 80.4916 2.096 81.5476 2.096C82.6036 2.096 83.5236 2.288 84.3076 2.672C85.1076 3.04 85.7636 3.568 86.2756 4.256C86.7876 4.944 87.1716 5.776 87.4276 6.752C87.6836 7.712 87.8116 8.792 87.8116 9.992ZM90.1396 2.96C90.1396 2.4 90.3156 1.968 90.6676 1.664C91.0356 1.36 91.4996 1.208 92.0596 1.208C92.6196 1.208 93.0756 1.36 93.4276 1.664C93.7956 1.968 93.9796 2.4 93.9796 2.96V8.168H95.6836C96.1956 8.168 96.6036 8.304 96.9076 8.576C97.2276 8.848 97.3876 9.264 97.3876 9.824C97.3876 10.368 97.2276 10.776 96.9076 11.048C96.6036 11.32 96.1956 11.456 95.6836 11.456H93.9796V21.728C93.9796 22.288 93.7956 22.72 93.4276 23.024C93.0756 23.328 92.6196 23.48 92.0596 23.48C91.4996 23.48 91.0356 23.328 90.6676 23.024C90.3156 22.72 90.1396 22.288 90.1396 21.728V2.96ZM81.5476 14.672C82.0276 14.672 82.4276 14.552 82.7476 14.312C83.0676 14.056 83.3236 13.72 83.5156 13.304C83.7236 12.888 83.8676 12.4 83.9476 11.84C84.0276 11.264 84.0676 10.648 84.0676 9.992C84.0676 9.352 84.0276 8.744 83.9476 8.168C83.8676 7.592 83.7236 7.096 83.5156 6.68C83.3236 6.264 83.0676 5.936 82.7476 5.696C82.4276 5.44 82.0276 5.312 81.5476 5.312C81.0676 5.312 80.6676 5.44 80.3476 5.696C80.0276 5.936 79.7636 6.264 79.5556 6.68C79.3636 7.096 79.2276 7.592 79.1476 8.168C79.0676 8.744 79.0276 9.352 79.0276 9.992C79.0276 10.648 79.0676 11.264 79.1476 11.84C79.2276 12.4 79.3636 12.888 79.5556 13.304C79.7636 13.72 80.0276 14.056 80.3476 14.312C80.6676 14.552 81.0676 14.672 81.5476 14.672ZM99.565 20.72C99.021 20.72 98.597 20.584 98.293 20.312C97.989 20.04 97.837 19.632 97.837 19.088C97.837 18.544 97.989 18.136 98.293 17.864C98.597 17.592 99.021 17.456 99.565 17.456H106.645V14.024H103.021C102.237 14.024 101.637 13.84 101.221 13.472C100.805 13.104 100.597 12.528 100.597 11.744V3.92C100.597 3.376 100.773 2.96 101.125 2.672C101.493 2.368 101.941 2.216 102.469 2.216C103.013 2.216 103.461 2.368 103.813 2.672C104.165 2.96 104.341 3.376 104.341 3.92V5.528H112.813V3.92C112.813 3.376 112.989 2.96 113.341 2.672C113.693 2.368 114.141 2.216 114.685 2.216C115.229 2.216 115.669 2.368 116.005 2.672C116.357 2.96 116.533 3.376 116.533 3.92V11.744C116.533 13.264 115.733 14.024 114.133 14.024H110.485V17.456H117.565C118.109 17.456 118.533 17.592 118.837 17.864C119.141 18.136 119.293 18.544 119.293 19.088C119.293 19.632 119.141 20.04 118.837 20.312C118.533 20.584 118.109 20.72 117.565 20.72H99.565ZM104.341 8.456V10.784C104.341 10.912 104.357 10.992 104.389 11.024C104.421 11.056 104.501 11.072 104.629 11.072H112.525C112.653 11.072 112.733 11.056 112.765 11.024C112.797 10.992 112.813 10.912 112.813 10.784V8.456H104.341ZM136.446 2.96C136.446 2.4 136.622 1.968 136.974 1.664C137.342 1.36 137.806 1.208 138.366 1.208C138.926 1.208 139.382 1.36 139.734 1.664C140.102 1.968 140.286 2.4 140.286 2.96V21.728C140.286 22.288 140.102 22.72 139.734 23.024C139.382 23.328 138.926 23.48 138.366 23.48C137.806 23.48 137.342 23.328 136.974 23.024C136.622 22.72 136.446 22.288 136.446 21.728V2.96ZM123.438 5.552C122.926 5.552 122.526 5.416 122.238 5.144C121.966 4.856 121.83 4.456 121.83 3.944C121.83 3.432 121.966 3.04 122.238 2.768C122.526 2.48 122.926 2.336 123.438 2.336H130.446C132.046 2.336 132.846 3.112 132.846 4.664V5.984C132.846 7.344 132.622 8.624 132.174 9.824C131.742 11.024 131.126 12.136 130.326 13.16C129.542 14.184 128.598 15.112 127.494 15.944C126.39 16.776 125.182 17.504 123.87 18.128C123.422 18.336 122.958 18.4 122.478 18.32C122.014 18.24 121.646 17.944 121.374 17.432C121.15 17.016 121.094 16.576 121.206 16.112C121.334 15.632 121.654 15.256 122.166 14.984C123.19 14.44 124.118 13.88 124.95 13.304C125.798 12.712 126.518 12.08 127.11 11.408C127.718 10.736 128.182 10.016 128.502 9.248C128.838 8.48 129.006 7.648 129.006 6.752V6.104C129.006 5.88 128.974 5.736 128.91 5.672C128.846 5.592 128.694 5.552 128.454 5.552H123.438Z"/>
</mask>
<path d="M6.8185 18.992C5.9705 18.992 5.2265 18.856 4.5865 18.584C3.9465 18.312 3.4105 17.928 2.9785 17.432C2.5465 16.936 2.2185 16.344 1.9945 15.656C1.7705 14.968 1.6585 14.2 1.6585 13.352C1.6585 12.52 1.7705 11.76 1.9945 11.072C2.2185 10.368 2.5465 9.768 2.9785 9.272C3.4105 8.776 3.9465 8.392 4.5865 8.12C5.2265 7.848 5.9705 7.712 6.8185 7.712C7.6185 7.712 8.3225 7.832 8.9305 8.072C9.5385 8.312 10.0585 8.656 10.4905 9.104H13.8985V3.08C13.8985 1.992 14.4585 1.448 15.5785 1.448C16.6985 1.448 17.2585 1.992 17.2585 3.08V21.152C17.2585 22.24 16.6985 22.784 15.5785 22.784C14.4585 22.784 13.8985 22.24 13.8985 21.152V17.168H10.8745C10.4425 17.744 9.8825 18.192 9.1945 18.512C8.5225 18.832 7.7305 18.992 6.8185 18.992ZM21.6265 21.824C21.6265 22.368 21.4745 22.776 21.1705 23.048C20.8825 23.336 20.4665 23.48 19.9225 23.48C19.3785 23.48 18.9545 23.336 18.6505 23.048C18.3625 22.776 18.2185 22.368 18.2185 21.824V2.864C18.2185 2.32 18.3625 1.912 18.6505 1.64C18.9545 1.352 19.3785 1.208 19.9225 1.208C20.4665 1.208 20.8825 1.352 21.1705 1.64C21.4745 1.912 21.6265 2.32 21.6265 2.864V21.824ZM4.9465 2.48C4.9465 1.904 5.1145 1.472 5.4505 1.184C5.7865 0.879999 6.2425 0.727999 6.8185 0.727999C7.3945 0.727999 7.8505 0.879999 8.1865 1.184C8.5385 1.472 8.7145 1.904 8.7145 2.48V4.064H11.0905C11.6345 4.064 12.0425 4.2 12.3145 4.472C12.6025 4.744 12.7465 5.104 12.7465 5.552C12.7465 6 12.6025 6.36 12.3145 6.632C12.0425 6.904 11.6345 7.04 11.0905 7.04H2.3305C1.7865 7.04 1.3705 6.904 1.0825 6.632C0.810503 6.36 0.674503 6 0.674503 5.552C0.674503 5.104 0.810503 4.744 1.0825 4.472C1.3705 4.2 1.7865 4.064 2.3305 4.064H4.9465V2.48ZM6.8185 10.64C6.5145 10.64 6.2505 10.712 6.0265 10.856C5.8185 11 5.6425 11.2 5.4985 11.456C5.3545 11.696 5.2425 11.984 5.1625 12.32C5.0985 12.64 5.0665 12.984 5.0665 13.352C5.0665 13.72 5.0985 14.072 5.1625 14.408C5.2425 14.728 5.3545 15.016 5.4985 15.272C5.6425 15.512 5.8185 15.704 6.0265 15.848C6.2505 15.992 6.5145 16.064 6.8185 16.064C7.4105 16.064 7.8505 15.8 8.1385 15.272C8.4265 14.744 8.5705 14.104 8.5705 13.352C8.5705 12.984 8.5305 12.64 8.4505 12.32C8.3865 11.984 8.2825 11.696 8.1385 11.456C7.9945 11.2 7.8105 11 7.5865 10.856C7.3785 10.712 7.1225 10.64 6.8185 10.64ZM11.9785 13.352C11.9785 13.736 11.9545 14.096 11.9065 14.432H13.8985V11.84H11.8345C11.9305 12.32 11.9785 12.824 11.9785 13.352ZM33.8119 13.4C33.1239 13.48 32.3639 13.544 31.5319 13.592C30.6999 13.64 29.9239 13.664 29.2039 13.664H27.3799C26.5959 13.664 26.0279 13.496 25.6759 13.16C25.3399 12.824 25.1719 12.264 25.1719 11.48V3.848C25.1719 3.064 25.3399 2.504 25.6759 2.168C26.0279 1.816 26.5959 1.64 27.3799 1.64H32.7079C33.1719 1.64 33.5319 1.768 33.7879 2.024C34.0599 2.264 34.1959 2.616 34.1959 3.08C34.1959 3.544 34.0599 3.904 33.7879 4.16C33.5319 4.4 33.1719 4.52 32.7079 4.52H28.7479C28.6199 4.52 28.5399 4.544 28.5079 4.592C28.4759 4.64 28.4599 4.712 28.4599 4.808V6.272H32.5159C33.4759 6.272 33.9559 6.736 33.9559 7.664C33.9559 8.128 33.8279 8.48 33.5719 8.72C33.3319 8.944 32.9799 9.056 32.5159 9.056H28.4599V10.472C28.4599 10.6 28.4759 10.688 28.5079 10.736C28.5559 10.768 28.6359 10.784 28.7479 10.784H30.4039C30.8999 10.784 31.4279 10.768 31.9879 10.736C32.5639 10.688 33.0599 10.648 33.4759 10.616C33.9079 10.584 34.2679 10.656 34.5559 10.832C34.8599 10.992 35.0439 11.304 35.1079 11.768C35.1719 12.232 35.0759 12.608 34.8199 12.896C34.5799 13.184 34.2439 13.352 33.8119 13.4ZM35.8039 3.056C35.8039 2.544 35.9479 2.152 36.2359 1.88C36.5399 1.592 36.9479 1.448 37.4599 1.448C37.9719 1.448 38.3719 1.592 38.6599 1.88C38.9639 2.152 39.1159 2.544 39.1159 3.056V5.864H40.6039V2.84C40.6039 2.328 40.7559 1.928 41.0599 1.64C41.3639 1.352 41.7719 1.208 42.2839 1.208C42.7959 1.208 43.1959 1.352 43.4839 1.64C43.7879 1.928 43.9399 2.328 43.9399 2.84V12.224C43.9399 12.736 43.7879 13.136 43.4839 13.424C43.1959 13.696 42.7959 13.832 42.2839 13.832C41.7719 13.832 41.3639 13.696 41.0599 13.424C40.7559 13.136 40.6039 12.736 40.6039 12.224V8.696H39.1159V12.176C39.1159 12.688 38.9719 13.088 38.6839 13.376C38.3959 13.648 37.9879 13.784 37.4599 13.784C36.9479 13.784 36.5399 13.648 36.2359 13.376C35.9479 13.088 35.8039 12.688 35.8039 12.176V3.056ZM40.0999 18.464C40.0999 18.352 40.0839 18.28 40.0519 18.248C40.0359 18.216 39.9639 18.2 39.8359 18.2H29.3239C28.8599 18.2 28.4599 18.064 28.1239 17.792C27.8039 17.52 27.6439 17.128 27.6439 16.616C27.6439 16.104 27.8039 15.712 28.1239 15.44C28.4599 15.168 28.8599 15.032 29.3239 15.032H41.8039C42.6039 15.032 43.1559 15.184 43.4599 15.488C43.7799 15.776 43.9399 16.32 43.9399 17.12V21.728C43.9399 22.288 43.7559 22.72 43.3879 23.024C43.0359 23.328 42.5799 23.48 42.0199 23.48C41.4599 23.48 40.9959 23.328 40.6279 23.024C40.2759 22.72 40.0999 22.288 40.0999 21.728V18.464ZM54.2181 20.72C53.6741 20.72 53.2501 20.584 52.9461 20.312C52.6421 20.04 52.4901 19.632 52.4901 19.088C52.4901 18.544 52.6421 18.136 52.9461 17.864C53.2501 17.592 53.6741 17.456 54.2181 17.456H61.2981V13.904H57.6261C56.0421 13.904 55.2501 13.128 55.2501 11.576V4.664C55.2501 3.112 56.0421 2.336 57.6261 2.336H68.8341C70.4021 2.336 71.1861 3.112 71.1861 4.664V11.576C71.1861 13.128 70.4021 13.904 68.8341 13.904H65.1381V17.456H72.2181C72.7621 17.456 73.1861 17.592 73.4901 17.864C73.7941 18.136 73.9461 18.544 73.9461 19.088C73.9461 19.632 73.7941 20.04 73.4901 20.312C73.1861 20.584 72.7621 20.72 72.2181 20.72H54.2181ZM59.0181 10.328C59.0181 10.552 59.1301 10.664 59.3541 10.664H67.0821C67.2261 10.664 67.3221 10.64 67.3701 10.592C67.4181 10.544 67.4421 10.456 67.4421 10.328V5.912C67.4421 5.784 67.4181 5.696 67.3701 5.648C67.3221 5.6 67.2261 5.576 67.0821 5.576H59.3541C59.1301 5.576 59.0181 5.688 59.0181 5.912V10.328ZM87.8116 9.992C87.8116 11.192 87.6836 12.28 87.4276 13.256C87.1716 14.216 86.7876 15.04 86.2756 15.728C85.7636 16.416 85.1076 16.952 84.3076 17.336C83.5236 17.704 82.6036 17.888 81.5476 17.888C80.4916 17.888 79.5636 17.704 78.7636 17.336C77.9796 16.952 77.3316 16.416 76.8196 15.728C76.3076 15.04 75.9236 14.216 75.6676 13.256C75.4116 12.28 75.2836 11.192 75.2836 9.992C75.2836 8.792 75.4116 7.712 75.6676 6.752C75.9236 5.776 76.3076 4.944 76.8196 4.256C77.3316 3.568 77.9796 3.04 78.7636 2.672C79.5636 2.288 80.4916 2.096 81.5476 2.096C82.6036 2.096 83.5236 2.288 84.3076 2.672C85.1076 3.04 85.7636 3.568 86.2756 4.256C86.7876 4.944 87.1716 5.776 87.4276 6.752C87.6836 7.712 87.8116 8.792 87.8116 9.992ZM90.1396 2.96C90.1396 2.4 90.3156 1.968 90.6676 1.664C91.0356 1.36 91.4996 1.208 92.0596 1.208C92.6196 1.208 93.0756 1.36 93.4276 1.664C93.7956 1.968 93.9796 2.4 93.9796 2.96V8.168H95.6836C96.1956 8.168 96.6036 8.304 96.9076 8.576C97.2276 8.848 97.3876 9.264 97.3876 9.824C97.3876 10.368 97.2276 10.776 96.9076 11.048C96.6036 11.32 96.1956 11.456 95.6836 11.456H93.9796V21.728C93.9796 22.288 93.7956 22.72 93.4276 23.024C93.0756 23.328 92.6196 23.48 92.0596 23.48C91.4996 23.48 91.0356 23.328 90.6676 23.024C90.3156 22.72 90.1396 22.288 90.1396 21.728V2.96ZM81.5476 14.672C82.0276 14.672 82.4276 14.552 82.7476 14.312C83.0676 14.056 83.3236 13.72 83.5156 13.304C83.7236 12.888 83.8676 12.4 83.9476 11.84C84.0276 11.264 84.0676 10.648 84.0676 9.992C84.0676 9.352 84.0276 8.744 83.9476 8.168C83.8676 7.592 83.7236 7.096 83.5156 6.68C83.3236 6.264 83.0676 5.936 82.7476 5.696C82.4276 5.44 82.0276 5.312 81.5476 5.312C81.0676 5.312 80.6676 5.44 80.3476 5.696C80.0276 5.936 79.7636 6.264 79.5556 6.68C79.3636 7.096 79.2276 7.592 79.1476 8.168C79.0676 8.744 79.0276 9.352 79.0276 9.992C79.0276 10.648 79.0676 11.264 79.1476 11.84C79.2276 12.4 79.3636 12.888 79.5556 13.304C79.7636 13.72 80.0276 14.056 80.3476 14.312C80.6676 14.552 81.0676 14.672 81.5476 14.672ZM99.565 20.72C99.021 20.72 98.597 20.584 98.293 20.312C97.989 20.04 97.837 19.632 97.837 19.088C97.837 18.544 97.989 18.136 98.293 17.864C98.597 17.592 99.021 17.456 99.565 17.456H106.645V14.024H103.021C102.237 14.024 101.637 13.84 101.221 13.472C100.805 13.104 100.597 12.528 100.597 11.744V3.92C100.597 3.376 100.773 2.96 101.125 2.672C101.493 2.368 101.941 2.216 102.469 2.216C103.013 2.216 103.461 2.368 103.813 2.672C104.165 2.96 104.341 3.376 104.341 3.92V5.528H112.813V3.92C112.813 3.376 112.989 2.96 113.341 2.672C113.693 2.368 114.141 2.216 114.685 2.216C115.229 2.216 115.669 2.368 116.005 2.672C116.357 2.96 116.533 3.376 116.533 3.92V11.744C116.533 13.264 115.733 14.024 114.133 14.024H110.485V17.456H117.565C118.109 17.456 118.533 17.592 118.837 17.864C119.141 18.136 119.293 18.544 119.293 19.088C119.293 19.632 119.141 20.04 118.837 20.312C118.533 20.584 118.109 20.72 117.565 20.72H99.565ZM104.341 8.456V10.784C104.341 10.912 104.357 10.992 104.389 11.024C104.421 11.056 104.501 11.072 104.629 11.072H112.525C112.653 11.072 112.733 11.056 112.765 11.024C112.797 10.992 112.813 10.912 112.813 10.784V8.456H104.341ZM136.446 2.96C136.446 2.4 136.622 1.968 136.974 1.664C137.342 1.36 137.806 1.208 138.366 1.208C138.926 1.208 139.382 1.36 139.734 1.664C140.102 1.968 140.286 2.4 140.286 2.96V21.728C140.286 22.288 140.102 22.72 139.734 23.024C139.382 23.328 138.926 23.48 138.366 23.48C137.806 23.48 137.342 23.328 136.974 23.024C136.622 22.72 136.446 22.288 136.446 21.728V2.96ZM123.438 5.552C122.926 5.552 122.526 5.416 122.238 5.144C121.966 4.856 121.83 4.456 121.83 3.944C121.83 3.432 121.966 3.04 122.238 2.768C122.526 2.48 122.926 2.336 123.438 2.336H130.446C132.046 2.336 132.846 3.112 132.846 4.664V5.984C132.846 7.344 132.622 8.624 132.174 9.824C131.742 11.024 131.126 12.136 130.326 13.16C129.542 14.184 128.598 15.112 127.494 15.944C126.39 16.776 125.182 17.504 123.87 18.128C123.422 18.336 122.958 18.4 122.478 18.32C122.014 18.24 121.646 17.944 121.374 17.432C121.15 17.016 121.094 16.576 121.206 16.112C121.334 15.632 121.654 15.256 122.166 14.984C123.19 14.44 124.118 13.88 124.95 13.304C125.798 12.712 126.518 12.08 127.11 11.408C127.718 10.736 128.182 10.016 128.502 9.248C128.838 8.48 129.006 7.648 129.006 6.752V6.104C129.006 5.88 128.974 5.736 128.91 5.672C128.846 5.592 128.694 5.552 128.454 5.552H123.438Z" fill="white"/>
<path d="M4.5865 18.584L5.75993 15.823V15.823L4.5865 18.584ZM1.9945 15.656L4.84712 14.7272L1.9945 15.656ZM1.9945 11.072L4.84712 12.0008L4.85023 11.9912L4.85328 11.9816L1.9945 11.072ZM2.9785 9.272L0.716259 7.30166L0.716258 7.30166L2.9785 9.272ZM4.5865 8.12L3.41308 5.35901L3.41308 5.35901L4.5865 8.12ZM8.9305 8.072L7.829 10.8625L7.829 10.8625L8.9305 8.072ZM10.4905 9.104L8.33097 11.1864L9.21579 12.104H10.4905V9.104ZM13.8985 9.104V12.104H16.8985V9.104H13.8985ZM13.8985 17.168H16.8985V14.168H13.8985V17.168ZM10.8745 17.168V14.168H9.3745L8.4745 15.368L10.8745 17.168ZM9.1945 18.512L7.92931 15.7918L7.91698 15.7976L7.9047 15.8034L9.1945 18.512ZM21.1705 23.048L19.1701 20.8123L19.1081 20.8678L19.0492 20.9267L21.1705 23.048ZM18.6505 23.048L20.7137 20.8701L20.7104 20.867L18.6505 23.048ZM18.6505 1.64L20.7104 3.82104L20.7137 3.81786L18.6505 1.64ZM21.1705 1.64L19.0492 3.76132L19.1081 3.8202L19.1701 3.87572L21.1705 1.64ZM5.4505 1.184L7.40288 3.46177L7.43342 3.43559L7.46324 3.40861L5.4505 1.184ZM8.1865 1.184L6.17376 3.40861L6.22907 3.45864L6.28679 3.50587L8.1865 1.184ZM8.7145 4.064H5.7145V7.064H8.7145V4.064ZM12.3145 4.472L10.1932 6.59332L10.2235 6.62362L10.2546 6.65304L12.3145 4.472ZM12.3145 6.632L10.2546 4.45096L10.2235 4.48038L10.1932 4.51068L12.3145 6.632ZM1.0825 6.632L-1.03881 8.75332L-1.00852 8.78362L-0.977369 8.81304L1.0825 6.632ZM1.0825 4.472L-0.977369 2.29096L-1.00852 2.32038L-1.03881 2.35068L1.0825 4.472ZM4.9465 4.064V7.064H7.9465V4.064H4.9465ZM6.0265 10.856L4.40423 8.33247L4.36106 8.36021L4.31887 8.38942L6.0265 10.856ZM5.4985 11.456L8.07098 12.9995L8.09262 12.9634L8.11323 12.9268L5.4985 11.456ZM5.1625 12.32L2.24408 11.6251L2.23145 11.6782L2.22076 11.7317L5.1625 12.32ZM5.1625 14.408L2.21549 14.9693L2.23142 15.053L2.25208 15.1356L5.1625 14.408ZM5.4985 15.272L2.88378 16.7428L2.90439 16.7794L2.92602 16.8155L5.4985 15.272ZM6.0265 15.848L4.31887 18.3146L4.36106 18.3438L4.40423 18.3715L6.0265 15.848ZM8.1385 15.272L5.50482 13.8354L5.50482 13.8354L8.1385 15.272ZM8.4505 12.32L5.50349 12.8813L5.51942 12.965L5.54008 13.0476L8.4505 12.32ZM8.1385 11.456L5.52377 12.9268L5.54439 12.9634L5.56603 12.9995L8.1385 11.456ZM7.5865 10.856L5.87887 13.3226L5.92107 13.3518L5.96423 13.3795L7.5865 10.856ZM11.9065 14.432L8.93666 14.0077L8.44748 17.432H11.9065V14.432ZM13.8985 14.432V17.432H16.8985V14.432H13.8985ZM13.8985 11.84H16.8985V8.84H13.8985V11.84ZM11.8345 11.84V8.84H8.17509L8.89276 12.4283L11.8345 11.84ZM6.8185 15.992C6.28748 15.992 5.95692 15.9067 5.75993 15.823L3.41308 21.345C4.49609 21.8053 5.65353 21.992 6.8185 21.992V15.992ZM5.75993 15.823C5.51353 15.7183 5.35734 15.5955 5.24075 15.4617L0.716258 19.4023C1.46367 20.2605 2.37948 20.9057 3.41308 21.345L5.75993 15.823ZM5.24075 15.4617C5.09891 15.2988 4.95886 15.0705 4.84712 14.7272L-0.858111 16.5848C-0.521854 17.6175 -0.00590116 18.5732 0.716258 19.4023L5.24075 15.4617ZM4.84712 14.7272C4.7359 14.3856 4.6585 13.9375 4.6585 13.352H-1.3415C-1.3415 14.4625 -1.19489 15.5504 -0.858111 16.5848L4.84712 14.7272ZM4.6585 13.352C4.6585 12.789 4.73415 12.3477 4.84712 12.0008L-0.858111 10.1432C-1.19315 11.1723 -1.3415 12.251 -1.3415 13.352H4.6585ZM4.85328 11.9816C4.96831 11.6201 5.10928 11.3933 5.24075 11.2423L0.716258 7.30166C-0.0162698 8.14271 -0.531301 9.1159 -0.864274 10.1624L4.85328 11.9816ZM5.24075 11.2423C5.35734 11.1085 5.51353 10.9857 5.75993 10.881L3.41308 5.35901C2.37948 5.79829 1.46367 6.44352 0.716259 7.30166L5.24075 11.2423ZM5.75992 10.881C5.95692 10.7973 6.28748 10.712 6.8185 10.712V4.712C5.65353 4.712 4.49609 4.89873 3.41308 5.35901L5.75992 10.881ZM6.8185 10.712C7.32332 10.712 7.64061 10.7881 7.829 10.8625L10.032 5.28153C9.0044 4.8759 7.91369 4.712 6.8185 4.712V10.712ZM7.829 10.8625C8.05826 10.953 8.21188 11.0629 8.33097 11.1864L12.65 7.02159C11.9051 6.2491 11.0188 5.67104 10.032 5.28153L7.829 10.8625ZM10.4905 12.104H13.8985V6.104H10.4905V12.104ZM16.8985 9.104V3.08H10.8985V9.104H16.8985ZM16.8985 3.08C16.8985 3.02087 16.9086 3.52234 16.4089 4.00784C15.9252 4.47765 15.4595 4.448 15.5785 4.448V-1.552C14.5775 -1.552 13.2718 -1.30965 12.2281 -0.295839C11.1684 0.733656 10.8985 2.05113 10.8985 3.08H16.8985ZM15.5785 4.448C15.6975 4.448 15.2318 4.47765 14.7481 4.00784C14.2484 3.52234 14.2585 3.02087 14.2585 3.08H20.2585C20.2585 2.05113 19.9886 0.733655 18.9289 -0.29584C17.8852 -1.30965 16.5795 -1.552 15.5785 -1.552V4.448ZM14.2585 3.08V21.152H20.2585V3.08H14.2585ZM14.2585 21.152C14.2585 21.2111 14.2484 20.7097 14.7481 20.2242C15.2318 19.7543 15.6975 19.784 15.5785 19.784V25.784C16.5795 25.784 17.8852 25.5417 18.9289 24.5278C19.9886 23.4983 20.2585 22.1809 20.2585 21.152H14.2585ZM15.5785 19.784C15.4595 19.784 15.9252 19.7543 16.4089 20.2242C16.9086 20.7097 16.8985 21.2111 16.8985 21.152H10.8985C10.8985 22.1809 11.1684 23.4983 12.2281 24.5278C13.2718 25.5417 14.5775 25.784 15.5785 25.784V19.784ZM16.8985 21.152V17.168H10.8985V21.152H16.8985ZM13.8985 14.168H10.8745V20.168H13.8985V14.168ZM8.4745 15.368C8.35524 15.527 8.19393 15.6688 7.92931 15.7918L10.4597 21.2322C11.5711 20.7152 12.5298 19.961 13.2745 18.968L8.4745 15.368ZM7.9047 15.8034C7.716 15.8933 7.38278 15.992 6.8185 15.992V21.992C8.07823 21.992 9.32901 21.7707 10.4843 21.2206L7.9047 15.8034ZM18.6265 21.824C18.6265 21.8214 18.6266 21.7893 18.6355 21.7335C18.6445 21.6771 18.6631 21.5932 18.7013 21.4907C18.7834 21.2702 18.9351 21.0225 19.1701 20.8123L23.1709 25.2837C24.3044 24.2696 24.6265 22.9221 24.6265 21.824H18.6265ZM19.0492 20.9267C19.2517 20.7242 19.4754 20.6014 19.6612 20.537C19.8332 20.4775 19.9362 20.48 19.9225 20.48V26.48C20.9864 26.48 22.2724 26.1888 23.2918 25.1693L19.0492 20.9267ZM19.9225 20.48C19.9105 20.48 20.004 20.478 20.1613 20.5314C20.33 20.5887 20.5302 20.6963 20.7137 20.8701L16.5873 25.2259C17.5998 26.1851 18.8483 26.48 19.9225 26.48V20.48ZM20.7104 20.867C20.9443 21.0879 21.0837 21.3361 21.1555 21.5395C21.2215 21.7267 21.2185 21.8396 21.2185 21.824H15.2185C15.2185 22.8756 15.5052 24.2039 16.5906 25.229L20.7104 20.867ZM21.2185 21.824V2.864H15.2185V21.824H21.2185ZM21.2185 2.864C21.2185 2.84837 21.2215 2.96129 21.1555 3.14846C21.0837 3.3519 20.9443 3.60012 20.7104 3.82104L16.5906 -0.54104C15.5052 0.484087 15.2185 1.81236 15.2185 2.864H21.2185ZM20.7137 3.81786C20.5302 3.99171 20.33 4.09933 20.1613 4.15664C20.004 4.21004 19.9105 4.208 19.9225 4.208V-1.792C18.8483 -1.792 17.5998 -1.4971 16.5873 -0.537858L20.7137 3.81786ZM19.9225 4.208C19.9362 4.208 19.8332 4.2105 19.6612 4.15096C19.4754 4.08665 19.2517 3.96384 19.0492 3.76132L23.2918 -0.481321C22.2724 -1.50078 20.9864 -1.792 19.9225 -1.792V4.208ZM19.1701 3.87572C18.9351 3.66548 18.7834 3.41779 18.7013 3.19733C18.6631 3.09479 18.6445 3.01089 18.6355 2.9545C18.6266 2.89866 18.6265 2.8666 18.6265 2.864H24.6265C24.6265 1.76593 24.3044 0.41844 23.1709 -0.595724L19.1701 3.87572ZM18.6265 2.864V21.824H24.6265V2.864H18.6265ZM7.9465 2.48C7.9465 2.48077 7.94652 2.51218 7.93719 2.5682C7.92773 2.6249 7.9083 2.70904 7.86852 2.81134C7.78233 3.03296 7.62774 3.26903 7.40288 3.46177L3.49813 -1.09377C2.30926 -0.074737 1.9465 1.31042 1.9465 2.48H7.9465ZM7.46324 3.40861C7.30489 3.55188 7.13469 3.64088 6.99319 3.68805C6.86155 3.73193 6.79095 3.728 6.8185 3.728V-2.272C5.7074 -2.272 4.4627 -1.96793 3.43776 -1.04061L7.46324 3.40861ZM6.8185 3.728C6.84606 3.728 6.77546 3.73193 6.64382 3.68805C6.50232 3.64088 6.33212 3.55188 6.17376 3.40861L10.1992 -1.04061C9.17431 -1.96793 7.92961 -2.272 6.8185 -2.272V3.728ZM6.28679 3.50587C6.06498 3.32439 5.90012 3.09127 5.80423 2.85589C5.71582 2.6389 5.7145 2.49181 5.7145 2.48H11.7145C11.7145 1.2649 11.314 -0.133319 10.0862 -1.13787L6.28679 3.50587ZM5.7145 2.48V4.064H11.7145V2.48H5.7145ZM8.7145 7.064H11.0905V1.064H8.7145V7.064ZM11.0905 7.064C11.1721 7.064 10.6822 7.08236 10.1932 6.59332L14.4358 2.35068C13.4028 1.31764 12.0969 1.064 11.0905 1.064V7.064ZM10.2546 6.65304C10.0893 6.49693 9.94626 6.29314 9.85307 6.06017C9.76308 5.83518 9.7465 5.65105 9.7465 5.552H15.7465C15.7465 4.39746 15.3437 3.20643 14.3744 2.29096L10.2546 6.65304ZM9.7465 5.552C9.7465 5.45295 9.76308 5.26882 9.85307 5.04383C9.94626 4.81086 10.0893 4.60707 10.2546 4.45096L14.3744 8.81304C15.3437 7.89757 15.7465 6.70654 15.7465 5.552H9.7465ZM10.1932 4.51068C10.6822 4.02164 11.1721 4.04 11.0905 4.04V10.04C12.0969 10.04 13.4028 9.78636 14.4358 8.75332L10.1932 4.51068ZM11.0905 4.04H2.3305V10.04H11.0905V4.04ZM2.3305 4.04C2.26277 4.04 2.69353 4.02705 3.14237 4.45096L-0.977369 8.81304C0.047477 9.78095 1.31024 10.04 2.3305 10.04V4.04ZM3.20382 4.51068C3.36904 4.67589 3.50051 4.87966 3.58292 5.0978C3.66206 5.30729 3.6745 5.47225 3.6745 5.552H-2.3255C-2.3255 6.65412 -1.96617 7.82597 -1.03881 8.75332L3.20382 4.51068ZM3.6745 5.552C3.6745 5.63175 3.66206 5.79671 3.58292 6.0062C3.50051 6.22434 3.36904 6.42811 3.20382 6.59332L-1.03881 2.35068C-1.96617 3.27803 -2.3255 4.44987 -2.3255 5.552H3.6745ZM3.14237 6.65304C2.69353 7.07695 2.26277 7.064 2.3305 7.064V1.064C1.31024 1.064 0.047477 1.32305 -0.977369 2.29096L3.14237 6.65304ZM2.3305 7.064H4.9465V1.064H2.3305V7.064ZM7.9465 4.064V2.48H1.9465V4.064H7.9465ZM6.8185 7.64C6.02287 7.64 5.17796 7.83507 4.40423 8.33247L7.64878 13.3795C7.32305 13.5889 7.00614 13.64 6.8185 13.64V7.64ZM4.31887 8.38942C3.68116 8.83091 3.21492 9.39651 2.88378 9.98522L8.11323 12.9268C8.07009 13.0035 7.95584 13.1691 7.73413 13.3226L4.31887 8.38942ZM2.92603 9.91251C2.59198 10.4692 2.37928 11.0573 2.24408 11.6251L8.08092 13.0149C8.09279 12.965 8.10164 12.9416 8.10252 12.9393C8.1033 12.9373 8.09472 12.9599 8.07098 12.9995L2.92603 9.91251ZM2.22076 11.7317C2.11347 12.2681 2.0665 12.811 2.0665 13.352H8.0665C8.0665 13.157 8.08353 13.0119 8.10425 12.9083L2.22076 11.7317ZM2.0665 13.352C2.0665 13.8942 2.1137 14.4349 2.21549 14.9693L8.10952 13.8467C8.08331 13.7091 8.0665 13.5458 8.0665 13.352H2.0665ZM2.25208 15.1356C2.38918 15.684 2.59351 16.2267 2.88378 16.7428L8.11323 13.8012C8.1155 13.8053 8.09583 13.772 8.07293 13.6804L2.25208 15.1356ZM2.92602 16.8155C3.26592 17.382 3.72455 17.9031 4.31887 18.3146L7.73413 13.3814C7.91245 13.5049 8.01908 13.642 8.07098 13.7285L2.92602 16.8155ZM4.40423 18.3715C5.17796 18.8689 6.02287 19.064 6.8185 19.064V13.064C7.00614 13.064 7.32305 13.1151 7.64878 13.3245L4.40423 18.3715ZM6.8185 19.064C7.57327 19.064 8.38191 18.8909 9.13599 18.4385C9.88758 17.9875 10.4169 17.36 10.7722 16.7086L5.50482 13.8354C5.57215 13.712 5.73743 13.4805 6.04902 13.2935C6.3631 13.1051 6.65574 13.064 6.8185 13.064V19.064ZM10.7722 16.7086C11.3535 15.6428 11.5705 14.4824 11.5705 13.352H5.5705C5.5705 13.538 5.55258 13.6623 5.53567 13.7375C5.52732 13.7746 5.51928 13.7995 5.51379 13.8143C5.50838 13.829 5.50491 13.8353 5.50482 13.8354L10.7722 16.7086ZM11.5705 13.352C11.5705 12.7666 11.5068 12.1759 11.3609 11.5924L5.54008 13.0476C5.55419 13.104 5.5705 13.2014 5.5705 13.352H11.5705ZM11.3975 11.7587C11.2816 11.1503 11.072 10.5142 10.711 9.91251L5.56603 12.9995C5.49304 12.8778 5.49137 12.8177 5.50349 12.8813L11.3975 11.7587ZM10.7532 9.98522C10.3944 9.34737 9.88568 8.76762 9.20878 8.33246L5.96423 13.3795C5.73533 13.2324 5.59456 13.0526 5.52377 12.9268L10.7532 9.98522ZM9.29413 8.38942C8.49039 7.83298 7.60737 7.64 6.8185 7.64V13.64C6.63763 13.64 6.26662 13.591 5.87887 13.3226L9.29413 8.38942ZM8.9785 13.352C8.9785 13.6122 8.96217 13.8291 8.93666 14.0077L14.8764 14.8563C14.9468 14.3629 14.9785 13.8598 14.9785 13.352H8.9785ZM11.9065 17.432H13.8985V11.432H11.9065V17.432ZM16.8985 14.432V11.84H10.8985V14.432H16.8985ZM13.8985 8.84H11.8345V14.84H13.8985V8.84ZM8.89276 12.4283C8.94712 12.7001 8.9785 13.0062 8.9785 13.352H14.9785C14.9785 12.6418 14.9139 11.9399 14.7762 11.2517L8.89276 12.4283ZM33.8119 13.4L33.4806 10.4183L33.473 10.4192L33.4654 10.4201L33.8119 13.4ZM31.5319 13.592L31.3592 10.597H31.3591L31.5319 13.592ZM25.6759 13.16L23.5546 15.2813L23.5793 15.306L23.6045 15.3301L25.6759 13.16ZM25.6759 2.168L27.7973 4.28932L27.7973 4.28932L25.6759 2.168ZM33.7879 2.024L31.6666 4.14532L31.7328 4.21155L31.8031 4.27352L33.7879 2.024ZM33.7879 4.16L35.8398 6.34862L35.844 6.3446L33.7879 4.16ZM28.5079 4.592L31.0041 6.25612L31.0041 6.25609L28.5079 4.592ZM28.4599 6.272H25.4599V9.272H28.4599V6.272ZM33.5719 8.72L35.6189 10.9132L35.6238 10.9086L33.5719 8.72ZM28.4599 9.056V6.056H25.4599V9.056H28.4599ZM28.5079 10.736L26.0118 12.4001L26.3446 12.8993L26.8438 13.2321L28.5079 10.736ZM31.9879 10.736L32.1591 13.7311L32.1981 13.7289L32.2371 13.7256L31.9879 10.736ZM33.4759 10.616L33.2543 7.62418L33.2458 7.62484L33.4759 10.616ZM34.5559 10.832L32.9916 13.3918L33.0736 13.442L33.1587 13.4868L34.5559 10.832ZM35.1079 11.768L38.0798 11.3581L35.1079 11.768ZM34.8199 12.896L32.5777 10.9029L32.5459 10.9387L32.5153 10.9754L34.8199 12.896ZM36.2359 1.88L38.2958 4.06104L38.2992 4.05786L36.2359 1.88ZM38.6599 1.88L36.5386 4.00132L36.5975 4.0602L36.6596 4.11572L38.6599 1.88ZM39.1159 5.864H36.1159V8.864H39.1159V5.864ZM40.6039 5.864V8.864H43.6039V5.864H40.6039ZM43.4839 1.64L41.3626 3.76132L41.3913 3.78998L41.4207 3.81786L43.4839 1.64ZM43.4839 13.424L45.5438 15.605L45.5472 15.6019L43.4839 13.424ZM41.0599 13.424L38.9967 15.6019L39.0277 15.6312L39.0596 15.6597L41.0599 13.424ZM40.6039 8.696H43.6039V5.696H40.6039V8.696ZM39.1159 8.696V5.696H36.1159V8.696H39.1159ZM38.6839 13.376L40.7438 15.557L40.775 15.5276L40.8053 15.4973L38.6839 13.376ZM36.2359 13.376L34.1146 15.4973L34.1735 15.5562L34.2356 15.6117L36.2359 13.376ZM40.0519 18.248L37.3687 19.5897L37.5864 20.0251L37.9306 20.3693L40.0519 18.248ZM28.1239 17.792L26.181 20.0778L26.2084 20.1011L26.2363 20.1237L28.1239 17.792ZM28.1239 15.44L26.2363 13.1083L26.2084 13.1309L26.181 13.1542L28.1239 15.44ZM43.4599 15.488L41.3386 17.6093L41.3944 17.6651L41.453 17.7179L43.4599 15.488ZM43.3879 23.024L41.4773 20.7111L41.452 20.732L41.4271 20.7535L43.3879 23.024ZM40.6279 23.024L38.6671 25.2945L38.692 25.316L38.7173 25.3369L40.6279 23.024ZM33.4654 10.4201C32.8454 10.4922 32.1443 10.5517 31.3592 10.597L31.7047 16.587C32.5836 16.5363 33.4025 16.4678 34.1584 16.3799L33.4654 10.4201ZM31.3591 10.597C30.576 10.6422 29.8582 10.664 29.2039 10.664V16.664C29.9897 16.664 30.8239 16.6378 31.7047 16.587L31.3591 10.597ZM29.2039 10.664H27.3799V16.664H29.2039V10.664ZM27.3799 10.664C27.1889 10.664 27.1519 10.642 27.2168 10.6612C27.292 10.6834 27.5114 10.7647 27.7474 10.9899L23.6045 15.3301C24.7716 16.4441 26.2737 16.664 27.3799 16.664V10.664ZM27.7973 11.0387C28.0523 11.2938 28.1452 11.5386 28.1714 11.626C28.1943 11.7023 28.1719 11.6727 28.1719 11.48H22.1719C22.1719 12.5685 22.3844 14.1111 23.5546 15.2813L27.7973 11.0387ZM28.1719 11.48V3.848H22.1719V11.48H28.1719ZM28.1719 3.848C28.1719 3.65528 28.1943 3.62565 28.1714 3.70204C28.1452 3.78939 28.0523 4.03424 27.7973 4.28932L23.5546 0.0466771C22.3844 1.21686 22.1719 2.75946 22.1719 3.848H28.1719ZM27.7973 4.28932C27.5676 4.51893 27.3453 4.60927 27.2539 4.63758C27.1755 4.66187 27.1991 4.64 27.3799 4.64V-1.36C26.2434 -1.36 24.7198 -1.11846 23.5546 0.04668L27.7973 4.28932ZM27.3799 4.64H32.7079V-1.36H27.3799V4.64ZM32.7079 4.64C32.6686 4.64 32.5243 4.63497 32.3209 4.56264C32.1048 4.48582 31.8711 4.34979 31.6666 4.14532L35.9093 -0.0973186C34.944 -1.06261 33.7329 -1.36 32.7079 -1.36V4.64ZM31.8031 4.27352C31.5633 4.06198 31.3938 3.80357 31.2955 3.5492C31.2036 3.31119 31.1959 3.13561 31.1959 3.08H37.1959C37.1959 2.01224 36.8607 0.734394 35.7728 -0.225516L31.8031 4.27352ZM31.1959 3.08C31.1959 3.02227 31.2042 2.85836 31.2875 2.6378C31.3758 2.40414 31.5252 2.16987 31.7318 1.9754L35.844 6.3446C36.8584 5.38995 37.1959 4.15706 37.1959 3.08H31.1959ZM31.7361 1.97139C32.1962 1.54007 32.6618 1.52 32.7079 1.52V7.52C33.6821 7.52 34.8677 7.25993 35.8398 6.34861L31.7361 1.97139ZM32.7079 1.52H28.7479V7.52H32.7079V1.52ZM28.7479 1.52C28.5298 1.52 28.1564 1.53655 27.7299 1.66452C27.3132 1.78953 26.556 2.11158 26.0118 2.92791L31.0041 6.25609C30.4919 7.02442 29.7907 7.31047 29.454 7.41148C29.1074 7.51544 28.8381 7.52 28.7479 7.52V1.52ZM26.0118 2.92788C25.4985 3.69784 25.4599 4.47342 25.4599 4.808H31.4599C31.4599 4.91722 31.4517 5.10232 31.4005 5.33279C31.3495 5.56214 31.2419 5.89936 31.0041 6.25612L26.0118 2.92788ZM25.4599 4.808V6.272H31.4599V4.808H25.4599ZM28.4599 9.272H32.5159V3.272H28.4599V9.272ZM32.5159 9.272C32.5157 9.272 32.5093 9.272 32.4974 9.27123C32.4855 9.27046 32.4671 9.26887 32.4431 9.26555C32.3955 9.25898 32.3206 9.24494 32.2259 9.21442C32.0277 9.15057 31.7622 9.01989 31.5109 8.77696C30.968 8.25217 30.9559 7.68877 30.9559 7.664H36.9559C36.9559 6.71123 36.7039 5.45183 35.681 4.46303C34.677 3.49252 33.4334 3.272 32.5159 3.272V9.272ZM30.9559 7.664C30.9559 7.62673 30.9604 7.47127 31.0406 7.25077C31.1264 7.01467 31.2815 6.75508 31.5201 6.53139L35.6238 10.9086C36.6623 9.93494 36.9559 8.67747 36.9559 7.664H30.9559ZM31.525 6.52683C31.7687 6.29941 32.0239 6.17509 32.2183 6.11322C32.4006 6.05523 32.5147 6.056 32.5159 6.056V12.056C33.4254 12.056 34.6298 11.8364 35.6189 10.9132L31.525 6.52683ZM32.5159 6.056H28.4599V12.056H32.5159V6.056ZM25.4599 9.056V10.472H31.4599V9.056H25.4599ZM25.4599 10.472C25.4599 10.6461 25.4697 10.892 25.5203 11.1707C25.5655 11.419 25.6784 11.9 26.0118 12.4001L31.0041 9.07191C31.3055 9.52398 31.3944 9.93704 31.4235 10.0973C31.4582 10.288 31.4599 10.4259 31.4599 10.472H25.4599ZM26.8438 13.2321C27.6665 13.7806 28.5111 13.784 28.7479 13.784V7.784C28.8221 7.784 28.9821 7.78821 29.1923 7.83026C29.3893 7.86965 29.7648 7.96834 30.172 8.23985L26.8438 13.2321ZM28.7479 13.784H30.4039V7.784H28.7479V13.784ZM30.4039 13.784C30.9638 13.784 31.5493 13.766 32.1591 13.7311L31.8168 7.74089C31.3066 7.77004 30.8361 7.784 30.4039 7.784V13.784ZM32.2371 13.7256C32.8089 13.678 33.2983 13.6385 33.706 13.6072L33.2458 7.62484C32.8216 7.65747 32.3189 7.69802 31.7388 7.74636L32.2371 13.7256ZM33.6976 13.6078C33.6813 13.609 33.3733 13.6251 32.9916 13.3918L36.1203 8.27215C35.1626 7.68691 34.1346 7.55899 33.2543 7.6242L33.6976 13.6078ZM33.1587 13.4868C32.7905 13.2929 32.5127 13.0065 32.3378 12.71C32.1784 12.4396 32.1431 12.2291 32.1361 12.1779L38.0798 11.3581C37.9357 10.3135 37.4027 8.94016 35.9532 8.17725L33.1587 13.4868ZM32.1361 12.1779C32.1257 12.103 32.1115 11.9132 32.1772 11.6559C32.2468 11.3832 32.3852 11.1195 32.5777 10.9029L37.0622 14.8891C38.0258 13.805 38.2354 12.4863 38.0798 11.3581L32.1361 12.1779ZM32.5153 10.9754C32.6608 10.8008 32.8449 10.6554 33.0463 10.5547C33.2403 10.4577 33.3992 10.4274 33.4806 10.4183L34.1432 16.3817C35.2134 16.2627 36.3096 15.7946 37.1246 14.8166L32.5153 10.9754ZM38.8039 3.056C38.8039 3.07587 38.8017 3.21178 38.728 3.41245C38.6489 3.62773 38.5074 3.86118 38.2958 4.06104L34.1761 -0.30104C33.1252 0.691443 32.8039 1.97303 32.8039 3.056H38.8039ZM38.2992 4.05786C38.1356 4.21283 37.9475 4.32174 37.7684 4.38497C37.5989 4.44478 37.4832 4.448 37.4599 4.448V-1.552C36.3607 -1.552 35.1524 -1.22597 34.1727 -0.297859L38.2992 4.05786ZM37.4599 4.448C37.4382 4.448 37.3127 4.44521 37.1278 4.37866C36.9309 4.3078 36.7206 4.18333 36.5386 4.00132L40.7813 -0.241322C39.7946 -1.22799 38.5519 -1.552 37.4599 -1.552V4.448ZM36.6596 4.11572C36.4479 3.92634 36.2945 3.69375 36.2049 3.46258C36.121 3.24644 36.1159 3.09254 36.1159 3.056H42.1159C42.1159 1.92437 41.756 0.624649 40.6603 -0.355724L36.6596 4.11572ZM36.1159 3.056V5.864H42.1159V3.056H36.1159ZM39.1159 8.864H40.6039V2.864H39.1159V8.864ZM43.6039 5.864V2.84H37.6039V5.864H43.6039ZM43.6039 2.84C43.6039 2.87836 43.5983 3.02161 43.5223 3.22165C43.4416 3.43388 43.306 3.64464 43.1232 3.81786L38.9967 -0.537858C37.9654 0.439153 37.6039 1.70106 37.6039 2.84H43.6039ZM43.1232 3.81786C42.9596 3.97283 42.7715 4.08174 42.5924 4.14497C42.4229 4.20478 42.3072 4.208 42.2839 4.208V-1.792C41.1847 -1.792 39.9764 -1.46597 38.9967 -0.537858L43.1232 3.81786ZM42.2839 4.208C42.2622 4.208 42.1367 4.20521 41.9518 4.13866C41.7549 4.0678 41.5446 3.94333 41.3626 3.76132L45.6053 -0.481321C44.6186 -1.46799 43.3759 -1.792 42.2839 -1.792V4.208ZM41.4207 3.81786C41.2379 3.64464 41.1022 3.43388 41.0216 3.22165C40.9456 3.02161 40.9399 2.87836 40.9399 2.84H46.9399C46.9399 1.70106 46.5785 0.439153 45.5472 -0.537858L41.4207 3.81786ZM40.9399 2.84V12.224H46.9399V2.84H40.9399ZM40.9399 12.224C40.9399 12.1856 40.9456 12.0424 41.0216 11.8423C41.1022 11.6301 41.2379 11.4194 41.4207 11.2461L45.5472 15.6019C46.5785 14.6248 46.9399 13.3629 46.9399 12.224H40.9399ZM41.4241 11.243C41.6138 11.0638 41.822 10.951 42.0022 10.8897C42.1711 10.8323 42.2787 10.832 42.2839 10.832V16.832C43.33 16.832 44.5505 16.5432 45.5438 15.605L41.4241 11.243ZM42.2839 10.832C42.2907 10.832 42.3888 10.8327 42.5426 10.884C42.7057 10.9383 42.8907 11.0365 43.0603 11.1883L39.0596 15.6597C40.0436 16.5402 41.2292 16.832 42.2839 16.832V10.832ZM43.1232 11.2461C43.306 11.4194 43.4416 11.6301 43.5223 11.8423C43.5983 12.0424 43.6039 12.1856 43.6039 12.224H37.6039C37.6039 13.3629 37.9654 14.6248 38.9967 15.6019L43.1232 11.2461ZM43.6039 12.224V8.696H37.6039V12.224H43.6039ZM40.6039 5.696H39.1159V11.696H40.6039V5.696ZM36.1159 8.696V12.176H42.1159V8.696H36.1159ZM36.1159 12.176C36.1159 12.1543 36.1187 12.0287 36.1853 11.8438C36.2561 11.647 36.3806 11.4367 36.5626 11.2547L40.8053 15.4973C41.7919 14.5106 42.1159 13.268 42.1159 12.176H36.1159ZM36.6241 11.195C36.8241 11.006 37.0389 10.8941 37.2133 10.8359C37.3757 10.7818 37.4721 10.784 37.4599 10.784V16.784C38.4928 16.784 39.7343 16.5105 40.7438 15.557L36.6241 11.195ZM37.4599 10.784C37.4667 10.784 37.5648 10.7847 37.7186 10.8359C37.8817 10.8903 38.0667 10.9885 38.2363 11.1403L34.2356 15.6117C35.2196 16.4922 36.4052 16.784 37.4599 16.784V10.784ZM38.3573 11.2547C38.5393 11.4367 38.6637 11.647 38.7346 11.8438C38.8012 12.0287 38.8039 12.1543 38.8039 12.176H32.8039C32.8039 13.268 33.1279 14.5106 34.1146 15.4973L38.3573 11.2547ZM38.8039 12.176V3.056H32.8039V12.176H38.8039ZM43.0999 18.464C43.0999 18.2894 43.0897 18.0045 43.0165 17.6752C42.9551 17.399 42.7731 16.7266 42.1733 16.1267L37.9306 20.3693C37.3627 19.8014 37.2048 19.181 37.1594 18.9768C37.1022 18.7195 37.0999 18.5266 37.0999 18.464H43.0999ZM42.7352 16.9063C42.3674 16.1708 41.8062 15.7789 41.466 15.5933C41.1217 15.4055 40.8128 15.3226 40.6367 15.2834C40.2868 15.2057 39.9842 15.2 39.8359 15.2V21.2C39.8157 21.2 39.6131 21.2023 39.3352 21.1406C39.1951 21.1094 38.9151 21.0365 38.5929 20.8607C38.2747 20.6871 37.7285 20.3092 37.3687 19.5897L42.7352 16.9063ZM39.8359 15.2H29.3239V21.2H39.8359V15.2ZM29.3239 15.2C29.3883 15.2 29.5016 15.2101 29.6416 15.2577C29.7843 15.3062 29.9111 15.379 30.0115 15.4603L26.2363 20.1237C27.147 20.8609 28.2269 21.2 29.3239 21.2V15.2ZM30.0669 15.5062C30.2765 15.6844 30.4412 15.9147 30.5415 16.1603C30.6357 16.391 30.6439 16.5626 30.6439 16.616H24.6439C24.6439 17.7972 25.0448 19.1121 26.181 20.0778L30.0669 15.5062ZM30.6439 16.616C30.6439 16.6694 30.6357 16.841 30.5415 17.0717C30.4412 17.3173 30.2765 17.5476 30.0669 17.7258L26.181 13.1542C25.0448 14.1199 24.6439 15.4348 24.6439 16.616H30.6439ZM30.0115 17.7717C29.9111 17.853 29.7843 17.9258 29.6416 17.9743C29.5016 18.0219 29.3883 18.032 29.3239 18.032V12.032C28.2269 12.032 27.147 12.3711 26.2363 13.1083L30.0115 17.7717ZM29.3239 18.032H41.8039V12.032H29.3239V18.032ZM41.8039 18.032C42.0327 18.032 42.0849 18.0558 42.0215 18.0383C41.9571 18.0206 41.6561 17.9268 41.3386 17.6093L45.5813 13.3667C44.3928 12.1782 42.7839 12.032 41.8039 12.032V18.032ZM41.453 17.7179C41.0887 17.39 40.97 17.0544 40.9418 16.9585C40.9154 16.8686 40.9399 16.8989 40.9399 17.12H46.9399C46.9399 16.1367 46.7859 14.4453 45.4668 13.2581L41.453 17.7179ZM40.9399 17.12V21.728H46.9399V17.12H40.9399ZM40.9399 21.728C40.9399 21.6804 40.9481 21.5165 41.0419 21.2964C41.1412 21.0633 41.2976 20.8595 41.4773 20.7111L45.2986 25.3369C46.4793 24.3616 46.9399 23.0104 46.9399 21.728H40.9399ZM41.4271 20.7535C41.5576 20.6408 41.7022 20.5636 41.8333 20.52C41.9569 20.4787 42.0295 20.48 42.0199 20.48V26.48C43.1462 26.48 44.3459 26.1606 45.3488 25.2945L41.4271 20.7535ZM42.0199 20.48C42.0114 20.48 42.0758 20.479 42.1859 20.5151C42.3019 20.5531 42.4268 20.6188 42.5386 20.7111L38.7173 25.3369C39.7131 26.1595 40.8892 26.48 42.0199 26.48V20.48ZM42.5888 20.7535C42.7725 20.9121 42.92 21.1187 43.0102 21.3401C43.0948 21.5478 43.0999 21.696 43.0999 21.728H37.0999C37.0999 22.965 37.5208 24.3045 38.6671 25.2945L42.5888 20.7535ZM43.0999 21.728V18.464H37.0999V21.728H43.0999ZM52.9461 20.312L54.9465 18.0763L52.9461 20.312ZM52.9461 17.864L54.9465 20.0997L52.9461 17.864ZM61.2981 17.456V20.456H64.2981V17.456H61.2981ZM61.2981 13.904H64.2981V10.904H61.2981V13.904ZM65.1381 13.904V10.904H62.1381V13.904H65.1381ZM65.1381 17.456H62.1381V20.456H65.1381V17.456ZM73.4901 17.864L71.4897 20.0997L73.4901 17.864ZM73.4901 20.312L71.4897 18.0763L73.4901 20.312ZM67.3701 10.592L69.4914 12.7133L69.4915 12.7133L67.3701 10.592ZM67.3701 5.648L69.4915 3.5267L69.4914 3.52666L67.3701 5.648ZM54.2181 17.72C54.162 17.72 54.5388 17.7115 54.9465 18.0763L50.9457 22.5477C51.9614 23.4565 53.1862 23.72 54.2181 23.72V17.72ZM54.9465 18.0763C55.1815 18.2865 55.3332 18.5342 55.4154 18.7547C55.4536 18.8572 55.4721 18.9411 55.4811 18.9975C55.49 19.0533 55.4901 19.0854 55.4901 19.088H49.4901C49.4901 20.1861 49.8123 21.5336 50.9457 22.5477L54.9465 18.0763ZM55.4901 19.088C55.4901 19.0906 55.49 19.1227 55.4811 19.1785C55.4721 19.2349 55.4536 19.3188 55.4154 19.4213C55.3332 19.6418 55.1815 19.8895 54.9465 20.0997L50.9457 15.6283C49.8123 16.6424 49.4901 17.9899 49.4901 19.088H55.4901ZM54.9465 20.0997C54.5388 20.4645 54.162 20.456 54.2181 20.456V14.456C53.1862 14.456 51.9614 14.7195 50.9457 15.6283L54.9465 20.0997ZM54.2181 20.456H61.2981V14.456H54.2181V20.456ZM64.2981 17.456V13.904H58.2981V17.456H64.2981ZM61.2981 10.904H57.6261V16.904H61.2981V10.904ZM57.6261 10.904C57.2814 10.904 57.5767 10.8196 57.9437 11.1791C58.1165 11.3484 58.2032 11.5236 58.2388 11.6283C58.2692 11.7178 58.2501 11.7176 58.2501 11.576H52.2501C52.2501 12.8301 52.5743 14.3182 53.7446 15.4649C54.9035 16.6004 56.3869 16.904 57.6261 16.904V10.904ZM58.2501 11.576V4.664H52.2501V11.576H58.2501ZM58.2501 4.664C58.2501 4.5224 58.2692 4.52224 58.2388 4.61173C58.2032 4.71642 58.1165 4.89158 57.9437 5.06085C57.5767 5.4204 57.2814 5.336 57.6261 5.336V-0.664001C56.3869 -0.664001 54.9035 -0.360406 53.7446 0.775144C52.5743 1.92179 52.2501 3.40987 52.2501 4.664H58.2501ZM57.6261 5.336H68.8341V-0.664001H57.6261V5.336ZM68.8341 5.336C69.1634 5.336 68.8578 5.41646 68.4877 5.05017C68.112 4.67827 68.1861 4.35826 68.1861 4.664H74.1861C74.1861 3.41774 73.8683 1.93372 72.7085 0.785828C71.5545 -0.356461 70.0729 -0.664001 68.8341 -0.664001V5.336ZM68.1861 4.664V11.576H74.1861V4.664H68.1861ZM68.1861 11.576C68.1861 11.8817 68.112 11.5617 68.4877 11.1898C68.8578 10.8235 69.1634 10.904 68.8341 10.904V16.904C70.0729 16.904 71.5545 16.5965 72.7085 15.4542C73.8683 14.3063 74.1861 12.8223 74.1861 11.576H68.1861ZM68.8341 10.904H65.1381V16.904H68.8341V10.904ZM62.1381 13.904V17.456H68.1381V13.904H62.1381ZM65.1381 20.456H72.2181V14.456H65.1381V20.456ZM72.2181 20.456C72.2742 20.456 71.8974 20.4645 71.4897 20.0997L75.4905 15.6283C74.4748 14.7195 73.25 14.456 72.2181 14.456V20.456ZM71.4897 20.0997C71.2548 19.8895 71.103 19.6418 71.0209 19.4213C70.9827 19.3188 70.9642 19.2349 70.9552 19.1785C70.9462 19.1227 70.9461 19.0906 70.9461 19.088H76.9461C76.9461 17.9899 76.624 16.6424 75.4905 15.6283L71.4897 20.0997ZM70.9461 19.088C70.9461 19.0854 70.9462 19.0533 70.9552 18.9975C70.9642 18.9411 70.9827 18.8572 71.0209 18.7547C71.103 18.5342 71.2548 18.2865 71.4897 18.0763L75.4905 22.5477C76.624 21.5336 76.9461 20.1861 76.9461 19.088H70.9461ZM71.4897 18.0763C71.8974 17.7115 72.2742 17.72 72.2181 17.72V23.72C73.25 23.72 74.4748 23.4565 75.4905 22.5477L71.4897 18.0763ZM72.2181 17.72H54.2181V23.72H72.2181V17.72ZM56.0181 10.328C56.0181 10.9024 56.1638 11.8843 56.9808 12.7013C57.7978 13.5184 58.7797 13.664 59.3541 13.664V7.664C59.7046 7.664 60.5184 7.75364 61.2234 8.45868C61.9285 9.16372 62.0181 9.97756 62.0181 10.328H56.0181ZM59.3541 13.664H67.0821V7.664H59.3541V13.664ZM67.0821 13.664C67.2989 13.664 67.6228 13.6482 67.9897 13.5564C68.3385 13.4692 68.9458 13.2589 69.4914 12.7133L65.2488 8.47067C65.7464 7.97307 66.2818 7.79876 66.5345 7.73557C66.8054 7.66784 67.0093 7.664 67.0821 7.664V13.664ZM69.4915 12.7133C70.4291 11.7756 70.4421 10.6222 70.4421 10.328H64.4421C64.4421 10.2236 64.4498 9.99404 64.5298 9.70066C64.6097 9.40775 64.7981 8.9214 65.2488 8.47069L69.4915 12.7133ZM70.4421 10.328V5.912H64.4421V10.328H70.4421ZM70.4421 5.912C70.4421 5.61781 70.4291 4.46438 69.4915 3.5267L65.2488 7.7693C64.7981 7.31859 64.6097 6.83224 64.5298 6.53934C64.4498 6.24596 64.4421 6.01637 64.4421 5.912H70.4421ZM69.4914 3.52666C68.9458 2.98106 68.3385 2.77075 67.9897 2.68357C67.6228 2.59184 67.2989 2.576 67.0821 2.576V8.576C67.0093 8.576 66.8054 8.57215 66.5345 8.50443C66.2818 8.44125 65.7464 8.26694 65.2488 7.76934L69.4914 3.52666ZM67.0821 2.576H59.3541V8.576H67.0821V2.576ZM59.3541 2.576C58.7797 2.576 57.7978 2.72164 56.9808 3.53868C56.1638 4.35572 56.0181 5.33757 56.0181 5.912H62.0181C62.0181 6.26243 61.9285 7.07628 61.2234 7.78132C60.5184 8.48636 59.7046 8.576 59.3541 8.576V2.576ZM56.0181 5.912V10.328H62.0181V5.912H56.0181ZM87.4276 13.256L90.3263 14.029L90.3294 14.0171L87.4276 13.256ZM86.2756 15.728L88.6823 17.519V17.519L86.2756 15.728ZM84.3076 17.336L85.5823 20.0517L85.594 20.0462L85.6058 20.0406L84.3076 17.336ZM78.7636 17.336L77.444 20.0302L77.4767 20.0462L77.5098 20.0615L78.7636 17.336ZM76.8196 15.728L74.4129 17.519V17.519L76.8196 15.728ZM75.6676 13.256L72.7657 14.0171L72.7689 14.029L75.6676 13.256ZM75.6676 6.752L78.5663 7.52499L78.5694 7.51314L75.6676 6.752ZM76.8196 4.256L79.2263 6.04703V6.04703L76.8196 4.256ZM78.7636 2.672L80.0383 5.38771L80.05 5.38219L80.0618 5.37657L78.7636 2.672ZM84.3076 2.672L82.988 5.36619L83.0207 5.38223L83.0538 5.39747L84.3076 2.672ZM86.2756 4.256L83.8689 6.04703V6.04703L86.2756 4.256ZM87.4276 6.752L84.5257 7.51314L84.5289 7.52499L87.4276 6.752ZM90.6676 1.664L88.7569 -0.648887L88.7316 -0.627953L88.7067 -0.606469L90.6676 1.664ZM93.4276 1.664L91.4667 3.93447L91.4916 3.95595L91.5169 3.97688L93.4276 1.664ZM93.9796 8.168H90.9796V11.168H93.9796V8.168ZM96.9076 8.576L94.9072 10.8117L94.9356 10.8371L94.9646 10.8618L96.9076 8.576ZM96.9076 11.048L94.9646 8.76218L94.9356 8.78686L94.9072 8.81228L96.9076 11.048ZM93.9796 11.456V8.456H90.9796V11.456H93.9796ZM93.4276 23.024L91.5169 20.7111L91.4916 20.732L91.4667 20.7535L93.4276 23.024ZM90.6676 23.024L88.7067 25.2945L88.7316 25.316L88.7569 25.3369L90.6676 23.024ZM82.7476 14.312L84.5476 16.712L84.5851 16.6839L84.6217 16.6546L82.7476 14.312ZM83.5156 13.304L80.8323 11.9624L80.8113 12.0043L80.7917 12.0468L83.5156 13.304ZM83.9476 11.84L86.9174 12.2643L86.919 12.2527L83.9476 11.84ZM83.5156 6.68L80.7917 7.93717L80.8113 7.97973L80.8323 8.02164L83.5156 6.68ZM82.7476 5.696L80.8735 8.0386L80.9101 8.06788L80.9476 8.096L82.7476 5.696ZM80.3476 5.696L82.1476 8.096L82.1851 8.06788L82.2216 8.0386L80.3476 5.696ZM79.5556 6.68L76.8723 5.33836L76.8513 5.38027L76.8317 5.42282L79.5556 6.68ZM79.1476 11.84L76.1761 12.2527L76.1777 12.2643L79.1476 11.84ZM79.5556 13.304L76.8317 14.5612L76.8513 14.6037L76.8723 14.6456L79.5556 13.304ZM80.3476 14.312L78.4735 16.6546L78.5101 16.6839L78.5476 16.712L80.3476 14.312ZM84.8116 9.992C84.8116 10.982 84.7056 11.8089 84.5257 12.4949L90.3294 14.0171C90.6615 12.7511 90.8116 11.402 90.8116 9.992H84.8116ZM84.5289 12.483C84.3555 13.133 84.1208 13.5984 83.8689 13.937L88.6823 17.519C89.4543 16.4816 89.9876 15.299 90.3263 14.029L84.5289 12.483ZM83.8689 13.937C83.6572 14.2214 83.3871 14.4501 83.0094 14.6314L85.6058 20.0406C86.828 19.4539 87.8699 18.6106 88.6823 17.519L83.8689 13.937ZM83.0328 14.6203C82.7254 14.7646 82.2577 14.888 81.5476 14.888V20.888C82.9494 20.888 84.3217 20.6434 85.5823 20.0517L83.0328 14.6203ZM81.5476 14.888C80.8395 14.888 80.3536 14.7653 80.0173 14.6105L77.5098 20.0615C78.7735 20.6427 80.1436 20.888 81.5476 20.888V14.888ZM80.0832 14.6418C79.7203 14.4641 79.4477 14.2346 79.2263 13.937L74.4129 17.519C75.2154 18.5974 76.2388 19.4399 77.444 20.0302L80.0832 14.6418ZM79.2263 13.937C78.9743 13.5984 78.7396 13.133 78.5663 12.483L72.7689 14.029C73.1075 15.299 73.6408 16.4816 74.4129 17.519L79.2263 13.937ZM78.5694 12.4949C78.3895 11.8089 78.2836 10.982 78.2836 9.992H72.2836C72.2836 11.402 72.4336 12.7511 72.7657 14.0171L78.5694 12.4949ZM78.2836 9.992C78.2836 9.00088 78.3897 8.18702 78.5663 7.52499L72.7689 5.97901C72.4334 7.23698 72.2836 8.58312 72.2836 9.992H78.2836ZM78.5694 7.51314C78.7448 6.84446 78.9805 6.37728 79.2263 6.04703L74.4129 2.46497C73.6346 3.51072 73.1023 4.70754 72.7657 5.99086L78.5694 7.51314ZM79.2263 6.04703C79.4399 5.75994 79.6975 5.54769 80.0383 5.38771L77.4888 -0.0437123C76.2617 0.532308 75.2232 1.37606 74.4129 2.46497L79.2263 6.04703ZM80.0618 5.37657C80.3868 5.22056 80.8565 5.096 81.5476 5.096V-0.904001C80.1267 -0.904001 78.7404 -0.644562 77.4654 -0.0325708L80.0618 5.37657ZM81.5476 5.096C82.2407 5.096 82.692 5.22121 82.988 5.36619L85.6272 -0.0221901C84.3552 -0.645215 82.9665 -0.904001 81.5476 -0.904001V5.096ZM83.0538 5.39747C83.4101 5.56133 83.6651 5.77326 83.8689 6.04703L88.6823 2.46497C87.862 1.36274 86.8051 0.518668 85.5613 -0.0534726L83.0538 5.39747ZM83.8689 6.04703C84.1146 6.37728 84.3503 6.84446 84.5257 7.51314L90.3294 5.99086C89.9928 4.70754 89.4605 3.51072 88.6823 2.46497L83.8689 6.04703ZM84.5289 7.52499C84.7054 8.18702 84.8116 9.00088 84.8116 9.992H90.8116C90.8116 8.58312 90.6617 7.23698 90.3263 5.97901L84.5289 7.52499ZM93.1396 2.96C93.1396 2.99204 93.1345 3.14019 93.0498 3.34789C92.9596 3.56928 92.8121 3.77585 92.6284 3.93447L88.7067 -0.606469C87.5604 0.383484 87.1396 1.72297 87.1396 2.96H93.1396ZM92.5782 3.97688C92.4664 4.06922 92.3415 4.13493 92.2255 4.17293C92.1154 4.20899 92.051 4.208 92.0596 4.208V-1.792C90.9288 -1.792 89.7527 -1.47151 88.7569 -0.648887L92.5782 3.97688ZM92.0596 4.208C92.0692 4.208 91.9965 4.20926 91.8729 4.16805C91.7418 4.12437 91.5972 4.0472 91.4667 3.93447L95.3884 -0.606471C94.3855 -1.47264 93.1858 -1.792 92.0596 -1.792V4.208ZM91.5169 3.97688C91.3372 3.82846 91.1808 3.62472 91.0815 3.39158C90.9878 3.1715 90.9796 3.00762 90.9796 2.96H96.9796C96.9796 1.67762 96.5189 0.326446 95.3382 -0.648887L91.5169 3.97688ZM90.9796 2.96V8.168H96.9796V2.96H90.9796ZM93.9796 11.168H95.6836V5.168H93.9796V11.168ZM95.6836 11.168C95.6768 11.168 95.5787 11.1673 95.4249 11.116C95.2618 11.0617 95.0768 10.9635 94.9072 10.8117L98.908 6.34028C97.9239 5.45977 96.7383 5.168 95.6836 5.168V11.168ZM94.9646 10.8618C94.7189 10.6529 94.5563 10.3996 94.4675 10.1689C94.4265 10.0622 94.4067 9.97479 94.3971 9.91632C94.3876 9.85848 94.3876 9.82565 94.3876 9.824H100.388C100.388 8.69518 100.047 7.30693 98.8505 6.29018L94.9646 10.8618ZM94.3876 9.824C94.3876 9.80849 94.3892 9.66066 94.4746 9.44274C94.5672 9.2066 94.7308 8.96096 94.9646 8.76218L98.8505 13.3338C100.028 12.3332 100.388 10.9696 100.388 9.824H94.3876ZM94.9072 8.81228C95.0768 8.66048 95.2618 8.56231 95.4249 8.50795C95.5787 8.45669 95.6768 8.456 95.6836 8.456V14.456C96.7383 14.456 97.9239 14.1642 98.908 13.2837L94.9072 8.81228ZM95.6836 8.456H93.9796V14.456H95.6836V8.456ZM90.9796 11.456V21.728H96.9796V11.456H90.9796ZM90.9796 21.728C90.9796 21.6804 90.9878 21.5165 91.0815 21.2964C91.1808 21.0633 91.3372 20.8595 91.5169 20.7111L95.3382 25.3369C96.5189 24.3616 96.9796 23.0104 96.9796 21.728H90.9796ZM91.4667 20.7535C91.5972 20.6408 91.7418 20.5636 91.8729 20.52C91.9965 20.4787 92.0692 20.48 92.0596 20.48V26.48C93.1858 26.48 94.3855 26.1606 95.3884 25.2945L91.4667 20.7535ZM92.0596 20.48C92.051 20.48 92.1154 20.479 92.2255 20.5151C92.3415 20.5531 92.4664 20.6188 92.5782 20.7111L88.7569 25.3369C89.7527 26.1595 90.9288 26.48 92.0596 26.48V20.48ZM92.6284 20.7535C92.8121 20.9121 92.9596 21.1187 93.0498 21.3401C93.1345 21.5478 93.1396 21.696 93.1396 21.728H87.1396C87.1396 22.965 87.5604 24.3045 88.7067 25.2945L92.6284 20.7535ZM93.1396 21.728V2.96H87.1396V21.728H93.1396ZM81.5476 17.672C82.5432 17.672 83.6107 17.4146 84.5476 16.712L80.9476 11.912C81.0822 11.811 81.2225 11.7454 81.3455 11.7085C81.4633 11.6732 81.5383 11.672 81.5476 11.672V17.672ZM84.6217 16.6546C85.3464 16.0748 85.8756 15.3496 86.2394 14.5612L80.7917 12.0468C80.7797 12.0727 80.778 12.07 80.7933 12.0499C80.8093 12.0288 80.8361 11.9993 80.8735 11.9694L84.6217 16.6546ZM86.1988 14.6456C86.5783 13.8867 86.8013 13.0769 86.9174 12.2643L80.9777 11.4157C80.9338 11.7231 80.8688 11.8893 80.8323 11.9624L86.1988 14.6456ZM86.919 12.2527C87.0203 11.5239 87.0676 10.7689 87.0676 9.992H81.0676C81.0676 10.5271 81.0349 11.0041 80.9761 11.4273L86.919 12.2527ZM87.0676 9.992C87.0676 9.22752 87.0198 8.48087 86.919 7.75529L80.9761 8.5807C81.0353 9.00713 81.0676 9.47648 81.0676 9.992H87.0676ZM86.919 7.75529C86.8049 6.93347 86.5841 6.10883 86.1988 5.33836L80.8323 8.02164C80.8631 8.08317 80.9302 8.25053 80.9761 8.5807L86.919 7.75529ZM86.2394 5.42283C85.8696 4.62149 85.3201 3.8754 84.5476 3.296L80.9476 8.096C80.8872 8.05075 80.8431 8.00426 80.8146 7.96781C80.7873 7.93279 80.7827 7.91768 80.7917 7.93717L86.2394 5.42283ZM84.6217 3.3534C83.6818 2.60148 82.5869 2.312 81.5476 2.312V8.312C81.5208 8.312 81.4276 8.30827 81.2932 8.26527C81.1534 8.22053 81.0065 8.145 80.8735 8.0386L84.6217 3.3534ZM81.5476 2.312C80.5082 2.312 79.4134 2.60148 78.4735 3.35339L82.2216 8.0386C82.0887 8.145 81.9417 8.22053 81.8019 8.26527C81.6675 8.30827 81.5743 8.312 81.5476 8.312V2.312ZM78.5476 3.296C77.7988 3.85759 77.2547 4.57354 76.8723 5.33836L82.2388 8.02164C82.2569 7.98559 82.2621 7.98379 82.2466 8.00303C82.2301 8.02348 82.1977 8.05837 82.1476 8.096L78.5476 3.296ZM76.8317 5.42282C76.4881 6.16736 76.2863 6.96179 76.1761 7.75529L82.119 8.5807C82.1688 8.2222 82.2391 8.02464 82.2794 7.93718L76.8317 5.42282ZM76.1761 7.75529C76.0753 8.48087 76.0276 9.22752 76.0276 9.992H82.0276C82.0276 9.47648 82.0598 9.00713 82.119 8.5807L76.1761 7.75529ZM76.0276 9.992C76.0276 10.7689 76.0749 11.5239 76.1761 12.2527L82.119 11.4273C82.0603 11.0041 82.0276 10.5271 82.0276 9.992H76.0276ZM76.1777 12.2643C76.2896 13.0477 76.4931 13.8275 76.8317 14.5612L82.2794 12.0468C82.2341 11.9485 82.1655 11.7523 82.1174 11.4157L76.1777 12.2643ZM76.8723 14.6456C77.2482 15.3975 77.7715 16.093 78.4735 16.6546L82.2216 11.9694C82.2347 11.9799 82.2455 11.9897 82.2538 11.9982C82.262 12.0065 82.2668 12.0124 82.2685 12.0145C82.2721 12.0191 82.2602 12.005 82.2388 11.9624L76.8723 14.6456ZM78.5476 16.712C79.4844 17.4146 80.552 17.672 81.5476 17.672V11.672C81.5569 11.672 81.6318 11.6732 81.7496 11.7085C81.8726 11.7454 82.0129 11.811 82.1476 11.912L78.5476 16.712ZM98.293 20.312L100.293 18.0763L98.293 20.312ZM98.293 17.864L100.293 20.0997L98.293 17.864ZM106.645 17.456V20.456H109.645V17.456H106.645ZM106.645 14.024H109.645V11.024H106.645V14.024ZM101.221 13.472L99.2333 15.719L101.221 13.472ZM101.125 2.672L103.025 4.99387L103.03 4.98939L103.036 4.98488L101.125 2.672ZM103.813 2.672L101.852 4.94247L101.882 4.96858L101.913 4.99387L103.813 2.672ZM104.341 5.528H101.341V8.528H104.341V5.528ZM112.813 5.528V8.528H115.813V5.528H112.813ZM113.341 2.672L115.241 4.99387L115.272 4.96858L115.302 4.94247L113.341 2.672ZM116.005 2.672L113.992 4.8966L114.048 4.94664L114.105 4.99387L116.005 2.672ZM110.485 14.024V11.024H107.485V14.024H110.485ZM110.485 17.456H107.485V20.456H110.485V17.456ZM118.837 17.864L116.837 20.0997L118.837 17.864ZM118.837 20.312L116.837 18.0763L118.837 20.312ZM104.341 8.456V5.456H101.341V8.456H104.341ZM112.765 11.024L110.644 8.90266L110.644 8.9027L112.765 11.024ZM112.813 8.456H115.813V5.456H112.813V8.456ZM99.565 17.72C99.5089 17.72 99.8857 17.7115 100.293 18.0763L96.2926 22.5477C97.3083 23.4565 98.5331 23.72 99.565 23.72V17.72ZM100.293 18.0763C100.528 18.2865 100.68 18.5342 100.762 18.7547C100.8 18.8572 100.819 18.9411 100.828 18.9975C100.837 19.0533 100.837 19.0854 100.837 19.088H94.837C94.837 20.1861 95.1591 21.5336 96.2926 22.5477L100.293 18.0763ZM100.837 19.088C100.837 19.0906 100.837 19.1227 100.828 19.1785C100.819 19.2349 100.8 19.3188 100.762 19.4213C100.68 19.6418 100.528 19.8895 100.293 20.0997L96.2926 15.6283C95.1591 16.6424 94.837 17.9899 94.837 19.088H100.837ZM100.293 20.0997C99.8857 20.4645 99.5089 20.456 99.565 20.456V14.456C98.5331 14.456 97.3083 14.7195 96.2926 15.6283L100.293 20.0997ZM99.565 20.456H106.645V14.456H99.565V20.456ZM109.645 17.456V14.024H103.645V17.456H109.645ZM106.645 11.024H103.021V17.024H106.645V11.024ZM103.021 11.024C102.856 11.024 102.817 11.0038 102.863 11.0178C102.919 11.0351 103.057 11.0905 103.209 11.225L99.2333 15.719C100.387 16.7394 101.804 17.024 103.021 17.024V11.024ZM103.209 11.225C103.415 11.4073 103.526 11.6099 103.575 11.7451C103.616 11.8609 103.597 11.8813 103.597 11.744H97.597C97.597 13.0224 97.9431 14.5777 99.2333 15.719L103.209 11.225ZM103.597 11.744V3.92H97.597V11.744H103.597ZM103.597 3.92C103.597 3.9693 103.589 4.13968 103.492 4.36892C103.389 4.61284 103.223 4.83156 103.025 4.99387L99.2253 0.350127C98.0385 1.32114 97.597 2.6717 97.597 3.92H103.597ZM103.036 4.98488C102.941 5.0628 102.825 5.1288 102.701 5.17093C102.581 5.21173 102.495 5.216 102.469 5.216V-0.784001C101.323 -0.784001 100.178 -0.436869 99.2144 0.359113L103.036 4.98488ZM102.469 5.216C102.461 5.216 102.378 5.21473 102.249 5.17093C102.114 5.12495 101.974 5.04746 101.852 4.94247L105.774 0.40153C104.787 -0.451008 103.604 -0.784001 102.469 -0.784001V5.216ZM101.913 4.99387C101.715 4.83156 101.549 4.61284 101.446 4.36892C101.349 4.13969 101.341 3.9693 101.341 3.92H107.341C107.341 2.6717 106.9 1.32113 105.713 0.350126L101.913 4.99387ZM101.341 3.92V5.528H107.341V3.92H101.341ZM104.341 8.528H112.813V2.528H104.341V8.528ZM115.813 5.528V3.92H109.813V5.528H115.813ZM115.813 3.92C115.813 3.96929 115.805 4.13968 115.708 4.36892C115.605 4.61283 115.439 4.83156 115.241 4.99387L111.441 0.350129C110.255 1.32114 109.813 2.6717 109.813 3.92H115.813ZM115.302 4.94247C115.18 5.04746 115.04 5.12495 114.905 5.17093C114.776 5.21473 114.693 5.216 114.685 5.216V-0.784001C113.55 -0.784001 112.367 -0.451008 111.38 0.401529L115.302 4.94247ZM114.685 5.216C114.679 5.216 114.587 5.21504 114.443 5.16557C114.292 5.11329 114.132 5.02328 113.992 4.8966L118.018 0.447392C117.024 -0.451988 115.816 -0.784001 114.685 -0.784001V5.216ZM114.105 4.99387C113.907 4.83156 113.741 4.61284 113.638 4.36892C113.541 4.13969 113.533 3.9693 113.533 3.92H119.533C119.533 2.6717 119.092 1.32113 117.905 0.350126L114.105 4.99387ZM113.533 3.92V11.744H119.533V3.92H113.533ZM113.533 11.744C113.533 11.8693 113.516 11.8527 113.552 11.7482C113.595 11.6277 113.69 11.447 113.867 11.279C114.232 10.9323 114.508 11.024 114.133 11.024V17.024C115.358 17.024 116.834 16.7357 117.999 15.629C119.193 14.4949 119.533 13.0068 119.533 11.744H113.533ZM114.133 11.024H110.485V17.024H114.133V11.024ZM107.485 14.024V17.456H113.485V14.024H107.485ZM110.485 20.456H117.565V14.456H110.485V20.456ZM117.565 20.456C117.621 20.456 117.244 20.4645 116.837 20.0997L120.837 15.6283C119.822 14.7195 118.597 14.456 117.565 14.456V20.456ZM116.837 20.0997C116.602 19.8895 116.45 19.6418 116.368 19.4213C116.33 19.3188 116.311 19.2349 116.302 19.1785C116.293 19.1227 116.293 19.0906 116.293 19.088H122.293C122.293 17.9899 121.971 16.6424 120.837 15.6283L116.837 20.0997ZM116.293 19.088C116.293 19.0854 116.293 19.0533 116.302 18.9975C116.311 18.9411 116.33 18.8572 116.368 18.7547C116.45 18.5342 116.602 18.2865 116.837 18.0763L120.837 22.5477C121.971 21.5336 122.293 20.1861 122.293 19.088H116.293ZM116.837 18.0763C117.244 17.7115 117.621 17.72 117.565 17.72V23.72C118.597 23.72 119.822 23.4565 120.837 22.5477L116.837 18.0763ZM117.565 17.72H99.565V23.72H117.565V17.72ZM101.341 8.456V10.784H107.341V8.456H101.341ZM101.341 10.784C101.341 10.9477 101.349 11.2178 101.411 11.5283C101.454 11.7444 101.614 12.4917 102.268 13.1453L106.51 8.90268C106.848 9.24035 107.03 9.58667 107.125 9.80924C107.223 10.0379 107.271 10.2318 107.295 10.3516C107.341 10.5822 107.341 10.7483 107.341 10.784H101.341ZM102.268 13.1453C102.921 13.7989 103.669 13.9585 103.885 14.0017C104.195 14.0639 104.465 14.072 104.629 14.072V8.072C104.665 8.072 104.831 8.07214 105.061 8.11826C105.181 8.14222 105.375 8.18958 105.604 8.28757C105.826 8.38295 106.173 8.56501 106.51 8.90268L102.268 13.1453ZM104.629 14.072H112.525V8.072H104.629V14.072ZM112.525 14.072C112.689 14.072 112.959 14.0639 113.269 14.0017C113.485 13.9585 114.233 13.7989 114.886 13.1453L110.644 8.9027C110.981 8.56501 111.328 8.38296 111.55 8.28757C111.779 8.18958 111.973 8.14222 112.093 8.11826C112.323 8.07214 112.489 8.072 112.525 8.072V14.072ZM114.886 13.1453C115.54 12.4917 115.7 11.7445 115.743 11.5284C115.805 11.2178 115.813 10.9477 115.813 10.784H109.813C109.813 10.7483 109.813 10.5822 109.859 10.3516C109.883 10.2318 109.931 10.0379 110.029 9.80923C110.124 9.58665 110.306 9.24033 110.644 8.90266L114.886 13.1453ZM115.813 10.784V8.456H109.813V10.784H115.813ZM112.813 5.456H104.341V11.456H112.813V5.456ZM136.974 1.664L135.064 -0.648887L135.038 -0.627954L135.014 -0.606471L136.974 1.664ZM139.734 1.664L137.774 3.93447L137.798 3.95595L137.824 3.97688L139.734 1.664ZM139.734 23.024L137.824 20.7111L137.798 20.732L137.774 20.7535L139.734 23.024ZM136.974 23.024L135.014 25.2945L135.038 25.316L135.064 25.3369L136.974 23.024ZM122.238 5.144L120.057 7.20387L120.116 7.26619L120.179 7.32504L122.238 5.144ZM122.238 2.768L120.117 0.646679V0.646679L122.238 2.768ZM132.174 9.824L129.364 8.77474L129.358 8.79125L129.352 8.80784L132.174 9.824ZM130.326 13.16L127.962 11.3131L127.953 11.3246L127.944 11.3363L130.326 13.16ZM127.494 15.944L125.689 13.5482L127.494 15.944ZM123.87 18.128L125.134 20.849L125.146 20.8432L125.159 20.8372L123.87 18.128ZM122.478 18.32L121.969 21.2764L121.977 21.2778L121.985 21.2792L122.478 18.32ZM121.374 17.432L124.024 16.0245L124.02 16.0171L124.016 16.0097L121.374 17.432ZM121.206 16.112L118.308 15.339L118.299 15.3734L118.29 15.4081L121.206 16.112ZM122.166 14.984L123.574 17.6333L122.166 14.984ZM124.95 13.304L126.658 15.7706L126.668 15.7639L124.95 13.304ZM127.11 11.408L124.886 9.39526L124.873 9.41L124.859 9.42491L127.11 11.408ZM128.502 9.248L125.754 8.04554L125.743 8.06976L125.733 8.09415L128.502 9.248ZM128.91 5.672L126.568 7.54607L126.672 7.67583L126.789 7.79334L128.91 5.672ZM139.446 2.96C139.446 2.99204 139.441 3.14019 139.357 3.34789C139.267 3.56928 139.119 3.77586 138.935 3.93447L135.014 -0.606471C133.867 0.38348 133.446 1.72296 133.446 2.96H139.446ZM138.885 3.97688C138.773 4.06922 138.648 4.13493 138.532 4.17293C138.422 4.20899 138.358 4.208 138.366 4.208V-1.792C137.236 -1.792 136.06 -1.47151 135.064 -0.648887L138.885 3.97688ZM138.366 4.208C138.376 4.208 138.303 4.20926 138.18 4.16805C138.049 4.12437 137.904 4.0472 137.774 3.93447L141.695 -0.606471C140.692 -1.47264 139.493 -1.792 138.366 -1.792V4.208ZM137.824 3.97688C137.644 3.82846 137.488 3.62472 137.388 3.39158C137.295 3.1715 137.286 3.00762 137.286 2.96H143.286C143.286 1.67762 142.826 0.326446 141.645 -0.648887L137.824 3.97688ZM137.286 2.96V21.728H143.286V2.96H137.286ZM137.286 21.728C137.286 21.6804 137.295 21.5165 137.388 21.2964C137.488 21.0633 137.644 20.8595 137.824 20.7111L141.645 25.3369C142.826 24.3616 143.286 23.0104 143.286 21.728H137.286ZM137.774 20.7535C137.904 20.6408 138.049 20.5636 138.18 20.52C138.303 20.4787 138.376 20.48 138.366 20.48V26.48C139.493 26.48 140.692 26.1606 141.695 25.2945L137.774 20.7535ZM138.366 20.48C138.358 20.48 138.422 20.479 138.532 20.5151C138.648 20.5531 138.773 20.6188 138.885 20.7111L135.064 25.3369C136.06 26.1595 137.236 26.48 138.366 26.48V20.48ZM138.935 20.7535C139.119 20.9121 139.267 21.1187 139.357 21.3401C139.441 21.5478 139.446 21.696 139.446 21.728H133.446C133.446 22.965 133.867 24.3045 135.014 25.2945L138.935 20.7535ZM139.446 21.728V2.96H133.446V21.728H139.446ZM123.438 2.552C123.444 2.552 123.551 2.55227 123.72 2.60968C123.9 2.67095 124.109 2.7838 124.298 2.96296L120.179 7.32504C121.172 8.26317 122.392 8.552 123.438 8.552V2.552ZM124.419 3.08413C124.599 3.27383 124.711 3.48209 124.773 3.66229C124.83 3.83116 124.83 3.93881 124.83 3.944H118.83C118.83 4.99004 119.119 6.21056 120.057 7.20387L124.419 3.08413ZM124.83 3.944C124.83 3.94738 124.831 4.06499 124.767 4.24932C124.698 4.44732 124.569 4.67999 124.36 4.88932L120.117 0.646679C119.115 1.6483 118.83 2.90862 118.83 3.944H124.83ZM124.36 4.88932C124.178 5.07133 123.967 5.1958 123.771 5.26666C123.586 5.33321 123.46 5.336 123.438 5.336V-0.664001C122.346 -0.664001 121.104 -0.339994 120.117 0.646679L124.36 4.88932ZM123.438 5.336H130.446V-0.664001H123.438V5.336ZM130.446 5.336C130.807 5.336 130.521 5.4242 130.158 5.07137C129.985 4.90376 129.896 4.72838 129.859 4.62047C129.828 4.52806 129.846 4.52508 129.846 4.664H135.846C135.846 3.40196 135.516 1.90991 134.335 0.764623C133.171 -0.364203 131.686 -0.664001 130.446 -0.664001V5.336ZM129.846 4.664V5.984H135.846V4.664H129.846ZM129.846 5.984C129.846 7.00805 129.679 7.93066 129.364 8.77474L134.985 10.8733C135.566 9.31734 135.846 7.67995 135.846 5.984H129.846ZM129.352 8.80784C129.03 9.70266 128.57 10.5351 127.962 11.3131L132.691 15.0069C133.683 13.7369 134.455 12.3453 134.997 10.8402L129.352 8.80784ZM127.944 11.3363C127.337 12.1294 126.591 12.8681 125.689 13.5482L129.3 18.3398C130.606 17.3559 131.748 16.2386 132.708 14.9837L127.944 11.3363ZM125.689 13.5482C124.754 14.2526 123.721 14.8772 122.582 15.4188L125.159 20.8372C126.644 20.1308 128.027 19.2994 129.3 18.3398L125.689 13.5482ZM122.607 15.407C122.639 15.3923 122.697 15.371 122.777 15.3601C122.856 15.3492 122.925 15.353 122.972 15.3608L121.985 21.2792C123.071 21.4601 124.146 21.3074 125.134 20.849L122.607 15.407ZM122.988 15.3636C123.26 15.4104 123.523 15.5301 123.735 15.7004C123.931 15.8581 124.011 16.0011 124.024 16.0245L118.725 18.8395C119.321 19.9608 120.379 21.0023 121.969 21.2764L122.988 15.3636ZM124.016 16.0097C124.067 16.1047 124.119 16.2425 124.14 16.4112C124.162 16.5795 124.146 16.7208 124.123 16.8159L118.29 15.4081C118.007 16.5823 118.155 17.7803 118.733 18.8543L124.016 16.0097ZM124.105 16.885C124.055 17.0735 123.958 17.2603 123.827 17.4144C123.703 17.5601 123.595 17.6222 123.574 17.6333L120.759 12.3347C119.645 12.9264 118.687 13.9174 118.308 15.339L124.105 16.885ZM123.574 17.6333C124.687 17.0421 125.717 16.4221 126.658 15.7706L123.243 10.8374C122.52 11.3379 121.694 11.8379 120.759 12.3347L123.574 17.6333ZM126.668 15.7639C127.683 15.0554 128.589 14.2679 129.362 13.3911L124.859 9.42491C124.448 9.89209 123.914 10.3686 123.233 10.8441L126.668 15.7639ZM129.335 13.4207C130.152 12.5181 130.809 11.512 131.272 10.4018L125.733 8.09415C125.556 8.52002 125.285 8.9539 124.886 9.39526L129.335 13.4207ZM131.251 10.4505C131.764 9.27765 132.006 8.03296 132.006 6.752H126.006C126.006 7.26304 125.913 7.68235 125.754 8.04554L131.251 10.4505ZM132.006 6.752V6.104H126.006V6.752H132.006ZM132.006 6.104C132.006 5.87339 131.992 5.5425 131.911 5.1772C131.842 4.86501 131.648 4.16654 131.032 3.55066L126.789 7.79334C126.237 7.24146 126.091 6.64699 126.054 6.47879C126.005 6.2575 126.006 6.11061 126.006 6.104H132.006ZM131.253 3.79792C130.655 3.0502 129.898 2.78233 129.512 2.68078C129.092 2.5704 128.712 2.552 128.454 2.552V8.552C128.437 8.552 128.252 8.5536 127.985 8.48322C127.751 8.42167 127.102 8.2138 126.568 7.54607L131.253 3.79792ZM128.454 2.552H123.438V8.552H128.454V2.552Z" fill="#E6460A" mask="url(#path-1-outside-1_616_1474)"/>
</g>
<defs>
<filter id="filter0_d_616_1474" x="0.6745" y="0.727997" width="139.612" height="25.752" filterUnits="userSpaceOnUse" color-interpolation-filters="sRGB">
<feFlood flood-opacity="0" result="BackgroundImageFix"/>
<feColorMatrix in="SourceAlpha" type="matrix" values="0 0 0 0 0 0 0 0 0 0 0 0 0 0 0 0 0 0 127 0" result="hardAlpha"/>
<feOffset dy="3"/>
<feComposite in2="hardAlpha" operator="out"/>
<feColorMatrix type="matrix" values="0 0 0 0 0.996078 0 0 0 0 0.811765 0 0 0 0 0.294118 0 0 0 1 0"/>
<feBlend mode="normal" in2="BackgroundImageFix" result="effect1_dropShadow_616_1474"/>
<feBlend mode="normal" in="SourceGraphic" in2="effect1_dropShadow_616_1474" result="shape"/>
</filter>
</defs>
</svg>
