<svg width="375" height="248" viewBox="0 0 375 248" fill="none" xmlns="http://www.w3.org/2000/svg">
<g clip-path="url(#clip0_616_1100)">
<circle cx="187" cy="442.287" r="300" fill="#FF740C"/>
<circle cx="187" cy="442.287" r="275" stroke="#FECF4B" stroke-opacity="0.5" stroke-width="7" stroke-linecap="square" stroke-linejoin="round" stroke-dasharray="33.48 33.48"/>
<g clip-path="url(#clip1_616_1100)">
<path d="M264.174 154.752C267.556 153.088 270.594 149.912 272.385 145.693C274.176 141.474 275.184 135.113 274.034 131.525L275.614 127.801L268.09 124.607C261.892 121.976 254.137 126.269 250.771 134.198C247.405 142.128 249.702 150.687 255.903 153.319C255.958 153.342 256.015 153.356 256.071 153.377L263.432 156.501L264.174 154.754L264.174 154.752Z" fill="#3C3C3C" stroke="black" stroke-width="0.962694" stroke-miterlimit="10"/>
<path d="M263.836 156.681C270.036 159.313 277.79 155.019 281.156 147.09C284.521 139.162 282.224 130.601 276.024 127.969C269.824 125.338 262.07 129.632 258.705 137.56C255.339 145.489 257.637 154.05 263.836 156.681Z" fill="#1E1E1E" stroke="black" stroke-width="0.962694" stroke-miterlimit="10"/>
<path d="M257.928 67.3064L269.195 72.0889C270.354 72.581 271.693 72.0401 272.185 70.8808C272.677 69.7215 272.136 68.3827 270.977 67.8906L259.71 63.108C258.55 62.6159 257.212 63.1568 256.719 64.3162C256.227 65.4755 256.768 66.8143 257.928 67.3064Z" fill="#3C3C3C" stroke="black" stroke-width="1.07022" stroke-miterlimit="10"/>
<path d="M251.183 82.2798L249.04 81.3702L257.237 62.061L259.38 62.9706C261.472 63.8588 262.452 66.2795 261.563 68.374L256.586 80.099C255.698 82.1913 253.277 83.1712 251.182 82.2821L251.183 82.2798Z" fill="#3C3C3C" stroke="black" stroke-width="1.07022" stroke-miterlimit="10"/>
<path d="M245.8 74.8035C244.769 77.2328 245.902 80.0381 248.331 81.0692C250.761 82.1004 253.566 80.967 254.597 78.5377L259.059 68.0258C260.09 65.5965 258.957 62.7912 256.528 61.7601C254.098 60.7289 251.293 61.8623 250.262 64.2916L245.8 74.8035Z" fill="#555656" stroke="black" stroke-width="1.07022" stroke-miterlimit="10"/>
<path d="M347.817 187.933C351.369 186.342 354.515 183.211 356.306 178.992C358.097 174.773 358.163 170.336 356.841 166.675L358.421 162.951L350.333 159.517C343.67 156.689 335.54 160.822 332.174 168.752C328.808 176.681 331.482 185.401 338.146 188.229C338.206 188.254 338.265 188.269 338.326 188.292L346.239 191.651L347.816 187.936L347.817 187.933Z" fill="#3C3C3C" stroke="black" stroke-width="0.962694" stroke-miterlimit="10"/>
<path d="M312.49 172.938C316.042 171.347 319.188 168.216 320.979 163.997C322.77 159.778 322.836 155.34 321.514 151.679L323.094 147.955L315.006 144.522C308.343 141.693 300.213 145.827 296.847 153.756C293.481 161.686 296.155 170.405 302.819 173.234C302.879 173.259 302.938 173.273 302.999 173.296L310.912 176.655L312.489 172.94L312.49 172.938Z" fill="#3C3C3C" stroke="black" stroke-width="0.962694" stroke-miterlimit="10"/>
<path d="M374.118 103.644L276.292 62.1197C272.368 60.4539 267.936 62.2426 266.271 66.1647L248.25 99.762C247.125 101.862 246.093 104.013 245.161 106.206L237.018 125.391C235.338 129.348 237.202 133.961 241.159 135.641L342.179 178.521C346.081 180.177 350.626 178.339 352.281 174.44L378.124 113.559C379.755 109.715 377.962 105.276 374.118 103.644Z" fill="white" stroke="black" stroke-width="1.07022" stroke-miterlimit="10"/>
<path d="M348.703 81.6807L291.445 57.3762C283.272 53.9068 274.004 56.259 268.422 62.7097C267.561 63.4199 266.85 64.346 266.378 65.4577L265.827 66.5195C265.812 66.5485 265.795 66.5764 265.779 66.6077L263.875 70.2736L263.879 70.2755L246.731 102.727C246.671 102.843 246.721 102.987 246.841 103.037L307.634 128.843L348.702 81.683L348.703 81.6807Z" fill="#D30000" stroke="black" stroke-width="1.07022" stroke-linecap="round" stroke-linejoin="round"/>
<path d="M396.034 112.725L373.514 103.165L367.867 92.5213C364.648 89.3673 363.169 87.8214 359.021 86.0608L341.676 78.6979C333.104 75.0594 323.175 78.6303 318.882 86.8943L300.002 124.34C298.531 127.255 297.159 130.22 295.883 133.226L295.436 134.278L295.456 134.281L295.455 134.286L289.731 147.769C288.052 151.726 289.915 156.339 293.872 158.019L327.164 172.15C327.177 172.121 327.19 172.091 327.203 172.058L363.002 187.363C366.924 189.028 371.482 187.102 373.148 183.178L399.543 120.994C400.86 117.892 399.015 113.99 396.032 112.724L396.034 112.725Z" fill="#F0F0F0" stroke="black" stroke-width="1.07022" stroke-miterlimit="10"/>
<path d="M382.69 160.699L399.543 120.994C400.86 117.892 399.015 113.99 396.032 112.724L373.512 103.164L367.865 92.5203C364.646 89.3663 363.167 87.8204 359.019 86.0598L341.673 78.6969C333.102 75.0585 323.173 78.6294 318.88 86.8933L300 124.339C299.827 124.684 299.657 125.033 299.485 125.381L382.687 160.698L382.69 160.699Z" fill="#A00000" stroke="black" stroke-width="1.07022" stroke-miterlimit="10"/>
<path d="M293.843 118.422L255.089 101.972C253.554 101.321 252.9 99.5002 253.67 98.0204L269.124 69.9701C269.811 68.6455 271.405 68.0723 272.779 68.6555L311.533 85.1057C313.068 85.7574 313.722 87.5777 312.952 89.0576L297.498 117.108C296.811 118.432 295.217 119.006 293.843 118.422Z" fill="#A1A1A1" stroke="black" stroke-width="1.07022" stroke-miterlimit="10"/>
<path d="M294.787 108.878C294.787 108.878 299.607 106.496 303.666 105.905L297.813 116.717C297.295 117.676 296.394 118.372 295.333 118.631L294.786 108.88L294.787 108.878Z" fill="white" stroke="black" stroke-width="1.07022" stroke-linecap="round" stroke-linejoin="round"/>
<path d="M287.545 101.743C280.803 98.8811 273.066 101.782 269.809 108.22L273.448 109.765C275.845 105.328 281.269 103.363 286.004 105.373C290.739 107.382 293.094 112.65 291.567 117.456L293.875 118.436C294.345 118.635 294.847 118.694 295.332 118.628C297.455 111.91 294.163 104.549 287.543 101.74L287.545 101.743Z" fill="#7A7A7A" stroke="black" stroke-width="1.07022" stroke-miterlimit="10"/>
<path d="M311.533 85.1057L272.779 68.6556C271.405 68.0723 269.812 68.6432 269.124 69.9701L264.555 78.2635L308.804 97.0459L312.955 89.0585C313.724 87.5787 313.068 85.7574 311.535 85.1067L311.533 85.1057Z" fill="#3C3C3C" stroke="black" stroke-width="1.07022" stroke-miterlimit="10"/>
<path d="M341.227 138.535L312.328 126.269C309.992 125.277 308.099 122.602 309.626 119.575L322.8 94.8809C323.935 92.6276 326.625 91.6421 328.947 92.6279L354.489 103.47C356.925 104.504 358.061 107.317 357.027 109.752L346.04 135.637C345.231 137.543 343.289 138.713 341.226 138.538L341.227 138.535Z" fill="#A1A1A1" stroke="black" stroke-width="1.07022" stroke-miterlimit="10"/>
<path d="M388.425 117.872L369.675 109.913C367.401 108.948 364.774 110.009 363.809 112.283L352.667 138.532C351.702 140.806 352.763 143.432 355.037 144.398L373.787 152.356C376.061 153.322 378.687 152.261 379.653 149.987L390.795 123.738C391.76 121.463 390.699 118.837 388.425 117.872Z" fill="#A1A1A1" stroke="black" stroke-width="1.07022" stroke-miterlimit="10"/>
<path d="M354.49 103.468L328.948 92.6257C326.626 91.6399 323.934 92.6243 322.801 94.8787L319.435 101.559L354.235 116.33L357.028 109.75C358.062 107.315 356.926 104.501 354.49 103.468Z" fill="#3C3C3C" stroke="black" stroke-width="1.07022" stroke-miterlimit="10"/>
<path d="M389.124 118.169L368.975 109.616C367.088 108.815 364.825 109.889 363.922 112.016L360.892 119.156L387.877 130.611L390.908 123.471C391.811 121.344 391.012 118.97 389.124 118.169Z" fill="#3C3C3C" stroke="black" stroke-width="1.07022" stroke-miterlimit="10"/>
<path d="M311.349 176.849C318.012 179.678 326.143 175.543 329.508 167.615C332.873 159.686 330.2 150.966 323.536 148.137C316.872 145.309 308.742 149.443 305.377 157.372C302.011 165.3 304.685 174.02 311.349 176.849Z" fill="#1E1E1E" stroke="black" stroke-width="0.962694" stroke-miterlimit="10"/>
<path d="M313.761 171.16C310.494 169.774 309.348 164.507 311.308 159.889C313.268 155.272 317.853 152.437 321.12 153.824C324.386 155.21 325.532 160.478 323.572 165.095C321.612 169.712 317.027 172.547 313.761 171.16Z" fill="#7A7A7A" stroke="black" stroke-width="0.962694" stroke-miterlimit="10"/>
<path d="M346.676 191.844C353.339 194.673 361.469 190.539 364.835 182.61C368.2 174.681 365.527 165.961 358.863 163.133C352.199 160.304 344.069 164.438 340.704 172.367C337.338 180.295 340.012 189.016 346.676 191.844Z" fill="#1E1E1E" stroke="black" stroke-width="0.962694" stroke-miterlimit="10"/>
<path d="M349.09 186.157C345.824 184.77 344.678 179.503 346.637 174.886C348.597 170.268 353.183 167.434 356.449 168.82C359.715 170.207 360.861 175.474 358.901 180.091C356.941 184.709 352.356 187.543 349.09 186.157Z" fill="#7A7A7A" stroke="black" stroke-width="0.962694" stroke-miterlimit="10"/>
<path d="M308.609 88.8195L327.078 96.6591C328.238 97.1512 329.576 96.6103 330.069 95.451C330.561 94.2917 330.02 92.9529 328.86 92.4608L310.391 84.6211C309.232 84.129 307.893 84.6699 307.401 85.8293C306.909 86.9886 307.45 88.3274 308.609 88.8195Z" fill="#3C3C3C" stroke="black" stroke-width="1.07022" stroke-miterlimit="10"/>
<path d="M304.024 104.709L301.881 103.8L310.077 84.4906L312.22 85.4002C314.313 86.2883 315.292 88.709 314.403 90.8036L309.426 102.529C308.538 104.621 306.118 105.601 304.023 104.712L304.024 104.709Z" fill="#3C3C3C" stroke="black" stroke-width="1.07022" stroke-miterlimit="10"/>
<path d="M298.641 97.2331C297.609 99.6624 298.743 102.468 301.172 103.499C303.601 104.53 306.407 103.397 307.438 100.967L311.9 90.4553C312.931 88.026 311.798 85.2208 309.368 84.1896C306.939 83.1585 304.134 84.2918 303.103 86.7211L298.641 97.2331Z" fill="#555656" stroke="black" stroke-width="1.07022" stroke-miterlimit="10"/>
<path d="M298.126 143.403L281.516 136.353C279.797 135.623 279.265 133.447 280.45 132.005L286.933 124.13C287.719 123.174 289.044 122.85 290.183 123.334L304.134 129.256C305.554 129.858 306.219 131.499 305.615 132.921L301.793 141.926C301.19 143.346 299.549 144.01 298.127 143.407L298.126 143.403Z" fill="#F3E729" stroke="black" stroke-width="1.07022" stroke-miterlimit="10"/>
<path d="M248.336 118.374L249.498 108.24C249.639 107.01 248.952 105.832 247.813 105.349L245.882 104.529L239.875 118.68L244.467 120.629C246.186 121.359 248.121 120.23 248.335 118.376L248.336 118.374Z" fill="#F3E729" stroke="black" stroke-width="1.07022" stroke-miterlimit="10"/>
<path d="M269.82 139.296L249.553 130.693C248.62 130.297 247.543 130.732 247.146 131.665L245.098 136.492C244.702 137.425 245.137 138.503 246.07 138.899L266.337 147.501C267.27 147.898 268.347 147.462 268.743 146.529L270.792 141.702C271.188 140.769 270.753 139.692 269.82 139.296Z" fill="#F3E729" stroke="black" stroke-width="1.07022" stroke-miterlimit="10"/>
<path d="M273.451 132.604L251.444 123.262C250.871 123.019 250.515 122.488 250.598 121.998L251.61 115.928C251.716 115.288 252.508 114.991 253.256 115.309L278.92 126.202C279.735 126.548 280.042 127.423 279.526 127.924L274.854 132.441C274.527 132.756 273.962 132.82 273.449 132.603L273.451 132.604Z" fill="#BFBFBF" stroke="black" stroke-width="1.07022" stroke-miterlimit="10"/>
<path d="M304.132 129.252L298.569 126.891L292.562 141.042L298.126 143.403C299.546 144.006 301.187 143.345 301.791 141.922L305.613 132.918C306.216 131.498 305.555 129.856 304.132 129.252Z" fill="#F4B117" stroke="black" stroke-width="1.07022" stroke-miterlimit="10"/>
<path d="M297.504 108.453C296.558 110.684 292.038 111.169 287.527 109.254C283.015 107.339 280.225 103.751 281.171 101.52C282.118 99.2899 286.443 99.2648 290.954 101.18C295.465 103.095 298.451 106.223 297.504 108.453Z" fill="white" stroke="black" stroke-width="1.07022" stroke-linecap="round" stroke-linejoin="round"/>
<path d="M390.963 82.7744C387.736 77.9794 381.233 76.7073 376.438 79.9338L367.686 85.9792C367.686 85.9792 367.676 85.972 367.67 85.9668L372.297 79.0209C372.297 79.0209 372.302 79.0094 372.304 79.0048C372.429 78.8188 372.551 78.6263 372.663 78.4266C375.091 74.1466 373.593 68.7106 369.314 66.2804L363.587 63.0293C359.307 60.6014 353.871 62.0997 351.441 66.3788C349.654 69.5265 349.997 73.3011 352.005 76.0443L350.652 79.6098C342.941 79.4359 335.353 82.5472 330.174 88.7835C326.201 93.5676 324.296 99.4117 324.342 105.282C324.138 105.397 320.863 104.536 316.989 105.804L309.989 118.925C308.208 121.986 308.823 124.781 312.02 126.138L355.44 144.569C362.666 138.655 360.735 131.395 360.735 131.395C365.058 129.935 369.009 127.326 372.1 123.604C376.89 117.835 378.673 110.53 377.659 103.493L387.762 97.508C388.001 97.3676 388.237 97.2207 388.459 97.0568C392.973 93.7571 394.107 87.4501 390.959 82.7701L390.963 82.7744Z" fill="white" stroke="black" stroke-width="1.07022" stroke-linecap="round" stroke-linejoin="round"/>
<path d="M358.874 83.3227C354.764 80.9995 358.601 75.1359 358.601 75.1359C355.624 73.8749 355.043 71.5425 356.076 69.495C357.933 65.8096 362.379 67.9573 362.379 67.9573C366.254 69.5858 368.958 72.3607 367.354 76.613C367.354 76.613 364.026 86.2129 358.874 83.3227Z" fill="#8F0080"/>
<path d="M373.844 93.5125C372.225 91.5977 369.404 90.5331 374.372 87.5783C374.372 87.5783 381.472 82.2744 384.603 87.1347C388.379 92.9945 377.217 97.2832 377.217 97.2832C374.591 98.5101 375.438 95.4008 373.844 93.5125Z" fill="#FF7A00"/>
<path d="M348.98 102.851C348.98 102.851 350.69 104.639 352.855 104.222C352.855 104.222 352.285 106.449 354.562 107.79" stroke="black" stroke-width="1.42529" stroke-linecap="round" stroke-linejoin="round"/>
<path d="M352.949 99.8168C353.669 98.9499 353.662 97.7565 352.933 97.1512C352.204 96.5459 351.03 96.758 350.31 97.6249C349.59 98.4918 349.597 99.6852 350.326 100.291C351.054 100.896 352.229 100.684 352.949 99.8168Z" fill="black"/>
<path d="M359.9 106.009C360.62 105.142 360.613 103.949 359.884 103.343C359.156 102.738 357.981 102.95 357.261 103.817C356.541 104.684 356.548 105.877 357.277 106.483C358.006 107.088 359.18 106.876 359.9 106.009Z" fill="black"/>
<path d="M354.338 104.896C354.828 104.305 354.724 103.409 354.105 102.895C353.485 102.38 352.585 102.442 352.095 103.033C351.604 103.624 351.709 104.519 352.328 105.034C352.947 105.548 353.847 105.486 354.338 104.896Z" fill="black"/>
<path d="M356.752 143.39C354.063 145.937 351.388 147.535 348.356 147.94C345.128 148.371 341.855 147.742 338.765 146.83C335.292 145.804 331.941 144.411 328.638 142.939C325.44 141.513 322.389 139.998 319.642 137.792C318.397 136.79 317.237 135.638 316.489 134.226C315.395 132.156 315.562 129.633 316.459 127.52C318.369 123.02 323.566 120.92 328.066 122.83C328.066 122.83 339.006 128.017 344.734 128.775" fill="white"/>
<path d="M356.752 143.39C354.063 145.937 351.388 147.535 348.356 147.94C345.128 148.371 341.855 147.742 338.765 146.83C335.292 145.804 331.941 144.411 328.638 142.939C325.44 141.513 322.389 139.998 319.642 137.792C318.397 136.79 317.237 135.638 316.489 134.226C315.395 132.156 315.562 129.633 316.459 127.52C318.369 123.02 323.566 120.92 328.066 122.83C328.066 122.83 339.006 128.017 344.734 128.775" stroke="black" stroke-width="1.07022" stroke-linecap="round" stroke-linejoin="round"/>
<path d="M309.331 123.712L315.915 117.333" stroke="black" stroke-width="1.07022" stroke-linecap="round" stroke-linejoin="round"/>
<path d="M366.424 107.205C366.794 106.805 366.77 106.178 366.369 105.81L359.78 99.723C359.38 99.3524 358.753 99.3769 358.385 99.7775C358.148 100.033 358.074 100.382 358.155 100.696L355.974 98.6806C356.294 98.738 356.634 98.635 356.87 98.3794C357.241 97.9799 357.216 97.3528 356.816 96.9845L350.226 90.8977C349.826 90.5271 349.199 90.5516 348.831 90.9521C348.475 91.3362 348.486 91.9248 348.838 92.2996C348.572 92.4125 348.326 92.5824 348.12 92.807L346.386 94.6842C345.591 95.5449 345.644 96.885 346.505 97.6795L350.349 101.232C351.209 102.026 352.55 101.973 353.344 101.112L354.681 99.6642L357.277 102.062L355.939 103.51C355.145 104.37 355.198 105.71 356.059 106.505L359.902 110.057C360.763 110.851 362.103 110.798 362.898 109.938L364.632 108.06C364.838 107.836 364.989 107.576 365.081 107.303C365.482 107.625 366.069 107.587 366.424 107.205Z" fill="#3C3C3C" stroke="black" stroke-width="1.07022" stroke-linecap="round" stroke-linejoin="round"/>
<path d="M353.91 96.2449L351.277 93.8114C350.638 93.2209 349.641 93.2602 349.051 93.8992L347.871 95.1756C347.281 95.8146 347.32 96.8112 347.959 97.4017L350.592 99.8352C351.231 100.426 352.228 100.386 352.819 99.7474L353.998 98.471C354.588 97.832 354.549 96.8354 353.91 96.2449Z" fill="black"/>
<path d="M363.338 104.955L360.705 102.521C360.066 101.931 359.069 101.97 358.478 102.609L357.299 103.886C356.709 104.525 356.748 105.521 357.387 106.112L360.02 108.545C360.659 109.136 361.656 109.096 362.247 108.457L363.426 107.181C364.016 106.542 363.977 105.545 363.338 104.955Z" fill="black"/>
<path d="M352.346 94.7857L348.763 94.2157L348.333 94.6795L353.045 95.4301L352.346 94.7857Z" fill="#C8C8C8"/>
<path d="M353.921 96.2394L353.816 96.1406L347.863 95.1916C347.49 95.6093 347.381 96.1717 347.527 96.6736L354.385 97.7645C354.515 97.2276 354.358 96.6368 353.922 96.2371L353.921 96.2394Z" fill="#C8C8C8"/>
<path d="M361.775 103.496L358.192 102.926L357.761 103.392L362.473 104.142L361.775 103.496Z" fill="#C8C8C8"/>
<path d="M363.349 104.952L363.244 104.853L357.291 103.904C356.918 104.321 356.809 104.884 356.955 105.386L363.813 106.477C363.943 105.94 363.786 105.349 363.35 104.949L363.349 104.952Z" fill="#C8C8C8"/>
</g>
<g clip-path="url(#clip2_616_1100)">
<path d="M42.054 111.374C32.7955 119.168 20.4259 127.082 12.8962 129.413C11.1463 129.956 9.31205 130.187 7.5515 129.974C4.07827 129.554 1.09254 127.548 -0.402122 124.685C-1.92652 121.765 -1.75566 118.132 0.0436182 115.086C1.15795 113.198 3.03892 111.788 4.94924 110.779C7.3397 109.515 9.96308 108.816 12.4335 107.736C14.904 106.655 17.2134 105.372 19.3042 103.732" fill="white"/>
<path d="M42.054 111.374C32.7955 119.168 20.4259 127.082 12.8962 129.413C11.1463 129.956 9.31205 130.187 7.5515 129.974C4.07827 129.554 1.09254 127.548 -0.402122 124.685C-1.92652 121.765 -1.75566 118.132 0.0436182 115.086C1.15795 113.198 3.03892 111.788 4.94924 110.779C7.3397 109.515 9.96308 108.816 12.4335 107.736C14.904 106.655 17.2134 105.372 19.3042 103.732" stroke="black" stroke-width="1.07022" stroke-linecap="round" stroke-linejoin="round"/>
<path d="M83.796 146.557L41.5762 166.245L45.686 175.058L87.9058 155.37L83.796 146.557Z" fill="#1E1E1E" stroke="black" stroke-width="1.07022" stroke-linecap="square" stroke-linejoin="round"/>
<path d="M34.5417 171.578L31.7973 172.857L34.3769 178.389L37.1213 177.109L34.5417 171.578Z" fill="black" stroke="black" stroke-width="1.07022" stroke-linecap="square" stroke-linejoin="round"/>
<path d="M31.6667 168.998C26.4295 171.44 24.1619 177.665 26.6051 182.904C29.0483 188.144 35.2723 190.409 40.5118 187.966C45.7513 185.523 48.0166 179.299 45.5734 174.059C43.1302 168.82 36.9062 166.554 31.6667 168.998ZM38.6868 184.052C35.6092 185.487 31.9539 184.157 30.5189 181.079C29.0838 178.002 30.4142 174.346 33.4917 172.911C36.5693 171.476 40.2245 172.807 41.6596 175.884C43.0947 178.962 41.7643 182.617 38.6868 184.052Z" fill="black" stroke="black" stroke-width="1.07022" stroke-linecap="square" stroke-linejoin="round"/>
<path d="M36.4638 180.295L33.8827 178.712L30.6908 183.914L33.2718 185.498L36.4638 180.295Z" fill="black" stroke="black" stroke-width="1.07022" stroke-linecap="square" stroke-linejoin="round"/>
<path d="M43.3906 180.234L43.5089 177.208L37.4098 176.97L37.2915 179.996L43.3906 180.234Z" fill="black" stroke="black" stroke-width="1.07022" stroke-linecap="square" stroke-linejoin="round"/>
<path d="M37.1978 180.859C38.5107 180.247 39.0788 178.686 38.4665 177.373C37.8543 176.06 36.2936 175.492 34.9807 176.104C33.6678 176.717 33.0997 178.277 33.712 179.59C34.3242 180.903 35.8849 181.471 37.1978 180.859Z" fill="black" stroke="black" stroke-width="1.07022" stroke-linecap="square" stroke-linejoin="round"/>
<path d="M95.1202 143.329L92.3758 144.609L94.9554 150.141L97.6998 148.861L95.1202 143.329Z" fill="black" stroke="black" stroke-width="1.07022" stroke-linecap="square" stroke-linejoin="round"/>
<path d="M92.2452 140.749C87.008 143.192 84.7404 149.417 87.1836 154.656C89.6269 159.896 95.8508 162.161 101.09 159.718C106.33 157.274 108.595 151.05 106.152 145.811C103.709 140.571 97.4848 138.306 92.2452 140.749ZM99.2653 155.804C96.1878 157.239 92.5325 155.909 91.0974 152.831C89.6623 149.753 90.9927 146.098 94.0703 144.663C97.1478 143.228 100.803 144.558 102.238 147.636C103.673 150.714 102.343 154.369 99.2653 155.804Z" fill="black" stroke="black" stroke-width="1.07022" stroke-linecap="square" stroke-linejoin="round"/>
<path d="M97.0395 152.052L94.4584 150.469L91.2665 155.671L93.8476 157.255L97.0395 152.052Z" fill="black" stroke="black" stroke-width="1.07022" stroke-linecap="square" stroke-linejoin="round"/>
<path d="M103.967 151.986L104.085 148.96L97.9861 148.721L97.8677 151.747L103.967 151.986Z" fill="black" stroke="black" stroke-width="1.07022" stroke-linecap="square" stroke-linejoin="round"/>
<path d="M97.7763 152.611C99.0893 151.999 99.6573 150.438 99.0451 149.125C98.4328 147.812 96.8722 147.244 95.5592 147.856C94.2463 148.468 93.6783 150.029 94.2905 151.342C94.9027 152.655 96.4634 153.223 97.7763 152.611Z" fill="black" stroke="black" stroke-width="1.07022" stroke-linecap="square" stroke-linejoin="round"/>
<path d="M35.1909 165.668L29.9446 168.115L17.8984 125.461L23.1447 123.014L35.1909 165.668Z" fill="#F4D94E" stroke="black" stroke-width="1.07022" stroke-linecap="square" stroke-linejoin="round"/>
<path d="M9.52708 116.135L6.34286 123.849L10.3292 122.807C13.8238 121.87 16.7279 124.205 17.665 127.699L19.1549 132.658L25.7644 130.638L22.9776 121.721C22.476 119.852 19.655 113.903 17.7866 114.405L9.52708 116.135Z" fill="#323232" stroke="black" stroke-width="1.07022" stroke-linecap="square" stroke-linejoin="round"/>
<path d="M85.7654 145.639L41.5762 166.245L43.0103 169.32L87.1994 148.714L85.7654 145.639Z" fill="#323232" stroke="black" stroke-width="1.07022" stroke-linecap="square" stroke-linejoin="round"/>
<path d="M27.1936 159.275L32.6689 156.722C33.2331 156.459 33.8961 156.762 34.0676 157.361L37.0029 166.537C37.1398 167.014 36.91 167.521 36.4591 167.731L30.5646 170.48C29.9912 170.747 29.3153 170.428 29.1598 169.816L26.6415 160.446C26.5212 159.975 26.7528 159.483 27.1924 159.278L27.1936 159.275Z" fill="#323232" stroke="black" stroke-width="1.07022" stroke-linecap="square" stroke-linejoin="round"/>
<path d="M43.5903 173.558C43.3093 173.689 42.9817 173.56 42.8539 173.28L42.8518 173.276C41.0405 169.391 36.4216 167.71 32.5373 169.521C30.5634 170.442 29.1615 172.086 28.4954 173.989C28.414 174.222 28.1796 174.37 27.9318 174.348L24.357 174.042C24.0145 174.012 23.7796 173.68 23.8704 173.348C24.7879 169.943 27.144 166.949 30.5886 165.342C36.7822 162.454 44.1426 165.133 47.0308 171.327C47.0339 171.334 47.0382 171.343 47.0413 171.35C47.1692 171.624 47.044 171.947 46.7698 172.075L43.5903 173.558Z" fill="#F4D94E" stroke="black" stroke-width="1.07022" stroke-linecap="square" stroke-linejoin="round"/>
<path d="M88.5568 152.589C88.84 152.457 88.9657 152.117 88.8325 151.832C87.0212 147.947 88.7024 143.328 92.5867 141.517C94.5583 140.598 96.7179 140.578 98.6035 141.291C98.8383 141.38 99.1036 141.292 99.2479 141.087L101.305 138.161C101.506 137.877 101.398 137.48 101.083 137.332C97.8864 135.848 94.0817 135.73 90.637 137.336C84.4434 140.224 81.7644 147.585 84.6525 153.778L84.661 153.796C84.7889 154.07 85.1178 154.19 85.3921 154.062L88.5557 152.587L88.5568 152.589Z" fill="#F4D94E" stroke="black" stroke-width="1.07022" stroke-linecap="square" stroke-linejoin="round"/>
<path d="M57.2762 72.1777C56.1053 69.6667 54.5585 67.4442 52.73 65.5406L52.7269 65.5338L52.7202 65.5313C48.291 60.92 42.2042 58.1796 35.7499 57.7515L7.69757 77.2141C6.06082 82.8691 6.36112 89.0334 8.99774 94.6876C11.441 99.9271 15.5092 103.912 20.3801 106.364L67.6474 95.6434L59.5707 81.8789C59.4779 78.6031 58.7344 75.3107 57.2729 72.1765L57.2762 72.1777Z" fill="white" stroke="black" stroke-width="1.07022" stroke-linecap="round" stroke-linejoin="round"/>
<path d="M20.3742 90.489C20.3742 90.489 22.0913 92.8639 23.7599 92.1052C25.5372 91.2957 24.6458 88.5854 24.6458 88.5854L21.8391 88.6251L20.3742 90.489Z" fill="#CB5641" stroke="black" stroke-width="1.07022" stroke-linecap="round" stroke-linejoin="round"/>
<path d="M19.2011 90.8429C19.2011 90.8429 21.1538 91.0249 21.617 88.1548" stroke="black" stroke-width="1.42529" stroke-linecap="round" stroke-linejoin="round"/>
<path d="M21.6193 88.1537C22.556 88.7129 23.3308 88.8124 23.9329 88.7192C24.9384 88.5621 25.4652 87.8695 25.4652 87.8695" stroke="black" stroke-width="1.42529" stroke-linecap="round" stroke-linejoin="round"/>
<path d="M17.402 88.6828C18.2606 88.2825 18.5705 87.13 18.0943 86.1087C17.618 85.0874 16.5359 84.584 15.6773 84.9844C14.8187 85.3847 14.5088 86.5372 14.985 87.5585C15.4613 88.5798 16.5434 89.0832 17.402 88.6828Z" fill="black"/>
<path d="M25.2034 84.9649C26.062 84.5646 26.372 83.4121 25.8957 82.3908C25.4195 81.3695 24.3374 80.8661 23.4788 81.2665C22.6202 81.6668 22.3102 82.8193 22.7865 83.8406C23.2627 84.8619 24.3448 85.3653 25.2034 84.9649Z" fill="black"/>
<path d="M22.0695 89.1191C22.7992 88.7788 23.1281 87.9399 22.8042 87.2452C22.4803 86.5506 21.6262 86.2633 20.8965 86.6036C20.1668 86.9438 19.8378 87.7828 20.1618 88.4774C20.4857 89.1721 21.3398 89.4593 22.0695 89.1191Z" fill="black"/>
<path d="M27.2021 118.267L39.1606 136.125C39.3382 136.34 44.886 151.723 45.4237 153.497C45.4237 153.497 42.8284 157.469 45.1541 160.581C45.7456 161.37 46.5174 161.907 47.3682 162.253C48.6273 162.763 50.0284 162.786 51.3352 162.411C55.8148 161.125 71.055 156.195 68.3529 149.253L66.6955 136.871L81.3007 115.587C71.2786 95.6442 59.5718 81.8812 59.5718 81.8812" fill="white"/>
<path d="M27.2021 118.267L39.1606 136.125C39.3382 136.34 44.886 151.723 45.4237 153.497C45.4237 153.497 42.8284 157.469 45.1541 160.581C45.7456 161.37 46.5174 161.907 47.3682 162.253C48.6273 162.763 50.0284 162.786 51.3352 162.411C55.8148 161.125 71.055 156.195 68.3529 149.253L66.6955 136.871L81.3007 115.587C71.2786 95.6442 59.5718 81.8812 59.5718 81.8812" stroke="black" stroke-width="1.07022" stroke-linecap="round" stroke-linejoin="round"/>
<path d="M60.7147 130.086C60.7147 130.086 64.3643 140.51 75.1615 137.572C80.2614 136.184 84.1138 132.388 87.4859 126.354C87.6588 126.044 87.9809 125.842 88.3377 125.844C89.1307 125.852 90.9903 126.207 93.337 124.536C96.091 122.579 97.0192 119.723 91.3175 111.608C91.3175 111.608 85.3177 102.818 77.2639 107.995L78.7201 110.751" fill="white"/>
<path d="M60.7147 130.086C60.7147 130.086 64.3643 140.51 75.1615 137.572C80.2614 136.184 84.1138 132.388 87.4859 126.354C87.6588 126.044 87.9809 125.842 88.3377 125.844C89.1307 125.852 90.9903 126.207 93.337 124.536C96.091 122.579 97.0192 119.723 91.3175 111.608C91.3175 111.608 85.3177 102.818 77.2639 107.995L78.7201 110.751" stroke="black" stroke-width="1.07022" stroke-linecap="round" stroke-linejoin="round"/>
<path d="M33.9313 99.1734C33.9313 99.1734 49.7631 89.9921 37.6981 64.1186L40.4243 62.8473C40.4243 62.8473 52.6782 88.0312 37.602 98.7916" fill="#FF0000"/>
<path d="M33.9313 99.1734C33.9313 99.1734 49.7631 89.9921 37.6981 64.1186L40.4243 62.8473C40.4243 62.8473 52.6782 88.0312 37.602 98.7916" stroke="black" stroke-width="1.07022" stroke-linecap="square" stroke-linejoin="round"/>
<path d="M12.235 99.772C12.235 99.772 16.5024 103.918 21.9864 103.993L21.2378 106.867C21.2378 106.867 15.2344 104.021 12.235 99.772Z" fill="#FF0000" stroke="black" stroke-width="1.07022" stroke-linecap="square" stroke-linejoin="round"/>
<path d="M45.0234 88.3893C45.0234 88.3893 41.0485 94.2544 31.4935 98.1582C14.034 105.293 16.8573 112.631 20.889 115.171C24.1492 112.578 24.3727 119.015 30.2449 119.905C35.1356 120.648 44.7214 116.887 56.0321 106.945" fill="white"/>
<path d="M45.0234 88.3893C45.0234 88.3893 41.0485 94.2544 31.4935 98.1582C14.034 105.293 16.8573 112.631 20.889 115.171C24.1492 112.578 24.3727 119.015 30.2449 119.905C35.1356 120.648 44.7214 116.887 56.0321 106.945" stroke="black" stroke-width="1.07022" stroke-linecap="round" stroke-linejoin="round"/>
<path d="M2.80318 119.27C1.09671 120.066 0.383702 122.128 1.26268 123.818C2.09184 125.407 4.07691 126.001 5.70179 125.244L24.0809 116.673C25.742 115.899 26.4627 113.924 25.6871 112.26C24.9125 110.599 22.9376 109.879 21.2741 110.654L2.80213 119.268L2.80318 119.27Z" fill="#323232" stroke="black" stroke-width="1.07022" stroke-miterlimit="10" stroke-linecap="square"/>
<path d="M24.0821 116.67C25.743 115.896 26.4616 113.921 25.6871 112.26C24.9126 110.6 22.9383 109.881 21.2775 110.655C19.6166 111.43 18.898 113.404 19.6725 115.065C20.447 116.726 22.4212 117.445 24.0821 116.67Z" fill="#6D6D6D" stroke="black" stroke-width="1.07022" stroke-miterlimit="10" stroke-linecap="square"/>
<path d="M16.4649 50.8359C-1.60144 59.2603 2.22385 74.7176 4.05519 79.7513C4.38092 80.6451 5.40318 81.0623 6.26434 80.6608L48.2922 60.9994C49.1443 60.6021 49.4802 59.5653 49.0228 58.744C46.4322 54.1056 37.0479 41.2406 16.4682 50.8371L16.4649 50.8359Z" fill="#F4D94E" stroke="black" stroke-width="1.07022" stroke-linecap="square" stroke-linejoin="round"/>
<path d="M11.1873 69.9474L10.3512 71.7223C9.9047 72.6699 10.889 73.6567 11.8386 73.2139L16.8356 70.8837C17.8191 70.4251 17.6418 68.9738 16.5746 68.7679L14.3546 68.3381C13.0537 68.0866 11.748 68.7479 11.185 69.9485L11.1873 69.9474Z" fill="#FF0000" stroke="black" stroke-width="1.07022" stroke-linecap="square" stroke-linejoin="round"/>
<path d="M9.65172 69.4412C10.1536 69.2072 10.3708 68.6106 10.1367 68.1087C9.90269 67.6068 9.3061 67.3897 8.8042 67.6237C8.30231 67.8578 8.08517 68.4543 8.31921 68.9562C8.55324 69.4581 9.14983 69.6753 9.65172 69.4412Z" fill="black"/>
<path d="M15.3218 66.7973C15.8237 66.5632 16.0408 65.9666 15.8068 65.4647C15.5728 64.9628 14.9762 64.7457 14.4743 64.9797C13.9724 65.2138 13.7553 65.8104 13.9893 66.3123C14.2233 66.8142 14.8199 67.0313 15.3218 66.7973Z" fill="black"/>
<path d="M7.14321 59.2218C7.14321 59.2218 5.64057 58.8217 5.42897 57.149C5.34035 56.462 6.08734 55.9812 6.68287 56.3353C7.36871 56.7411 8.28826 57.1097 9.17309 56.9068" fill="#F4D94E"/>
<path d="M7.14321 59.2218C7.14321 59.2218 5.64057 58.8217 5.42897 57.149C5.34035 56.462 6.08734 55.9812 6.68287 56.3353C7.36871 56.7411 8.28826 57.1097 9.17309 56.9068" stroke="black" stroke-width="1.07022" stroke-linecap="round" stroke-linejoin="round"/>
<path d="M6.35265 61.4197C6.35265 61.4197 5.15909 61.499 4.5925 60.3312C4.36061 59.8517 4.7857 59.3196 5.30623 59.4301C5.90575 59.5561 6.66527 59.5992 7.26147 59.2329" fill="#F4D94E"/>
<path d="M6.35265 61.4197C6.35265 61.4197 5.15909 61.499 4.5925 60.3312C4.36061 59.8517 4.7857 59.3196 5.30623 59.4301C5.90575 59.5561 6.66527 59.5992 7.26147 59.2329" stroke="black" stroke-width="1.07022" stroke-linecap="round" stroke-linejoin="round"/>
<path d="M2.73246 117.846C2.73246 117.846 2.57716 119.927 4.17201 120.105C6.72381 120.389 7.83891 116.384 7.83891 116.384" fill="white"/>
<path d="M2.73246 117.846C2.73246 117.846 2.57716 119.927 4.17201 120.105C6.72381 120.389 7.83891 116.384 7.83891 116.384" stroke="black" stroke-width="1.07022" stroke-linecap="round" stroke-linejoin="round"/>
</g>
<g clip-path="url(#clip3_616_1100)">
<path d="M166.869 55.6571C161.057 58.247 147.125 56.7719 147.125 56.7719C140.796 56.0196 135.097 60.1994 134.395 66.1037C133.727 71.7115 138.062 76.8394 144.072 77.5528C144.072 77.5528 159.887 79.7677 169.398 75.3523" fill="white"/>
<path d="M166.869 55.6571C161.057 58.247 147.125 56.7719 147.125 56.7719C140.796 56.0196 135.097 60.1994 134.395 66.1037C133.727 71.7115 138.062 76.8394 144.072 77.5528C144.072 77.5528 159.887 79.7677 169.398 75.3523" stroke="black" stroke-width="1.07022" stroke-linecap="round" stroke-linejoin="round"/>
<path d="M158.579 71.7619C158.485 84.3254 156.379 94.292 156.379 94.292L202.791 99.8796C215.861 79.5796 204.732 56.4266 203.582 54.1549C204.776 51.1032 205.378 47.782 205.257 44.326C204.926 34.8423 199.242 26.7566 191.082 22.638L192.836 14.1874C192.892 13.9228 192.94 13.6559 192.97 13.3871C193.561 7.95455 189.755 2.98084 184.302 2.17044C178.714 1.34227 173.511 5.19941 172.683 10.7878L172.361 13.166C172.335 12.9918 172.304 12.8202 172.268 12.6463C171.258 7.94527 166.627 4.95192 161.924 5.96435L155.631 7.31753C150.93 8.32738 147.936 12.9581 148.949 17.6616C149.693 21.1209 152.396 23.6512 155.645 24.3483L157.655 29.5975C153.939 34.1633 151.807 39.9549 152.024 46.1899C152.226 51.9675 154.414 57.2255 157.939 61.3858" fill="white"/>
<path d="M158.579 71.7619C158.485 84.3254 156.379 94.292 156.379 94.292L202.791 99.8796C215.861 79.5796 204.732 56.4266 203.582 54.1549C204.776 51.1032 205.378 47.782 205.257 44.326C204.926 34.8423 199.242 26.7566 191.082 22.638L192.836 14.1874C192.892 13.9228 192.94 13.6559 192.97 13.3871C193.561 7.95455 189.755 2.98084 184.302 2.17044C178.714 1.34227 173.511 5.19941 172.683 10.7878L172.361 13.166C172.335 12.9918 172.304 12.8202 172.268 12.6463C171.258 7.94527 166.627 4.95192 161.924 5.96435L155.631 7.31753C150.93 8.32738 147.936 12.9581 148.949 17.6616C149.693 21.1209 152.396 23.6512 155.645 24.3483L157.655 29.5975C153.939 34.1633 151.807 39.9549 152.024 46.1899C152.226 51.9675 154.414 57.2255 157.939 61.3858" stroke="black" stroke-width="1.07022" stroke-linecap="round" stroke-linejoin="round"/>
<path d="M157.757 85.1765L150.52 92.7552C148.228 91.877 145.594 92.6095 144.085 94.6087C142.229 97.0655 142.709 100.562 145.16 102.413L156.218 110.766C158.518 112.505 161.737 112.177 163.661 110.096L182.746 90.7291" fill="white"/>
<path d="M157.757 85.1765L150.52 92.7552C148.228 91.877 145.594 92.6095 144.085 94.6087C142.229 97.0655 142.709 100.562 145.16 102.413L156.218 110.766C158.518 112.505 161.737 112.177 163.661 110.096L182.746 90.7291" stroke="black" stroke-width="1.07022" stroke-linecap="round" stroke-linejoin="round"/>
<path d="M164.653 25.7127C160.143 26.6908 159.128 19.9182 159.128 19.9182C156.136 20.9359 154.196 19.6101 153.618 17.446C152.578 13.5491 157.216 12.2237 157.216 12.2237C161.1 10.8921 164.88 11.1579 166.476 15.3031C166.476 15.3031 170.291 24.4699 164.653 25.7127Z" fill="#8F0080"/>
<path d="M180.709 21.6441C178.259 21.6396 175.682 23.0707 176.616 17.5011C176.616 17.5011 177.183 9.10447 182.788 9.83948C189.545 10.7245 185.65 21.5116 185.65 21.5116C184.905 24.2448 183.123 21.6499 180.709 21.6441Z" fill="#FF7A00"/>
<path d="M162.913 46.6278C162.913 46.6278 164.64 47.5583 166.188 45.0973" stroke="black" stroke-width="1.42529" stroke-linecap="round" stroke-linejoin="round"/>
<path d="M169.841 46.3358C169.841 46.3358 167.903 47.4418 166.188 45.0973" stroke="black" stroke-width="1.42529" stroke-linecap="round" stroke-linejoin="round"/>
<path d="M162.101 43.9364C163.048 43.9034 163.784 42.9636 163.744 41.8374C163.705 40.7112 162.906 39.825 161.959 39.8581C161.012 39.8912 160.276 40.8309 160.316 41.9571C160.355 43.0833 161.155 43.9695 162.101 43.9364Z" fill="black"/>
<path d="M170.735 43.5624C171.682 43.5294 172.418 42.5896 172.378 41.4634C172.339 40.3372 171.54 39.451 170.593 39.4841C169.646 39.5171 168.91 40.4569 168.95 41.5831C168.989 42.7093 169.788 43.5955 170.735 43.5624Z" fill="black"/>
<path d="M166.227 46.1618C167.032 46.1337 167.663 45.4899 167.636 44.724C167.609 43.958 166.935 43.3598 166.13 43.3879C165.326 43.416 164.695 44.0597 164.722 44.8257C164.749 45.5917 165.423 46.1899 166.227 46.1618Z" fill="black"/>
<path d="M227.177 126.475C227.177 126.475 227.154 126.476 227.142 126.476L186.97 125.707C186.627 125.702 186.354 125.419 186.36 125.073C186.365 124.73 186.656 124.462 186.991 124.463L227.163 125.232C227.506 125.238 227.779 125.521 227.773 125.866C227.767 126.197 227.501 126.464 227.174 126.475L227.177 126.475Z" fill="white"/>
<path d="M221.023 140.564C220.853 140.57 220.681 140.506 220.554 140.375L192.694 111.426C192.455 111.179 192.463 110.786 192.71 110.547C192.957 110.309 193.35 110.317 193.589 110.564L221.449 139.513C221.688 139.76 221.679 140.153 221.433 140.392C221.319 140.503 221.171 140.561 221.023 140.566L221.023 140.564Z" fill="white"/>
<path d="M192.616 140.022C192.446 140.028 192.274 139.964 192.147 139.833C191.908 139.586 191.917 139.193 192.164 138.955L221.112 111.094C221.359 110.856 221.752 110.864 221.991 111.111C222.23 111.358 222.221 111.751 221.974 111.99L193.026 139.85C192.912 139.962 192.764 140.019 192.616 140.025L192.616 140.022Z" fill="white"/>
<path d="M206.707 146.175C206.707 146.175 206.685 146.176 206.672 146.177C206.329 146.171 206.057 145.888 206.062 145.542L206.831 105.37C206.837 105.027 207.127 104.752 207.463 104.76C207.806 104.766 208.078 105.049 208.073 105.395L207.304 145.567C207.298 145.897 207.032 146.164 206.705 146.175L206.707 146.175Z" fill="white"/>
<path d="M207.871 148.394C195.231 148.836 184.586 138.911 184.144 126.269C183.703 113.627 193.627 102.984 206.27 102.543C218.912 102.101 229.554 112.026 229.996 124.668C230.437 137.31 220.513 147.953 207.871 148.394ZM206.556 110.739C198.434 111.023 192.058 117.861 192.341 125.983C192.625 134.105 199.463 140.481 207.584 140.197C215.706 139.914 222.083 133.076 221.799 124.954C221.516 116.832 214.677 110.456 206.556 110.739Z" fill="#2D2D2D"/>
<path d="M206.288 103.078C218.656 102.646 229.029 112.322 229.461 124.687C229.893 137.052 220.217 147.428 207.852 147.859C195.487 148.291 185.111 138.615 184.679 126.25C184.247 113.885 193.923 103.509 206.288 103.078ZM207.603 140.732C216.032 140.438 222.628 133.365 222.334 124.935C222.04 116.506 214.969 109.91 206.537 110.205C198.106 110.499 191.512 117.572 191.806 126.001C192.101 134.431 199.174 141.027 207.603 140.732ZM206.251 102.011C193.316 102.462 183.158 113.353 183.61 126.29C184.062 139.227 194.952 149.383 207.889 148.931C220.827 148.48 230.982 137.589 230.531 124.652C230.079 111.714 219.188 101.559 206.251 102.011ZM207.566 139.665C199.739 139.938 193.149 133.793 192.876 125.967C192.603 118.14 198.748 111.55 206.575 111.277C214.401 111.003 220.991 117.148 221.264 124.975C221.538 132.802 215.393 139.392 207.566 139.665Z" fill="black"/>
<path d="M206.434 107.251C196.371 107.602 188.499 116.044 188.85 126.107C189.202 136.171 197.643 144.042 207.706 143.691C217.77 143.34 225.642 134.898 225.29 124.835C224.939 114.771 216.497 106.899 206.434 107.251ZM207.504 137.888C200.644 138.128 194.89 132.762 194.65 125.902C194.411 119.042 199.777 113.288 206.636 113.049C213.496 112.809 219.251 118.175 219.49 125.035C219.73 131.894 214.364 137.649 207.504 137.888Z" fill="#57B06F"/>
<path d="M154.441 133.026C154.389 133.028 154.336 133.022 154.283 133.011L115.086 124.187C114.75 124.111 114.541 123.778 114.617 123.445C114.693 123.11 115.023 122.901 115.359 122.976L154.556 131.801C154.891 131.877 155.101 132.21 155.025 132.543C154.962 132.825 154.716 133.016 154.441 133.026Z" fill="white"/>
<path d="M145.582 145.593C145.37 145.6 145.159 145.497 145.034 145.304L123.557 111.348C123.374 111.057 123.461 110.674 123.75 110.491C124.041 110.308 124.425 110.395 124.607 110.684L146.085 144.639C146.267 144.931 146.181 145.314 145.892 145.497C145.796 145.558 145.687 145.589 145.582 145.593Z" fill="white"/>
<path d="M117.865 139.352C117.652 139.36 117.441 139.257 117.317 139.064C117.134 138.772 117.221 138.389 117.509 138.206L151.465 116.729C151.756 116.546 152.14 116.633 152.323 116.922C152.505 117.213 152.419 117.596 152.13 117.779L118.174 139.256C118.079 139.317 117.97 139.349 117.865 139.352Z" fill="white"/>
<path d="M130.432 148.213C130.379 148.215 130.326 148.21 130.273 148.199C129.938 148.123 129.729 147.79 129.805 147.457L138.629 108.26C138.705 107.925 139.038 107.715 139.371 107.791C139.706 107.867 139.916 108.2 139.84 108.533L131.015 147.73C130.953 148.013 130.707 148.206 130.432 148.216L130.432 148.213Z" fill="white"/>
<path d="M135.593 150.918C122.953 151.36 112.308 141.435 111.866 128.793C111.425 116.151 121.349 105.508 133.992 105.067C146.634 104.625 157.276 114.55 157.718 127.192C158.159 139.834 148.235 150.477 135.593 150.918ZM134.278 113.263C126.156 113.547 119.779 120.385 120.063 128.507C120.347 136.628 127.185 143.005 135.306 142.721C143.428 142.438 149.805 135.6 149.521 127.478C149.237 119.356 142.399 112.98 134.278 113.263Z" fill="#2D2D2D"/>
<path d="M134.01 105.602C146.378 105.17 156.751 114.846 157.183 127.211C157.615 139.576 147.939 149.952 135.574 150.383C123.209 150.815 112.833 141.142 112.401 128.774C111.969 116.407 121.645 106.033 134.01 105.602ZM135.325 143.256C143.754 142.962 150.35 135.888 150.056 127.459C149.762 119.03 142.691 112.434 134.259 112.729C125.827 113.023 119.234 120.096 119.528 128.525C119.823 136.955 126.896 143.551 135.325 143.256ZM133.973 104.535C121.038 104.986 110.88 115.877 111.332 128.814C111.784 141.751 122.674 151.907 135.611 151.455C148.549 151.004 158.704 140.113 158.253 127.176C157.801 114.238 146.91 104.083 133.973 104.535ZM135.288 142.189C127.461 142.462 120.871 136.317 120.598 128.491C120.325 120.664 126.47 114.074 134.296 113.801C142.123 113.527 148.713 119.672 148.986 127.499C149.26 135.326 143.115 141.916 135.288 142.189Z" fill="black"/>
<path d="M134.156 109.775C124.093 110.126 116.221 118.568 116.572 128.631C116.924 138.695 125.365 146.566 135.428 146.215C145.492 145.864 153.364 137.422 153.012 127.359C152.661 117.295 144.219 109.423 134.156 109.775ZM135.226 140.412C128.366 140.652 122.612 135.286 122.372 128.426C122.133 121.566 127.499 115.812 134.358 115.573C141.218 115.333 146.972 120.699 147.212 127.559C147.452 134.418 142.086 140.173 135.226 140.412Z" fill="#57B06F"/>
<path d="M204.723 129.116L181.177 124.391C171.478 124.73 162.179 120.323 156.303 112.602L140.779 92.2146L144.951 82.2284L163.792 106.899C167.823 112.192 174.198 115.212 180.848 114.98L204.447 121.219L204.723 129.113L204.723 129.116Z" fill="white"/>
<path d="M134.765 76.5492C134.167 76.5701 133.597 76.3573 133.162 75.9496C129.86 72.8699 129.678 67.6745 132.758 64.3718C134.169 62.8589 136.079 61.944 138.142 61.7919C138.172 61.7858 138.205 61.7822 138.235 61.7812L144.277 61.5701C144.917 61.5478 145.536 61.8014 145.978 62.2639C146.419 62.7263 146.639 63.3617 146.584 64.0041C146.488 65.1259 145.535 65.9998 144.371 66.0405L138.593 66.2423C137.611 66.2816 136.7 66.7012 136.03 67.4202C134.631 68.9202 134.713 71.2792 136.213 72.678C136.756 73.182 137.012 73.9287 136.898 74.6682C136.762 75.5612 136.079 76.2931 135.198 76.4915C135.056 76.524 134.909 76.5416 134.767 76.5466L134.765 76.5492Z" fill="black"/>
<path d="M144.296 62.1024C145.305 62.0672 146.141 62.9187 146.049 63.9578C145.975 64.8236 145.219 65.4755 144.35 65.5058L138.572 65.7076C137.493 65.7528 136.43 66.2027 135.634 67.0562C134.033 68.7735 134.127 71.4649 135.844 73.0687C136.237 73.4353 136.457 73.9856 136.365 74.5868C136.261 75.261 135.74 75.8196 135.075 75.9704C134.963 75.9969 134.851 76.0108 134.743 76.0145C134.274 76.0309 133.842 75.8559 133.524 75.5592C130.431 72.6748 130.262 67.8293 133.146 64.7361C134.533 63.249 136.371 62.4417 138.251 62.321L138.251 62.316L144.293 62.105M144.258 61.0329L138.216 61.2439C138.166 61.2456 138.116 61.2499 138.069 61.259C135.883 61.4279 133.86 62.4018 132.365 64.0053C129.083 67.5252 129.276 73.0579 132.796 76.3378C133.336 76.8418 134.043 77.1074 134.783 77.0815C134.961 77.0753 135.137 77.0516 135.314 77.0129C136.406 76.7671 137.255 75.8568 137.424 74.7475C137.565 73.8318 137.247 72.9097 136.575 72.2851C135.292 71.0889 135.221 69.0672 136.418 67.7845C136.992 67.1689 137.772 66.8089 138.617 66.7744L144.387 66.5729C145.821 66.5228 146.994 65.436 147.116 64.0481C147.183 63.2526 146.911 62.469 146.365 61.8951C145.82 61.3211 145.051 61.0077 144.258 61.0354L144.258 61.0329Z" fill="black"/>
<path d="M208.711 123.89L182.428 96.9702L177.66 98.5053L205.429 127.05L208.711 123.89Z" fill="white"/>
<path d="M186.008 102.034L170.415 97.9352C168.915 97.5422 167.755 95.7987 167.837 94.0619C167.902 92.6936 169.14 91.5144 171.054 91.4476L188.829 90.2389C189.595 90.1871 190.179 90.9248 190.041 91.7729L188.941 99.8353C188.699 101.36 187.334 102.383 186.005 102.034L186.008 102.034Z" fill="#2D2D2D" stroke="black" stroke-width="1.13523" stroke-linecap="round" stroke-linejoin="round"/>
<path d="M155.857 71.1764L135.218 71.8972C133.951 71.9414 132.959 73.0044 133.004 74.2713C133.048 75.5383 134.111 76.5295 135.378 76.4853L142.008 76.2538L132.376 126.378L137.111 126.831L146.823 76.0856L157.439 75.7149L155.859 71.1763L155.857 71.1764Z" fill="white"/>
<path d="M139.235 129.635C140.141 127.18 138.885 124.455 136.43 123.549C133.975 122.643 131.25 123.898 130.344 126.354C129.438 128.809 130.694 131.533 133.149 132.44C135.604 133.346 138.329 132.09 139.235 129.635Z" fill="white"/>
<path d="M211.516 127.112C212.422 124.657 211.167 121.932 208.712 121.026C206.257 120.12 203.532 121.376 202.626 123.831C201.719 126.286 202.975 129.011 205.43 129.917C207.885 130.823 210.61 129.567 211.516 127.112Z" fill="white"/>
<path d="M135.218 71.8972C133.951 71.9414 132.959 73.0044 133.004 74.2714C133.048 75.5383 134.111 76.5296 135.378 76.4853L142.008 76.2538L140.312 83.0009L146.027 82.8014L147.403 76.0654L157.439 75.7149L155.859 71.1764L135.22 71.8971L135.218 71.8972Z" fill="#4C4B4C"/>
<path d="M145.989 80.4407L140.822 80.6212C139.855 80.6549 139.1 81.4654 139.133 82.4315C139.167 83.3976 139.978 84.1535 140.944 84.1197L146.112 83.9393C147.078 83.9055 147.834 83.095 147.8 82.1289C147.766 81.1628 146.956 80.407 145.989 80.4407Z" fill="black"/>
<path d="M169.145 63.7918L162.388 64.0278C161.138 64.0789 159.911 64.6021 158.989 65.5876C157.135 67.5764 157.671 71.1131 159.232 72.5423C159.604 72.882 159.839 73.3693 159.858 73.914C159.896 75.0011 159.047 75.9115 157.96 75.9494C157.418 75.9683 156.918 75.7656 156.548 75.4208C152.968 72.0829 152.775 66.4776 156.111 62.9009C157.714 61.181 159.844 60.246 162.018 60.105L162.018 60.0975L169.007 59.8534C170.094 59.8154 171.005 60.6643 171.043 61.7514C171.081 62.8385 170.232 63.7488 169.145 63.7868L169.145 63.7918Z" fill="black"/>
<path d="M183.067 94.8362L177.899 95.0167C176.933 95.0504 176.177 95.8609 176.211 96.827C176.244 97.7932 177.055 98.549 178.021 98.5152L183.189 98.3348C184.155 98.301 184.911 97.4905 184.877 96.5244C184.843 95.5583 184.033 94.8025 183.067 94.8362Z" fill="black"/>
<path d="M172.582 125.177L177.317 125.629L182.494 98.359L177.661 98.5278L172.582 125.177Z" fill="white"/>
<path d="M158.815 103.147C157.749 101.73 155.735 101.445 154.319 102.51C152.902 103.576 152.617 105.59 153.683 107.006C154.748 108.423 156.762 108.708 158.178 107.642C159.595 106.577 159.88 104.563 158.815 103.147ZM154.989 106.025C154.467 105.33 154.605 104.342 155.303 103.817C156 103.292 156.986 103.433 157.51 104.13C158.033 104.825 157.894 105.813 157.197 106.338C156.502 106.86 155.514 106.722 154.989 106.025Z" fill="#57B06F"/>
<path d="M153.557 104.556C155.329 104.494 156.716 103.008 156.654 101.235C156.592 99.4633 155.105 98.0769 153.333 98.1388C151.561 98.2007 150.174 99.6874 150.236 101.46C150.298 103.232 151.785 104.618 153.557 104.556Z" fill="#365061"/>
<path d="M143.709 85.627C143.581 85.4838 143.396 85.4052 143.203 85.412L125.883 86.0168L122.359 86.1399L118.723 86.2668C118.526 86.2737 118.341 86.3702 118.224 86.5294C118.107 86.6887 118.067 86.8927 118.119 87.0836L121.384 99.282C121.462 99.5745 121.732 99.7728 122.034 99.7622L125.56 99.6391C125.56 99.6391 125.56 99.6391 125.563 99.639L129.081 99.5162C129.081 99.5162 129.081 99.5162 129.084 99.5161L141.446 99.0844C141.761 99.0734 142.021 98.8391 142.067 98.5297L143.867 86.1544C143.895 85.9633 143.836 85.7702 143.709 85.627ZM142.227 88.406L140.108 88.48L140.095 86.8191L142.471 86.7361L142.229 88.4059L142.227 88.406ZM133.112 98.0768L132.799 96.574L136.053 96.4604L136.306 97.9653L133.112 98.0768ZM129.561 98.2009L129.173 96.7007L131.482 96.62L131.795 98.1228L129.561 98.2009ZM126.035 98.324L125.647 96.8238L127.841 96.7472L128.229 98.2474L126.035 98.324ZM125.413 87.3318L125.839 88.9783L123.644 89.0549L123.219 87.4084L125.413 87.3318ZM129.522 87.1883L129.864 88.8377L127.17 88.9317L126.745 87.2852L129.522 87.1883ZM135.336 92.1845L131.909 92.3041L131.447 90.0835L134.96 89.9608L135.333 92.1846L135.336 92.1845ZM130.593 92.3501L128.071 92.4382L127.498 90.2214L130.13 90.1295L130.593 92.3501ZM130.863 93.6417L131.215 95.3308L128.843 95.4136L128.409 93.7274L130.865 93.6416L130.863 93.6417ZM132.18 93.5957L135.553 93.4779L135.838 95.1694L132.532 95.2848L132.18 93.5957ZM136.275 89.9149L138.819 89.826L138.837 92.0622L136.645 92.1388L136.272 89.915L136.275 89.9149ZM136.057 88.6214L135.779 86.9698L138.793 86.8645L138.806 88.5254L136.054 88.6215L136.057 88.6214ZM134.47 87.0155L134.747 88.6671L131.181 88.7917L130.839 87.1423L134.47 87.0155ZM126.171 90.2677L126.744 92.4845L124.55 92.5611L123.977 90.3443L126.171 90.2677ZM123.218 92.6076L120.959 92.6865L120.366 90.4704L122.648 90.3907L123.221 92.6075L123.218 92.6076ZM121.304 93.9755L123.551 93.8971L123.985 95.5833L121.753 95.6612L121.302 93.9756L121.304 93.9755ZM124.88 93.8506L127.074 93.774L127.509 95.4602L125.314 95.5369L124.88 93.8506ZM137.615 97.9196L137.362 96.4147L138.874 96.3619L138.887 97.8752L137.615 97.9196ZM137.147 95.1212L136.863 93.4297L138.849 93.3603L138.864 95.0612L137.147 95.1212ZM140.147 93.3175L141.518 93.2696L141.27 94.9797L140.161 95.0184L140.147 93.3175ZM141.711 91.9619L140.136 92.0168L140.118 89.7807L142.037 89.7136L141.711 91.9619ZM121.89 87.4548L122.315 89.1013L120.021 89.1814L119.581 87.5354L121.89 87.4548ZM122.101 96.9476L124.32 96.8701L124.708 98.3703L122.504 98.4473L122.101 96.9476ZM140.184 97.8299L140.171 96.3166L141.081 96.2848L140.859 97.8063L140.184 97.8299Z" fill="#4C4B4C"/>
<path d="M183.036 121.674C184.615 117.317 182.362 112.505 178.004 110.927C173.646 109.348 168.834 111.601 167.256 115.959C165.678 120.317 167.931 125.129 172.288 126.707C176.646 128.285 181.458 126.032 183.036 121.674Z" fill="white"/>
<path d="M180.525 120.765C181.601 117.794 180.065 114.513 177.095 113.437C174.124 112.361 170.843 113.898 169.767 116.868C168.691 119.839 170.227 123.12 173.198 124.196C176.169 125.272 179.449 123.736 180.525 120.765Z" fill="black"/>
<path d="M164.2 129.68L166.868 131.921L174.366 123.093C174.366 123.093 174.376 123.095 174.381 123.097C176.68 123.52 178.886 121.997 179.306 119.698C179.729 117.398 178.206 115.192 175.907 114.772C173.608 114.35 171.401 115.873 170.981 118.172C170.801 119.161 170.98 120.133 171.426 120.953L164.2 129.683L164.2 129.68Z" fill="white"/>
<path d="M169.887 128.476L163.128 128.712C161.865 128.756 160.877 129.815 160.921 131.078C160.965 132.341 162.025 133.329 163.287 133.285L170.047 133.049C171.31 133.005 172.298 131.945 172.254 130.683C172.21 129.42 171.15 128.432 169.887 128.476Z" fill="#4C4B4C"/>
<path d="M162.015 60.1001C162.015 60.1001 162.396 63.5571 161.145 64.0586C156.481 65.9254 157.243 70.6902 159.23 72.5424C159.599 72.8872 159.836 73.3694 159.855 73.9141C159.893 75.0012 159.042 75.9116 157.957 75.9495C157.415 75.9684 157.083 75.7774 156.981 75.7284L155.894 75.7663L147.4 76.063L146.467 80.4966C147.209 80.6784 147.772 81.3268 147.8 82.1289C147.801 82.1614 147.895 83.6368 146.244 83.9272C148.619 87.0318 155.478 96.0123 159.53 101.285L163.79 106.899C165.47 109.107 167.565 110.915 169.914 112.262C171.272 111.176 172.98 110.503 174.852 110.438C175.032 110.432 175.21 110.433 175.388 110.439L176.049 106.318L180.433 108.544L179.918 111.92C181.205 112.811 182.229 114.054 182.858 115.513L186.54 116.485C187.4 114.523 188.535 112.705 189.897 111.081L188.157 109.418C188.945 108.98 189.639 108.355 190.151 107.554L191.214 106.094L193.129 107.928C196.754 105.042 201.303 103.249 206.288 103.075C218.656 102.643 229.029 112.319 229.461 124.684C229.893 137.049 220.217 147.425 207.852 147.857C195.487 148.289 185.111 138.613 184.679 126.248C184.666 125.861 184.662 125.473 184.669 125.087L181.386 124.429C179.916 126.064 177.812 127.123 175.44 127.206C174.048 127.255 172.727 126.961 171.551 126.401L169.79 128.474L169.887 128.471C171.149 128.427 172.21 129.416 172.254 130.678C172.298 131.94 171.309 133 170.047 133.044L163.29 133.28C162.028 133.324 160.967 132.335 160.923 131.073C160.879 129.811 161.868 128.751 163.13 128.707L165.057 128.64L168.723 124.211C168.047 123.406 167.519 122.474 167.183 121.452C162.964 119.428 159.213 116.419 156.305 112.597L143.107 95.2633L140.981 106.454C150.056 109.06 156.838 117.26 157.185 127.206C157.617 139.573 147.941 149.947 135.576 150.378C123.211 150.81 112.833 141.142 112.401 128.774C111.969 116.407 121.645 106.033 134.01 105.602C134.792 105.574 135.566 105.587 136.328 105.641L137.553 99.2229L129.086 99.5185C129.086 99.5185 129.086 99.5185 129.084 99.5186L125.565 99.6415C125.565 99.6415 125.565 99.6415 125.563 99.6416L122.037 99.7647C121.734 99.7752 121.465 99.5745 121.387 99.2845L118.121 87.086C118.07 86.8952 118.107 86.6912 118.227 86.5319C118.344 86.3727 118.528 86.2762 118.726 86.2693L140.172 85.5203L140.451 84.0594C139.722 83.8697 139.171 83.2259 139.143 82.4337C139.11 81.4666 139.865 80.6571 140.832 80.6234L141.092 80.6143L142.015 76.256L135.385 76.4875C135.068 76.4986 134.766 76.4441 134.487 76.3388C133.99 76.1485 133.577 75.7901 133.313 75.3339C132.254 73.5144 134.018 71.9441 135.643 71.8873L154.032 71.2376L154.04 71.2424C153.277 68.3917 153.955 65.223 156.116 62.9057C157.72 61.1858 160.429 60.5258 162.023 60.1048M205.8 120.909C206.04 120.843 206.286 120.795 206.538 120.766L206.687 113.052C206.669 113.052 206.654 113.053 206.637 113.054C204.238 113.137 202.022 113.898 200.167 115.141L205.8 120.912M132.83 123.68C132.852 123.669 132.874 123.663 132.897 123.653L134.436 115.572C134.411 115.573 134.383 115.574 134.358 115.575C132.302 115.647 130.383 116.217 128.707 117.161L132.83 123.682M210.021 121.768L215.579 116.417C213.543 114.504 210.868 113.274 207.926 113.074L207.777 120.788C208.615 120.913 209.383 121.259 210.018 121.768M138.435 124.97L144.956 120.847C143.516 118.801 141.476 117.216 139.104 116.338L137.614 124.188C137.92 124.415 138.194 124.679 138.437 124.97M130.349 126.349C130.641 125.56 131.14 124.87 131.777 124.342L127.654 117.823C125.329 119.458 123.597 121.863 122.818 124.655L130.346 126.351M219.489 125.087C219.489 125.07 219.488 125.055 219.488 125.037C219.384 122.074 218.25 119.389 216.441 117.312L210.883 122.661C211.363 123.312 211.678 124.089 211.773 124.939L219.487 125.087M198.136 119.553L196.919 118.302C196.738 118.558 196.567 118.825 196.404 119.096L198.136 119.553ZM147.038 130.107C147.18 129.281 147.24 128.431 147.21 127.561C147.138 125.502 146.565 123.578 145.618 121.9L139.099 126.023C139.351 126.575 139.503 127.185 139.525 127.83C139.532 128.027 139.524 128.22 139.506 128.413L147.036 130.11M123.977 134.115L130.493 129.994C130.234 129.435 130.077 128.815 130.054 128.158C130.047 127.956 130.058 127.758 130.076 127.559L122.545 125.863C122.402 126.694 122.339 127.549 122.37 128.424C122.442 130.493 123.02 132.427 123.974 134.112M216.124 133.979C218.037 131.944 219.268 129.268 219.468 126.327L211.754 126.178C211.628 127.016 211.282 127.783 210.774 128.419L216.124 133.977M197.697 133.627L202.788 128.728L194.753 127.115C195.082 129.598 196.139 131.838 197.697 133.627ZM141.972 138.135C144.279 136.498 145.997 134.102 146.768 131.32L139.24 129.626C138.955 130.404 138.471 131.087 137.846 131.614L141.972 138.138M131.487 139.975L133.181 132.447C132.391 132.162 131.698 131.671 131.165 131.039L124.644 135.165C126.284 137.482 128.693 139.207 131.488 139.978M206.212 137.869L206.361 130.155C205.523 130.029 204.755 129.683 204.12 129.174L198.562 134.525C200.598 136.438 203.273 137.668 206.215 137.868M207.504 137.888C210.468 137.785 213.153 136.65 215.229 134.841L209.881 129.284C209.232 129.764 208.452 130.079 207.602 130.174L207.454 137.888C207.471 137.887 207.486 137.887 207.504 137.886M134.958 132.731C134.768 132.737 134.58 132.729 134.397 132.715L132.7 140.248C133.519 140.387 134.364 140.445 135.226 140.415C137.3 140.343 139.236 139.762 140.924 138.805L136.804 132.288C136.242 132.551 135.617 132.71 134.96 132.733M161.978 59.033C161.898 59.0358 161.821 59.0485 161.742 59.0688L161.556 59.1178C159.882 59.5591 157.081 60.2949 155.327 62.1751C153.284 64.3657 152.361 67.2928 152.741 70.2119L135.595 70.8181C134.241 70.8654 132.915 71.6523 132.293 72.7749C131.755 73.752 131.785 74.8518 132.379 75.8719C132.76 76.5392 133.371 77.0633 134.094 77.3383C134.515 77.4987 134.958 77.5733 135.413 77.5575L140.676 77.3737L140.194 79.6398C138.932 79.9566 138.017 81.122 138.064 82.4739C138.092 83.2736 138.45 83.9942 139.02 84.4922L118.681 85.2025C118.156 85.2208 117.675 85.4728 117.359 85.8967C117.046 86.3204 116.945 86.8569 117.08 87.3651L120.346 99.5635C120.553 100.342 121.262 100.865 122.067 100.837L125.573 100.715C125.573 100.715 125.588 100.714 125.595 100.714C125.603 100.714 125.61 100.713 125.618 100.713L129.096 100.592C129.096 100.592 129.111 100.591 129.119 100.591C129.126 100.59 129.134 100.59 129.141 100.59L136.248 100.342L135.449 104.533C134.953 104.52 134.46 104.52 133.968 104.537C121.036 104.986 110.88 115.877 111.332 128.812C111.783 141.747 122.674 151.905 135.611 151.453C148.549 151.001 158.704 140.11 158.253 127.173C158.076 122.12 156.326 117.365 153.193 113.416C150.328 109.806 146.545 107.158 142.211 105.718L143.709 97.8219L155.454 113.247C158.321 117.013 162.072 120.107 166.324 122.223C166.591 122.916 166.936 123.572 167.361 124.183L164.542 127.587L163.095 127.637C161.246 127.702 159.792 129.259 159.856 131.11C159.921 132.962 161.478 134.414 163.33 134.349L170.087 134.113C171.936 134.049 173.39 132.492 173.326 130.64C173.285 129.463 172.639 128.447 171.701 127.88L171.864 127.686C173.017 128.114 174.253 128.313 175.482 128.27C177.861 128.187 180.068 127.24 181.754 125.589L183.606 125.96C183.61 126.068 183.613 126.175 183.617 126.28C184.069 139.215 194.959 149.373 207.897 148.921C220.834 148.469 230.99 137.579 230.538 124.641C230.086 111.704 219.195 101.549 206.258 102C201.508 102.166 197.018 103.724 193.215 106.517L191.962 105.314C191.752 105.114 191.474 105.009 191.186 105.019C191.166 105.019 191.149 105.02 191.129 105.021C190.822 105.049 190.54 105.206 190.358 105.455L189.296 106.916C189.284 106.934 189.272 106.952 189.26 106.97C188.862 107.592 188.307 108.112 187.649 108.475C187.352 108.64 187.15 108.935 187.106 109.272C187.063 109.609 187.182 109.947 187.428 110.181L188.459 111.169C187.487 112.434 186.649 113.789 185.955 115.214L183.627 114.598C183.016 113.373 182.15 112.295 181.082 111.439L181.502 108.697C181.571 108.242 181.34 107.792 180.93 107.584L176.546 105.357C176.383 105.275 176.204 105.237 176.024 105.243C175.869 105.248 175.718 105.286 175.578 105.359C175.273 105.514 175.061 105.804 175.007 106.142L174.487 109.38C172.82 109.496 171.24 110.041 169.867 110.972C167.839 109.715 166.087 108.127 164.652 106.243L160.393 100.63C157.185 96.4556 152.135 89.8489 149.118 85.9035L147.909 84.3244C148.697 83.6664 148.906 82.6983 148.876 82.0738C148.846 81.1942 148.392 80.3919 147.694 79.8958L148.285 77.0979L156.776 76.8014C157.035 76.905 157.457 77.0303 158.005 77.0112C159.679 76.9528 160.993 75.5433 160.935 73.8689C160.906 73.0568 160.562 72.3057 159.97 71.7534C159.189 71.025 158.543 69.5064 158.821 68.0179C159.07 66.6882 160.015 65.6594 161.555 65.0426C162.488 64.6698 163.019 63.6304 163.128 61.9527C163.196 60.9446 163.096 60.0123 163.089 59.975C163.056 59.6659 162.889 59.3865 162.632 59.2103C162.442 59.0793 162.218 59.0146 161.99 59.0226L161.978 59.033ZM201.881 115.366C203.041 114.77 204.296 114.379 205.594 114.208L205.501 119.073L201.881 115.366ZM130.24 117.585C131.162 117.18 132.125 116.902 133.121 116.757L132.332 120.895L130.24 117.585ZM208.866 119.949L208.976 114.27C210.796 114.58 212.521 115.335 213.991 116.462L209.901 120.398C209.571 120.214 209.226 120.064 208.866 119.946L208.866 119.949ZM138.839 123.45L139.902 117.848C141.232 118.518 142.412 119.44 143.388 120.572L138.839 123.448L138.839 123.45ZM124.207 123.871C124.88 122.149 125.975 120.604 127.381 119.392L130.413 124.185C130.161 124.474 129.939 124.787 129.748 125.119L124.207 123.871ZM212.245 122.836L216.333 118.9C217.402 120.406 218.091 122.161 218.33 123.994L212.654 123.885C212.552 123.521 212.414 123.17 212.245 122.833L212.245 122.836ZM140.396 126.466L145.194 123.431C145.773 124.742 146.092 126.139 146.142 127.596C146.157 127.998 146.148 128.402 146.122 128.803L140.584 127.555C140.556 127.183 140.493 126.82 140.396 126.463L140.396 126.466ZM124.401 132.584C123.815 131.263 123.493 129.858 123.442 128.391C123.428 127.984 123.436 127.576 123.464 127.17L129 128.415C129.028 128.802 129.094 129.182 129.197 129.552L124.404 132.584L124.401 132.584ZM212.138 128.299C212.322 127.97 212.472 127.624 212.59 127.265L218.268 127.374C217.959 129.194 217.204 130.919 216.076 132.39L212.141 128.299L212.138 128.299ZM197.807 132.04C197.036 130.958 196.466 129.754 196.119 128.478L200.579 129.373L197.809 132.039L197.807 132.04ZM139.205 131.762C139.445 131.48 139.66 131.175 139.841 130.854L145.379 132.101C144.713 133.814 143.631 135.35 142.24 136.562L139.202 131.762L139.205 131.762ZM126.215 135.435L131.015 132.4C131.304 132.648 131.62 132.87 131.951 133.056L130.704 138.594C128.979 137.926 127.435 136.839 126.215 135.438L126.215 135.435ZM200.151 134.475L204.242 130.539C204.571 130.722 204.917 130.873 205.276 130.991L205.167 136.669C203.347 136.36 201.622 135.604 200.151 134.477L200.151 134.475ZM208.654 131.055C209.018 130.952 209.369 130.815 209.705 130.646L213.641 134.734C212.135 135.803 210.38 136.489 208.547 136.731L208.656 131.055L208.654 131.055ZM135.25 133.784C135.626 133.753 135.997 133.688 136.359 133.587L139.391 138.38C138.068 138.97 136.658 139.294 135.189 139.345C134.794 139.359 134.398 139.353 134.004 139.327L135.252 133.786L135.25 133.784Z" fill="black"/>
<path d="M189.696 111.771L197.813 119.041L190.4 116.901" stroke="black" stroke-width="1.07022" stroke-linecap="round" stroke-linejoin="round"/>
<path d="M195.681 109.721L200.964 115.193" stroke="black" stroke-width="1.07022" stroke-linecap="round" stroke-linejoin="round"/>
<path d="M186.844 126.11L195.729 127.849" stroke="black" stroke-width="1.07022" stroke-linecap="round" stroke-linejoin="round"/>
<path d="M135.069 109.283L133.827 115.894" stroke="black" stroke-width="1.07022" stroke-linecap="round" stroke-linejoin="round"/>
<path d="M140.889 109.843L139.511 117.117" stroke="black" stroke-width="1.07022" stroke-linecap="round" stroke-linejoin="round"/>
<path d="M168.052 124.204L170.664 121.043" stroke="black" stroke-width="1.07022" stroke-linecap="round" stroke-linejoin="round"/>
<path d="M171.793 126.946L174.324 123.98" stroke="black" stroke-width="1.07022" stroke-linecap="round" stroke-linejoin="round"/>
<path d="M171.662 21.3169L172.358 13.1635" stroke="black" stroke-width="1.07022" stroke-linecap="round" stroke-linejoin="round"/>
<path d="M189.506 55.402C184.325 57.4845 173.638 56.0412 173.638 56.0412C167.278 55.6103 161.799 60.0726 161.398 66.0063C161.017 71.6417 165.604 76.5406 171.643 76.9502C171.643 76.9502 184.259 78.8316 194.909 72.9127" fill="white"/>
<path d="M189.506 55.402C184.325 57.4845 173.638 56.0412 173.638 56.0412C167.278 55.6103 161.799 60.0726 161.398 66.0063C161.017 71.6417 165.604 76.5406 171.643 76.9502C171.643 76.9502 184.259 78.8316 194.909 72.9127" stroke="black" stroke-width="1.07022" stroke-linecap="round" stroke-linejoin="round"/>
<path d="M141.338 60.3617C141.338 60.3617 139.316 63.5874 142.083 64.8093C144.851 66.0312 146.996 61.265 146.996 61.265" fill="white"/>
<path d="M141.338 60.3617C141.338 60.3617 139.316 63.5874 142.083 64.8093C144.851 66.0312 146.996 61.265 146.996 61.265" stroke="black" stroke-width="1.07022" stroke-linecap="round" stroke-linejoin="round"/>
<path d="M178.374 90.2012L173.607 103.243C171.197 102.782 168.734 103.966 167.598 106.198C166.203 108.944 167.291 112.298 170.029 113.689L182.383 119.968C184.953 121.274 188.065 120.385 189.59 118L202.388 100.429C202.388 100.429 203.433 99.039 203.792 98.2308" fill="white"/>
<path d="M178.374 90.2012L173.607 103.243C171.197 102.782 168.734 103.966 167.598 106.198C166.203 108.944 167.291 112.298 170.029 113.689L182.383 119.968C184.953 121.274 188.065 120.385 189.59 118L202.388 100.429C202.388 100.429 203.433 99.039 203.792 98.2308" stroke="black" stroke-width="1.07022" stroke-linecap="round" stroke-linejoin="round"/>
<path d="M194.383 89.2943L193.319 98.3713L179.116 91.6189L178.774 87.9654L194.383 89.2943Z" fill="white"/>
</g>
</g>
<defs>
<clipPath id="clip0_616_1100">
<rect width="600" height="248" fill="white" transform="translate(-113)"/>
</clipPath>
<clipPath id="clip1_616_1100">
<rect width="160.64" height="126.261" fill="white" transform="translate(267.757 21.7054) rotate(23)"/>
</clipPath>
<clipPath id="clip2_616_1100">
<rect width="90.4783" height="135.512" fill="white" transform="translate(-26.5 70.2803) rotate(-25)"/>
</clipPath>
<clipPath id="clip3_616_1100">
<rect width="119.272" height="148.2" fill="white" transform="translate(106.979 4.16254) rotate(-2)"/>
</clipPath>
</defs>
</svg>
