<svg width="101" height="109" viewBox="0 0 101 109" fill="none" xmlns="http://www.w3.org/2000/svg">
<g clip-path="url(#clip0_2833_1027)">
<path d="M50.4993 99.9987C78.1132 99.9987 100.499 77.6132 100.499 49.9993C100.499 22.3855 78.1132 0 50.4993 0C22.8855 0 0.5 22.3855 0.5 49.9993C0.5 77.6132 22.8855 99.9987 50.4993 99.9987Z" fill="#48004A"/>
<path d="M22.3715 66.2432L20.7466 84.3636C29.0611 90.5285 39.3537 94.1761 50.4994 94.1761C61.6451 94.1761 71.9378 90.5285 80.2523 84.3636L78.6273 66.2432H22.3715Z" fill="white"/>
<path d="M50.4994 94.8957C39.5369 94.8957 29.1003 91.4535 20.3188 84.9419C20.1173 84.7927 20.0087 84.5494 20.0309 84.2995L21.6559 66.179C21.6886 65.8075 22 65.5236 22.3729 65.5236H78.6287C79.0015 65.5236 79.3116 65.8075 79.3456 66.179L80.9706 84.2995C80.9928 84.5494 80.8842 84.7927 80.6827 84.9419C71.9012 91.4535 61.4646 94.8957 50.5021 94.8957H50.4994ZM21.5002 84.0234C29.9638 90.1961 39.9817 93.4565 50.4994 93.4565C61.0172 93.4565 71.0351 90.1961 79.4987 84.0234L77.9693 66.9627H23.0296L21.5002 84.0234Z" fill="black"/>
<path d="M21.2961 68.4751C16.3022 70.9086 10.8909 74.6688 9.0056 82.21C6.53546 92.0919 14.3083 99.4552 24.3184 101.032C31.2473 102.124 47.1632 103.974 48.6796 94.668C51.0398 79.1773 29.0964 80.7983 29.0964 80.7983" fill="white"/>
<path d="M34.5979 102.674C31.5913 102.674 28.1543 102.365 24.2058 101.742C18.0906 100.778 12.9672 97.7831 10.149 93.5258C7.91046 90.1437 7.2733 86.1703 8.3082 82.0347C10.3584 73.8366 16.5219 70.0006 20.9807 67.8274C21.3379 67.6534 21.7684 67.8013 21.9424 68.1598C22.1164 68.5182 21.9685 68.9474 21.61 69.1214C17.0557 71.3403 11.5856 74.8532 9.70288 82.384C8.77004 86.1167 9.33786 89.695 11.3488 92.7316C13.9458 96.654 18.7134 99.4198 24.4295 100.321C28.4749 100.958 31.8504 101.236 34.662 101.237C44.5085 101.237 47.434 97.8328 47.9678 94.5541C48.495 91.0962 47.7728 88.2689 45.8221 86.1585C40.8033 80.7316 29.2638 81.5087 29.1487 81.5179C28.7522 81.5453 28.4082 81.2497 28.3781 80.8532C28.3493 80.4568 28.6463 80.1114 29.0427 80.0826C29.167 80.0735 32.1434 79.8628 35.8238 80.3652C40.8347 81.0495 44.553 82.6692 46.8753 85.1786C49.1413 87.6265 49.9865 90.8568 49.3886 94.7778C48.6743 99.1595 45.0476 101.745 38.6066 102.466C37.3611 102.606 36.0279 102.675 34.5966 102.675L34.5979 102.674Z" fill="black"/>
<path d="M79.7039 68.4751C84.6978 70.9086 90.1091 74.6688 91.9944 82.21C94.4645 92.0919 86.6917 99.4552 76.6816 101.032C69.7527 102.124 53.8368 103.974 52.3204 94.668C49.9602 79.1773 71.9036 80.7983 71.9036 80.7983" fill="white"/>
<path d="M66.4008 102.674C64.9695 102.674 63.6363 102.604 62.3908 102.464C55.9498 101.742 52.3231 99.1581 51.6101 94.7831C51.0109 90.8541 51.8574 87.6252 54.1221 85.1773C56.4444 82.6679 60.1627 81.0482 65.1736 80.3639C68.854 79.8615 71.8304 80.0721 71.9547 80.0813C72.3511 80.1101 72.6481 80.4555 72.6194 80.8519C72.5906 81.2483 72.2452 81.5453 71.8487 81.5165C71.7323 81.5074 60.1941 80.7302 55.1753 86.1572C53.2233 88.2675 52.5024 91.0949 53.0296 94.5593C53.5621 97.8328 56.4902 101.236 66.3328 101.236C69.1444 101.236 72.5199 100.958 76.5666 100.32C82.284 99.4185 87.0516 96.6527 89.6473 92.7303C91.6569 89.6949 92.2261 86.1166 91.2932 82.3827C89.4105 74.8532 83.9404 71.339 79.3861 69.1201C79.0289 68.9461 78.8797 68.5156 79.0537 68.1584C79.2278 67.8013 79.6595 67.6521 80.0154 67.8261C84.4742 69.998 90.6391 73.8353 92.6879 82.0333C93.7215 86.169 93.0856 90.1424 90.8471 93.5244C88.0276 97.7831 82.9042 100.778 76.7903 101.742C72.8418 102.365 69.4048 102.674 66.3982 102.674H66.4008Z" fill="black"/>
<path d="M77.9743 70.1678C80.8854 65.5389 82.5627 60.1171 82.5627 54.3186C82.5627 45.4978 78.6808 37.5497 72.4741 31.9448L77.1226 18.9268C77.2325 18.6207 77.3359 18.3106 77.4157 17.9953C79.0197 11.6158 75.3066 5.05454 68.939 3.18624C62.413 1.27214 55.5717 5.01006 53.6576 11.5347L50.2808 23.5858C50.273 23.5858 50.2651 23.5858 50.2586 23.5858L49.225 13.8178C49.225 13.8099 49.2224 13.8034 49.2211 13.7968C49.1949 13.5326 49.1609 13.2683 49.1138 13.0027C48.0959 7.30357 42.6506 3.5094 36.9515 4.52728L29.3252 5.89057C23.6261 6.90845 19.8319 12.3537 20.8498 18.0529C21.5995 22.2461 24.746 25.4044 28.6252 26.3778L30.0814 30.622C22.9719 36.2597 18.4412 44.7821 18.4412 54.3186C18.4412 60.1171 20.1184 65.5402 23.0295 70.1678" fill="white"/>
<path d="M77.9731 70.8521C77.8488 70.8521 77.7232 70.8181 77.6094 70.7474C77.2901 70.5459 77.1933 70.1246 77.3948 69.8041C80.3281 65.1412 81.8772 59.7862 81.8772 54.3186C81.8772 50.1071 80.9836 46.0343 79.2225 42.2113C77.5217 38.5192 75.0961 35.2353 72.0123 32.4511C71.8069 32.2653 71.7336 31.9749 71.8265 31.7145L76.475 18.6966C76.5666 18.4389 76.6713 18.134 76.7485 17.8279C77.4825 14.909 77.0638 11.8566 75.5684 9.23602C74.069 6.60888 71.6447 4.69217 68.7415 3.84044C62.5884 2.03494 56.1134 5.57268 54.3079 11.7258L50.9337 23.769C50.8513 24.0621 50.5857 24.2662 50.2809 24.2675H50.2586C50.2586 24.2675 50.2547 24.2675 50.2534 24.2675C49.9041 24.2675 49.611 24.0032 49.573 23.6552L48.5434 13.9186C48.5395 13.9002 48.5368 13.8819 48.5355 13.8636C48.5068 13.5784 48.474 13.3429 48.4348 13.1205C47.4849 7.80208 42.3837 4.24734 37.0654 5.1985L29.4391 6.56178C26.863 7.02232 24.6192 8.45887 23.1237 10.6058C21.627 12.7528 21.0566 15.3551 21.5171 17.9312C22.1948 21.7215 25.0483 24.7764 28.7862 25.7132C29.0112 25.7695 29.1918 25.9356 29.2664 26.1541L30.7225 30.3983C30.8167 30.6718 30.7278 30.9753 30.5001 31.1559C23.2677 36.8916 19.1189 45.3343 19.1189 54.3173C19.1189 59.7849 20.6693 65.1399 23.6013 69.8028C23.8028 70.122 23.7059 70.5446 23.3867 70.7461C23.0675 70.9476 22.6449 70.8508 22.4447 70.5315C19.374 65.6501 17.7517 60.0439 17.7517 54.3173C17.7517 45.0713 21.9449 36.3774 29.2729 30.3879L28.0902 26.9404C24.0095 25.7708 20.9192 22.3652 20.1695 18.1706C19.0862 12.1104 23.1368 6.2975 29.197 5.2155L36.8233 3.85222C42.8835 2.76892 48.6965 6.81952 49.7798 12.8797C49.8242 13.1283 49.8596 13.3874 49.891 13.6935V13.6974C49.8949 13.7131 49.8962 13.7275 49.8988 13.7432L50.5621 20.0206L52.993 11.3464C55.0131 4.4619 62.2482 0.508113 69.1248 2.52557C72.3695 3.47803 75.0791 5.61978 76.755 8.55568C78.4258 11.4837 78.8942 14.8946 78.0738 18.1576C77.9822 18.52 77.8645 18.8641 77.7624 19.1532L73.267 31.7446C76.3272 34.5863 78.7476 37.9121 80.4642 41.6369C82.3089 45.6391 83.2431 49.9056 83.2431 54.316C83.2431 60.0413 81.6207 65.6488 78.5501 70.5302C78.4205 70.7369 78.1981 70.8495 77.9705 70.8495L77.9731 70.8521Z" fill="black"/>
<path d="M40.3048 27.8026C34.8373 28.7891 33.9018 20.5989 33.9018 20.5989C30.2594 21.6966 27.9803 20.0193 27.3759 17.3922C26.2886 12.6599 31.9236 11.2613 31.9236 11.2613C36.6533 9.82214 41.1879 10.3023 42.9346 15.3564C42.9346 15.3564 47.1396 26.5466 40.3048 27.8026Z" fill="#9E0083"/>
<path d="M61.5128 25.7733C58.6083 25.2566 55.2551 26.4131 57.5289 20.0049C57.5289 20.0049 59.9677 9.86792 66.457 11.9115C74.2822 14.3751 67.4016 26.6499 67.4016 26.6499C65.9481 29.7324 64.3755 26.2836 61.5141 25.7747L61.5128 25.7733Z" fill="#FF7000"/>
<path d="M46.4657 53.912C45.9436 53.912 45.5917 53.8584 45.5459 53.8518C45.0828 53.7773 44.7661 53.3416 44.8407 52.8771C44.9153 52.414 45.351 52.0974 45.8154 52.1719C45.8194 52.1719 46.5573 52.2818 47.4495 52.1274C48.559 51.9351 49.3963 51.434 49.9367 50.6412C50.0845 50.424 50.3253 50.2866 50.5882 50.2709C50.8499 50.2552 51.1063 50.3625 51.279 50.5614C51.3471 50.6386 53.0387 52.5042 55.5874 52.0934C56.0518 52.0175 56.4875 52.3342 56.5621 52.7973C56.6367 53.2605 56.3214 53.6975 55.8582 53.772C53.4757 54.1567 51.6624 53.0956 50.7191 52.3459C49.3623 53.6831 47.5464 53.912 46.4644 53.912H46.4657Z" fill="black"/>
<path d="M45.3222 49.5892C46.4372 49.5892 47.341 48.5138 47.341 47.1871C47.341 45.8605 46.4372 44.785 45.3222 44.785C44.2073 44.785 43.3035 45.8605 43.3035 47.1871C43.3035 48.5138 44.2073 49.5892 45.3222 49.5892Z" fill="black"/>
<path d="M56.082 49.5029C57.1969 49.5029 58.1008 48.4275 58.1008 47.1008C58.1008 45.7742 57.1969 44.6987 56.082 44.6987C54.9671 44.6987 54.0632 45.7742 54.0632 47.1008C54.0632 48.4275 54.9671 49.5029 56.082 49.5029Z" fill="black"/>
<path d="M50.702 52.3761C51.6493 52.3761 52.4173 51.6445 52.4173 50.742C52.4173 49.8395 51.6493 49.1079 50.702 49.1079C49.7547 49.1079 48.9868 49.8395 48.9868 50.742C48.9868 51.6445 49.7547 52.3761 50.702 52.3761Z" fill="black"/>
<path d="M41.5202 43.9671C41.1107 43.9671 40.7523 43.6662 40.6908 43.2488C40.624 42.7909 40.9407 42.3644 41.3986 42.2963C42.0226 42.2021 43.7981 41.7246 44.5176 40.6557C44.7767 40.271 45.2987 40.169 45.6834 40.428C46.068 40.6871 46.1701 41.2091 45.911 41.5937C44.6275 43.5013 41.7649 43.9396 41.6445 43.9579C41.604 43.9645 41.5621 43.9671 41.5216 43.9671H41.5202Z" fill="black"/>
<path d="M59.4797 43.9671C59.4392 43.9671 59.3986 43.9645 59.3567 43.9579C59.2351 43.9396 56.3737 43.5013 55.0903 41.5937C54.8312 41.2091 54.9333 40.6871 55.3179 40.428C55.7026 40.169 56.2246 40.271 56.4836 40.6557C57.2032 41.7246 58.9786 42.2021 59.6027 42.2963C60.0606 42.3657 60.3772 42.7922 60.3092 43.2501C60.2477 43.6675 59.8892 43.9671 59.481 43.9671H59.4797Z" fill="black"/>
</g>
<defs>
<clipPath id="clip0_2833_1027">
<rect width="100" height="108.498" fill="white" transform="translate(0.5)"/>
</clipPath>
</defs>
</svg>
