<svg width="251" height="200" viewBox="0 0 251 200" fill="none" xmlns="http://www.w3.org/2000/svg">
<g clip-path="url(#clip0_2833_1242)">
<path d="M63.708 58.5273C63.708 65.135 67.9309 66.2014 73.3869 66.2014H161.277C166.733 66.2014 171.405 65.1389 171.405 58.5273V50.8299C171.405 44.2222 166.733 38.8437 161.277 38.8437H72.8673C67.4113 38.8437 63.708 44.2222 63.708 50.8299V58.5273Z" fill="#D9D9D9" stroke="black" stroke-width="1.65969" stroke-miterlimit="10"/>
<path d="M110.439 58.5273C110.439 65.135 114.662 66.2014 120.118 66.2014H204.13C209.586 66.2014 214.259 65.1389 214.259 58.5273V50.8299C214.259 44.2222 209.586 38.8437 204.13 38.8437H119.598C114.142 38.8437 110.439 44.2222 110.439 50.8299V58.5273Z" fill="#C6C5C5" stroke="black" stroke-width="1.65969" stroke-miterlimit="10"/>
<path d="M76.0044 194.373C79.824 189.949 82.2359 183.574 82.2359 176.466C82.2359 169.358 79.8201 159.667 76.0044 155.243V148.969H63.3279C52.8851 148.969 44.416 159.795 44.416 173.154C44.416 186.513 52.8812 197.34 63.3279 197.34C63.421 197.34 63.5102 197.324 63.6032 197.321H76.0044V194.377V194.373Z" fill="#3C3C3C" stroke="black" stroke-width="1.49294" stroke-miterlimit="10"/>
<path d="M76.6907 197.332C87.1355 197.332 95.6026 186.504 95.6026 173.146C95.6026 159.789 87.1355 148.961 76.6907 148.961C66.2459 148.961 57.7788 159.789 57.7788 173.146C57.7788 186.504 66.2459 197.332 76.6907 197.332Z" fill="#1E1E1E" stroke="black" stroke-width="1.49294" stroke-miterlimit="10"/>
<path d="M14.0997 73.3287H33.0814C35.0346 73.3287 36.6179 71.7454 36.6179 69.7922C36.6179 67.839 35.0346 66.2557 33.0814 66.2557H14.0997C12.1465 66.2557 10.5632 67.839 10.5632 69.7922C10.5632 71.7454 12.1465 73.3287 14.0997 73.3287Z" fill="#3C3C3C" stroke="black" stroke-width="1.65969" stroke-miterlimit="10"/>
<path d="M13.545 98.7863H9.93477L9.93477 66.2557H13.545C17.0699 66.2557 19.9355 69.1175 19.9355 72.6463L19.9355 92.3996C19.9355 95.9245 17.0738 98.7902 13.545 98.7902V98.7863Z" fill="#3C3C3C" stroke="black" stroke-width="1.65969" stroke-miterlimit="10"/>
<path d="M1.33003 91.3759C1.33003 95.4686 4.64779 98.7863 8.74046 98.7863C12.8331 98.7863 16.1509 95.4686 16.1509 91.3759L16.1509 73.6661C16.1509 69.5734 12.8331 66.2557 8.74046 66.2557C4.64779 66.2557 1.33003 69.5734 1.33003 73.6661L1.33003 91.3759Z" fill="#555656" stroke="black" stroke-width="1.65969" stroke-miterlimit="10"/>
<path d="M215.511 191.058C219.618 186.633 222.212 180.258 222.212 173.15C222.212 166.042 219.618 159.667 215.511 155.243V148.969H201.885C190.659 148.969 181.557 159.795 181.557 173.154C181.557 186.513 190.659 197.34 201.885 197.34C201.985 197.34 202.079 197.324 202.179 197.321H215.511V191.062V191.058Z" fill="#3C3C3C" stroke="black" stroke-width="1.49294" stroke-miterlimit="10"/>
<path d="M155.995 191.058C160.102 186.633 162.696 180.258 162.696 173.15C162.696 166.042 160.102 159.667 155.995 155.243V148.969H142.369C131.142 148.969 122.041 159.795 122.041 173.154C122.041 186.513 131.142 197.34 142.369 197.34C142.469 197.34 142.562 197.324 142.663 197.321H155.995V191.062V191.058Z" fill="#3C3C3C" stroke="black" stroke-width="1.49294" stroke-miterlimit="10"/>
<path d="M201.764 54.7969H37.1723C30.5607 54.7969 25.318 60.0357 25.318 66.6435L19.4509 127.269V168.916C19.4509 175.524 24.5773 181.038 31.1889 181.038H201.764C208.372 181.038 213.712 175.527 213.712 168.916V66.5232C213.712 59.9155 208.372 54.7969 201.764 54.7969Z" fill="#0088D8" stroke="black" stroke-width="1.65969" stroke-miterlimit="10"/>
<path d="M238.084 54.7969H127.214C119.366 54.7969 114.123 60.0357 114.123 66.6435L108.256 127.269V168.916C108.256 175.524 113.382 181.038 119.994 181.038H176.466C176.466 180.987 176.466 180.937 176.466 180.883L236.843 181.038C243.451 181.038 248.79 175.527 248.79 168.916V66.5232C248.79 59.9155 243.451 54.7969 238.084 54.7969Z" fill="#005FC0" stroke="black" stroke-width="1.65969" stroke-miterlimit="10"/>
<path d="M96.3432 124.535H31.0531C28.4666 124.535 26.4308 122.332 26.6324 119.753L31.6968 70.3467C31.8752 68.0395 33.8024 66.2557 36.1175 66.2557H101.408C103.994 66.2557 106.03 68.4583 105.828 71.037L100.764 120.444C100.585 122.751 98.6582 124.535 96.3432 124.535Z" fill="#A1A1A1" stroke="black" stroke-width="1.65969" stroke-miterlimit="10"/>
<path d="M77.2452 104.537C65.8872 104.537 56.6 113.367 55.8516 124.531H61.9823C62.7152 116.744 69.2687 110.652 77.2452 110.652C85.2218 110.652 91.7752 116.744 92.5081 124.531H96.3976C97.1886 124.531 97.9409 124.31 98.5924 123.922C97.5531 113.045 88.3938 104.533 77.2414 104.533L77.2452 104.537Z" fill="#7A7A7A" stroke="black" stroke-width="1.65969" stroke-miterlimit="10"/>
<path d="M101.408 66.2557H36.1177C33.8026 66.2557 31.8754 68.0356 31.697 70.3467L30.2002 84.9543H104.746L105.832 71.037C106.034 68.4583 103.994 66.2557 101.412 66.2557H101.408Z" fill="#3C3C3C" stroke="black" stroke-width="1.65969" stroke-miterlimit="10"/>
<path d="M176.171 124.535H127.486C123.55 124.535 119.226 121.863 119.571 116.616L123.414 73.383C123.67 69.4781 126.912 66.4418 130.824 66.4418H177.734C181.837 66.4418 181.286 69.7689 181.286 73.8716V117.481C181.286 120.692 179.223 123.538 176.171 124.539V124.535Z" fill="#A1A1A1" stroke="black" stroke-width="1.65969" stroke-miterlimit="10"/>
<path d="M231.026 66.4379H199.438C195.606 66.4379 192.5 69.5439 192.5 73.3753V117.597C192.5 121.429 195.606 124.535 199.438 124.535H231.026C234.857 124.535 237.963 121.429 237.963 117.597V73.3753C237.963 69.5439 234.857 66.4379 231.026 66.4379Z" fill="#A1A1A1" stroke="black" stroke-width="1.65969" stroke-miterlimit="10"/>
<path d="M177.734 66.4379H130.824C126.912 66.4379 123.666 69.4742 123.414 73.3791L122.658 84.9543H181.286V73.8677C181.286 69.7651 181.836 66.4379 177.734 66.4379Z" fill="#3C3C3C" stroke="black" stroke-width="1.65969" stroke-miterlimit="10"/>
<path d="M232.205 66.4379H198.259C195.079 66.4379 192.5 69.3424 192.5 72.9254V84.9543H237.963V72.9254C237.963 69.3424 235.385 66.4379 232.205 66.4379Z" fill="#3C3C3C" stroke="black" stroke-width="1.65969" stroke-miterlimit="10"/>
<path d="M156.736 197.332C167.962 197.332 177.063 186.504 177.063 173.146C177.063 159.789 167.962 148.961 156.736 148.961C145.509 148.961 136.408 159.789 136.408 173.146C136.408 186.504 145.509 197.332 156.736 197.332Z" fill="#1E1E1E" stroke="black" stroke-width="1.49294" stroke-miterlimit="10"/>
<path d="M156.732 187.75C151.229 187.75 146.401 180.925 146.401 173.146C146.401 165.368 151.229 158.543 156.732 158.543C162.234 158.543 167.062 165.368 167.062 173.146C167.062 180.925 162.234 187.75 156.732 187.75Z" fill="#7A7A7A" stroke="black" stroke-width="1.49294" stroke-miterlimit="10"/>
<path d="M216.252 197.332C227.478 197.332 236.579 186.504 236.579 173.146C236.579 159.789 227.478 148.961 216.252 148.961C205.025 148.961 195.924 159.789 195.924 173.146C195.924 186.504 205.025 197.332 216.252 197.332Z" fill="#1E1E1E" stroke="black" stroke-width="1.49294" stroke-miterlimit="10"/>
<path d="M216.252 187.75C210.749 187.75 205.921 180.925 205.921 173.146C205.921 165.368 210.749 158.543 216.252 158.543C221.754 158.543 226.582 165.368 226.582 173.146C226.582 180.925 221.754 187.75 216.252 187.75Z" fill="#7A7A7A" stroke="black" stroke-width="1.49294" stroke-miterlimit="10"/>
<path d="M99.4842 73.3287H130.599C132.553 73.3287 134.136 71.7454 134.136 69.7922C134.136 67.839 132.553 66.2557 130.599 66.2557H99.4842C97.531 66.2557 95.9477 67.839 95.9477 69.7922C95.9477 71.7454 97.531 73.3287 99.4842 73.3287Z" fill="#3C3C3C" stroke="black" stroke-width="1.65969" stroke-miterlimit="10"/>
<path d="M102.567 98.7863H98.9567V66.2557H102.567C106.092 66.2557 108.958 69.1175 108.958 72.6463V92.3996C108.958 95.9245 106.096 98.7902 102.567 98.7902V98.7863Z" fill="#3C3C3C" stroke="black" stroke-width="1.65969" stroke-miterlimit="10"/>
<path d="M90.352 91.3759C90.352 95.4686 93.6698 98.7863 97.7624 98.7863C101.855 98.7863 105.173 95.4686 105.173 91.3759V73.6661C105.173 69.5734 101.855 66.2557 97.7624 66.2557C93.6698 66.2557 90.352 69.5734 90.352 73.6661V91.3759Z" fill="#555656" stroke="black" stroke-width="1.65969" stroke-miterlimit="10"/>
<path d="M117.594 157.6H89.6116C86.7149 157.6 84.6364 154.816 85.4546 152.04L89.9373 136.87C90.4802 135.028 92.1748 133.764 94.0943 133.764H117.597C119.99 133.764 121.933 135.703 121.933 138.099V153.269C121.933 155.662 119.994 157.604 117.597 157.604L117.594 157.6Z" fill="#F4E700" stroke="black" stroke-width="1.65969" stroke-miterlimit="10"/>
<path d="M31.3519 152.036L26.8692 136.866C26.3263 135.024 24.6317 133.76 22.7122 133.76H19.4587V157.6H27.1949C30.0916 157.6 32.1701 154.816 31.3519 152.04V152.036Z" fill="#F4E700" stroke="black" stroke-width="1.65969" stroke-miterlimit="10"/>
<path d="M74.6976 168.889H40.5538C38.9818 168.889 37.7075 170.163 37.7075 171.735V179.867C37.7075 181.439 38.9818 182.713 40.5538 182.713H74.6976C76.2696 182.713 77.5439 181.439 77.5439 179.867V171.735C77.5439 170.163 76.2696 168.889 74.6976 168.889Z" fill="#F4E700" stroke="black" stroke-width="1.65969" stroke-miterlimit="10"/>
<path d="M75.8259 157.135H38.7505C37.7849 157.135 36.9551 156.592 36.7767 155.844L34.5431 146.564C34.3066 145.587 35.2566 144.684 36.5169 144.684H79.7541C81.1268 144.684 82.0962 145.746 81.6619 146.774L77.7299 156.053C77.4546 156.701 76.6868 157.135 75.822 157.135H75.8259Z" fill="#BFBFBF" stroke="black" stroke-width="1.65969" stroke-miterlimit="10"/>
<path d="M117.594 133.76H108.221V157.6H117.594C119.986 157.6 121.929 155.661 121.929 153.265V138.095C121.929 135.703 119.99 133.76 117.594 133.76Z" fill="#FFAE00" stroke="black" stroke-width="1.65969" stroke-miterlimit="10"/>
<path d="M248.972 96.2928C247.309 87.7307 243.788 81.6426 235.226 83.3061L234.221 83.5L233.806 81.6542C233.326 78.9475 230.743 77.1443 228.036 77.6213C225.465 78.0789 223.751 80.5296 224.209 83.1006L224.612 85.3652L210.249 88.1572C210.831 86.8039 211.343 85.4079 211.773 83.9692C215.112 72.8439 213.235 61.3502 207.527 51.9311L218.311 37.2847C218.563 36.9396 218.815 36.5867 219.032 36.2222C223.468 28.7846 221.273 19.1057 213.948 14.3399C206.445 9.45394 196.405 11.579 191.519 19.0825L182.701 32.9959C182.701 32.9959 182.682 32.992 182.67 32.9881L185.067 20.2846C185.067 20.2846 185.067 20.2652 185.067 20.2574C185.133 19.9162 185.191 19.5672 185.23 19.2143C186.102 11.6449 180.673 4.79674 173.104 3.92424L162.971 2.75703C155.402 1.88453 148.554 7.31341 147.681 14.8828C147.037 20.4552 149.81 25.6281 154.335 28.3232L154.564 34.2252C146.359 37.4902 139.34 43.2798 134.776 50.9306C133.167 53.6295 131.856 56.5611 130.917 59.6982C128.172 68.8459 128.955 78.2456 132.492 86.5324C132.434 86.5673 132.379 86.6061 132.317 86.6371C124.17 91.1974 120.808 103.668 120.808 103.668L119.567 116.616C119.222 121.867 123.546 124.535 127.482 124.535H204.789L240.589 115.29C249.604 113.537 250.721 105.309 248.969 96.2967L248.972 96.2928Z" fill="white" stroke="black" stroke-width="1.65969" stroke-linecap="round" stroke-linejoin="round"/>
<path d="M232.682 48.8171L234.586 48.4953C236.048 48.2432 237.397 48.7861 238.336 49.5772C240.243 51.1864 240.802 54.118 238.929 56.34C237.451 58.0928 235.047 58.4418 232.197 58.7985L225.31 59.6439C224.705 59.7292 224.197 59.6245 223.833 59.3181C223.468 59.0118 223.263 58.5116 223.243 57.9027L222.91 50.9732C222.778 48.0997 222.716 45.6722 224.193 43.9195C226.109 41.6471 229.099 41.7596 230.991 43.3572C231.945 44.1638 232.647 45.4086 232.659 46.8705L232.678 48.8171H232.682Z" fill="#FF7A00" stroke="black" stroke-width="1.65969" stroke-miterlimit="10"/>
<path d="M168.532 34.5392C161.265 33.7133 163.184 23.0339 163.184 23.0339C158.178 23.0378 155.937 20.0635 156.169 16.5192C156.588 10.1403 164.224 10.5087 164.224 10.5087C170.734 10.4854 176.268 12.8082 176.559 19.8386C176.559 19.8386 177.625 35.5397 168.532 34.5354V34.5392Z" fill="#9F0084"/>
<path d="M196.041 40.0107C192.574 38.2579 187.909 38.448 193.202 31.2275C193.202 31.2275 200.116 19.3693 207.523 24.4027C216.457 30.4714 203.133 43.3417 203.133 43.3417C200.132 46.6805 199.457 41.7324 196.041 40.0107Z" fill="#FF7A00"/>
<path d="M165.763 68.3612C165.763 68.3612 171.064 69.9511 172.732 67.8532C172.732 67.8532 174.395 71.5254 178.455 72.0645" stroke="black" stroke-width="2.21033" stroke-linecap="round" stroke-linejoin="round"/>
<path d="M170.064 61.6429C170.566 59.9711 169.832 58.2735 168.425 57.8511C167.018 57.4286 165.47 58.4414 164.968 60.1131C164.466 61.7848 165.2 63.4825 166.607 63.9049C168.015 64.3273 169.562 63.3146 170.064 61.6429Z" fill="black"/>
<path d="M175.115 68.0476C175.457 66.9092 174.766 65.6958 173.572 65.3374C172.378 64.9791 171.133 65.6114 170.792 66.7498C170.45 67.8882 171.141 69.1016 172.334 69.46C173.528 69.8184 174.773 69.186 175.115 68.0476Z" fill="black"/>
<path d="M184.19 63.6651L179.87 64.5182L182.732 68.0586" stroke="black" stroke-width="2.21033" stroke-linecap="round" stroke-linejoin="round"/>
</g>
<defs>
<clipPath id="clip0_2833_1242">
<rect width="250" height="200" fill="white" transform="translate(0.5)"/>
</clipPath>
</defs>
</svg>
