<svg width="109" height="80" viewBox="0 0 109 80" fill="none" xmlns="http://www.w3.org/2000/svg">
<mask id="mask0_2833_835" style="mask-type:luminance" maskUnits="userSpaceOnUse" x="6" y="0" width="96" height="80">
<path d="M102 0H6V80H102V0Z" fill="white"/>
</mask>
<g mask="url(#mask0_2833_835)">
<mask id="mask1_2833_835" style="mask-type:alpha" maskUnits="userSpaceOnUse" x="20" y="0" width="68" height="69">
<rect x="20" width="68" height="69" fill="#D9D9D9"/>
</mask>
<g mask="url(#mask1_2833_835)">
<path d="M54.07 84.66C72.13 84.66 86.77 70.62 86.77 53.31C86.77 36 72.13 21.96 54.07 21.96C36.01 21.96 21.37 36 21.37 53.31C21.37 70.62 36.01 84.66 54.07 84.66Z" fill="white"/>
<path d="M60.73 38.85C54.78 36.73 51.49 30.36 53.2 24.28L57.29 9.66999C59.24 3.00999 66.22 -0.800007 72.87 1.14999C79.36 3.04999 83.15 9.74999 81.52 16.25C81.44 16.57 81.33 16.89 81.22 17.2L76.1 31.55C73.87 37.8 66.99 41.06 60.73 38.83V38.85Z" fill="white"/>
<path d="M55.44 37.26L36.84 39.62L29.32 17.7C28.16 11.23 32.67 5.01001 39.38 3.81001C46.09 2.61001 51.62 5.53 52.77 12L55.44 37.26Z" fill="white"/>
<path d="M44.01 23.57C49.82 22.53 53.69 16.98 52.65 11.17C51.61 5.36001 46.06 1.49001 40.25 2.53001L32.47 3.92001C26.66 4.96001 22.79 10.51 23.83 16.32C24.87 22.13 30.42 26 36.23 24.96L44.01 23.57Z" fill="white"/>
<path d="M43.67 26.27C38.09 27.28 37.14 18.92 37.14 18.92C33.42 20.04 31.1 18.33 30.48 15.65C29.37 10.82 35.12 9.40002 35.12 9.40002C39.94 7.93002 44.57 8.42002 46.35 13.58C46.35 13.58 50.64 24.99 43.67 26.27Z" fill="#9F0084"/>
<path d="M65.3 24.2C62.34 23.67 58.92 24.85 61.24 18.32C61.24 18.32 63.73 7.97997 70.34 10.07C78.32 12.58 71.3 25.1 71.3 25.1C69.82 28.25 68.22 24.73 65.3 24.21V24.2Z" fill="#FF7A00"/>
<path d="M48.79 54.6C49.93 54.6 50.85 53.5 50.85 52.15C50.85 50.8 49.93 49.7 48.79 49.7C47.65 49.7 46.73 50.8 46.73 52.15C46.73 53.5 47.65 54.6 48.79 54.6Z" fill="black"/>
<path d="M59.76 54.51C60.9 54.51 61.82 53.41 61.82 52.06C61.82 50.71 60.9 49.61 59.76 49.61C58.62 49.61 57.7 50.71 57.7 52.06C57.7 53.41 58.62 54.51 59.76 54.51Z" fill="black"/>
<path d="M52.07 58.37C51.84 61.21 53.01 62.14 54.56 62C56.11 61.86 56.64 60.8 57.16 57.95L54.62 56.77L52.08 58.36L52.07 58.37Z" fill="#D25540"/>
<path d="M49.15 58.09C49.15 58.09 53.44 58.09 54.21 56.16C54.21 56.16 56.26 58.52 59.4 58.01" stroke="black" stroke-width="1.71" stroke-linecap="round" stroke-linejoin="round"/>
<path d="M54.27 57.44C55.24 57.44 56.02 56.69 56.02 55.77C56.02 54.85 55.24 54.1 54.27 54.1C53.3 54.1 52.52 54.85 52.52 55.77C52.52 56.69 53.3 57.44 54.27 57.44Z" fill="black"/>
<path d="M51.91 58.5C51.91 58.5 51.8 61.85 54.16 62.01C56.52 62.17 56.98 59.89 57.3 57.96" stroke="black" stroke-width="1.29" stroke-linecap="round" stroke-linejoin="round"/>
<path d="M52.95 65.08C52.95 65.08 54.19 65.7 56.17 65.08" stroke="black" stroke-width="1.29" stroke-linecap="round" stroke-linejoin="round"/>
<path d="M76.48 30.48L81.22 17.21C81.33 16.9 81.44 16.58 81.52 16.26C83.16 9.75 79.37 3.06 72.87 1.16C66.22 -0.789998 59.24 3.02 57.29 9.68L53.85 21.97H53.83L52.78 12.01V11.99C52.75 11.72 52.72 11.45 52.67 11.18C51.63 5.37 46.08 1.5 40.27 2.54L32.49 3.93C26.68 4.97 22.81 10.52 23.85 16.33C24.61 20.61 27.82 23.83 31.78 24.82L33.27 29.15C26.02 34.9 21.4 43.59 21.4 53.32C21.4 70.63 36.04 84.67 54.1 84.67C72.16 84.67 86.8 70.63 86.8 53.32C86.8 44.32 82.84 36.21 76.51 30.49L76.48 30.48Z" stroke="black" stroke-width="1.29" stroke-linecap="round" stroke-linejoin="round"/>
</g>
<mask id="mask2_2833_835" style="mask-type:luminance" maskUnits="userSpaceOnUse" x="34" y="35" width="41" height="34">
<path d="M74.14 69H34.14V35.78H74.14V69Z" fill="white"/>
</mask>
<g mask="url(#mask2_2833_835)">
<g opacity="0.1">
<path d="M73.14 65.28H35.14V75.73H73.14V65.28Z" fill="url(#paint0_linear_2833_835)"/>
</g>
</g>
<path d="M82.14 59.39H93.35C97.44 59.39 100.75 62.71 100.75 66.79C100.75 73.63 95.2 79.18 88.36 79.18H85.06C78.79 79.18 73.7 74.09 73.7 67.82C73.7 63.16 77.48 59.38 82.13 59.38L82.14 59.39Z" fill="white" stroke="black" stroke-width="1.29" stroke-linecap="round" stroke-linejoin="round"/>
<path d="M23.08 79.19H19.78C12.94 79.19 7.39 73.64 7.39 66.8C7.39 62.71 10.71 59.4 14.79 59.4H26C30.66 59.4 34.43 63.18 34.43 67.83C34.43 74.1 29.34 79.19 23.07 79.19H23.08Z" fill="white" stroke="black" stroke-width="1.29" stroke-linecap="round" stroke-linejoin="round"/>
</g>
<defs>
<linearGradient id="paint0_linear_2833_835" x1="54.14" y1="65.28" x2="54.14" y2="75.72" gradientUnits="userSpaceOnUse">
<stop stop-color="white"/>
<stop offset="1"/>
</linearGradient>
</defs>
</svg>
